<svg width="15" height="15" viewBox="0 0 15 15" fill="none" xmlns="http://www.w3.org/2000/svg">
<path d="M1.42191 14.9867C1.05416 15.0083 0.692488 14.8846 0.413162 14.6417C-0.137721 14.0811 -0.137721 13.1757 0.413162 12.615L12.4757 0.412023C13.0487 -0.130364 13.9478 -0.100213 14.4839 0.479425C14.9687 1.00359 14.997 1.80924 14.5501 2.36682L2.41644 14.6417C2.14072 14.8811 1.78485 15.0045 1.42191 14.9867Z" fill="#F44336"/>
<path d="M13.4704 14.9922C13.0977 14.9905 12.7405 14.8409 12.4759 14.5753L0.413263 2.37227C-0.097103 1.76935 -0.0277161 0.861978 0.568272 0.345624C1.10021 -0.115208 1.88471 -0.115208 2.41659 0.345624L14.5502 12.5486C15.1231 13.0912 15.1527 14.0008 14.6164 14.5803C14.5951 14.6033 14.573 14.6256 14.5502 14.6472C14.2531 14.9086 13.8621 15.0335 13.4704 14.9922Z" fill="#F44336"/>
</svg>
