<svg width="30" height="30" viewBox="0 0 30 30" fill="none" xmlns="http://www.w3.org/2000/svg">
<path d="M17.9259 24.1374C15.2445 24.1375 12.6397 23.2428 10.5243 21.5951L2.54331 29.5761C1.9471 30.1519 0.997078 30.1354 0.42128 29.5392C-0.140413 28.9576 -0.140413 28.0356 0.42128 27.4541L8.40224 19.4731C4.31361 14.2099 5.26571 6.62881 10.5289 2.54018C15.7921 -1.54846 23.3731 -0.596354 27.4618 4.66682C31.5504 9.93 30.5983 17.5111 25.3351 21.5998C23.2162 23.2458 20.6091 24.1388 17.9259 24.1374ZM24.3385 5.65877C20.7969 2.11707 15.0548 2.11701 11.5131 5.65864C7.9714 9.20027 7.97133 14.9424 11.513 18.4841C15.0546 22.0258 20.7967 22.0259 24.3384 18.4842C24.3385 18.4842 24.3385 18.4842 24.3385 18.4841C27.8802 14.9683 27.901 9.24708 24.3852 5.70544C24.3697 5.68984 24.3541 5.67431 24.3385 5.65877Z" fill="#393333"/>
</svg>
