<svg width="50" height="50" viewBox="0 0 50 50" fill="none" xmlns="http://www.w3.org/2000/svg">
<path d="M35.6016 46.0607C35.4502 46.0607 35.3031 46.0099 35.1841 45.9164C35.065 45.8228 34.9808 45.692 34.945 45.545C34.9091 45.3979 34.9237 45.243 34.9864 45.1052C35.0491 44.9674 35.1563 44.8546 35.2908 44.785C35.8185 44.5147 36.3637 44.1985 36.9583 43.8255C37.1106 43.7304 37.2945 43.6996 37.4695 43.7401C37.6445 43.7805 37.7963 43.8888 37.8914 44.0411C37.9866 44.1934 38.0173 44.3773 37.9769 44.5523C37.9365 44.7273 37.8282 44.879 37.6759 44.9742C37.0495 45.3661 36.4718 45.6978 35.911 45.9877C35.8151 46.0363 35.7091 46.0613 35.6016 46.0607Z" fill="#393333"/>
<path d="M24.9996 48.6485C19.8303 48.6424 14.8057 46.9408 10.6964 43.8046C6.58718 40.6684 3.62019 36.2708 2.25051 31.2862C0.88083 26.3017 1.1841 21.0055 3.1138 16.2099C5.0435 11.4142 8.49308 7.38404 12.9335 4.73739C17.3738 2.09075 22.5598 0.973798 27.696 1.55785C32.8322 2.14191 37.635 4.39472 41.3678 7.97077C45.1006 11.5468 47.5572 16.2486 48.3609 21.3551C49.1646 26.4615 48.271 31.6906 45.8171 36.2404C45.7319 36.3981 45.5876 36.5155 45.4158 36.5667C45.244 36.618 45.059 36.5989 44.9013 36.5137C44.7436 36.4285 44.6262 36.2841 44.5749 36.1123C44.5237 35.9406 44.5428 35.7555 44.628 35.5978C46.9495 31.3023 47.7974 26.3636 47.0414 21.5397C46.2853 16.7158 43.9673 12.2733 40.4428 8.89392C36.9184 5.51456 32.3825 3.38512 27.5311 2.83239C22.6797 2.27965 17.781 3.33418 13.5867 5.83412C9.3925 8.33407 6.13449 12.1413 4.31274 16.6715C2.491 21.2017 2.20617 26.2045 3.50197 30.9122C4.79778 35.6199 7.60262 39.7723 11.486 42.7321C15.3694 45.692 20.1168 47.2957 24.9996 47.2971C26.9591 47.3007 28.9103 47.0428 30.8016 46.5302C30.9745 46.4831 31.1591 46.5066 31.3147 46.5956C31.4703 46.6845 31.5842 46.8316 31.6313 47.0046C31.6785 47.1775 31.655 47.3621 31.566 47.5177C31.4771 47.6733 31.3299 47.7872 31.157 47.8343C29.1499 48.3785 27.0791 48.6523 24.9996 48.6485Z" fill="#393333"/>
<path d="M41.0273 42.1348C40.8927 42.1352 40.761 42.0954 40.6492 42.0204C40.5373 41.9455 40.4504 41.8389 40.3996 41.7142C40.3488 41.5896 40.3364 41.4526 40.3639 41.3208C40.3915 41.189 40.4578 41.0685 40.5543 40.9747C41.0374 40.5017 41.4915 40.0226 41.9056 39.5402C42.0221 39.404 42.1879 39.3197 42.3666 39.3057C42.5453 39.2918 42.7222 39.3494 42.8583 39.4659C42.9945 39.5824 43.0789 39.7482 43.0928 39.9268C43.1068 40.1055 43.0492 40.2824 42.9327 40.4186C42.4935 40.9321 42.011 41.4449 41.4982 41.9436C41.3721 42.0662 41.2032 42.1348 41.0273 42.1348Z" fill="#393333"/>
<path d="M24.9995 43.6655C21.3078 43.6655 17.699 42.5708 14.6295 40.5198C11.56 38.4688 9.16757 35.5536 7.75482 32.143C6.34207 28.7323 5.97243 24.9793 6.69265 21.3585C7.41286 17.7377 9.19058 14.4119 11.801 11.8014C14.4114 9.19102 17.7373 7.41329 21.3581 6.69308C24.9788 5.97287 28.7318 6.34251 32.1425 7.75526C35.5532 9.16801 38.4684 11.5604 40.5194 14.63C42.5704 17.6995 43.6651 21.3083 43.6651 25C43.6594 29.9486 41.691 34.693 38.1917 38.1922C34.6925 41.6914 29.9482 43.6598 24.9995 43.6655ZM24.9995 7.68578C21.5751 7.68578 18.2276 8.70124 15.3803 10.6037C12.533 12.5063 10.3138 15.2104 9.00331 18.3741C7.69284 21.5379 7.34996 25.0192 8.01803 28.3778C8.6861 31.7364 10.3351 34.8215 12.7566 37.243C15.178 39.6644 18.2631 41.3134 21.6217 41.9815C24.9803 42.6495 28.4616 42.3067 31.6254 40.9962C34.7891 39.6857 37.4932 37.4665 39.3958 34.6192C41.2983 31.7719 42.3137 28.4244 42.3137 25C42.3085 20.4096 40.4827 16.0086 37.2368 12.7627C33.9909 9.5168 29.59 7.69097 24.9995 7.68578Z" fill="#393333"/>
<path d="M24.9996 36.8244C24.3724 36.8244 23.7709 36.5753 23.3274 36.1318C22.8839 35.6883 22.6348 35.0868 22.6348 34.4596V22.9731C22.6348 22.3459 22.8839 21.7444 23.3274 21.3009C23.7709 20.8574 24.3724 20.6082 24.9996 20.6082C25.6268 20.6082 26.2283 20.8574 26.6718 21.3009C27.1153 21.7444 27.3645 22.3459 27.3645 22.9731V34.4596C27.3645 35.0868 27.1153 35.6883 26.6718 36.1318C26.2283 36.5753 25.6268 36.8244 24.9996 36.8244ZM24.9996 21.9596C24.7308 21.9596 24.473 22.0663 24.283 22.2564C24.0929 22.4465 23.9861 22.7043 23.9861 22.9731V34.4596C23.9861 34.7284 24.0929 34.9862 24.283 35.1762C24.473 35.3663 24.7308 35.4731 24.9996 35.4731C25.2684 35.4731 25.5262 35.3663 25.7163 35.1762C25.9064 34.9862 26.0131 34.7284 26.0131 34.4596V22.9731C26.0131 22.7043 25.9064 22.4465 25.7163 22.2564C25.5262 22.0663 25.2684 21.9596 24.9996 21.9596Z" fill="#393333"/>
<path d="M24.9996 18.5812C24.465 18.5812 23.9425 18.4227 23.498 18.1257C23.0536 17.8287 22.7072 17.4066 22.5026 16.9127C22.298 16.4189 22.2445 15.8755 22.3488 15.3512C22.4531 14.8269 22.7105 14.3453 23.0885 13.9674C23.4665 13.5894 23.948 13.332 24.4723 13.2277C24.9966 13.1234 25.54 13.1769 26.0339 13.3815C26.5277 13.5861 26.9498 13.9325 27.2468 14.3769C27.5438 14.8214 27.7023 15.3439 27.7023 15.8785C27.7023 16.5953 27.4175 17.2827 26.9107 17.7896C26.4038 18.2964 25.7164 18.5812 24.9996 18.5812ZM24.9996 14.5271C24.7323 14.5271 24.471 14.6064 24.2488 14.7549C24.0266 14.9033 23.8534 15.1144 23.7511 15.3613C23.6488 15.6082 23.6221 15.88 23.6742 16.1421C23.7263 16.4042 23.855 16.645 24.044 16.834C24.233 17.023 24.4738 17.1517 24.7359 17.2038C24.9981 17.256 25.2698 17.2292 25.5167 17.1269C25.7636 17.0247 25.9747 16.8515 26.1232 16.6292C26.2717 16.407 26.3509 16.1457 26.3509 15.8785C26.3509 15.5201 26.2086 15.1763 25.9551 14.9229C25.7017 14.6695 25.358 14.5271 24.9996 14.5271Z" fill="#393333"/>
</svg>
