<svg width="50" height="50" viewBox="0 0 50 50" fill="none" xmlns="http://www.w3.org/2000/svg">
<g opacity="0.4">
<path d="M47.9732 48.6486H2.02724C1.84804 48.6486 1.67618 48.5774 1.54946 48.4507C1.42275 48.324 1.35156 48.1521 1.35156 47.9729V2.02697C1.35156 1.84777 1.42275 1.67591 1.54946 1.5492C1.67618 1.42248 1.84804 1.3513 2.02724 1.3513H47.9732C48.1524 1.3513 48.3242 1.42248 48.451 1.5492C48.5777 1.67591 48.6489 1.84777 48.6489 2.02697V20.2702C48.6489 20.4494 48.5777 20.6213 48.451 20.748C48.3242 20.8747 48.1524 20.9459 47.9732 20.9459C47.794 20.9459 47.6221 20.8747 47.4954 20.748C47.3687 20.6213 47.2975 20.4494 47.2975 20.2702V2.70265H2.70291V47.2972H47.2975V29.7297C47.2975 29.5505 47.3687 29.3786 47.4954 29.2519C47.6221 29.1252 47.794 29.054 47.9732 29.054C48.1524 29.054 48.3242 29.1252 48.451 29.2519C48.5777 29.3786 48.6489 29.5505 48.6489 29.7297V47.9729C48.6489 48.1521 48.5777 48.324 48.451 48.4507C48.3242 48.5774 48.1524 48.6486 47.9732 48.6486Z" fill="#393333"/>
<path d="M47.9726 26.4865C47.7934 26.4865 47.6215 26.4153 47.4948 26.2886C47.3681 26.1619 47.2969 25.99 47.2969 25.8108V24.1892C47.2969 24.01 47.3681 23.8382 47.4948 23.7114C47.6215 23.5847 47.7934 23.5135 47.9726 23.5135C48.1518 23.5135 48.3236 23.5847 48.4503 23.7114C48.577 23.8382 48.6482 24.01 48.6482 24.1892V25.8108C48.6482 25.99 48.577 26.1619 48.4503 26.2886C48.3236 26.4153 48.1518 26.4865 47.9726 26.4865Z" fill="#393333"/>
<path d="M33.7834 48.6486H16.8915C16.7123 48.6486 16.5404 48.5774 16.4137 48.4507C16.287 48.324 16.2158 48.1521 16.2158 47.9729V2.02697C16.2158 1.84777 16.287 1.67591 16.4137 1.5492C16.5404 1.42248 16.7123 1.3513 16.8915 1.3513H33.7834C33.9626 1.3513 34.1344 1.42248 34.2612 1.5492C34.3879 1.67591 34.4591 1.84777 34.4591 2.02697V47.9729C34.4591 48.1521 34.3879 48.324 34.2612 48.4507C34.1344 48.5774 33.9626 48.6486 33.7834 48.6486ZM17.5672 47.2972H33.1077V2.70265H17.5672V47.2972Z" fill="#393333"/>
<path d="M47.9726 26.4865C47.7934 26.4865 47.6215 26.4153 47.4948 26.2886C47.3681 26.1619 47.2969 25.99 47.2969 25.8108V24.1892C47.2969 24.01 47.3681 23.8382 47.4948 23.7114C47.6215 23.5847 47.7934 23.5135 47.9726 23.5135C48.1518 23.5135 48.3236 23.5847 48.4503 23.7114C48.577 23.8382 48.6482 24.01 48.6482 24.1892V25.8108C48.6482 25.99 48.577 26.1619 48.4503 26.2886C48.3236 26.4153 48.1518 26.4865 47.9726 26.4865Z" fill="#393333"/>
<path d="M47.9732 33.7836H2.02724C1.84804 33.7836 1.67618 33.7124 1.54946 33.5857C1.42275 33.459 1.35156 33.2872 1.35156 33.108V16.8918C1.35156 16.7126 1.42275 16.5407 1.54946 16.414C1.67618 16.2873 1.84804 16.2161 2.02724 16.2161H47.9732C48.1524 16.2161 48.3242 16.2873 48.451 16.414C48.5777 16.5407 48.6489 16.7126 48.6489 16.8918V20.2701C48.6489 20.4493 48.5777 20.6212 48.451 20.7479C48.3242 20.8746 48.1524 20.9458 47.9732 20.9458C47.794 20.9458 47.6221 20.8746 47.4954 20.7479C47.3687 20.6212 47.2975 20.4493 47.2975 20.2701V17.5674H2.70291V32.4323H47.2975V29.7296C47.2975 29.5504 47.3687 29.3785 47.4954 29.2518C47.6221 29.1251 47.794 29.0539 47.9732 29.0539C48.1524 29.0539 48.3242 29.1251 48.451 29.2518C48.5777 29.3785 48.6489 29.5504 48.6489 29.7296V33.108C48.6489 33.2872 48.5777 33.459 48.451 33.5857C48.3242 33.7124 48.1524 33.7836 47.9732 33.7836Z" fill="#393333"/>
<path d="M38.5984 12.1623C38.4648 12.1623 38.3342 12.1226 38.2231 12.0484C38.112 11.9742 38.0254 11.8686 37.9743 11.7452C37.9231 11.6217 37.9098 11.4859 37.9358 11.3549C37.9619 11.2238 38.0262 11.1034 38.1207 11.0089L42.8504 6.27921C42.9127 6.21468 42.9873 6.1632 43.0697 6.12779C43.1522 6.09238 43.2408 6.07374 43.3306 6.07296C43.4203 6.07218 43.5092 6.08928 43.5923 6.12325C43.6753 6.15723 43.7508 6.2074 43.8142 6.27084C43.8776 6.33428 43.9278 6.40972 43.9618 6.49276C43.9958 6.5758 44.0129 6.66477 44.0121 6.75448C44.0113 6.8442 43.9927 6.93286 43.9572 7.0153C43.9218 7.09773 43.8704 7.17229 43.8058 7.23462L39.0761 11.9643C38.9494 12.0911 38.7776 12.1623 38.5984 12.1623Z" fill="#393333"/>
<path d="M43.3278 12.162C43.1486 12.162 42.9767 12.0907 42.8501 11.964L38.1203 7.23429C37.9973 7.10686 37.9292 6.93618 37.9307 6.75902C37.9322 6.58186 38.0033 6.41239 38.1286 6.28712C38.2538 6.16184 38.4233 6.09078 38.6005 6.08924C38.7776 6.0877 38.9483 6.15581 39.0757 6.27889L43.8055 11.0086C43.8999 11.1031 43.9643 11.2235 43.9903 11.3545C44.0164 11.4856 44.003 11.6214 43.9519 11.7449C43.9007 11.8683 43.8142 11.9738 43.7031 12.0481C43.592 12.1223 43.4614 12.162 43.3278 12.162Z" fill="#393333"/>
<path d="M23.6066 28.2799C23.5177 28.28 23.4298 28.2625 23.3477 28.2285C23.2656 28.1946 23.191 28.1447 23.1282 28.0819L20.7072 25.661C20.5842 25.5335 20.5161 25.3629 20.5176 25.1857C20.5191 25.0085 20.5902 24.8391 20.7155 24.7138C20.8408 24.5885 21.0102 24.5175 21.1874 24.5159C21.3645 24.5144 21.5352 24.5825 21.6627 24.7056L23.6066 26.6488L28.3363 21.9191C28.4637 21.796 28.6344 21.7279 28.8116 21.7294C28.9887 21.731 29.1582 21.802 29.2835 21.9273C29.4088 22.0526 29.4798 22.222 29.4814 22.3992C29.4829 22.5764 29.4148 22.747 29.2917 22.8745L24.0836 28.0826C23.957 28.2089 23.7854 28.2799 23.6066 28.2799Z" fill="#393333"/>
<path d="M7.39075 12.4012C7.30191 12.4013 7.21394 12.3838 7.13185 12.3498C7.04976 12.3159 6.97518 12.266 6.91237 12.2032L4.49143 9.78227C4.36835 9.65484 4.30024 9.48416 4.30178 9.307C4.30332 9.12984 4.37438 8.96037 4.49966 8.8351C4.62493 8.70982 4.7944 8.63876 4.97156 8.63722C5.14872 8.63568 5.3194 8.70379 5.44683 8.82686L7.39075 10.7701L12.1205 6.04038C12.2479 5.9173 12.4186 5.84919 12.5958 5.85073C12.7729 5.85227 12.9424 5.92333 13.0677 6.04861C13.1929 6.17389 13.264 6.34335 13.2655 6.52051C13.2671 6.69767 13.199 6.86835 13.0759 6.99578L7.86778 12.2039C7.74115 12.3302 7.56961 12.4012 7.39075 12.4012Z" fill="#393333"/>
<path d="M6.75659 28.0407C6.62297 28.0407 6.49236 28.001 6.38128 27.9268C6.27019 27.8525 6.18361 27.747 6.13248 27.6236C6.08135 27.5001 6.06797 27.3643 6.09403 27.2332C6.12009 27.1022 6.18442 26.9818 6.27888 26.8873L11.0086 22.1576C11.1361 22.0345 11.3067 21.9664 11.4839 21.9679C11.661 21.9695 11.8305 22.0405 11.9558 22.1658C12.0811 22.2911 12.1521 22.4606 12.1537 22.6377C12.1552 22.8149 12.0871 22.9856 11.964 23.113L7.23429 27.8427C7.10761 27.9695 6.93577 28.0407 6.75659 28.0407Z" fill="#393333"/>
<path d="M11.4869 28.0407C11.3078 28.0407 11.1359 27.9695 11.0092 27.8427L6.27951 23.113C6.15643 22.9856 6.08833 22.8149 6.08987 22.6377C6.09141 22.4606 6.16247 22.2911 6.28774 22.1658C6.41302 22.0405 6.58249 21.9695 6.75965 21.9679C6.93681 21.9664 7.10748 22.0345 7.23492 22.1576L11.9646 26.8873C12.0591 26.9818 12.1234 27.1022 12.1495 27.2332C12.1756 27.3643 12.1622 27.5001 12.111 27.6236C12.0599 27.747 11.9733 27.8525 11.8623 27.9268C11.7512 28.001 11.6206 28.0407 11.4869 28.0407Z" fill="#393333"/>
<path d="M22.9734 43.5812C22.8398 43.5811 22.7092 43.5415 22.5981 43.4672C22.487 43.393 22.4004 43.2875 22.3493 43.164C22.2981 43.0406 22.2848 42.9047 22.3108 42.7737C22.3369 42.6426 22.4012 42.5223 22.4957 42.4278L27.2254 37.698C27.3528 37.575 27.5235 37.5068 27.7007 37.5084C27.8778 37.5099 28.0473 37.581 28.1726 37.7063C28.2979 37.8315 28.3689 38.001 28.3705 38.1782C28.372 38.3553 28.3039 38.526 28.1808 38.6534L23.4511 43.3832C23.3244 43.5099 23.1526 43.5811 22.9734 43.5812Z" fill="#393333"/>
<path d="M27.7028 43.5812C27.5236 43.5811 27.3518 43.5099 27.2251 43.3832L22.4953 38.6534C22.3723 38.526 22.3042 38.3553 22.3057 38.1782C22.3072 38.001 22.3783 37.8315 22.5036 37.7063C22.6288 37.581 22.7983 37.5099 22.9755 37.5084C23.1526 37.5068 23.3233 37.575 23.4507 37.698L28.1805 42.4278C28.2749 42.5223 28.3393 42.6426 28.3653 42.7737C28.3914 42.9047 28.378 43.0406 28.3269 43.164C28.2758 43.2875 28.1892 43.393 28.0781 43.4672C27.967 43.5415 27.8364 43.5811 27.7028 43.5812Z" fill="#393333"/>
</g>
</svg>
