<svg width="50" height="50" viewBox="0 0 50 50" fill="none" xmlns="http://www.w3.org/2000/svg">
<path d="M47.973 48.6486H2.02706C1.84785 48.6486 1.67599 48.5774 1.54928 48.4507C1.42257 48.324 1.35138 48.1521 1.35138 47.9729V2.02698C1.35138 1.84778 1.42257 1.67592 1.54928 1.5492C1.67599 1.42249 1.84785 1.3513 2.02706 1.3513H47.973C48.1522 1.3513 48.3241 1.42249 48.4508 1.5492C48.5775 1.67592 48.6487 1.84778 48.6487 2.02698V20.2702C48.6487 20.4494 48.5775 20.6213 48.4508 20.748C48.3241 20.8747 48.1522 20.9459 47.973 20.9459C47.7938 20.9459 47.6219 20.8747 47.4952 20.748C47.3685 20.6213 47.2973 20.4494 47.2973 20.2702V2.70265H2.70273V47.2973H47.2973V29.7297C47.2973 29.5505 47.3685 29.3786 47.4952 29.2519C47.6219 29.1252 47.7938 29.054 47.973 29.054C48.1522 29.054 48.3241 29.1252 48.4508 29.2519C48.5775 29.3786 48.6487 29.5505 48.6487 29.7297V47.9729C48.6487 48.1521 48.5775 48.324 48.4508 48.4507C48.3241 48.5774 48.1522 48.6486 47.973 48.6486Z" fill="#393333"/>
<path d="M47.973 26.4865C47.7938 26.4865 47.6219 26.4153 47.4952 26.2886C47.3685 26.1619 47.2973 25.99 47.2973 25.8108V24.1892C47.2973 24.01 47.3685 23.8382 47.4952 23.7114C47.6219 23.5847 47.7938 23.5135 47.973 23.5135C48.1522 23.5135 48.324 23.5847 48.4508 23.7114C48.5775 23.8382 48.6487 24.01 48.6487 24.1892V25.8108C48.6487 25.99 48.5775 26.1619 48.4508 26.2886C48.324 26.4153 48.1522 26.4865 47.973 26.4865Z" fill="#393333"/>
<path d="M33.7838 48.6486H16.8919C16.7127 48.6486 16.5408 48.5774 16.4141 48.4507C16.2874 48.324 16.2162 48.1521 16.2162 47.9729V2.02698C16.2162 1.84778 16.2874 1.67592 16.4141 1.5492C16.5408 1.42249 16.7127 1.3513 16.8919 1.3513H33.7838C33.963 1.3513 34.1348 1.42249 34.2615 1.5492C34.3882 1.67592 34.4594 1.84778 34.4594 2.02698V47.9729C34.4594 48.1521 34.3882 48.324 34.2615 48.4507C34.1348 48.5774 33.963 48.6486 33.7838 48.6486ZM17.5675 47.2973H33.1081V2.70265H17.5675V47.2973Z" fill="#393333"/>
<path d="M47.973 26.4865C47.7938 26.4865 47.6219 26.4153 47.4952 26.2886C47.3685 26.1619 47.2973 25.99 47.2973 25.8108V24.1892C47.2973 24.01 47.3685 23.8382 47.4952 23.7114C47.6219 23.5847 47.7938 23.5135 47.973 23.5135C48.1522 23.5135 48.324 23.5847 48.4508 23.7114C48.5775 23.8382 48.6487 24.01 48.6487 24.1892V25.8108C48.6487 25.99 48.5775 26.1619 48.4508 26.2886C48.324 26.4153 48.1522 26.4865 47.973 26.4865Z" fill="#393333"/>
<path d="M47.973 33.7836H2.02706C1.84785 33.7836 1.67599 33.7124 1.54928 33.5857C1.42257 33.459 1.35138 33.2872 1.35138 33.108V16.8918C1.35138 16.7126 1.42257 16.5407 1.54928 16.414C1.67599 16.2873 1.84785 16.2161 2.02706 16.2161H47.973C48.1522 16.2161 48.3241 16.2873 48.4508 16.414C48.5775 16.5407 48.6487 16.7126 48.6487 16.8918V20.2701C48.6487 20.4493 48.5775 20.6212 48.4508 20.7479C48.3241 20.8746 48.1522 20.9458 47.973 20.9458C47.7938 20.9458 47.6219 20.8746 47.4952 20.7479C47.3685 20.6212 47.2973 20.4493 47.2973 20.2701V17.5674H2.70273V32.4323H47.2973V29.7296C47.2973 29.5504 47.3685 29.3785 47.4952 29.2518C47.6219 29.1251 47.7938 29.0539 47.973 29.0539C48.1522 29.0539 48.3241 29.1251 48.4508 29.2518C48.5775 29.3785 48.6487 29.5504 48.6487 29.7296V33.108C48.6487 33.2872 48.5775 33.459 48.4508 33.5857C48.3241 33.7124 48.1522 33.7836 47.973 33.7836Z" fill="#393333"/>
<path d="M38.598 12.1623C38.4643 12.1623 38.3337 12.1226 38.2226 12.0484C38.1116 11.9742 38.025 11.8686 37.9738 11.7452C37.9227 11.6217 37.9093 11.4859 37.9354 11.3549C37.9615 11.2238 38.0258 11.1034 38.1203 11.0089L42.85 6.27921C42.9123 6.21468 42.9869 6.1632 43.0693 6.12779C43.1517 6.09238 43.2404 6.07374 43.3301 6.07296C43.4198 6.07218 43.5088 6.08928 43.5919 6.12325C43.6749 6.15723 43.7503 6.2074 43.8138 6.27084C43.8772 6.33428 43.9274 6.40972 43.9614 6.49276C43.9953 6.5758 44.0124 6.66477 44.0116 6.75448C44.0109 6.8442 43.9922 6.93286 43.9568 7.0153C43.9214 7.09773 43.8699 7.17229 43.8054 7.23462L39.0757 11.9643C38.949 12.0911 38.7771 12.1623 38.598 12.1623Z" fill="#393333"/>
<path d="M43.3277 12.162C43.1485 12.162 42.9767 12.0907 42.85 11.964L38.1203 7.23429C37.9972 7.10686 37.9291 6.93618 37.9306 6.75902C37.9322 6.58186 38.0032 6.41239 38.1285 6.28712C38.2538 6.16184 38.4232 6.09078 38.6004 6.08924C38.7776 6.0877 38.9482 6.15581 39.0757 6.27889L43.8054 11.0086C43.8999 11.1031 43.9642 11.2235 43.9903 11.3545C44.0163 11.4856 44.0029 11.6214 43.9518 11.7449C43.9007 11.8683 43.8141 11.9738 43.703 12.0481C43.5919 12.1223 43.4613 12.162 43.3277 12.162Z" fill="#393333"/>
<path d="M23.6068 28.2799C23.5179 28.28 23.4299 28.2625 23.3479 28.2285C23.2658 28.1946 23.1912 28.1447 23.1284 28.0819L20.7074 25.661C20.5844 25.5335 20.5162 25.3629 20.5178 25.1857C20.5193 25.0085 20.5904 24.8391 20.7157 24.7138C20.8409 24.5885 21.0104 24.5175 21.1876 24.5159C21.3647 24.5144 21.5354 24.5825 21.6628 24.7056L23.6068 26.6488L28.3365 21.9191C28.4639 21.796 28.6346 21.7279 28.8118 21.7294C28.9889 21.731 29.1584 21.802 29.2837 21.9273C29.4089 22.0526 29.48 22.222 29.4815 22.3992C29.4831 22.5764 29.415 22.747 29.2919 22.8745L24.0838 28.0826C23.9572 28.2089 23.7856 28.2799 23.6068 28.2799Z" fill="#393333"/>
<path d="M7.39051 12.4012C7.30167 12.4013 7.21369 12.3838 7.13161 12.3498C7.04952 12.3159 6.97494 12.266 6.91213 12.2032L4.49118 9.78227C4.3681 9.65484 4.3 9.48416 4.30154 9.307C4.30308 9.12984 4.37414 8.96037 4.49941 8.8351C4.62469 8.70982 4.79416 8.63876 4.97132 8.63722C5.14848 8.63568 5.31916 8.70379 5.44659 8.82686L7.39051 10.7701L12.1202 6.04038C12.2477 5.9173 12.4183 5.84919 12.5955 5.85073C12.7727 5.85227 12.9421 5.92333 13.0674 6.04861C13.1927 6.17389 13.2637 6.34335 13.2653 6.52051C13.2668 6.69767 13.1987 6.86835 13.0756 6.99578L7.86754 12.2039C7.74091 12.3302 7.56936 12.4012 7.39051 12.4012Z" fill="#393333"/>
<path d="M6.75677 28.0407C6.62315 28.0407 6.49255 28.001 6.38146 27.9268C6.27037 27.8525 6.18379 27.747 6.13266 27.6236C6.08153 27.5001 6.06815 27.3643 6.09421 27.2332C6.12027 27.1022 6.1846 26.9818 6.27907 26.8873L11.0088 22.1576C11.1362 22.0345 11.3069 21.9664 11.4841 21.9679C11.6612 21.9695 11.8307 22.0405 11.956 22.1658C12.0813 22.2911 12.1523 22.4606 12.1539 22.6377C12.1554 22.8149 12.0873 22.9856 11.9642 23.113L7.23447 27.8427C7.10779 27.9695 6.93596 28.0407 6.75677 28.0407Z" fill="#393333"/>
<path d="M11.4865 28.0407C11.3073 28.0407 11.1354 27.9695 11.0088 27.8427L6.27903 23.113C6.15595 22.9856 6.08784 22.8149 6.08938 22.6377C6.09092 22.4606 6.16198 22.2911 6.28726 22.1658C6.41253 22.0405 6.582 21.9695 6.75916 21.9679C6.93632 21.9664 7.107 22.0345 7.23443 22.1576L11.9642 26.8873C12.0586 26.9818 12.123 27.1022 12.149 27.2332C12.1751 27.3643 12.1617 27.5001 12.1106 27.6236C12.0594 27.747 11.9729 27.8525 11.8618 27.9268C11.7507 28.001 11.6201 28.0407 11.4865 28.0407Z" fill="#393333"/>
<path d="M22.973 43.5812C22.8393 43.5811 22.7087 43.5415 22.5976 43.4672C22.4866 43.393 22.4 43.2875 22.3488 43.164C22.2977 43.0406 22.2843 42.9047 22.3104 42.7737C22.3365 42.6426 22.4008 42.5223 22.4953 42.4278L27.225 37.698C27.3524 37.575 27.5231 37.5068 27.7003 37.5084C27.8774 37.5099 28.0469 37.581 28.1722 37.7063C28.2974 37.8315 28.3685 38.001 28.37 38.1782C28.3716 38.3553 28.3035 38.526 28.1804 38.6534L23.4507 43.3832C23.324 43.5099 23.1521 43.5811 22.973 43.5812Z" fill="#393333"/>
<path d="M27.7027 43.5812C27.5235 43.5811 27.3517 43.5099 27.225 43.3832L22.4953 38.6534C22.3722 38.526 22.3041 38.3553 22.3056 38.1782C22.3072 38.001 22.3782 37.8315 22.5035 37.7063C22.6288 37.581 22.7982 37.5099 22.9754 37.5084C23.1526 37.5068 23.3232 37.575 23.4507 37.698L28.1804 42.4278C28.2749 42.5223 28.3392 42.6426 28.3653 42.7737C28.3913 42.9047 28.3779 43.0406 28.3268 43.164C28.2757 43.2875 28.1891 43.393 28.078 43.4672C27.9669 43.5415 27.8363 43.5811 27.7027 43.5812Z" fill="#393333"/>
</svg>
