<svg width="50" height="50" viewBox="0 0 50 50" fill="none" xmlns="http://www.w3.org/2000/svg">
<path d="M31.9188 2.70928H29.912C29.7328 2.70928 29.5609 2.63809 29.4342 2.51138C29.3075 2.38466 29.2363 2.2128 29.2363 2.0336C29.2363 1.8544 29.3075 1.68254 29.4342 1.55583C29.5609 1.42911 29.7328 1.35793 29.912 1.35793H31.9188C32.098 1.35793 32.2698 1.42911 32.3965 1.55583C32.5233 1.68254 32.5944 1.8544 32.5944 2.0336C32.5944 2.2128 32.5233 2.38466 32.3965 2.51138C32.2698 2.63809 32.098 2.70928 31.9188 2.70928Z" fill="#393333"/>
<path d="M41.5063 6.83786H8.49279C7.76614 6.83786 7.06924 6.5492 6.55542 6.03538C6.04159 5.52155 5.75293 4.82466 5.75293 4.098C5.75293 3.37134 6.04159 2.67445 6.55542 2.16062C7.06924 1.6468 7.76614 1.35814 8.49279 1.35814H18.4928C18.672 1.35814 18.8439 1.42932 18.9706 1.55604C19.0973 1.68275 19.1685 1.85461 19.1685 2.03381C19.1685 2.21301 19.0973 2.38487 18.9706 2.51159C18.8439 2.6383 18.672 2.70949 18.4928 2.70949H8.49279C8.31045 2.70949 8.1299 2.7454 7.96143 2.81518C7.79297 2.88496 7.6399 2.98724 7.51097 3.11617C7.38203 3.24511 7.27975 3.39818 7.20998 3.56664C7.1402 3.7351 7.10428 3.91566 7.10428 4.098C7.10428 4.28034 7.1402 4.4609 7.20998 4.62936C7.27975 4.79782 7.38203 4.95089 7.51097 5.07983C7.6399 5.20876 7.79297 5.31104 7.96143 5.38082C8.1299 5.4506 8.31045 5.48651 8.49279 5.48651H41.5063C41.7816 5.48716 42.0509 5.40595 42.2799 5.25321C42.509 5.10047 42.6874 4.8831 42.7927 4.6287C42.8979 4.3743 42.9251 4.09437 42.8709 3.82447C42.8166 3.55456 42.6834 3.30687 42.4881 3.11287C42.3594 2.98369 42.2064 2.88134 42.0378 2.81175C41.8693 2.74216 41.6886 2.70671 41.5063 2.70746H36.6482C36.469 2.70746 36.2971 2.63627 36.1704 2.50956C36.0437 2.38285 35.9725 2.21099 35.9725 2.03178C35.9725 1.85258 36.0437 1.68072 36.1704 1.55401C36.2971 1.4273 36.469 1.35611 36.6482 1.35611H41.5063C42.233 1.35611 42.9299 1.64477 43.4437 2.1586C43.9575 2.67242 44.2462 3.36932 44.2462 4.09597C44.2462 4.82263 43.9575 5.51953 43.4437 6.03335C42.9299 6.54717 42.233 6.83584 41.5063 6.83584V6.83786Z" fill="#393333"/>
<path d="M25.182 2.70928H23.2226C23.0434 2.70928 22.8715 2.63809 22.7448 2.51138C22.6181 2.38466 22.5469 2.2128 22.5469 2.0336C22.5469 1.8544 22.6181 1.68254 22.7448 1.55583C22.8715 1.42911 23.0434 1.35793 23.2226 1.35793H25.182C25.3612 1.35793 25.5331 1.42911 25.6598 1.55583C25.7865 1.68254 25.8577 1.8544 25.8577 2.0336C25.8577 2.2128 25.7865 2.38466 25.6598 2.51138C25.5331 2.63809 25.3612 2.70928 25.182 2.70928Z" fill="#393333"/>
<path d="M40.1354 44.5271H9.86513C9.68593 44.5271 9.51407 44.456 9.38735 44.3292C9.26064 44.2025 9.18945 44.0307 9.18945 43.8515V40.7258C9.18945 34.8346 12.7266 29.1521 18.934 25.0055C12.7266 20.8589 9.18945 15.1758 9.18945 9.28525V6.15958C9.18945 5.98038 9.26064 5.80852 9.38735 5.6818C9.51407 5.55509 9.68593 5.4839 9.86513 5.4839H40.1354C40.3146 5.4839 40.4865 5.55509 40.6132 5.6818C40.7399 5.80852 40.8111 5.98038 40.8111 6.15958V9.28525C40.8111 15.1758 37.2739 20.8589 31.0665 25.0055C37.2739 29.1521 40.8111 34.8346 40.8111 40.7258V43.8515C40.8111 44.0307 40.7399 44.2025 40.6132 44.3292C40.4865 44.456 40.3146 44.5271 40.1354 44.5271ZM10.5408 43.1758H39.4597V40.7258C39.4597 35.0359 35.8151 29.5157 29.4597 25.5798C29.3619 25.5193 29.2813 25.4347 29.2253 25.3342C29.1693 25.2337 29.14 25.1206 29.14 25.0055C29.14 24.8905 29.1693 24.7774 29.2253 24.6769C29.2813 24.5764 29.3619 24.4918 29.4597 24.4312C35.8111 20.4954 39.4597 14.9751 39.4597 9.28525V6.83525H10.5408V9.28525C10.5408 14.9751 14.1854 20.4954 20.5408 24.4312C20.6386 24.4918 20.7193 24.5764 20.7752 24.6769C20.8312 24.7774 20.8605 24.8905 20.8605 25.0055C20.8605 25.1206 20.8312 25.2337 20.7752 25.3342C20.7193 25.4347 20.6386 25.5193 20.5408 25.5798C14.1895 29.5157 10.5408 35.0393 10.5408 40.7258V43.1758Z" fill="#393333"/>
<path d="M35.1652 39.7123H14.8341C14.7351 39.7123 14.6372 39.6906 14.5475 39.6486C14.4578 39.6066 14.3784 39.5454 14.315 39.4694C14.2515 39.3933 14.2056 39.3042 14.1804 39.2084C14.1552 39.1126 14.1514 39.0124 14.1692 38.915C14.8746 35.0501 17.7841 31.3596 22.3625 28.5245L24.6442 27.1109C24.751 27.0449 24.8741 27.0099 24.9996 27.0099C25.1252 27.0099 25.2483 27.0449 25.3551 27.1109L27.6348 28.5245C32.2132 31.3623 35.1226 35.0501 35.828 38.915C35.8459 39.0124 35.842 39.1126 35.8169 39.2084C35.7917 39.3042 35.7457 39.3933 35.6823 39.4694C35.6189 39.5454 35.5395 39.6066 35.4498 39.6486C35.3601 39.6906 35.2622 39.7123 35.1632 39.7123H35.1652ZM15.6801 38.3609H34.3192C33.4409 35.1623 30.8496 32.1035 26.926 29.6731L24.9996 28.4799L23.0733 29.6731C19.1496 32.1035 16.5537 35.1623 15.6801 38.3609ZM24.9996 23.0015C24.8738 23.0015 24.7505 22.9664 24.6436 22.9001L22.3645 21.4866C17.7861 18.6488 14.8767 14.9609 14.1713 11.0954C14.1535 10.998 14.1574 10.8979 14.1827 10.8022C14.2079 10.7065 14.2539 10.6175 14.3173 10.5415C14.3807 10.4655 14.4601 10.4044 14.5497 10.3624C14.6394 10.3205 14.7371 10.2988 14.8361 10.2988H35.1672C35.2662 10.2988 35.364 10.3205 35.4536 10.3624C35.5433 10.4044 35.6226 10.4655 35.6861 10.5415C35.7495 10.6175 35.7954 10.7065 35.8207 10.8022C35.8459 10.8979 35.8498 10.998 35.8321 11.0954C35.1246 14.9609 32.2152 18.6488 27.6348 21.4866L25.3537 22.9001C25.2473 22.966 25.1248 23.0011 24.9996 23.0015ZM15.6801 11.6501C16.5537 14.8488 19.1496 17.9055 23.0733 20.338L24.9996 21.5312L26.9253 20.338C30.8496 17.9055 33.4442 14.8488 34.3192 11.6501H15.6801Z" fill="#393333"/>
<path d="M41.5083 48.6539H8.49212C7.76564 48.6539 7.06892 48.3653 6.55522 47.8516C6.04152 47.3379 5.75293 46.6412 5.75293 45.9147C5.75293 45.1882 6.04152 44.4915 6.55522 43.9778C7.06892 43.4641 7.76564 43.1755 8.49212 43.1755H41.5083C42.2348 43.1755 42.9315 43.4641 43.4452 43.9778C43.9589 44.4915 44.2475 45.1882 44.2475 45.9147C44.2475 46.6412 43.9589 47.3379 43.4452 47.8516C42.9315 48.3653 42.2348 48.6539 41.5083 48.6539ZM8.49212 44.5268C8.12404 44.5268 7.77104 44.6731 7.51077 44.9333C7.2505 45.1936 7.10428 45.5466 7.10428 45.9147C7.10428 46.2828 7.2505 46.6358 7.51077 46.896C7.77104 47.1563 8.12404 47.3025 8.49212 47.3025H41.5083C41.8764 47.3025 42.2294 47.1563 42.4897 46.896C42.75 46.6358 42.8962 46.2828 42.8962 45.9147C42.8962 45.5466 42.75 45.1936 42.4897 44.9333C42.2294 44.6731 41.8764 44.5268 41.5083 44.5268H8.49212Z" fill="#393333"/>
</svg>
