<svg width="30" height="30" viewBox="0 0 30 30" fill="none" xmlns="http://www.w3.org/2000/svg">
<path d="M20.1889 1H9.57778C4.84444 1 1 4.84444 1 9.57778V20.1889C1 24.9222 4.84444 28.7667 9.57778 28.7667H20.1889C24.9222 28.7667 28.7667 24.9222 28.7667 20.1889V9.57778C28.7667 4.84444 24.9222 1 20.1889 1ZM25.6667 20.2C25.6667 23.2222 23.2111 25.6889 20.1778 25.6889H9.56666C6.54444 25.6889 4.07778 23.2333 4.07778 20.2V9.58889C4.07778 6.56667 6.53333 4.1 9.56666 4.1H20.1778C23.2 4.1 25.6667 6.55556 25.6667 9.58889V20.2Z" fill="white"/>
<path d="M14.8778 7.78906C10.9667 7.78906 7.77781 10.978 7.77781 14.8891C7.77781 18.8002 10.9667 21.9891 14.8778 21.9891C18.7889 21.9891 21.9778 18.8002 21.9778 14.8891C21.9778 10.978 18.7889 7.78906 14.8778 7.78906ZM14.8778 19.2002C12.5 19.2002 10.5667 17.2668 10.5667 14.8891C10.5667 12.5113 12.5 10.578 14.8778 10.578C17.2556 10.578 19.1889 12.5113 19.1889 14.8891C19.1889 17.2668 17.2556 19.2002 14.8778 19.2002Z" fill="white"/>
<path d="M22.5184 8.56744C23.1726 8.4614 23.6169 7.84516 23.5108 7.19103C23.4048 6.5369 22.7886 6.09258 22.1344 6.19862C21.4803 6.30466 21.036 6.9209 21.142 7.57503C21.2481 8.22916 21.8643 8.67348 22.5184 8.56744Z" fill="white"/>
</svg>
