<svg width="50" height="50" viewBox="0 0 50 50" fill="none" xmlns="http://www.w3.org/2000/svg">
<g opacity="0.4">
<path d="M25.8577 48.6488H24.3036C24.1244 48.6488 23.9525 48.5776 23.8258 48.4509C23.6991 48.3242 23.6279 48.1523 23.6279 47.9731C23.6279 47.7939 23.6991 47.622 23.8258 47.4953C23.9525 47.3686 24.1244 47.2974 24.3036 47.2974H25.8577C26.0369 47.2974 26.2087 47.3686 26.3354 47.4953C26.4622 47.622 26.5333 47.7939 26.5333 47.9731C26.5333 48.1523 26.4622 48.3242 26.3354 48.4509C26.2087 48.5776 26.0369 48.6488 25.8577 48.6488Z" fill="#393333"/>
<path d="M33.0274 48.6486H29.6085C29.4293 48.6486 29.2574 48.5774 29.1307 48.4507C29.004 48.324 28.9328 48.1521 28.9328 47.9729C28.9328 47.7937 29.004 47.6219 29.1307 47.4952C29.2574 47.3685 29.4293 47.2973 29.6085 47.2973H32.4139L33.7166 33.75H16.2842L17.5869 47.2973H20.5544C20.7336 47.2973 20.9055 47.3685 21.0322 47.4952C21.1589 47.6219 21.2301 47.7937 21.2301 47.9729C21.2301 48.1521 21.1589 48.324 21.0322 48.4507C20.9055 48.5774 20.7336 48.6486 20.5544 48.6486H16.9733C16.8053 48.6495 16.6429 48.5876 16.518 48.4752C16.393 48.3627 16.3145 48.2078 16.2977 48.0405L14.8652 33.1459C14.8652 33.1243 14.8652 33.0959 14.8652 33.0743C14.8652 32.8951 14.9364 32.7232 15.0631 32.5965C15.1898 32.4698 15.3617 32.3986 15.5409 32.3986H34.4598C34.639 32.3986 34.8109 32.4698 34.9376 32.5965C35.0643 32.7232 35.1355 32.8951 35.1355 33.0743V33.1459L33.6997 48.0405C33.6829 48.2072 33.6049 48.3617 33.4807 48.474C33.3564 48.5864 33.1949 48.6486 33.0274 48.6486Z" fill="#393333"/>
<path d="M36.0034 33.7548H13.9966C13.73 33.7543 13.4745 33.6481 13.286 33.4595C13.0976 33.2709 12.9916 33.0153 12.9912 32.7487V29.8237C12.9916 29.5571 13.0976 29.3015 13.286 29.113C13.4745 28.9244 13.73 28.8182 13.9966 28.8176H36.0034C36.27 28.8182 36.5255 28.9244 36.7139 29.113C36.9024 29.3015 37.0084 29.5571 37.0088 29.8237V32.7487C37.0084 33.0153 36.9024 33.2709 36.7139 33.4595C36.5255 33.6481 36.27 33.7543 36.0034 33.7548ZM14.3426 32.4035H35.6574V30.169H14.3426V32.4035Z" fill="#393333"/>
<path d="M24.9999 30.1669C24.8207 30.1669 24.6488 30.0957 24.5221 29.969C24.3954 29.8423 24.3242 29.6704 24.3242 29.4912V18.4798C24.3242 18.3006 24.3954 18.1287 24.5221 18.002C24.6488 17.8753 24.8207 17.8041 24.9999 17.8041C25.1791 17.8041 25.351 17.8753 25.4777 18.002C25.6044 18.1287 25.6756 18.3006 25.6756 18.4798V29.4933C25.675 29.6721 25.6036 29.8435 25.477 29.9697C25.3503 30.096 25.1787 30.1669 24.9999 30.1669Z" fill="#393333"/>
<path d="M25.0004 19.1546C23.2397 19.1547 21.5185 18.6327 20.0545 17.6546C18.5905 16.6765 17.4494 15.2863 16.7755 13.6597C16.1016 12.033 15.9252 10.2431 16.2686 8.51626C16.612 6.78939 17.4598 5.20313 18.7048 3.9581C19.9497 2.71306 21.5359 1.86515 23.2627 1.52161C24.9896 1.17807 26.7795 1.35432 28.4062 2.02808C30.0329 2.70183 31.4232 3.84282 32.4014 5.30677C33.3796 6.77071 33.9017 8.49186 33.9017 10.2525C33.899 12.6126 32.9604 14.8752 31.2917 16.544C29.6229 18.2129 27.3604 19.1517 25.0004 19.1546ZM25.0004 2.70254C23.5069 2.70241 22.047 3.14515 20.8052 3.97478C19.5634 4.8044 18.5955 5.98365 18.0239 7.36339C17.4523 8.74312 17.3027 10.2614 17.5941 11.7261C17.8854 13.1909 18.6045 14.5363 19.6606 15.5924C20.7166 16.6484 22.062 17.3675 23.5268 17.6588C24.9915 17.9502 26.5098 17.8006 27.8895 17.229C29.2693 16.6574 30.4485 15.6895 31.2781 14.4477C32.1078 13.2059 32.5505 11.746 32.5504 10.2525C32.5482 8.25081 31.7521 6.33169 30.3367 4.91626C28.9212 3.50082 27.0021 2.70469 25.0004 2.70254Z" fill="#393333"/>
<path d="M24.9997 11.0514C24.2742 11.0699 23.571 10.8003 23.0439 10.3014C22.5168 9.8026 22.2089 9.11526 22.1875 8.38988C22.1869 8.15274 22.2194 7.91667 22.2841 7.68853C22.4728 7.11738 22.8367 6.62026 23.3242 6.26789C23.8117 5.91552 24.3978 5.72584 24.9993 5.72584C25.6008 5.72584 26.187 5.91552 26.6745 6.26789C27.1619 6.62026 27.5259 7.11738 27.7145 7.68853C27.7648 7.86057 27.7447 8.04552 27.6586 8.20271C27.5725 8.3599 27.4274 8.47644 27.2554 8.52671C27.0834 8.57697 26.8984 8.55684 26.7412 8.47074C26.584 8.38464 26.4675 8.23962 26.4172 8.06759C26.3112 7.77646 26.1181 7.52501 25.8643 7.34733C25.6105 7.16965 25.3082 7.07435 24.9983 7.07435C24.6885 7.07435 24.3861 7.16965 24.1323 7.34733C23.8785 7.52501 23.6854 7.77646 23.5794 8.06759C23.5504 8.17371 23.5359 8.28325 23.5362 8.39326C23.5585 8.76006 23.7248 9.10319 23.9989 9.34794C24.273 9.59268 24.6327 9.71923 24.9997 9.70002C25.1789 9.70002 25.3507 9.77121 25.4774 9.89792C25.6042 10.0246 25.6753 10.1965 25.6753 10.3757C25.6753 10.5549 25.6042 10.7268 25.4774 10.8535C25.3507 10.9802 25.1789 11.0514 24.9997 11.0514Z" fill="#393333"/>
<path d="M24.9998 15.0284C24.3969 15.0365 23.8073 14.8504 23.3184 14.4975C22.8295 14.1446 22.4671 13.6437 22.2849 13.0689C22.26 12.9837 22.2522 12.8945 22.2618 12.8063C22.2714 12.718 22.2983 12.6326 22.3409 12.5547C22.3835 12.4769 22.4411 12.4082 22.5103 12.3526C22.5794 12.297 22.6589 12.2556 22.7441 12.2307C22.8292 12.2058 22.9185 12.198 23.0067 12.2076C23.0949 12.2172 23.1804 12.2441 23.2582 12.2867C23.4154 12.3728 23.532 12.5178 23.5822 12.6899C23.6883 12.981 23.8813 13.2324 24.1351 13.4101C24.389 13.5878 24.6913 13.6831 25.0012 13.6831C25.311 13.6831 25.6133 13.5878 25.8672 13.4101C26.121 13.2324 26.314 12.981 26.4201 12.6899C26.4494 12.5838 26.464 12.4742 26.4633 12.3642C26.4426 11.9963 26.2769 11.6516 26.0026 11.4056C25.7283 11.1595 25.3678 11.0322 24.9998 11.0513C24.8206 11.0513 24.6487 10.9802 24.522 10.8534C24.3953 10.7267 24.3241 10.5549 24.3241 10.3757C24.3241 10.1965 24.3953 10.0246 24.522 9.89789C24.6487 9.77118 24.8206 9.69999 24.9998 9.69999C25.7258 9.68146 26.4296 9.95158 26.9567 10.4511C27.4839 10.9507 27.7915 11.6389 27.812 12.3649C27.8127 12.602 27.7801 12.8381 27.7153 13.0662C27.5336 13.6416 27.1714 14.1432 26.6822 14.4966C26.1931 14.85 25.6032 15.0365 24.9998 15.0284Z" fill="#393333"/>
<path d="M24.9999 16.0371C24.8207 16.0371 24.6488 15.9659 24.5221 15.8392C24.3954 15.7125 24.3242 15.5406 24.3242 15.3614V14.3479C24.3242 14.1687 24.3954 13.9968 24.5221 13.8701C24.6488 13.7434 24.8207 13.6722 24.9999 13.6722C25.1791 13.6722 25.351 13.7434 25.4777 13.8701C25.6044 13.9968 25.6756 14.1687 25.6756 14.3479V15.3614C25.6756 15.5406 25.6044 15.7125 25.4777 15.8392C25.351 15.9659 25.1791 16.0371 24.9999 16.0371Z" fill="#393333"/>
<path d="M24.9999 7.07711C24.8207 7.07711 24.6488 7.00593 24.5221 6.87921C24.3954 6.7525 24.3242 6.58064 24.3242 6.40144V5.38793C24.3242 5.20873 24.3954 5.03686 24.5221 4.91015C24.6488 4.78344 24.8207 4.71225 24.9999 4.71225C25.1791 4.71225 25.351 4.78344 25.4777 4.91015C25.6044 5.03686 25.6756 5.20873 25.6756 5.38793V6.40144C25.6756 6.58064 25.6044 6.7525 25.4777 6.87921C25.351 7.00593 25.1791 7.07711 24.9999 7.07711Z" fill="#393333"/>
<path d="M26.7922 27.5966C26.1099 27.5941 25.4325 27.4814 24.7862 27.2629C24.6322 27.2115 24.5018 27.1064 24.4189 26.9669C24.336 26.8273 24.3062 26.6625 24.3348 26.5027C24.4583 25.664 24.7673 24.8633 25.2393 24.1591C25.7114 23.4548 26.3345 22.8647 27.0634 22.4317C27.7922 21.9987 28.6085 21.7337 29.4528 21.6559C30.297 21.5782 31.1479 21.6898 31.9436 21.9825C32.0976 22.0338 32.228 22.1389 32.3108 22.2785C32.3937 22.4181 32.4236 22.5828 32.395 22.7426C32.2637 23.5789 31.9515 24.3764 31.4803 25.0796C31.0091 25.7829 30.3901 26.3748 29.6666 26.8142C28.7969 27.3302 27.8035 27.6006 26.7922 27.5966ZM25.8105 26.1412C26.89 26.3936 28.0253 26.2183 28.9785 25.6521C29.9316 25.086 30.6286 24.1728 30.9233 23.1041C29.8438 22.8517 28.7085 23.027 27.7554 23.5932C26.8022 24.1594 26.1052 25.0725 25.8105 26.1412Z" fill="#393333"/>
<path d="M22.8132 26.987C21.6054 26.9918 20.4189 26.6688 19.3801 26.0526C18.5158 25.5273 17.7765 24.8199 17.2134 23.9797C16.6504 23.1396 16.2772 22.1868 16.12 21.1877C16.0913 21.0279 16.1212 20.8632 16.2041 20.7236C16.287 20.584 16.4173 20.4789 16.5713 20.4276C17.5222 20.077 18.5394 19.9431 19.5487 20.0356C20.5579 20.1281 21.5338 20.4446 22.4051 20.9622C23.2765 21.4798 24.0213 22.1854 24.5853 23.0275C25.1493 23.8695 25.5183 24.8268 25.6652 25.8296C25.6939 25.9894 25.664 26.1541 25.5811 26.2937C25.4982 26.4333 25.3679 26.5384 25.2139 26.5897C24.4402 26.8504 23.6296 26.9846 22.8132 26.987ZM17.5848 21.5411C17.7563 22.2364 18.0643 22.8906 18.4909 23.4658C18.9175 24.0409 19.4542 24.5255 20.0698 24.8914C20.6854 25.2572 21.3676 25.4971 22.0767 25.5969C22.7858 25.6967 23.5077 25.6545 24.2004 25.4728C24.0288 24.7777 23.7208 24.1235 23.2941 23.5485C22.8675 22.9735 22.3307 22.489 21.7151 22.1233C21.0995 21.7576 20.4173 21.518 19.7082 21.4184C18.9992 21.3188 18.2774 21.3612 17.5848 21.5431V21.5411Z" fill="#393333"/>
</g>
</svg>
