<svg width="50" height="50" viewBox="0 0 50 50" fill="none" xmlns="http://www.w3.org/2000/svg">
<g opacity="0.4">
<path d="M40.155 42.9326C40.0173 42.9328 39.8829 42.8909 39.7697 42.8125C39.6565 42.7342 39.5699 42.6231 39.5216 42.4942C39.4732 42.3654 39.4654 42.2248 39.4991 42.0913C39.5329 41.9579 39.6066 41.8379 39.7104 41.7475C40.0813 41.4245 40.4367 41.0941 40.7651 40.7657C43.527 37.9943 45.5139 34.5471 46.5277 30.7681C47.5415 26.989 47.5467 23.0102 46.5428 19.2285C46.5163 19.1418 46.5075 19.0505 46.517 18.9603C46.5266 18.87 46.5542 18.7826 46.5982 18.7033C46.6422 18.624 46.7018 18.5543 46.7733 18.4985C46.8448 18.4427 46.9269 18.4018 47.0146 18.3784C47.1022 18.355 47.1937 18.3494 47.2835 18.3621C47.3734 18.3748 47.4598 18.4055 47.5375 18.4523C47.6152 18.4991 47.6827 18.5611 47.736 18.6346C47.7893 18.708 47.8272 18.7914 47.8475 18.8799C48.9127 22.8905 48.9075 27.1103 47.8324 31.1182C46.7573 35.1261 44.6499 38.7821 41.7205 41.7211C41.3705 42.0718 40.9928 42.4231 40.5989 42.7664C40.4758 42.8736 40.3181 42.9326 40.155 42.9326Z" fill="#393333"/>
<path d="M27.8777 48.4591C27.7058 48.458 27.5407 48.3915 27.4161 48.273C27.2915 48.1545 27.2168 47.993 27.2071 47.8213C27.1975 47.6496 27.2536 47.4807 27.3642 47.349C27.4747 47.2173 27.6313 47.1327 27.802 47.1124C28.442 47.0383 29.0777 46.9314 29.7067 46.7922C29.8818 46.7538 30.065 46.7866 30.2159 46.8833C30.3668 46.9799 30.4731 47.1326 30.5115 47.3077C30.5498 47.4828 30.5171 47.6659 30.4204 47.8168C30.3237 47.9678 30.171 48.0741 29.9959 48.1124C29.3215 48.2611 28.64 48.3754 27.9541 48.455C27.9287 48.4577 27.9032 48.459 27.8777 48.4591Z" fill="#393333"/>
<path d="M22.8728 48.5474C22.8518 48.5474 22.8309 48.5474 22.8099 48.5474C17.319 48.036 12.1794 45.6221 8.27951 41.7231C8.15643 41.5956 8.08833 41.4249 8.08987 41.2478C8.09141 41.0706 8.16247 40.9012 8.28774 40.7759C8.41302 40.6506 8.58249 40.5795 8.75965 40.578C8.93681 40.5765 9.10749 40.6446 9.23492 40.7677C12.9119 44.4429 17.7572 46.7184 22.9336 47.2008C23.1128 47.2088 23.2814 47.2878 23.4024 47.4202C23.5234 47.5526 23.5869 47.7277 23.5788 47.9069C23.5708 48.0861 23.4919 48.2547 23.3594 48.3757C23.227 48.4967 23.052 48.5602 22.8728 48.5521V48.5474Z" fill="#393333"/>
<path d="M34.3519 46.6628C34.1967 46.6633 34.046 46.6104 33.9252 46.513C33.8044 46.4155 33.7209 46.2794 33.6886 46.1276C33.6563 45.9757 33.6773 45.8174 33.748 45.6793C33.8187 45.5411 33.9349 45.4315 34.0769 45.3689C34.6723 45.108 35.2537 44.8163 35.8188 44.4952C35.8957 44.4508 35.9806 44.4221 36.0687 44.4105C36.1567 44.399 36.2462 44.4049 36.332 44.4279C36.4177 44.4509 36.4981 44.4906 36.5686 44.5447C36.639 44.5988 36.6981 44.6663 36.7424 44.7432C36.7868 44.8201 36.8156 44.905 36.8271 44.9931C36.8387 45.0811 36.8328 45.1706 36.8098 45.2564C36.7867 45.3421 36.747 45.4225 36.6929 45.493C36.6388 45.5634 36.5714 45.6225 36.4945 45.6668C35.8892 46.0116 35.2663 46.3244 34.6283 46.604C34.5414 46.643 34.4472 46.663 34.3519 46.6628Z" fill="#393333"/>
<path d="M2.13096 27.8779C1.96305 27.8776 1.80124 27.8149 1.67708 27.7018C1.55291 27.5888 1.47529 27.4336 1.45934 27.2664C0.992799 22.418 2.03469 17.5439 4.44265 13.31C6.85061 9.0761 10.5072 5.689 14.9127 3.61153C19.3181 1.53407 24.2576 0.867586 29.0562 1.70316C33.8547 2.53874 38.2782 4.83561 41.7222 8.27991C41.785 8.34265 41.8348 8.41713 41.8688 8.49911C41.9027 8.58109 41.9203 8.66897 41.9203 8.75771C41.9203 8.84646 41.9029 8.93435 41.8689 9.01635C41.835 9.09836 41.7853 9.17288 41.7225 9.23566C41.6598 9.29843 41.5853 9.34824 41.5033 9.38223C41.4213 9.41622 41.3335 9.43373 41.2447 9.43377C41.156 9.4338 41.0681 9.41635 40.9861 9.38241C40.9041 9.34848 40.8296 9.29873 40.7668 9.23599C37.5196 5.98817 33.3488 3.82228 28.8243 3.03429C24.2997 2.24631 19.6422 2.87468 15.4883 4.83354C11.3344 6.7924 7.88664 9.98618 5.61629 13.9784C3.34595 17.9706 2.36375 22.5665 2.80393 27.138C2.82087 27.3163 2.76634 27.494 2.65231 27.6321C2.53828 27.7702 2.3741 27.8574 2.19583 27.8745C2.1742 27.8765 2.15258 27.8779 2.13096 27.8779Z" fill="#393333"/>
<path d="M41.2437 9.4313H35.8417C35.6625 9.4313 35.4906 9.36011 35.3639 9.23339C35.2372 9.10668 35.166 8.93482 35.166 8.75562C35.166 8.57642 35.2372 8.40456 35.3639 8.27784C35.4906 8.15113 35.6625 8.07994 35.8417 8.07994H40.568V3.35359C40.568 3.17439 40.6392 3.00253 40.7659 2.87582C40.8926 2.7491 41.0645 2.67792 41.2437 2.67792C41.4229 2.67792 41.5948 2.7491 41.7215 2.87582C41.8482 3.00253 41.9194 3.17439 41.9194 3.35359V8.759C41.9185 8.93761 41.8469 9.10861 41.7203 9.23459C41.5937 9.36057 41.4223 9.4313 41.2437 9.4313Z" fill="#393333"/>
<path d="M8.75575 47.3223C8.57655 47.3223 8.40469 47.2511 8.27798 47.1244C8.15127 46.9977 8.08008 46.8259 8.08008 46.6467V41.2412C8.08008 41.062 8.15127 40.8902 8.27798 40.7635C8.40469 40.6368 8.57655 40.5656 8.75575 40.5656H14.1578C14.337 40.5656 14.5088 40.6368 14.6356 40.7635C14.7623 40.8902 14.8335 41.062 14.8335 41.2412C14.8335 41.4204 14.7623 41.5923 14.6356 41.719C14.5088 41.8457 14.337 41.9169 14.1578 41.9169H9.43143V46.6467C9.43143 46.8259 9.36024 46.9977 9.23353 47.1244C9.10681 47.2511 8.93495 47.3223 8.75575 47.3223Z" fill="#393333"/>
<path d="M26.7178 39.6621H23.2826C23.0117 39.6621 22.7503 39.5624 22.5483 39.3819C22.3462 39.2014 22.2178 38.9529 22.1874 38.6837L22.0184 37.1816C20.6409 36.8618 19.3254 36.3176 18.1245 35.5708L16.9441 36.5114C16.7324 36.6807 16.4656 36.7659 16.1949 36.7507C15.9242 36.7355 15.6686 36.6209 15.4772 36.4289L13.0488 34.0006C12.8572 33.8091 12.7428 33.5538 12.7275 33.2833C12.7121 33.0129 12.797 32.7462 12.9657 32.5343L13.9083 31.3512C13.1611 30.1503 12.6169 28.8345 12.2975 27.4566L10.7955 27.2877C10.526 27.2575 10.2772 27.129 10.0966 26.9268C9.91596 26.7246 9.81621 26.4629 9.81641 26.1918V22.7573C9.8161 22.4861 9.91592 22.2244 10.0967 22.0222C10.2775 21.8201 10.5266 21.6919 10.7961 21.6621L12.2975 21.4931C12.6173 20.1155 13.1617 18.7999 13.909 17.5992L12.9664 16.4188C12.7974 16.2068 12.7124 15.9399 12.7278 15.6692C12.7431 15.3984 12.8576 15.1428 13.0495 14.9512L15.4772 12.5235C15.6688 12.3316 15.9245 12.2171 16.1953 12.2019C16.466 12.1867 16.7329 12.2719 16.9448 12.4411L18.1245 13.3823C19.3252 12.635 20.6408 12.0906 22.0184 11.7708L22.1874 10.2695C22.2176 10.0002 22.346 9.75144 22.5481 9.57083C22.7501 9.39023 23.0116 9.2904 23.2826 9.29043H26.7178C26.9889 9.29042 27.2505 9.39034 27.4525 9.57109C27.6546 9.75183 27.7829 10.0007 27.813 10.2702L27.9819 11.7715C29.3596 12.0913 30.6752 12.6357 31.8759 13.383L33.0563 12.4418C33.2681 12.2727 33.5348 12.1877 33.8055 12.2029C34.0761 12.2181 34.3316 12.3325 34.5232 12.5242L36.9515 14.9526C37.1431 15.1442 37.2574 15.3997 37.2728 15.6702C37.2881 15.9407 37.2033 16.2074 37.0347 16.4195L36.0887 17.5999C36.8369 18.8002 37.3822 20.1156 37.7029 21.4931L39.2049 21.6621C39.4743 21.692 39.7232 21.8203 39.9039 22.0224C40.0846 22.2246 40.1843 22.4862 40.184 22.7573V26.1918C40.1842 26.4629 40.0844 26.7246 39.9038 26.9268C39.7232 27.129 39.4743 27.2575 39.2049 27.2877L37.7029 27.4566C37.3835 28.8345 36.8393 30.1503 36.0921 31.3512L37.034 32.5316C37.203 32.7437 37.2879 33.0106 37.2726 33.2813C37.2573 33.552 37.1427 33.8076 36.9509 33.9992L34.5232 36.4256C34.3316 36.6176 34.076 36.7322 33.8051 36.7474C33.5343 36.7626 33.2674 36.6774 33.0556 36.508L31.8759 35.5675C30.675 36.3142 29.3595 36.8584 27.9819 37.1783L27.813 38.6796C27.7836 38.9495 27.6555 39.1991 27.4534 39.3804C27.2512 39.5617 26.9893 39.662 26.7178 39.6621ZM23.5056 38.3107H26.4948L26.6934 36.5465C26.7094 36.4038 26.7704 36.2699 26.8676 36.1642C26.9648 36.0585 27.0931 35.9865 27.234 35.9587C28.7738 35.6631 30.2374 35.0576 31.536 34.1789C31.6552 34.0986 31.7969 34.0584 31.9405 34.0641C32.0842 34.0698 32.2222 34.1211 32.3347 34.2107L33.7218 35.3168L35.836 33.2019L34.7299 31.8127C34.64 31.7002 34.5883 31.562 34.5824 31.418C34.5766 31.2741 34.6169 31.1321 34.6975 31.0127C35.5767 29.7145 36.1827 28.2511 36.4786 26.7114C36.5064 26.5706 36.5783 26.4423 36.6838 26.3452C36.7894 26.248 36.9231 26.1869 37.0657 26.1708L38.8306 25.9722V22.9803L37.0657 22.7776C36.9231 22.7615 36.7894 22.7005 36.6838 22.6033C36.5783 22.5061 36.5064 22.3778 36.4786 22.2371C36.1827 20.6971 35.5767 19.2335 34.6975 17.935C34.6171 17.8157 34.5769 17.6738 34.5827 17.53C34.5885 17.3863 34.6401 17.2481 34.7299 17.1357L35.836 15.7492L33.7218 13.635L32.3347 14.7404C32.2222 14.83 32.0842 14.8814 31.9405 14.8871C31.7969 14.8928 31.6552 14.8525 31.536 14.7722C30.2373 13.8938 28.7737 13.2883 27.234 12.9925C27.0931 12.9646 26.9648 12.8926 26.8676 12.7869C26.7704 12.6812 26.7094 12.5473 26.6934 12.4046L26.4948 10.6404H23.5056L23.3069 12.4046C23.291 12.5473 23.23 12.6812 23.1328 12.7869C23.0356 12.8926 22.9073 12.9646 22.7664 12.9925C21.2267 13.2883 19.7631 13.8938 18.4644 14.7722C18.3452 14.8525 18.2035 14.8928 18.0599 14.8871C17.9162 14.8814 17.7782 14.83 17.6657 14.7404L16.2786 13.635L14.1644 15.7492L15.2705 17.1371C15.3603 17.2495 15.4119 17.3876 15.4177 17.5314C15.4235 17.6752 15.3833 17.817 15.3029 17.9364C14.4237 19.2348 13.8177 20.6985 13.5218 22.2384C13.494 22.3792 13.4221 22.5074 13.3166 22.6046C13.211 22.7018 13.0772 22.7629 12.9346 22.7789L11.1698 22.9816V25.9708L12.9346 26.1695C13.0772 26.1856 13.211 26.2466 13.3166 26.3438C13.4221 26.441 13.494 26.5693 13.5218 26.71C13.8166 28.2502 14.4217 29.7144 15.3002 31.0134C15.3808 31.1328 15.4211 31.2748 15.4152 31.4187C15.4094 31.5626 15.3577 31.7009 15.2678 31.8134L14.1617 33.1992L16.2759 35.3141L17.663 34.208C17.7755 34.1184 17.9135 34.0671 18.0572 34.0614C18.2008 34.0557 18.3425 34.0959 18.4617 34.1762C19.7602 35.0549 21.2239 35.6604 22.7637 35.956C22.9046 35.9838 23.0329 36.0558 23.1301 36.1615C23.2273 36.2672 23.2883 36.4011 23.3042 36.5438L23.5056 38.3107Z" fill="#393333"/>
<path d="M25.0002 33.4603C23.2228 33.4603 21.4854 32.9332 20.0075 31.9458C18.5297 30.9583 17.3779 29.5548 16.6977 27.9127C16.0176 26.2707 15.8396 24.4638 16.1863 22.7206C16.5331 20.9774 17.389 19.3761 18.6458 18.1194C19.9025 16.8626 21.5038 16.0067 23.247 15.6599C24.9902 15.3132 26.7971 15.4912 28.4392 16.1713C30.0812 16.8515 31.4847 18.0033 32.4722 19.4811C33.4596 20.959 33.9867 22.6964 33.9867 24.4738C33.9843 26.8564 33.0368 29.1408 31.352 30.8256C29.6672 32.5104 27.3828 33.4579 25.0002 33.4603ZM25.0002 16.8386C23.4901 16.8386 22.0139 17.2864 20.7583 18.1254C19.5027 18.9643 18.5241 20.1568 17.9462 21.5519C17.3683 22.9471 17.2171 24.4822 17.5117 25.9633C17.8063 27.4444 18.5335 28.8048 19.6013 29.8726C20.6691 30.9404 22.0296 31.6676 23.5106 31.9622C24.9917 32.2568 26.5269 32.1056 27.922 31.5277C29.3172 30.9498 30.5096 29.9712 31.3486 28.7156C32.1875 27.46 32.6353 25.9839 32.6353 24.4738C32.6326 22.4498 31.8273 20.5095 30.3959 19.0786C28.9646 17.6476 27.0241 16.8428 25.0002 16.8406V16.8386Z" fill="#393333"/>
</g>
</svg>
