<svg width="50" height="50" viewBox="0 0 50 50" fill="none" xmlns="http://www.w3.org/2000/svg">
<g opacity="0.4">
<path d="M12.3247 32.6758C12.2478 32.6757 12.1715 32.6624 12.099 32.6366C11.4333 32.4031 10.7843 32.1245 10.1564 31.8028C10.0025 31.7177 9.88774 31.5759 9.83669 31.4075C9.78564 31.2392 9.80227 31.0575 9.88306 30.9012C9.96385 30.7449 10.1024 30.6263 10.2693 30.5706C10.4362 30.5149 10.6182 30.5264 10.7767 30.6028C11.35 30.8961 11.9426 31.1501 12.5504 31.363C12.7008 31.4161 12.8275 31.5206 12.9083 31.6582C12.989 31.7957 13.0184 31.9574 12.9914 32.1146C12.9644 32.2718 12.8826 32.4144 12.7606 32.5171C12.6386 32.6198 12.4842 32.676 12.3247 32.6758Z" fill="#393333"/>
<path d="M17.4912 33.542H17.2966C17.1174 33.542 16.9456 33.4709 16.8189 33.3441C16.6921 33.2174 16.621 33.0456 16.621 32.8664C16.621 32.6872 16.6921 32.5153 16.8189 32.3886C16.9456 32.2619 17.1174 32.1907 17.2966 32.1907H17.3034C20.2326 32.223 23.105 31.3817 25.5538 29.7741C28.0027 28.1664 29.9169 25.8655 31.052 23.165C32.1871 20.4644 32.4916 17.4869 31.9267 14.6125C31.3618 11.7381 29.9531 9.09726 27.8804 7.02717C25.5566 4.70583 22.5246 3.22635 19.2648 2.82316C16.005 2.41997 12.7039 3.11612 9.88452 4.80131C7.06514 6.4865 4.88874 9.06434 3.70019 12.1264C2.51163 15.1884 2.37889 18.5595 3.32299 21.7056C3.3746 21.8774 3.35583 22.0627 3.2708 22.2207C3.18578 22.3787 3.04146 22.4965 2.86961 22.5481C2.69776 22.5997 2.51244 22.581 2.35443 22.4959C2.19642 22.4109 2.07865 22.2666 2.02704 22.0947C1.04559 18.8522 1.11093 15.3829 2.21375 12.1796C3.31658 8.97629 5.40082 6.202 8.17035 4.25087C10.9399 2.29973 14.2538 1.27097 17.6414 1.31076C21.029 1.35054 24.3179 2.45685 27.0408 4.4725C29.7638 6.48814 31.7823 9.31061 32.8096 12.5389C33.8369 15.7672 33.8207 19.2371 32.7633 22.4557C31.706 25.6743 29.6613 28.4779 26.9197 30.468C24.1781 32.4582 20.879 33.5338 17.4912 33.542Z" fill="#393333"/>
<path d="M6.61501 29.1014C6.43804 29.1012 6.26822 29.0316 6.14204 28.9075L6.06704 28.8318C5.58034 28.3458 5.12621 27.8282 4.70758 27.2825C4.65363 27.212 4.61409 27.1316 4.59121 27.0459C4.56833 26.9602 4.56256 26.8708 4.57423 26.7828C4.5859 26.6948 4.61478 26.61 4.65922 26.5332C4.70367 26.4564 4.76281 26.3891 4.83326 26.3352C4.90371 26.2812 4.9841 26.2417 5.06983 26.2188C5.15557 26.1959 5.24497 26.1902 5.33293 26.2018C5.4209 26.2135 5.5057 26.2424 5.58251 26.2868C5.65931 26.3313 5.72661 26.3904 5.78055 26.4609C6.16373 26.9609 6.57973 27.4349 7.02582 27.8798L7.08934 27.9433C7.18492 28.0373 7.25038 28.1576 7.27739 28.2889C7.30441 28.4202 7.29175 28.5565 7.24105 28.6806C7.19034 28.8047 7.10387 28.9109 6.99263 28.9857C6.88139 29.0605 6.75042 29.1006 6.61636 29.1007L6.61501 29.1014Z" fill="#393333"/>
<path d="M17.4506 30.0114C14.5446 30.0114 11.7285 29.0039 9.4821 27.1603C7.2357 25.3168 5.69802 22.7514 5.13105 19.9012C4.56408 17.0511 5.00291 14.0925 6.37277 11.5296C7.74262 8.96671 9.95875 6.95809 12.6435 5.84597C15.3283 4.73386 18.3157 4.58707 21.0966 5.43062C23.8775 6.27416 26.2798 8.05584 27.8943 10.4721C29.5089 12.8883 30.2356 15.7896 29.9508 18.6817C29.666 21.5737 28.3872 24.2775 26.3324 26.3324C25.1689 27.5026 23.7847 28.4303 22.2601 29.0618C20.7356 29.6933 19.1008 30.0161 17.4506 30.0114ZM17.4506 6.24249C14.8573 6.24221 12.3441 7.14113 10.3392 8.7861C8.33434 10.4311 6.96186 12.7203 6.45561 15.2638C5.94936 17.8072 6.34068 20.4475 7.56288 22.7348C8.78507 25.0221 10.7625 26.8148 13.1583 27.8076C15.5541 28.8003 18.22 28.9317 20.7018 28.1792C23.1836 27.4267 25.3277 25.8371 26.7688 23.681C28.2099 21.5249 28.8589 18.9359 28.6051 16.355C28.3513 13.7741 27.2105 11.361 25.377 9.52695C24.3388 8.48233 23.1036 7.65412 21.743 7.09033C20.3824 6.52653 18.9234 6.23835 17.4506 6.24249Z" fill="#393333"/>
<path d="M31.12 31.7944C30.9408 31.7944 30.7689 31.7232 30.6422 31.5965L27.8801 28.835C27.757 28.7075 27.6889 28.5369 27.6905 28.3597C27.692 28.1825 27.7631 28.0131 27.8883 27.8878C28.0136 27.7625 28.1831 27.6915 28.3602 27.6899C28.5374 27.6884 28.7081 27.7565 28.8355 27.8796L31.5977 30.6411C31.6921 30.7355 31.7564 30.8559 31.7825 30.987C31.8086 31.118 31.7952 31.2539 31.7441 31.3773C31.6929 31.5008 31.6063 31.6063 31.4953 31.6805C31.3842 31.7548 31.2536 31.7944 31.12 31.7944Z" fill="#393333"/>
<path d="M44.0173 48.6488C43.409 48.6504 42.8064 48.5314 42.2443 48.2987C41.6823 48.0659 41.172 47.724 40.743 47.2927L27.8443 34.3921C27.7176 34.2654 27.6465 34.0935 27.6465 33.9144C27.6465 33.7352 27.7176 33.5634 27.8443 33.4367L33.4376 27.8434C33.5643 27.7167 33.7361 27.6456 33.9153 27.6456C34.0944 27.6456 34.2663 27.7167 34.393 27.8434L47.2916 40.7434C47.9395 41.3909 48.3807 42.2161 48.5595 43.1144C48.7384 44.0128 48.6467 44.944 48.2962 45.7903C47.9457 46.6366 47.3521 47.3599 46.5904 47.8687C45.8287 48.3775 44.9333 48.649 44.0173 48.6488ZM29.2774 33.9191L41.699 46.3373C42.3141 46.9522 43.1482 47.2977 44.0179 47.2976C44.4485 47.2976 44.8749 47.2127 45.2727 47.0479C45.6706 46.8831 46.0321 46.6415 46.3365 46.337C46.641 46.0325 46.8825 45.6709 47.0473 45.2731C47.2121 44.8752 47.2969 44.4488 47.2968 44.0182C47.2968 43.5875 47.212 43.1611 47.0471 42.7633C46.8823 42.3654 46.6407 42.004 46.3362 41.6995L33.9186 29.2785L29.2774 33.9191Z" fill="#393333"/>
<path d="M17.4506 18.1269C16.4461 18.162 15.4686 17.7978 14.7319 17.1141C13.9952 16.4303 13.5593 15.4826 13.5195 14.4783C13.5593 13.4739 13.9952 12.5262 14.7319 11.8425C15.4686 11.1587 16.4461 10.7945 17.4506 10.8296C18.4552 10.7944 19.4329 11.1584 20.1698 11.8422C20.9066 12.526 21.3426 13.4738 21.3824 14.4783C21.3824 14.6575 21.3112 14.8293 21.1845 14.956C21.0578 15.0828 20.8859 15.1539 20.7067 15.1539C20.5275 15.1539 20.3556 15.0828 20.2289 14.956C20.1022 14.8293 20.031 14.6575 20.031 14.4783C19.991 13.8324 19.6973 13.2285 19.2139 12.7982C18.7306 12.3679 18.0968 12.146 17.4506 12.181C16.8045 12.1462 16.1709 12.3682 15.6877 12.7984C15.2045 13.2287 14.9109 13.8325 14.8709 14.4783C14.9109 15.124 15.2045 15.7278 15.6877 16.1581C16.1709 16.5884 16.8045 16.8103 17.4506 16.7756C17.6298 16.7756 17.8017 16.8468 17.9284 16.9735C18.0551 17.1002 18.1263 17.272 18.1263 17.4512C18.1263 17.6304 18.0551 17.8023 17.9284 17.929C17.8017 18.0557 17.6298 18.1269 17.4506 18.1269Z" fill="#393333"/>
<path d="M17.4529 24.0675C16.4483 24.1026 15.4706 23.7385 14.7337 23.0548C13.9968 22.371 13.5606 21.4233 13.5205 20.4189C13.5205 20.2397 13.5917 20.0678 13.7184 19.9411C13.8451 19.8144 14.017 19.7432 14.1962 19.7432C14.3754 19.7432 14.5472 19.8144 14.674 19.9411C14.8007 20.0678 14.8719 20.2397 14.8719 20.4189C14.9124 21.0647 15.2064 21.6684 15.6897 22.0986C16.1731 22.5288 16.8068 22.7508 17.4529 22.7162C18.0991 22.7509 18.7329 22.529 19.2163 22.0988C19.6997 21.6685 19.9936 21.0648 20.034 20.4189C19.9926 19.7739 19.6982 19.1715 19.2148 18.7425C18.7314 18.3135 18.0982 18.0928 17.4529 18.1283C17.2737 18.1283 17.1019 18.0571 16.9752 17.9304C16.8484 17.8037 16.7773 17.6319 16.7773 17.4527C16.7773 17.2735 16.8484 17.1016 16.9752 16.9749C17.1019 16.8482 17.2737 16.777 17.4529 16.777C18.4566 16.7411 19.4337 17.1041 20.1706 17.7865C20.9075 18.469 21.3442 19.4154 21.3854 20.4189C21.3453 21.4233 20.9091 22.371 20.1721 23.0548C19.4352 23.7385 18.4576 24.1026 17.4529 24.0675Z" fill="#393333"/>
<path d="M17.453 24.9795C17.2738 24.9795 17.102 24.9083 16.9752 24.7816C16.8485 24.6549 16.7773 24.4831 16.7773 24.3039V23.3917C16.7773 23.2125 16.8485 23.0406 16.9752 22.9139C17.102 22.7872 17.2738 22.716 17.453 22.716C17.6322 22.716 17.8041 22.7872 17.9308 22.9139C18.0575 23.0406 18.1287 23.2125 18.1287 23.3917V24.3039C18.1287 24.4831 18.0575 24.6549 17.9308 24.7816C17.8041 24.9083 17.6322 24.9795 17.453 24.9795Z" fill="#393333"/>
<path d="M17.453 12.1827C17.2738 12.1827 17.102 12.1115 16.9752 11.9848C16.8485 11.858 16.7773 11.6862 16.7773 11.507V10.6016C16.7773 10.4224 16.8485 10.2505 16.9752 10.1238C17.102 9.99708 17.2738 9.9259 17.453 9.9259C17.6322 9.9259 17.8041 9.99708 17.9308 10.1238C18.0575 10.2505 18.1287 10.4224 18.1287 10.6016V11.507C18.1287 11.6862 18.0575 11.858 17.9308 11.9848C17.8041 12.1115 17.6322 12.1827 17.453 12.1827Z" fill="#393333"/>
<path d="M31.4333 37.7029C31.2997 37.7028 31.1691 37.6632 31.058 37.5889C30.9469 37.5147 30.8604 37.4092 30.8092 37.2857C30.7581 37.1623 30.7447 37.0264 30.7708 36.8954C30.7968 36.7643 30.8612 36.644 30.9556 36.5495L36.5496 30.9562C36.677 30.8332 36.8477 30.7651 37.0248 30.7666C37.202 30.7681 37.3715 30.8392 37.4967 30.9645C37.622 31.0897 37.6931 31.2592 37.6946 31.4364C37.6961 31.6135 37.628 31.7842 37.505 31.9116L31.9117 37.5049C31.8489 37.5677 31.7743 37.6175 31.6922 37.6515C31.6102 37.6855 31.5222 37.7029 31.4333 37.7029Z" fill="#393333"/>
</g>
</svg>
