<svg width="50" height="50" viewBox="0 0 50 50" fill="none" xmlns="http://www.w3.org/2000/svg">
<path d="M7.25057 45.2269C6.59175 45.2262 5.96014 44.9641 5.49435 44.4982C5.02856 44.0323 4.76665 43.4006 4.76611 42.7418V27.5073C4.76611 27.3281 4.8373 27.1562 4.96401 27.0295C5.09073 26.9028 5.26259 26.8316 5.44179 26.8316C5.62099 26.8316 5.79285 26.9028 5.91956 27.0295C6.04628 27.1562 6.11746 27.3281 6.11746 27.5073V42.7418C6.11377 42.8929 6.14036 43.0433 6.19566 43.1841C6.25096 43.3248 6.33386 43.4531 6.43948 43.5613C6.54509 43.6695 6.67129 43.7555 6.81064 43.8143C6.95 43.873 7.09969 43.9032 7.25091 43.9032C7.40213 43.9032 7.55182 43.873 7.69117 43.8143C7.83053 43.7555 7.95673 43.6695 8.06234 43.5613C8.16796 43.4531 8.25085 43.3248 8.30616 43.1841C8.36146 43.0433 8.38805 42.8929 8.38435 42.7418V35.283C8.38435 35.1038 8.45554 34.9319 8.58225 34.8052C8.70897 34.6785 8.88083 34.6073 9.06003 34.6073C9.23923 34.6073 9.41109 34.6785 9.5378 34.8052C9.66452 34.9319 9.7357 35.1038 9.7357 35.283V42.7418C9.73499 43.4006 9.47293 44.0323 9.00704 44.4982C8.54114 44.9641 7.90945 45.2262 7.25057 45.2269Z" fill="#393333"/>
<path d="M10.8717 45.2296C10.2123 45.2294 9.57991 44.9674 9.11365 44.5011C8.64738 44.0349 8.38535 43.4025 8.38517 42.7431V35.2837C8.38517 35.1045 8.45636 34.9326 8.58307 34.8059C8.70979 34.6792 8.88165 34.608 9.06085 34.608C9.24005 34.608 9.41191 34.6792 9.53862 34.8059C9.66534 34.9326 9.73652 35.1045 9.73652 35.2837V42.7431C9.73685 42.8931 9.76687 43.0416 9.82485 43.1799C9.88284 43.3183 9.96764 43.4438 10.0744 43.5492C10.2331 43.7063 10.4348 43.8129 10.654 43.8555C10.8732 43.8981 11.1001 43.8748 11.3061 43.7886C11.5121 43.7024 11.688 43.557 11.8115 43.371C11.935 43.1849 12.0006 42.9664 12 42.7431V27.5066C12 27.3324 12.0673 27.1649 12.1879 27.0391L23.6548 15.0728C23.8708 14.8506 23.992 14.5531 23.9926 14.2431C23.9929 14.0772 23.9579 13.913 23.89 13.7616C23.8221 13.6102 23.7228 13.4749 23.5987 13.3647C23.3739 13.1622 23.0813 13.0516 22.7788 13.0547C22.4763 13.0578 22.1861 13.1745 21.9656 13.3816L13.6291 21.3465C13.5033 21.4666 13.3361 21.5337 13.1622 21.5337H4.47301C4.00462 21.5335 3.55526 21.719 3.22343 22.0496C2.89159 22.3801 2.70435 22.8288 2.70274 23.2972V33.662C2.70201 33.7969 2.72837 33.9306 2.78025 34.0552C2.83213 34.1797 2.90848 34.2926 3.00477 34.387C3.14877 34.5302 3.33185 34.6276 3.53101 34.667C3.73017 34.7064 3.93654 34.6861 4.12422 34.6087C4.31189 34.5312 4.4725 34.4001 4.58589 34.2316C4.69927 34.0632 4.76038 33.8651 4.76153 33.662V27.8512C4.76153 27.672 4.83271 27.5002 4.95943 27.3735C5.08614 27.2467 5.258 27.1756 5.4372 27.1756C5.6164 27.1756 5.78826 27.2467 5.91498 27.3735C6.04169 27.5002 6.11288 27.672 6.11288 27.8512V33.662C6.11288 34.2937 5.86194 34.8995 5.41528 35.3462C4.96861 35.7929 4.3628 36.0438 3.73112 36.0438C3.09944 36.0438 2.49363 35.7929 2.04697 35.3462C1.6003 34.8995 1.34937 34.2937 1.34937 33.662V23.2972C1.35115 22.4704 1.68083 21.6782 2.26605 21.0942C2.85128 20.5103 3.64425 20.1823 4.47099 20.1823H12.8919L21.0331 12.4033C21.5004 11.9638 22.1152 11.7152 22.7566 11.7063C23.398 11.6974 24.0194 11.9289 24.4987 12.3553C24.7534 12.5827 24.9596 12.8593 25.1047 13.1684C25.2498 13.4776 25.3309 13.8129 25.3431 14.1542C25.3552 14.4954 25.2983 14.8357 25.1756 15.1544C25.0529 15.4731 24.867 15.7637 24.6291 16.0087L13.3514 27.7783V42.7431C13.3514 43.4014 13.0903 44.0328 12.6255 44.4989C12.1607 44.9651 11.5299 45.2278 10.8717 45.2296Z" fill="#393333"/>
<path d="M9.06008 19.2763C8.18858 19.2764 7.33662 19.0181 6.61194 18.534C5.88726 18.0499 5.32241 17.3618 4.98884 16.5567C4.65528 15.7515 4.56796 14.8656 4.73795 14.0108C4.90794 13.156 5.32759 12.3709 5.94383 11.7547C6.56007 11.1384 7.34522 10.7188 8.19998 10.5488C9.05474 10.3788 9.94071 10.4661 10.7458 10.7997C11.551 11.1332 12.2391 11.6981 12.7232 12.4228C13.2073 13.1474 13.4656 13.9994 13.4655 14.8709C13.4642 16.0389 12.9997 17.1587 12.1738 17.9846C11.3479 18.8105 10.2281 19.275 9.06008 19.2763ZM9.06008 11.8162C8.45588 11.816 7.86521 11.9951 7.36278 12.3307C6.86034 12.6662 6.4687 13.1433 6.23739 13.7014C6.00609 14.2596 5.9455 14.8738 6.06329 15.4664C6.18108 16.059 6.47196 16.6034 6.89914 17.0307C7.32633 17.458 7.87063 17.749 8.4632 17.8669C9.05578 17.9848 9.67002 17.9243 10.2282 17.6932C10.7865 17.462 11.2636 17.0704 11.5993 16.5681C11.935 16.0657 12.1141 15.4751 12.1141 14.8709C12.1132 14.0611 11.7912 13.2848 11.2187 12.7121C10.6461 12.1394 9.86985 11.8172 9.06008 11.8162Z" fill="#393333"/>
<path d="M37.3244 26.2366H35.3176C35.1384 26.2366 34.9666 26.1654 34.8399 26.0386C34.7132 25.9119 34.642 25.7401 34.642 25.5609C34.642 25.3817 34.7132 25.2098 34.8399 25.0831C34.9666 24.9564 35.1384 24.8852 35.3176 24.8852H37.3244C37.5036 24.8852 37.6755 24.9564 37.8022 25.0831C37.9289 25.2098 38.0001 25.3817 38.0001 25.5609C38.0001 25.7401 37.9289 25.9119 37.8022 26.0386C37.6755 26.1654 37.5036 26.2366 37.3244 26.2366Z" fill="#393333"/>
<path d="M46.6216 26.2366H42.0541C41.8749 26.2366 41.703 26.1654 41.5763 26.0387C41.4496 25.912 41.3784 25.7401 41.3784 25.5609C41.3784 25.3817 41.4496 25.2098 41.5763 25.0831C41.703 24.9564 41.8749 24.8852 42.0541 24.8852H46.6216C46.8008 24.8852 46.9727 24.814 47.0994 24.6873C47.2261 24.5606 47.2973 24.3888 47.2973 24.2096V6.8109C47.2973 6.6317 47.2261 6.45984 47.0994 6.33313C46.9727 6.20641 46.8008 6.13523 46.6216 6.13523H20.8243C20.6451 6.13523 20.4733 6.20641 20.3466 6.33313C20.2199 6.45984 20.1487 6.6317 20.1487 6.8109V13.2494L21.0331 12.4035C21.5004 11.964 22.1152 11.7154 22.7566 11.7065C23.398 11.6977 24.0194 11.9292 24.4987 12.3555C24.7534 12.5829 24.9596 12.8595 25.1047 13.1687C25.2498 13.4778 25.3309 13.8131 25.343 14.1544C25.3552 14.4957 25.2983 14.8359 25.1756 15.1546C25.0529 15.4733 24.867 15.7639 24.6291 16.0089L20.1487 20.6839V24.2096C20.1487 24.3888 20.2199 24.5606 20.3466 24.6873C20.4733 24.814 20.6451 24.8852 20.8243 24.8852H23.8987C24.0779 24.8852 24.2497 24.9564 24.3764 25.0831C24.5032 25.2098 24.5743 25.3817 24.5743 25.5609C24.5743 25.7401 24.5032 25.912 24.3764 26.0387C24.2497 26.1654 24.0779 26.2366 23.8987 26.2366H20.8243C20.2867 26.2366 19.7712 26.023 19.391 25.6429C19.0109 25.2627 18.7973 24.7472 18.7973 24.2096V20.4123C18.7975 20.2379 18.865 20.0704 18.9858 19.9447L23.6547 15.0731C23.8708 14.8508 23.9919 14.5533 23.9926 14.2433C23.9929 14.0774 23.9579 13.9132 23.89 13.7618C23.8221 13.6104 23.7228 13.4751 23.5987 13.365C23.3739 13.1624 23.0813 13.0518 22.7788 13.0549C22.4763 13.058 22.1861 13.1747 21.9656 13.3818L19.9385 15.3204C19.8429 15.412 19.7224 15.4736 19.5921 15.4973C19.4617 15.5211 19.3273 15.506 19.2055 15.4539C19.0836 15.4019 18.9798 15.3151 18.9069 15.2045C18.8339 15.0939 18.7951 14.9643 18.7953 14.8318V6.8109C18.7953 6.2733 19.0088 5.75772 19.389 5.37758C19.7691 4.99744 20.2847 4.78387 20.8223 4.78387H46.6216C47.1592 4.78387 47.6748 4.99744 48.055 5.37758C48.4351 5.75772 48.6487 6.2733 48.6487 6.8109V24.2096C48.6487 24.7472 48.4351 25.2627 48.055 25.6429C47.6748 26.023 47.1592 26.2366 46.6216 26.2366Z" fill="#393333"/>
<path d="M30.5879 26.2366H28.6284C28.4492 26.2366 28.2774 26.1654 28.1507 26.0386C28.0239 25.9119 27.9528 25.7401 27.9528 25.5609C27.9528 25.3817 28.0239 25.2098 28.1507 25.0831C28.2774 24.9564 28.4492 24.8852 28.6284 24.8852H30.5879C30.7671 24.8852 30.939 24.9564 31.0657 25.0831C31.1924 25.2098 31.2636 25.3817 31.2636 25.5609C31.2636 25.7401 31.1924 25.9119 31.0657 26.0386C30.939 26.1654 30.7671 26.2366 30.5879 26.2366Z" fill="#393333"/>
<path d="M42.2973 20.9278C42.1181 20.9278 41.9462 20.8566 41.8195 20.7299C41.6928 20.6032 41.6216 20.4313 41.6216 20.2521V11.0852C41.6216 10.906 41.6928 10.7342 41.8195 10.6074C41.9462 10.4807 42.1181 10.4095 42.2973 10.4095C42.4765 10.4095 42.6483 10.4807 42.775 10.6074C42.9018 10.7342 42.9729 10.906 42.9729 11.0852V20.2521C42.9729 20.4313 42.9018 20.6032 42.775 20.7299C42.6483 20.8566 42.4765 20.9278 42.2973 20.9278Z" fill="#393333"/>
<path d="M37.8041 20.9278C37.6249 20.9278 37.453 20.8567 37.3263 20.7299C37.1996 20.6032 37.1284 20.4314 37.1284 20.2522V14.2386C37.1284 14.0594 37.1996 13.8876 37.3263 13.7609C37.453 13.6342 37.6249 13.563 37.8041 13.563C37.9833 13.563 38.1552 13.6342 38.2819 13.7609C38.4086 13.8876 38.4798 14.0594 38.4798 14.2386V20.2522C38.4798 20.4314 38.4086 20.6032 38.2819 20.7299C38.1552 20.8567 37.9833 20.9278 37.8041 20.9278Z" fill="#393333"/>
<path d="M33.3108 20.9278C33.1316 20.9278 32.9597 20.8566 32.833 20.7299C32.7063 20.6032 32.6351 20.4313 32.6351 20.2521V11.0852C32.6351 10.906 32.7063 10.7342 32.833 10.6074C32.9597 10.4807 33.1316 10.4095 33.3108 10.4095C33.49 10.4095 33.6619 10.4807 33.7886 10.6074C33.9153 10.7342 33.9865 10.906 33.9865 11.0852V20.2521C33.9865 20.4313 33.9153 20.6032 33.7886 20.7299C33.6619 20.8566 33.49 20.9278 33.3108 20.9278Z" fill="#393333"/>
<path d="M28.8223 20.9278C28.6431 20.9278 28.4712 20.8567 28.3445 20.7299C28.2178 20.6032 28.1466 20.4314 28.1466 20.2522V14.2386C28.1466 14.0594 28.2178 13.8876 28.3445 13.7609C28.4712 13.6342 28.6431 13.563 28.8223 13.563C29.0015 13.563 29.1733 13.6342 29.3001 13.7609C29.4268 13.8876 29.498 14.0594 29.498 14.2386V20.2522C29.498 20.4314 29.4268 20.6032 29.3001 20.7299C29.1733 20.8567 29.0015 20.9278 28.8223 20.9278Z" fill="#393333"/>
</svg>
