<svg width="50" height="50" viewBox="0 0 50 50" fill="none" xmlns="http://www.w3.org/2000/svg">
<g opacity="0.4">
<path d="M7.25106 45.2269C6.59224 45.2262 5.96062 44.9641 5.49483 44.4982C5.02904 44.0323 4.76714 43.4006 4.7666 42.7418V27.5073C4.7666 27.3281 4.83779 27.1562 4.9645 27.0295C5.09122 26.9028 5.26308 26.8316 5.44228 26.8316C5.62148 26.8316 5.79334 26.9028 5.92005 27.0295C6.04676 27.1562 6.11795 27.3281 6.11795 27.5073V42.7418C6.11426 42.8929 6.14085 43.0433 6.19615 43.1841C6.25145 43.3248 6.33435 43.4531 6.43997 43.5613C6.54558 43.6695 6.67178 43.7555 6.81113 43.8143C6.95049 43.873 7.10018 43.9032 7.2514 43.9032C7.40262 43.9032 7.55231 43.873 7.69166 43.8143C7.83101 43.7555 7.95721 43.6695 8.06283 43.5613C8.16844 43.4531 8.25134 43.3248 8.30664 43.1841C8.36195 43.0433 8.38853 42.8929 8.38484 42.7418V35.283C8.38484 35.1038 8.45603 34.9319 8.58274 34.8052C8.70946 34.6785 8.88132 34.6073 9.06052 34.6073C9.23972 34.6073 9.41158 34.6785 9.53829 34.8052C9.66501 34.9319 9.73619 35.1038 9.73619 35.283V42.7418C9.73548 43.4006 9.47342 44.0323 9.00752 44.4982C8.54163 44.9641 7.90994 45.2262 7.25106 45.2269Z" fill="#393333"/>
<path d="M10.8719 45.2296C10.2125 45.2294 9.58016 44.9674 9.11389 44.5011C8.64762 44.0349 8.3856 43.4025 8.38542 42.7431V35.2837C8.38542 35.1045 8.4566 34.9326 8.58332 34.8059C8.71003 34.6792 8.88189 34.608 9.06109 34.608C9.24029 34.608 9.41215 34.6792 9.53887 34.8059C9.66558 34.9326 9.73677 35.1045 9.73677 35.2837V42.7431C9.73709 42.8931 9.76712 43.0416 9.8251 43.1799C9.88308 43.3183 9.96788 43.4438 10.0746 43.5492C10.2333 43.7063 10.435 43.8129 10.6542 43.8555C10.8734 43.8981 11.1004 43.8748 11.3064 43.7886C11.5124 43.7024 11.6882 43.557 11.8117 43.371C11.9352 43.1849 12.0008 42.9664 12.0003 42.7431V27.5066C12.0003 27.3324 12.0676 27.1649 12.1881 27.0391L23.655 15.0728C23.871 14.8506 23.9922 14.5531 23.9928 14.2431C23.9931 14.0772 23.9582 13.913 23.8903 13.7616C23.8224 13.6102 23.723 13.4749 23.5989 13.3647C23.3742 13.1622 23.0816 13.0516 22.7791 13.0547C22.4766 13.0578 22.1863 13.1745 21.9658 13.3816L13.6293 21.3465C13.5036 21.4666 13.3364 21.5337 13.1624 21.5337H4.47326C4.00487 21.5335 3.55551 21.719 3.22367 22.0496C2.89184 22.3801 2.7046 22.8288 2.70299 23.2972V33.662C2.70226 33.7969 2.72861 33.9306 2.78049 34.0552C2.83237 34.1797 2.90872 34.2926 3.00501 34.387C3.14902 34.5302 3.33209 34.6276 3.53125 34.667C3.73042 34.7064 3.93679 34.6861 4.12446 34.6087C4.31214 34.5312 4.47275 34.4001 4.58613 34.2316C4.69952 34.0632 4.76062 33.8651 4.76177 33.662V27.8512C4.76177 27.672 4.83296 27.5002 4.95967 27.3735C5.08638 27.2467 5.25824 27.1756 5.43745 27.1756C5.61665 27.1756 5.78851 27.2467 5.91522 27.3735C6.04193 27.5002 6.11312 27.672 6.11312 27.8512V33.662C6.11312 34.2937 5.86219 34.8995 5.41552 35.3462C4.96885 35.7929 4.36305 36.0438 3.73136 36.0438C3.09968 36.0438 2.49388 35.7929 2.04721 35.3462C1.60054 34.8995 1.34961 34.2937 1.34961 33.662V23.2972C1.3514 22.4704 1.68107 21.6782 2.2663 21.0942C2.85152 20.5103 3.64449 20.1823 4.47123 20.1823H12.8922L21.0334 12.4033C21.5006 11.9638 22.1155 11.7152 22.7568 11.7063C23.3982 11.6974 24.0197 11.9289 24.4989 12.3553C24.7537 12.5827 24.9598 12.8593 25.1049 13.1684C25.25 13.4776 25.3311 13.8129 25.3433 14.1542C25.3555 14.4954 25.2985 14.8357 25.1758 15.1544C25.0531 15.4731 24.8672 15.7637 24.6293 16.0087L13.3516 27.7783V42.7431C13.3516 43.4014 13.0906 44.0328 12.6257 44.4989C12.1609 44.9651 11.5302 45.2278 10.8719 45.2296Z" fill="#393333"/>
<path d="M9.06008 19.2763C8.18858 19.2764 7.33662 19.0181 6.61194 18.534C5.88726 18.0499 5.32241 17.3618 4.98884 16.5567C4.65528 15.7515 4.56796 14.8656 4.73795 14.0108C4.90794 13.156 5.32759 12.3709 5.94383 11.7547C6.56007 11.1384 7.34522 10.7188 8.19998 10.5488C9.05474 10.3788 9.94071 10.4661 10.7458 10.7997C11.551 11.1332 12.2391 11.6981 12.7232 12.4228C13.2073 13.1474 13.4656 13.9994 13.4655 14.8709C13.4642 16.0389 12.9997 17.1587 12.1738 17.9846C11.3479 18.8105 10.2281 19.275 9.06008 19.2763ZM9.06008 11.8162C8.45588 11.816 7.86521 11.9951 7.36278 12.3307C6.86034 12.6662 6.4687 13.1433 6.23739 13.7014C6.00609 14.2596 5.9455 14.8738 6.06329 15.4664C6.18108 16.059 6.47196 16.6034 6.89914 17.0307C7.32633 17.458 7.87063 17.749 8.4632 17.8669C9.05578 17.9848 9.67002 17.9243 10.2282 17.6932C10.7865 17.462 11.2636 17.0704 11.5993 16.5681C11.935 16.0657 12.1141 15.4751 12.1141 14.8709C12.1132 14.0611 11.7912 13.2848 11.2187 12.7121C10.6461 12.1394 9.86985 11.8172 9.06008 11.8162Z" fill="#393333"/>
<path d="M37.324 26.2366H35.3173C35.1381 26.2366 34.9662 26.1654 34.8395 26.0386C34.7128 25.9119 34.6416 25.7401 34.6416 25.5609C34.6416 25.3817 34.7128 25.2098 34.8395 25.0831C34.9662 24.9564 35.1381 24.8852 35.3173 24.8852H37.324C37.5032 24.8852 37.6751 24.9564 37.8018 25.0831C37.9285 25.2098 37.9997 25.3817 37.9997 25.5609C37.9997 25.7401 37.9285 25.9119 37.8018 26.0386C37.6751 26.1654 37.5032 26.2366 37.324 26.2366Z" fill="#393333"/>
<path d="M46.6213 26.2366H42.0537C41.8745 26.2366 41.7027 26.1654 41.5759 26.0387C41.4492 25.912 41.378 25.7401 41.378 25.5609C41.378 25.3817 41.4492 25.2098 41.5759 25.0831C41.7027 24.9564 41.8745 24.8852 42.0537 24.8852H46.6213C46.8005 24.8852 46.9723 24.814 47.0991 24.6873C47.2258 24.5606 47.297 24.3888 47.297 24.2096V6.8109C47.297 6.6317 47.2258 6.45984 47.0991 6.33313C46.9723 6.20641 46.8005 6.13523 46.6213 6.13523H20.824C20.6448 6.13523 20.4729 6.20641 20.3462 6.33313C20.2195 6.45984 20.1483 6.6317 20.1483 6.8109V13.2494L21.0328 12.4035C21.5 11.964 22.1148 11.7154 22.7562 11.7065C23.3976 11.6977 24.0191 11.9292 24.4983 12.3555C24.7531 12.5829 24.9592 12.8595 25.1043 13.1687C25.2494 13.4778 25.3305 13.8131 25.3427 14.1544C25.3549 14.4957 25.2979 14.8359 25.1752 15.1546C25.0525 15.4733 24.8666 15.7639 24.6287 16.0089L20.1483 20.6839V24.2096C20.1483 24.3888 20.2195 24.5606 20.3462 24.6873C20.4729 24.814 20.6448 24.8852 20.824 24.8852H23.8983C24.0775 24.8852 24.2494 24.9564 24.3761 25.0831C24.5028 25.2098 24.574 25.3817 24.574 25.5609C24.574 25.7401 24.5028 25.912 24.3761 26.0387C24.2494 26.1654 24.0775 26.2366 23.8983 26.2366H20.824C20.2864 26.2366 19.7708 26.023 19.3907 25.6429C19.0105 25.2627 18.7969 24.7472 18.7969 24.2096V20.4123C18.7971 20.2379 18.8647 20.0704 18.9855 19.9447L23.6544 15.0731C23.8704 14.8508 23.9916 14.5533 23.9922 14.2433C23.9925 14.0774 23.9576 13.9132 23.8896 13.7618C23.8217 13.6104 23.7224 13.4751 23.5983 13.365C23.3736 13.1624 23.0809 13.0518 22.7785 13.0549C22.476 13.058 22.1857 13.1747 21.9652 13.3818L19.9382 15.3204C19.8425 15.412 19.722 15.4736 19.5917 15.4973C19.4614 15.5211 19.3269 15.506 19.2051 15.4539C19.0833 15.4019 18.9794 15.3151 18.9065 15.2045C18.8336 15.0939 18.7948 14.9643 18.7949 14.8318V6.8109C18.7949 6.2733 19.0085 5.75772 19.3886 5.37758C19.7688 4.99744 20.2843 4.78387 20.8219 4.78387H46.6213C47.1589 4.78387 47.6745 4.99744 48.0546 5.37758C48.4347 5.75772 48.6483 6.2733 48.6483 6.8109V24.2096C48.6483 24.7472 48.4347 25.2627 48.0546 25.6429C47.6745 26.023 47.1589 26.2366 46.6213 26.2366Z" fill="#393333"/>
<path d="M30.5883 26.2366H28.6288C28.4496 26.2366 28.2777 26.1654 28.151 26.0386C28.0243 25.9119 27.9531 25.7401 27.9531 25.5609C27.9531 25.3817 28.0243 25.2098 28.151 25.0831C28.2777 24.9564 28.4496 24.8852 28.6288 24.8852H30.5883C30.7675 24.8852 30.9393 24.9564 31.066 25.0831C31.1928 25.2098 31.2639 25.3817 31.2639 25.5609C31.2639 25.7401 31.1928 25.9119 31.066 26.0386C30.9393 26.1654 30.7675 26.2366 30.5883 26.2366Z" fill="#393333"/>
<path d="M42.2978 20.9278C42.1185 20.9278 41.9467 20.8566 41.82 20.7299C41.6933 20.6032 41.6221 20.4313 41.6221 20.2521V11.0852C41.6221 10.906 41.6933 10.7342 41.82 10.6074C41.9467 10.4807 42.1185 10.4095 42.2978 10.4095C42.477 10.4095 42.6488 10.4807 42.7755 10.6074C42.9022 10.7342 42.9734 10.906 42.9734 11.0852V20.2521C42.9734 20.4313 42.9022 20.6032 42.7755 20.7299C42.6488 20.8566 42.477 20.9278 42.2978 20.9278Z" fill="#393333"/>
<path d="M37.8036 20.9278C37.6244 20.9278 37.4525 20.8567 37.3258 20.7299C37.1991 20.6032 37.1279 20.4314 37.1279 20.2522V14.2386C37.1279 14.0594 37.1991 13.8876 37.3258 13.7609C37.4525 13.6342 37.6244 13.563 37.8036 13.563C37.9828 13.563 38.1547 13.6342 38.2814 13.7609C38.4081 13.8876 38.4793 14.0594 38.4793 14.2386V20.2522C38.4793 20.4314 38.4081 20.6032 38.2814 20.7299C38.1547 20.8567 37.9828 20.9278 37.8036 20.9278Z" fill="#393333"/>
<path d="M33.3104 20.9278C33.1312 20.9278 32.9594 20.8566 32.8327 20.7299C32.706 20.6032 32.6348 20.4313 32.6348 20.2521V11.0852C32.6348 10.906 32.706 10.7342 32.8327 10.6074C32.9594 10.4807 33.1312 10.4095 33.3104 10.4095C33.4896 10.4095 33.6615 10.4807 33.7882 10.6074C33.9149 10.7342 33.9861 10.906 33.9861 11.0852V20.2521C33.9861 20.4313 33.9149 20.6032 33.7882 20.7299C33.6615 20.8566 33.4896 20.9278 33.3104 20.9278Z" fill="#393333"/>
<path d="M28.8222 20.9278C28.643 20.9278 28.4711 20.8567 28.3444 20.7299C28.2177 20.6032 28.1465 20.4314 28.1465 20.2522V14.2386C28.1465 14.0594 28.2177 13.8876 28.3444 13.7609C28.4711 13.6342 28.643 13.563 28.8222 13.563C29.0014 13.563 29.1732 13.6342 29.2999 13.7609C29.4267 13.8876 29.4978 14.0594 29.4978 14.2386V20.2522C29.4978 20.4314 29.4267 20.6032 29.2999 20.7299C29.1732 20.8567 29.0014 20.9278 28.8222 20.9278Z" fill="#393333"/>
</g>
</svg>
