<svg width="50" height="50" viewBox="0 0 50 50" fill="none" xmlns="http://www.w3.org/2000/svg">
<path d="M49.8352 10.846C49.8669 9.47634 49.6244 8.11417 49.1222 6.83954C48.6199 5.56491 47.868 4.40353 46.9105 3.42364C45.953 2.44376 44.8093 1.66515 43.5466 1.13356C42.2839 0.601967 40.9277 0.328125 39.5577 0.328125C38.1877 0.328125 36.8315 0.601967 35.5688 1.13356C34.3061 1.66515 33.1624 2.44376 32.205 3.42364C31.2475 4.40353 30.4955 5.56491 29.9932 6.83954C29.491 8.11417 29.2486 9.47634 29.2802 10.846C29.3113 11.8389 29.5217 12.818 29.9011 13.7361C28.5519 13.4219 27.1711 13.2634 25.7857 13.2636C22.3295 13.2488 18.9427 14.2334 16.033 16.0987C15.3868 14.3002 14.1266 12.7874 12.4744 11.8269C10.8222 10.8664 8.88403 10.5198 7.00135 10.8481C5.11867 11.1765 3.41226 12.1587 2.18274 13.6218C0.953224 15.0848 0.279489 16.9349 0.280228 18.846C0.280228 23.0768 6.92309 30.0987 7.69232 30.9119V31.335C7.69232 36.1337 9.59858 40.7358 12.9918 44.129C16.3849 47.5221 20.9871 49.4284 25.7857 49.4284C30.5844 49.4284 35.1865 47.5221 38.5797 44.129C41.9729 40.7358 43.8791 36.1337 43.8791 31.335C43.8777 28.8137 43.3421 26.3212 42.3077 24.0218C43.0934 23.1152 44.022 21.9943 44.9616 20.7636C48.2033 16.5328 49.8352 13.1867 49.8352 10.846ZM39.5605 2.48885C41.7755 2.49176 43.8989 3.37335 45.4647 4.94015C47.0305 6.50694 47.9107 8.63094 47.9121 10.846C47.9121 14.4229 42.4176 21.1592 39.5605 24.2581C36.7088 21.1592 31.2033 14.4229 31.2033 10.846C31.2048 8.62999 32.0857 6.50516 33.6527 4.93821C35.2196 3.37126 37.3445 2.49031 39.5605 2.48885ZM8.4066 12.6372C9.22216 12.6379 10.0296 12.7995 10.7826 13.1126C11.5357 13.4256 12.2196 13.8842 12.7953 14.4619C13.3709 15.0396 13.827 15.7251 14.1375 16.4793C14.4479 17.2335 14.6066 18.0414 14.6044 18.857C14.6044 21.4779 10.6154 26.4119 8.4066 28.8405C6.19232 26.4119 2.19781 21.4779 2.19781 18.857C2.19564 18.0405 2.35468 17.2316 2.66579 16.4768C2.97691 15.7219 3.43399 15.0358 4.01082 14.458C4.58765 13.8801 5.27287 13.4218 6.0272 13.1094C6.78153 12.7969 7.59013 12.6365 8.4066 12.6372ZM9.64836 30.313C10.022 29.9009 10.544 29.324 11.1319 28.6317C12.6868 28.3075 13.467 28.357 13.5055 28.7141C13.544 29.0713 12.7253 29.9174 12.4066 30.4834C11.5769 31.9449 11.4341 33.4174 12.467 34.879L12.9176 35.4559L12.7033 35.8075C12.1094 36.6054 11.6217 37.4772 11.2528 38.4009C10.1719 36.1966 9.61174 33.7736 9.6154 31.3185C9.6154 30.9998 9.62639 30.6647 9.64836 30.335V30.313ZM12.6978 40.7965C12.8284 39.3757 13.3814 38.0266 14.2857 36.9229C14.5658 36.4759 14.7527 35.9769 14.8352 35.4559C14.8352 34.0273 13.6154 33.9614 13.7363 32.4339C13.8132 31.6977 14.1187 31.0041 14.6099 30.4504C14.6099 30.4504 15.5824 29.3515 15.489 28.5438C15.3462 27.302 14.0165 26.8954 12.6648 26.7746C14.5824 24.2691 16.544 21.1482 16.544 18.857C16.544 18.6097 16.544 18.3625 16.5055 18.1207C19.2228 16.1956 22.4721 15.1643 25.8022 15.1702H26.1978C26.4048 15.7787 26.7111 16.3486 27.1044 16.857C27.4567 17.2314 27.685 17.7053 27.7583 18.2141C27.6978 18.9614 26.4011 19.4229 25.3627 19.7965C24.0485 20.3181 22.8016 20.9951 21.6484 21.813C20.9073 22.3112 20.342 23.0302 20.033 23.868C19.5605 25.4339 20.4835 26.8295 21.2308 27.9449L21.3077 28.0603C21.7967 28.802 22.2198 29.846 21.8077 30.335C21.3956 30.824 20.2143 30.5768 19.1374 30.2416C18.8151 30.151 18.4735 30.1545 18.1532 30.2519C17.8328 30.3493 17.547 30.5364 17.3297 30.7911C17.0257 31.1281 16.8228 31.5439 16.7441 31.9909C16.6654 32.4378 16.7141 32.8979 16.8846 33.3185C17.2747 34.2856 18.3187 35.3625 21.4286 35.7141C21.6374 35.7141 22.3132 35.7141 22.2857 36.1372C22.2857 36.4669 21.8022 36.6867 21.4561 36.9724C20.7528 37.5218 19.6868 38.3954 19.9725 39.8735C20.0167 40.1615 20.1264 40.4357 20.2931 40.6747C20.4598 40.9138 20.6791 41.1115 20.9341 41.2526C22.0824 41.8735 23.6484 41.2526 25.4616 40.5163C26.478 40.1097 28.5714 39.2526 28.8462 39.7196C29.2363 40.4339 27.6044 42.5987 27.5495 42.6757C27.159 43.1555 26.8862 43.72 26.7528 44.324C26.6915 44.8523 26.7704 45.3874 26.9817 45.8755C27.1929 46.3635 27.529 46.7873 27.9561 47.1042C28.044 47.1757 28.1319 47.2471 28.2253 47.313C25.2905 47.7571 22.2901 47.3862 19.5518 46.2409C16.8135 45.0956 14.4425 43.2198 12.6978 40.8185V40.7965ZM31.5879 46.4284C30.0824 46.368 29.5605 45.9394 29.1594 45.6152C29 45.5071 28.8699 45.3612 28.7807 45.1906C28.6915 45.0199 28.6461 44.8298 28.6484 44.6372C28.7476 44.3247 28.9082 44.0351 29.1209 43.7856C29.1868 43.6976 31.4945 40.6207 30.5495 38.8405C29.4945 36.813 26.8572 37.8735 24.7253 38.7251C23.8736 39.0713 21.9176 40.1812 21.8407 39.4943C21.8077 39.2141 21.9286 39.0383 22.6374 38.4669C23.2512 38.0537 23.7442 37.4848 24.066 36.8185C24.1748 36.5333 24.2132 36.226 24.1778 35.9227C24.1424 35.6195 24.0343 35.3293 23.8627 35.0768C23.6481 34.7203 23.3509 34.4209 22.996 34.2038C22.6412 33.9866 22.2392 33.8583 21.8242 33.8295C19.6923 33.5383 18.7583 33.0438 18.6264 32.5383C18.6089 32.4708 18.6052 32.4005 18.6156 32.3316C18.626 32.2626 18.6502 32.1965 18.6868 32.1372C19.8407 32.4944 21.9835 33.0933 23.2583 31.5878C24.2033 30.4889 24.066 28.7965 22.8846 27.0108L22.8077 26.8954C22.2583 26.0328 21.6429 25.1372 21.8517 24.4339C22.0569 23.9859 22.3845 23.605 22.7967 23.335C23.7652 22.609 24.8353 22.0296 25.9725 21.6152C27.3682 21.1152 29.4835 20.3625 29.6374 18.3735C29.6315 17.4094 29.2762 16.4801 28.6374 15.7581L28.4011 15.3845C29.2808 15.5284 30.1466 15.7471 30.989 16.0383C31.7893 17.4593 32.6813 18.8267 33.6594 20.1317L31.5495 23.0768C30.6868 24.2911 30.5879 25.4998 31.4066 26.1647C32.2253 26.8295 33.8901 26.8295 34.6154 26.9229C35.0769 26.9779 34.7253 27.9724 34.6154 28.3954C34.3566 29.0629 34.3276 29.7976 34.533 30.4834C34.6112 30.6616 34.7267 30.821 34.8717 30.9508C35.0167 31.0807 35.1879 31.178 35.3736 31.2361C35.6456 31.3276 35.9344 31.3578 36.2194 31.3246C36.5043 31.2913 36.7784 31.1954 37.022 31.0438C37.2528 30.879 37.7528 30.4943 38.011 30.4943C38.1429 30.4943 38.4231 30.7251 38.6209 30.879C39.1087 31.3507 39.7464 31.6365 40.4231 31.6867C41.0025 31.6741 41.5534 31.4331 41.9561 31.0163V31.346C41.95 34.6122 40.9567 37.8003 39.1064 40.4919C37.2561 43.1835 34.6353 45.2529 31.5879 46.4284ZM41.6154 28.0218C40.8517 29.4834 40.6099 29.7691 40.3956 29.7746C40.1813 29.7801 40 29.5163 39.7912 29.3515C39.2799 28.8727 38.6122 28.5955 37.9121 28.5713C37.3738 28.6689 36.8602 28.8725 36.4011 29.1702C36.5552 28.4893 36.6654 27.7992 36.7308 27.1042C36.7638 26.1647 36.6319 25.7086 35.9121 25.2801C35.4994 25.0828 35.045 24.9885 34.5879 25.0053C33.033 25.0053 32.9011 24.9449 32.8077 24.802C32.7143 24.6592 33.2912 23.879 33.4671 23.6317L34.8736 21.7251C36.9341 24.324 38.7802 26.2526 38.8627 26.3405C38.9524 26.4344 39.0603 26.5092 39.1798 26.5602C39.2992 26.6113 39.4278 26.6376 39.5577 26.6376C39.6876 26.6376 39.8162 26.6113 39.9357 26.5602C40.0551 26.5092 40.163 26.4344 40.2528 26.3405C40.2528 26.3075 40.522 26.0603 40.9121 25.6317C41.2078 26.4091 41.4429 27.2082 41.6154 28.0218Z" fill="#393333"/>
<path d="M44.8571 10.6208C44.855 9.57236 44.542 8.5481 43.9578 7.67748C43.3737 6.80687 42.5445 6.12899 41.5751 5.72953C40.6058 5.33006 39.5397 5.22695 38.5118 5.43322C37.4838 5.63949 36.5401 6.14589 35.7999 6.8884C35.0597 7.63091 34.5562 8.5762 34.3532 9.60478C34.1501 10.6334 34.2565 11.6991 34.659 12.6672C35.0615 13.6353 35.7419 14.4624 36.6143 15.0438C37.4868 15.6253 38.512 15.9351 39.5604 15.934C40.2572 15.9333 40.947 15.7952 41.5904 15.5277C42.2337 15.2603 42.8181 14.8686 43.31 14.3752C43.8019 13.8817 44.1917 13.2962 44.4572 12.652C44.7227 12.0078 44.8586 11.3176 44.8571 10.6208ZM36.1813 10.6208C36.1813 9.95247 36.3795 9.29915 36.7508 8.74346C37.1221 8.18776 37.6498 7.75465 38.2673 7.4989C38.8848 7.24314 39.5642 7.17622 40.2197 7.3066C40.8752 7.43699 41.4773 7.75882 41.9498 8.2314C42.4224 8.70398 42.7442 9.30608 42.8746 9.96156C43.005 10.617 42.9381 11.2965 42.6823 11.9139C42.4266 12.5314 41.9935 13.0591 41.4378 13.4304C40.8821 13.8017 40.2288 13.9999 39.5604 13.9999C38.6642 13.9999 37.8047 13.6439 37.171 13.0102C36.5373 12.3765 36.1813 11.517 36.1813 10.6208Z" fill="#393333"/>
<path d="M12.6978 18.681C12.6978 17.8309 12.4457 17 11.9733 16.2933C11.5009 15.5866 10.8296 15.0359 10.0441 14.7108C9.25867 14.3858 8.39447 14.301 7.56084 14.4672C6.72721 14.6335 5.96162 15.0432 5.36093 15.6447C4.76025 16.2462 4.35146 17.0123 4.18629 17.8461C4.02113 18.68 4.107 19.544 4.43305 20.3291C4.7591 21.1141 5.31067 21.7848 6.01798 22.2562C6.7253 22.7277 7.55656 22.9788 8.4066 22.9777C9.5452 22.9762 10.6367 22.5229 11.4413 21.7173C12.2459 20.9116 12.6978 19.8196 12.6978 18.681ZM6.04396 18.681C6.04396 18.2115 6.18317 17.7526 6.44399 17.3623C6.70481 16.9719 7.07552 16.6677 7.50924 16.488C7.94297 16.3084 8.42022 16.2614 8.88066 16.353C9.3411 16.4445 9.76404 16.6706 10.096 17.0026C10.428 17.3345 10.654 17.7575 10.7456 18.2179C10.8372 18.6783 10.7902 19.1556 10.6105 19.5893C10.4309 20.0231 10.1266 20.3938 9.73631 20.6546C9.34596 20.9154 8.88705 21.0546 8.41759 21.0546C7.78851 21.0532 7.18561 20.8026 6.74078 20.3578C6.29596 19.913 6.04541 19.3101 6.04396 18.681Z" fill="#393333"/>
</svg>
