<svg width="55" height="55" viewBox="0 0 55 55" fill="none" xmlns="http://www.w3.org/2000/svg">
<path d="M34.375 48.1251C33.5156 46.4064 30.9375 44.6876 30.9375 44.6876C31.2781 44.6949 31.6166 44.6331 31.9326 44.5062C32.2487 44.3792 32.5358 44.1895 32.7767 43.9487C33.0176 43.7078 33.2072 43.4207 33.3342 43.1046C33.4612 42.7885 33.5229 42.45 33.5156 42.1095L33.6102 42.0923C33.7437 43.0929 34.2515 44.0057 35.0313 44.6468C35.8111 45.2879 36.8049 45.6095 37.8125 45.547C38.1027 45.5488 38.3918 45.5112 38.6719 45.4353V45.547L40.2445 48.6923C40.3503 48.9044 40.4001 49.1401 40.3892 49.3768C40.3782 49.6136 40.307 49.8437 40.1821 50.0452C40.0573 50.2466 39.883 50.4129 39.6758 50.528C39.4686 50.6432 39.2355 50.7035 38.9984 50.7032H38.6719C36.0937 50.7032 35.2344 49.8439 34.375 48.1251Z" fill="#F77172"/>
<path d="M37.8125 45.5468C36.8049 45.6094 35.8111 45.2877 35.0313 44.6466C34.2515 44.0055 33.7437 43.0927 33.6102 42.0921C33.593 41.9804 33.5758 41.8772 33.5586 41.7827C34.0721 42.0012 34.6248 42.1123 35.1828 42.1093H37.125C38.1342 42.1111 39.1205 42.41 39.9609 42.9687C40.0923 43.0589 40.2302 43.1393 40.3734 43.2093C40.3438 43.7076 40.1659 44.1856 39.8628 44.5822C39.5596 44.9787 39.1449 45.2757 38.6719 45.4351C38.3918 45.511 38.1027 45.5486 37.8125 45.5468Z" fill="#FF999C"/>
<path d="M40.3734 43.2094C40.2302 43.1394 40.0923 43.059 39.9609 42.9688C39.1205 42.4101 38.1342 42.1112 37.125 42.1094H35.1828C34.0578 42.1063 32.9796 41.6583 32.1836 40.8633C31.7877 40.4707 31.4737 40.0035 31.2598 39.4886C31.0459 38.9738 30.9363 38.4216 30.9375 37.8641C30.9387 37.558 30.9704 37.2529 31.032 36.9531H40.0469C40.1672 36.9531 40.2789 36.9617 40.3906 36.9703L40.7258 37.0219L43.3984 37.5547C44.2299 37.7221 44.9704 38.1902 45.4781 38.8695L47.2656 41.25L47.4547 41.293C46.6169 42.573 45.3181 43.481 43.8281 43.8281H42.7969C41.95 43.8281 41.1167 43.6153 40.3734 43.2094Z" fill="#FFB5B8"/>
<path d="M26.821 22.507L28.3593 21.4844H28.4022C28.3748 21.626 28.3604 21.7698 28.3593 21.9141C28.3588 22.1964 28.4139 22.476 28.5216 22.737C28.6292 22.998 28.7872 23.2353 28.9866 23.4352C29.0485 23.497 29.1145 23.5544 29.1843 23.607C29.0892 24.2132 28.7806 24.7655 28.3141 25.1642C27.8477 25.5628 27.2541 25.7817 26.6405 25.7813H25.3687C25.6378 25.3924 25.7817 24.9307 25.7812 24.4578C25.7826 24.0726 25.8781 23.6935 26.0593 23.3536C26.2405 23.0136 26.502 22.723 26.821 22.507Z" fill="#FFA6A9"/>
<path d="M26.6406 12.0311V15.3311C26.641 15.5679 26.5571 15.797 26.404 15.9775C26.2508 16.1581 26.0384 16.2782 25.8048 16.3164C25.5712 16.3547 25.3316 16.3085 25.1289 16.1863C24.9262 16.064 24.7736 15.8736 24.6984 15.6491L24.4062 14.7725C24.2935 14.4351 24.0644 14.1488 23.76 13.9647C23.4556 13.7806 23.0957 13.7107 22.7445 13.7676C22.3933 13.8244 22.0738 14.0042 21.8429 14.2748C21.6121 14.5455 21.485 14.8895 21.4844 15.2452V15.3655C21.4843 15.7259 21.3774 16.0782 21.1771 16.3778C20.9769 16.6774 20.6923 16.911 20.3594 17.0489C20.0265 17.1869 19.6601 17.2231 19.3066 17.1529C18.9531 17.0827 18.6284 16.9093 18.3734 16.6546L17.1875 15.4686C17.4696 14.2094 18.108 13.0579 19.0266 12.1514C19.7009 11.5245 20.4938 11.0389 21.3587 10.723C22.2235 10.4072 23.1429 10.2676 24.0625 10.3124H27.4398C26.9632 10.7618 26.6771 11.377 26.6406 12.0311Z" fill="#FFA6A9"/>
<path d="M12.8906 39.4281L13.1141 40.2961L12.8906 40.3906H9.55625C9.2674 40.3903 8.98432 40.3097 8.73852 40.158C8.49272 40.0063 8.29386 39.7893 8.16407 39.5312C8.03427 39.2732 7.83541 39.0562 7.58961 38.9045C7.34382 38.7528 7.06073 38.6722 6.77188 38.6719C6.27237 38.6724 5.78 38.5533 5.33595 38.3246C4.8919 38.0958 4.50909 37.7641 4.21954 37.357L1.82188 33.9969C1.19474 33.1259 0.857959 32.0795 0.859379 31.0063V30.0781C0.86074 29.6227 1.04226 29.1863 1.36429 28.8643C1.68633 28.5423 2.12271 28.3607 2.57813 28.3594H4.29688C4.29824 27.904 4.47976 27.4676 4.80179 27.1455C5.12383 26.8235 5.56021 26.642 6.01563 26.6406C6.47043 26.644 6.90564 26.8262 7.22724 27.1478C7.54884 27.4694 7.73101 27.9046 7.73438 28.3594V30.0781C7.73574 30.5335 7.91726 30.9699 8.23929 31.292C8.56133 31.614 8.99771 31.7955 9.45313 31.7969H11.1719L11.1977 31.8141C10.5719 32.6113 10.2596 33.61 10.3197 34.6217C10.3799 35.6334 10.8084 36.588 11.5242 37.3055L12.3578 38.1391C12.5279 38.3083 12.6623 38.5099 12.7531 38.732C12.8424 38.9533 12.889 39.1895 12.8906 39.4281Z" fill="#FFA6A9"/>
<path d="M25.8243 20.2555C26.3594 19.9353 26.9711 19.7661 27.5946 19.7656H30.0782V19.8086C29.6653 19.8928 29.2863 20.0966 28.9884 20.3945C28.6904 20.6925 28.4866 21.0715 28.4024 21.4844H28.3595L26.8212 22.507C26.5022 22.723 26.2407 23.0136 26.0595 23.3536C25.8783 23.6935 25.7828 24.0726 25.7813 24.4578C25.7819 24.9307 25.638 25.3924 25.3688 25.7813C25.1811 26.0579 24.9346 26.2897 24.647 26.4602L21.4845 28.3594C21.4663 28.5927 21.4005 28.8199 21.2911 29.0268C21.1817 29.2337 21.0311 29.4161 20.8485 29.5625L20.5735 29.7859L21.4845 30.9289L22.5673 31.9945C22.7972 32.1573 23.0452 32.2928 23.3063 32.3984L23.2032 32.6563L19.7657 36.0938C19.7657 36.7775 19.4941 37.4333 19.0106 37.9168C18.5271 38.4003 17.8713 38.6719 17.1876 38.6719H12.8907L12.7532 38.732C12.6624 38.5099 12.528 38.3083 12.3579 38.1391L11.5243 37.3055C10.8084 36.5881 10.38 35.6334 10.3198 34.6217C10.2597 33.61 10.5719 32.6113 11.1977 31.8141C11.2995 31.6848 11.4086 31.5615 11.5243 31.4445L12.8907 30.0781L13.6126 28.8836L15.0993 26.3914C15.3378 26.0043 15.7164 25.7242 16.1563 25.6094L17.1618 25.3602L21.3813 24.3031C21.6571 24.2343 21.9018 24.0749 22.0763 23.8506C22.2508 23.6262 22.345 23.3498 22.3438 23.0656C22.3436 22.8457 22.4005 22.6295 22.5089 22.4381C22.6174 22.2468 22.7737 22.0869 22.9626 21.9742L25.8243 20.2555Z" fill="#FFC6C8"/>
<path d="M24.75 39.4453L28.3594 35.2344H31.7969L31.8313 35.2602C31.4414 35.7575 31.1683 36.3361 31.032 36.9531C30.9704 37.2529 30.9387 37.558 30.9375 37.8641C30.9363 38.4216 31.0459 38.9738 31.2598 39.4886C31.4737 40.0035 31.7877 40.4707 32.1836 40.8633C32.5742 41.2607 33.0421 41.5737 33.5586 41.7828C33.5758 41.8773 33.593 41.9805 33.6102 42.0922L33.5156 42.1094C33.5229 42.4499 33.4612 42.7884 33.3342 43.1045C33.2072 43.4206 33.0176 43.7077 32.7767 43.9486C32.5358 44.1894 32.2487 44.3791 31.9326 44.5061C31.6166 44.6331 31.2781 44.6948 30.9375 44.6875C28.05 44.6875 25.1625 41.0523 24.3203 39.8836C24.4742 39.7483 24.6178 39.6018 24.75 39.4453Z" fill="#FF999C"/>
<path d="M47.8672 40.3649C47.7628 40.6879 47.6245 40.999 47.4547 41.293L47.2656 41.25L45.4781 38.8695C44.9704 38.1902 44.2299 37.7221 43.3984 37.5547L40.7258 37.0219L40.3906 36.9703V36.9531C39.8739 35.9208 39.0802 35.0525 38.0983 34.4455C37.1163 33.8384 35.9849 33.5165 34.8305 33.5156H34.375L36.7211 32.3383C37.4402 31.9836 38.231 31.7984 39.0328 31.7969H41.4906C42.6064 31.7964 43.6921 32.1583 44.5844 32.8281C46.0969 33.9539 48.125 35.9734 48.125 38.6719C48.1305 39.2464 48.0435 39.818 47.8672 40.3649Z" fill="#FFD9DA"/>
<path d="M28.3592 35.2341L24.7498 39.445C24.6176 39.6015 24.474 39.748 24.3201 39.8833C23.3709 40.7623 22.1247 41.2504 20.8311 41.2497H14.7123C14.2292 41.2489 13.7659 41.0574 13.4232 40.7169C13.2986 40.5937 13.1942 40.4516 13.1139 40.2958L12.8904 39.4278C12.8888 39.1892 12.8422 38.9531 12.7529 38.7317L12.8904 38.6716H17.1873C17.8711 38.6716 18.5268 38.4 19.0103 37.9165C19.4938 37.433 19.7654 36.7772 19.7654 36.0935L23.2029 32.656L23.3061 32.3981C23.9118 32.6405 24.5723 32.7126 25.2161 32.6066C25.8599 32.5005 26.4624 32.2204 26.9584 31.7966C27.7299 31.1424 28.2194 30.2159 28.3248 29.2099L28.3592 29.2185C29.5588 28.7273 30.8363 28.4537 32.1318 28.4106C33.5154 28.8231 33.5154 31.7966 33.5154 31.7966L34.3748 33.5153L33.2834 34.0567C32.7145 34.3428 32.218 34.7542 31.8311 35.2599L31.7967 35.2341H28.3592Z" fill="#FFA6A9"/>
<path d="M34.8307 33.5156C35.9851 33.5165 37.1165 33.8384 38.0985 34.4455C39.0804 35.0525 39.8741 35.9208 40.3908 36.9531V36.9703C40.2791 36.9617 40.1674 36.9531 40.0471 36.9531H31.0322C31.1724 36.3349 31.4467 35.755 31.8358 35.2546C32.2249 34.7541 32.7192 34.3453 33.2838 34.057L34.3752 33.5156H34.8307Z" fill="#FFC6C8"/>
<path d="M51.5623 27.4995C52.3628 28.0999 53.0125 28.8784 53.46 29.7733C53.9075 30.6683 54.1404 31.6552 54.1404 32.6558C54.1404 36.7464 51.8029 40.055 47.867 40.3644C48.0433 39.8175 48.1303 39.2459 48.1248 38.6714C48.1248 35.9729 46.0967 33.9534 44.5842 32.8276C43.6919 32.1578 42.6062 31.7959 41.4904 31.7964H39.0326C38.2308 31.7979 37.44 31.9831 36.7209 32.3378L34.3748 33.5151L33.5154 31.7964C33.5154 31.7964 33.5154 28.8229 32.1318 28.4104C30.8363 28.4535 29.5588 28.7271 28.3592 29.2183L28.3248 29.2097C28.2194 30.2157 27.7299 31.1422 26.9584 31.7964C26.4624 32.2202 25.8599 32.5003 25.2161 32.6064C24.5723 32.7124 23.9118 32.6403 23.3061 32.3979C23.0449 32.2924 22.7969 32.1568 22.567 31.994L21.4842 30.9284L20.5732 29.7854L20.8482 29.562C21.0308 29.4156 21.1815 29.2332 21.2908 29.0263C21.4002 28.8194 21.466 28.5922 21.4842 28.3589L24.6467 26.4597C24.9343 26.2892 25.1808 26.0574 25.3686 25.7808H26.6404C27.254 25.7812 27.8476 25.5623 28.314 25.1637C28.7805 24.765 29.0891 24.2127 29.1842 23.6065C29.5621 23.9018 30.028 24.0622 30.5076 24.062H32.6561C33.1967 24.1049 33.7174 24.2853 34.1686 24.5861C34.6199 24.8869 34.9867 25.2982 35.2342 25.7808H38.6717C39.1271 25.7794 39.5635 25.5979 39.8855 25.2758C40.2076 24.9538 40.3891 24.5174 40.3904 24.062C40.3938 23.6072 40.576 23.172 40.8976 22.8504C41.2192 22.5288 41.6544 22.3466 42.1092 22.3433C42.7929 22.3433 43.4487 22.0716 43.9322 21.5881C44.4157 21.1047 44.6873 20.4489 44.6873 19.7651V16.3276L44.7217 16.2847C48.3998 19.3097 51.5623 23.1769 51.5623 27.4995Z" fill="#FFC5C5"/>
<path d="M0.859375 29.2616C0.862459 28.0462 1.18235 26.8525 1.7875 25.7983C4.11641 21.7851 10.5445 12.0311 18.0469 12.0311H18.9062L19.0266 12.1515C18.108 13.0579 17.4696 14.2094 17.1875 15.4687L18.3734 16.6546C18.6282 16.9097 18.953 17.0835 19.3066 17.1539C19.6602 17.2243 20.0268 17.1883 20.3599 17.0502C20.693 16.9122 20.9777 16.6784 21.1778 16.3785C21.378 16.0786 21.4847 15.7261 21.4844 15.3655V15.2452C21.485 14.8895 21.6121 14.5455 21.8429 14.2749C22.0738 14.0042 22.3933 13.8244 22.7445 13.7676C23.0957 13.7108 23.4556 13.7806 23.76 13.9647C24.0644 14.1488 24.2935 14.4352 24.4062 14.7726L24.6984 15.6491C24.7736 15.8736 24.9262 16.064 25.1289 16.1863C25.3316 16.3086 25.5712 16.3547 25.8048 16.3164C26.0384 16.2782 26.2508 16.1581 26.4039 15.9775C26.5571 15.797 26.641 15.5679 26.6406 15.3312V12.0311C26.6771 11.377 26.9632 10.7619 27.4398 10.3124C28.173 9.69192 29.1201 9.38341 30.0781 9.45302H30.9375C31.4727 9.44969 32.0073 9.48993 32.5359 9.57334C33.7894 9.7481 35.0041 10.1346 36.1281 10.7163C39.1746 12.2756 42.0541 14.1415 44.7219 16.2851L44.6875 16.328V19.7655C44.6875 20.4493 44.4159 21.105 43.9324 21.5885C43.4489 22.072 42.7931 22.3437 42.1094 22.3437C41.6546 22.347 41.2194 22.5292 40.8978 22.8508C40.5762 23.1724 40.394 23.6076 40.3906 24.0624C40.3893 24.5178 40.2077 24.9542 39.8857 25.2762C39.5637 25.5983 39.1273 25.7798 38.6719 25.7812H35.2344C34.9869 25.2986 34.6201 24.8873 34.1688 24.5865C33.7176 24.2857 33.1969 24.1052 32.6562 24.0624H30.5078C30.0282 24.0626 29.5623 23.9022 29.1844 23.6069C29.1146 23.5543 29.0485 23.4969 28.9867 23.4351C28.7873 23.2352 28.6293 22.998 28.5217 22.737C28.414 22.476 28.3589 22.1963 28.3594 21.914C28.3605 21.7697 28.3749 21.6259 28.4023 21.4843C28.4865 21.0714 28.6903 20.6924 28.9883 20.3944C29.2862 20.0965 29.6652 19.8927 30.0781 19.8085V19.7655H27.5945C26.971 19.766 26.3593 19.9353 25.8242 20.2554L22.9625 21.9741C22.7736 22.0868 22.6173 22.2467 22.5089 22.438C22.4004 22.6294 22.3435 22.8456 22.3437 23.0655C22.3449 23.3498 22.2507 23.6261 22.0762 23.8505C21.9017 24.0748 21.657 24.2342 21.3812 24.303L17.1617 25.3601L16.1562 25.6093C15.7163 25.7241 15.3377 26.0042 15.0992 26.3913L13.6125 28.8835L12.8906 30.078L11.5242 31.4444C11.4085 31.5614 11.2995 31.6847 11.1977 31.814L11.1719 31.7968H9.45312C8.9977 31.7954 8.56132 31.6139 8.23929 31.2919C7.91725 30.9698 7.73573 30.5335 7.73437 30.078V28.3593C7.731 27.9045 7.54884 27.4693 7.22724 27.1477C6.90564 26.8261 6.47042 26.6439 6.01562 26.6405C5.5602 26.6419 5.12382 26.8234 4.80179 27.1454C4.47975 27.4675 4.29823 27.9039 4.29687 28.3593H2.57812C2.1227 28.3606 1.68632 28.5422 1.36429 28.8642C1.04225 29.1862 0.860735 29.6226 0.859375 30.078V29.2616Z" fill="#FFD9DA"/>
<path d="M43.4841 37.133L40.7925 36.5967L40.6688 36.5778C40.1306 35.5765 39.3431 34.7312 38.3824 34.1235C37.4217 33.5159 36.3204 33.1666 35.1851 33.1094L34.3747 33.515L33.9931 33.7041C34.0282 33.7756 34.0824 33.836 34.1498 33.8785C34.2172 33.921 34.2951 33.9439 34.3747 33.9447H34.8302C35.7822 33.943 36.7198 34.1777 37.5589 34.6277C38.3979 35.0777 39.1121 35.7288 39.6375 36.5228H31.1529C31.1052 36.6639 31.0648 36.8073 31.0317 36.9525C31.0042 37.0909 30.9836 37.2301 30.9673 37.3693C30.9884 37.3752 31.01 37.3795 31.0317 37.3822H40.0466C40.1557 37.3822 40.2563 37.3899 40.325 37.3942L43.3148 37.976C44.0417 38.1242 44.6892 38.5336 45.1349 39.1267L46.9216 41.5072C46.9562 41.5516 46.9993 41.5885 47.0485 41.6158C47.0976 41.6431 47.1518 41.6603 47.2078 41.6662C47.2937 41.5476 47.3796 41.423 47.4535 41.2923C47.5094 41.1952 47.5575 41.093 47.6074 40.9907L45.8216 38.612C45.2528 37.8461 44.4197 37.319 43.4841 37.133Z" fill="#FF8083"/>
<path d="M16.7698 15.4097C16.7642 15.4291 16.7602 15.4489 16.7578 15.469V17.1878C16.7652 17.6533 16.857 18.1136 17.0285 18.5464C16.322 18.0219 15.4854 17.7006 14.6094 17.6174C13.3427 17.6174 12.2676 18.4983 11.4787 20.1509C9.9782 19.9567 9.88625 19.0174 9.88281 18.9013C9.88247 18.8449 9.87102 18.7891 9.84912 18.7371C9.82721 18.6851 9.79528 18.6379 9.75514 18.5983C9.715 18.5586 9.66744 18.5272 9.61518 18.506C9.56292 18.4847 9.50697 18.4739 9.45055 18.4742C9.39412 18.4746 9.33831 18.486 9.28631 18.5079C9.23431 18.5298 9.18713 18.5618 9.14747 18.6019C9.10781 18.6421 9.07644 18.6896 9.05516 18.7419C9.03388 18.7941 9.0231 18.8501 9.02344 18.9065C9.07217 19.4449 9.31067 19.9484 9.69635 20.3271C10.082 20.7059 10.5898 20.9352 11.1289 20.9742C10.9635 21.4179 10.8342 21.8743 10.7422 22.3388C10.7422 22.4712 10.6485 23.6331 8.59375 23.6331C8.47979 23.6331 8.3705 23.6783 8.28991 23.7589C8.20933 23.8395 8.16406 23.9488 8.16406 24.0628C8.16406 24.1767 8.20933 24.286 8.28991 24.3666C8.3705 24.4472 8.47979 24.4924 8.59375 24.4924C11.2767 24.4924 11.5672 22.7608 11.6016 22.4067C11.7293 21.8523 11.9056 21.3103 12.1284 20.7868C12.5838 19.7332 13.383 18.4768 14.6128 18.4768C15.657 18.4768 17.307 19.6903 18.4946 20.8178L18.5668 20.8899L18.5762 20.8994L18.5917 20.9149L18.6055 20.9295C18.6166 20.9295 18.6055 20.9295 18.6055 20.9295C18.6879 21.002 18.7951 21.0403 18.9048 21.0363C19.0146 21.0323 19.1187 20.9865 19.1957 20.9081C19.2727 20.8298 19.3168 20.7249 19.3189 20.6151C19.321 20.5053 19.281 20.3988 19.207 20.3176L19.2019 20.3124L19.1933 20.3047L19.1855 20.297L19.1469 20.2583C19.134 20.2437 19.1185 20.2282 19.103 20.2136C18.2924 19.3931 17.7708 18.3309 17.6172 17.1878V16.5063L18.0692 16.9592C18.2782 17.1686 18.5266 17.3346 18.8 17.4476C19.0735 17.5606 19.3666 17.6183 19.6625 17.6174C19.9582 17.6176 20.251 17.5594 20.5243 17.4463C20.7975 17.3332 21.0457 17.1673 21.2548 16.9582C21.4639 16.7491 21.6298 16.5009 21.7429 16.2276C21.856 15.9544 21.9142 15.6616 21.9141 15.3659V15.2456C21.9157 14.9924 22.007 14.748 22.1718 14.5557C22.3365 14.3635 22.5641 14.2358 22.814 14.1954C23.064 14.155 23.3201 14.2045 23.5371 14.3351C23.754 14.4657 23.9176 14.6689 23.9989 14.9087L24.2894 15.7792C24.3958 16.1011 24.6134 16.3745 24.9032 16.5505C25.1929 16.7264 25.5358 16.7935 25.8705 16.7396C26.2052 16.6857 26.5097 16.5144 26.7296 16.2564C26.9494 15.9984 27.0702 15.6705 27.0703 15.3315V12.0315C27.1045 11.4952 27.3413 10.9919 27.7329 10.6238C27.8089 10.5506 27.8553 10.452 27.8632 10.3467C27.8711 10.2415 27.84 10.137 27.7759 10.0532C27.6573 10.1303 27.545 10.2165 27.4398 10.311H26.8589C26.4686 10.8021 26.242 11.4032 26.2109 12.0298V15.3298C26.2109 15.4642 26.1632 15.5942 26.0762 15.6967C25.9892 15.7992 25.8687 15.8675 25.7361 15.8893C25.6035 15.9112 25.4674 15.8853 25.3521 15.8162C25.2368 15.7471 25.1498 15.6393 25.1066 15.512L24.8136 14.6337C24.6674 14.2006 24.3723 13.8335 23.9808 13.5977C23.5892 13.3618 23.1267 13.2726 22.6756 13.3458C22.2244 13.4191 21.8139 13.65 21.5171 13.9976C21.2202 14.3452 21.0564 14.7868 21.0547 15.2438V15.3642C21.0539 15.7333 20.9075 16.0872 20.6473 16.349C20.3808 16.6001 20.0283 16.74 19.6621 16.74C19.2958 16.74 18.9434 16.6001 18.6768 16.349L17.6636 15.3358C17.9456 14.2448 18.5193 13.251 19.323 12.4612C19.4026 12.3842 19.4493 12.2794 19.4534 12.1688C19.4576 12.0581 19.4189 11.9502 19.3454 11.8674C19.2362 11.9602 19.1271 12.053 19.0266 12.151L18.9062 12.0315H18.5487C17.6684 12.9661 17.054 14.1191 16.769 15.371C16.7655 15.3831 16.7716 15.3968 16.7698 15.4097Z" fill="#FF8083"/>
<path d="M25.0765 39.7246L28.5561 35.6641H31.5519C31.7023 35.4003 31.8941 35.1624 32.1199 34.9594C32.0807 34.9114 32.0315 34.8727 31.9756 34.846C31.9198 34.8192 31.8587 34.8051 31.7968 34.8047H28.789V32.6562C28.789 32.5423 28.7437 32.433 28.6631 32.3524C28.5825 32.2718 28.4732 32.2266 28.3593 32.2266C28.2453 32.2266 28.136 32.2718 28.0554 32.3524C27.9749 32.433 27.9296 32.5423 27.9296 32.6562V35.0754L24.4242 39.1652C24.3075 39.304 24.1805 39.4338 24.0443 39.5536C23.96 39.6249 23.9064 39.7259 23.8946 39.8356C23.8827 39.9454 23.9136 40.0555 23.9808 40.1431C24.0933 40.0572 24.2154 39.9807 24.3202 39.8853C24.3898 39.9816 24.4783 40.1002 24.578 40.2291C24.5849 40.2239 24.5926 40.223 24.5986 40.217C24.7699 40.0649 24.9296 39.9003 25.0765 39.7246Z" fill="#FF8083"/>
<path d="M30.5079 12.1346V13.5724L28.9146 15.1648C28.8746 15.2048 28.8429 15.2522 28.8213 15.3044C28.7997 15.3566 28.7886 15.4125 28.7886 15.469C28.7886 15.5255 28.7997 15.5815 28.8213 15.6337C28.8429 15.6859 28.8746 15.7333 28.9146 15.7732C28.9545 15.8132 29.002 15.8449 29.0542 15.8665C29.1064 15.8881 29.1623 15.8993 29.2188 15.8993C29.2753 15.8993 29.3312 15.8881 29.3834 15.8665C29.4356 15.8449 29.4831 15.8132 29.523 15.7732L31.2418 14.0545L31.3526 13.9436C31.5493 13.7457 31.7832 13.5887 32.0409 13.4818C32.2986 13.3748 32.575 13.3201 32.854 13.3206H33.5501C34.1105 13.3213 34.6479 13.5442 35.0442 13.9405C35.4405 14.3368 35.6634 14.8742 35.6641 15.4346V16.3284C35.6641 16.4424 35.7094 16.5517 35.79 16.6322C35.8706 16.7128 35.9798 16.7581 36.0938 16.7581C36.2078 16.7581 36.3171 16.7128 36.3976 16.6322C36.4782 16.5517 36.5235 16.4424 36.5235 16.3284V15.4346C36.5226 14.6463 36.209 13.8905 35.6516 13.3331C35.0942 12.7757 34.3384 12.4621 33.5501 12.4612H32.854C32.3308 12.4637 31.8178 12.6052 31.3672 12.8711V12.1346C31.3666 11.8861 31.4152 11.6399 31.5102 11.4103C31.6052 11.1806 31.7447 10.9721 31.9207 10.7966L32.9605 9.75676C32.9858 9.72837 33.0069 9.69654 33.0233 9.66223C32.8608 9.63215 32.6993 9.59605 32.536 9.57629C32.3564 9.54707 32.1733 9.53074 31.992 9.5127L31.3131 10.1916C31.0574 10.4464 30.8545 10.7492 30.7163 11.0827C30.5781 11.4161 30.5073 11.7737 30.5079 12.1346Z" fill="#FF8083"/>
<path d="M44.2578 16.3278V19.7653C44.2578 20.3351 44.0315 20.8816 43.6286 21.2845C43.2256 21.6874 42.6792 21.9137 42.1094 21.9137C41.5405 21.9167 40.9957 22.144 40.5934 22.5462C40.1912 22.9485 39.9639 23.4933 39.9609 24.0622C39.9609 24.404 39.8251 24.7319 39.5834 24.9737C39.3416 25.2154 39.0138 25.3512 38.6719 25.3512H36.9531C36.8392 25.3512 36.7299 25.3965 36.6493 25.4771C36.5687 25.5577 36.5234 25.6669 36.5234 25.7809C36.5234 25.8949 36.5687 26.0042 36.6493 26.0847C36.7299 26.1653 36.8392 26.2106 36.9531 26.2106H38.6719C39.2417 26.2106 39.7881 25.9842 40.1911 25.5813C40.594 25.1784 40.8203 24.632 40.8203 24.0622C40.8235 23.7213 40.9603 23.3952 41.2013 23.1541C41.4424 22.9131 41.7685 22.7762 42.1094 22.7731C42.3198 22.7724 42.5295 22.7494 42.735 22.7043C43.5221 23.334 44.1282 24.161 44.4916 25.1011C44.9222 26.1325 45.1352 27.2416 45.1172 28.359C45.1172 28.473 45.1625 28.5823 45.243 28.6629C45.3236 28.7434 45.4329 28.7887 45.5469 28.7887C45.6608 28.7887 45.7701 28.7434 45.8507 28.6629C45.9313 28.5823 45.9766 28.473 45.9766 28.359C45.9841 27.3538 45.8286 26.3539 45.5159 25.3985C46.793 25.5093 49.4141 25.9279 49.4141 27.4997C49.4141 27.6136 49.4593 27.7229 49.5399 27.8035C49.6205 27.8841 49.7298 27.9293 49.8438 27.9293C49.9577 27.9293 50.067 27.8841 50.1476 27.8035C50.2282 27.7229 50.2734 27.6136 50.2734 27.4997C50.2734 24.9894 46.4475 24.5778 45.1619 24.5116C44.7974 23.6981 44.2801 22.962 43.6382 22.3434C43.8551 22.2181 44.0557 22.0666 44.2355 21.8922C44.5158 21.6136 44.7381 21.2822 44.8894 20.9171C45.0408 20.552 45.1182 20.1605 45.1172 19.7653V16.6191C44.9857 16.5074 44.8594 16.394 44.7219 16.2848C44.6119 16.1946 44.4993 16.1129 44.3884 16.021C44.3473 16.0609 44.3146 16.1085 44.2922 16.1612C44.2697 16.2139 44.258 16.2705 44.2578 16.3278Z" fill="#FF8083"/>
<path d="M13.53 40.1895L13.3195 39.3705C13.3139 39.2804 13.3033 39.1906 13.2877 39.1016H17.1875C17.8561 39.1013 18.5056 38.8783 19.0333 38.4678C19.5611 38.0572 19.937 37.4826 20.1016 36.8345L22.1057 38.17C22.1761 38.2173 22.259 38.2424 22.3438 38.2422C22.4359 38.2421 22.5257 38.2124 22.5997 38.1574C22.6737 38.1024 22.728 38.0251 22.7547 37.9369C22.7814 37.8486 22.779 37.7541 22.7479 37.6674C22.7167 37.5806 22.6585 37.5061 22.5818 37.455L20.4394 36.0267L23.5073 32.9605C23.5211 32.9459 23.5262 32.9278 23.5383 32.9132C23.892 33.0211 24.2591 33.079 24.6288 33.0851C25.5831 33.0831 26.5059 32.7434 27.2336 32.126C28.0123 31.4653 28.5302 30.5489 28.6945 29.541C29.7746 29.1456 30.9078 28.9139 32.0564 28.8535C32.8891 29.1766 33.0877 31.1257 33.0877 31.8003C33.0877 31.9143 33.1329 32.0236 33.2135 32.1041C33.2941 32.1847 33.4034 32.23 33.5173 32.23C33.6313 32.23 33.7406 32.1847 33.8212 32.1041C33.9018 32.0236 33.947 31.9143 33.947 31.8003C33.9585 30.7567 33.7151 29.726 33.238 28.7977C33.3317 28.7977 33.4211 28.7925 33.5173 28.7925C34.6427 28.7709 35.7654 28.9113 36.8509 29.2093C38.004 29.5228 39.1958 29.6707 40.3906 29.6484C43.3641 29.6484 43.3984 27.5215 43.3984 27.5C43.3984 27.3871 43.354 27.2787 43.2747 27.1983C43.1954 27.1179 43.0877 27.0719 42.9748 27.0703C42.8641 27.0782 42.7598 27.1248 42.6801 27.202C42.6004 27.2792 42.5505 27.3819 42.5391 27.4923C42.5391 27.6246 42.4454 28.7865 40.3906 28.7865C39.2652 28.8081 38.1425 28.6677 37.0571 28.3697C35.9035 28.0557 34.711 27.9076 33.5156 27.9297C33.0052 27.9297 32.5282 27.9477 32.1011 27.983C30.9725 28.0475 29.8563 28.2531 28.7787 28.5948C28.7691 28.1795 28.7023 27.7674 28.5802 27.3702C28.5652 27.3143 28.539 27.2619 28.5032 27.2163C28.4674 27.1708 28.4227 27.1329 28.3719 27.105C28.3211 27.0772 28.2651 27.0599 28.2075 27.0542C28.1498 27.0485 28.0915 27.0545 28.0363 27.0719C27.981 27.0893 27.9298 27.1177 27.8858 27.1554C27.8417 27.1932 27.8058 27.2394 27.7801 27.2913C27.7544 27.3433 27.7395 27.3999 27.7363 27.4578C27.733 27.5156 27.7415 27.5735 27.7613 27.628C27.8741 27.9835 27.9321 28.3542 27.9331 28.7272C27.9344 28.8725 27.9237 29.0176 27.9013 29.1612C27.8101 30.0583 27.3741 30.8849 26.6853 31.4669C26.2487 31.8402 25.7182 32.087 25.1514 32.1806C24.5846 32.2742 24.003 32.2111 23.4695 31.998C23.2597 31.9134 23.0583 31.8092 22.868 31.6869L21.786 30.6213C21.7038 30.5468 21.5959 30.507 21.485 30.5103C21.3741 30.5135 21.2687 30.5596 21.191 30.6387C21.1133 30.7179 21.0692 30.8241 21.068 30.935C21.0667 31.046 21.1085 31.1531 21.1845 31.234L22.3223 32.3443C22.4384 32.4254 22.5586 32.5006 22.6823 32.5695L19.4631 35.7878C19.4528 35.799 19.4485 35.8127 19.4391 35.8248C19.4296 35.8368 19.4176 35.842 19.4098 35.854C19.404 35.8663 19.3988 35.8789 19.3944 35.8918C19.381 35.9171 19.3701 35.9435 19.3617 35.9709C19.3531 35.9988 19.3476 36.0276 19.3454 36.0568C19.3454 36.0697 19.3377 36.0817 19.3377 36.0955C19.3374 36.3776 19.2816 36.6569 19.1735 36.9175C19.0653 37.1781 18.9068 37.4148 18.7072 37.6141C18.5075 37.8135 18.2705 37.9715 18.0098 38.0793C17.7491 38.1871 17.4696 38.2424 17.1875 38.2422H12.9766C12.8866 38.0949 12.7802 37.9582 12.6595 37.8348L11.8267 37.0021C11.1855 36.3596 10.8015 35.5046 10.7472 34.5984C10.6929 33.6923 10.972 32.7976 11.532 32.083C11.6234 31.9655 11.7218 31.8536 11.8267 31.7479L13.1931 30.3823C13.2172 30.3575 13.2385 30.3301 13.2567 30.3007L15.4688 26.6183C15.6484 26.3266 15.9328 26.1147 16.2637 26.0262L21.4844 24.7208C21.854 24.63 22.1823 24.4172 22.4162 24.1169C22.6501 23.8166 22.7759 23.4463 22.7734 23.0656C22.7731 22.9199 22.8108 22.7767 22.8829 22.6501C22.9549 22.5235 23.0588 22.4179 23.1842 22.3438L26.0442 20.625C26.5118 20.3452 27.0462 20.1968 27.5911 20.1953H28.5905C28.3367 20.4783 28.1488 20.814 28.0405 21.1784L26.5796 22.1512C26.2023 22.4063 25.8931 22.7499 25.679 23.1519C25.4649 23.554 25.3525 24.0023 25.3516 24.4578C25.3517 24.8439 25.2338 25.2208 25.0138 25.538C24.8609 25.7638 24.6599 25.9528 24.4252 26.0915L21.8281 27.6512C21.734 27.2919 21.548 26.9631 21.2884 26.6973L20.9284 26.3364C20.8884 26.2965 20.841 26.2648 20.7888 26.2431C20.7366 26.2215 20.6806 26.2104 20.6241 26.2104C20.5676 26.2104 20.5117 26.2215 20.4595 26.2431C20.4073 26.2648 20.3599 26.2965 20.3199 26.3364C20.28 26.3764 20.2483 26.4238 20.2267 26.476C20.205 26.5282 20.1939 26.5841 20.1939 26.6406C20.1939 26.6971 20.205 26.7531 20.2267 26.8053C20.2483 26.8575 20.28 26.9049 20.3199 26.9448L20.6809 27.3049C20.8125 27.4385 20.9141 27.5987 20.9787 27.7748C21.0433 27.9509 21.0695 28.1388 21.0555 28.3259C21.0415 28.5012 20.9916 28.6717 20.9092 28.827C20.8267 28.9824 20.7133 29.1192 20.576 29.2291L17.9798 31.3002C17.7805 31.0539 17.5289 30.855 17.2432 30.718C16.9575 30.5809 16.645 30.5091 16.3281 30.5078H14.6094C14.4954 30.5078 14.3861 30.5531 14.3055 30.6337C14.225 30.7142 14.1797 30.8235 14.1797 30.9375C14.1797 31.0515 14.225 31.1608 14.3055 31.2413C14.3861 31.3219 14.4954 31.3672 14.6094 31.3672H16.3281C16.67 31.3672 16.9979 31.503 17.2396 31.7447C17.4814 31.9865 17.6172 32.3144 17.6172 32.6563V35.2344C17.6172 35.3483 17.6625 35.4576 17.743 35.5382C17.8236 35.6188 17.9329 35.6641 18.0469 35.6641C18.1608 35.6641 18.2701 35.6188 18.3507 35.5382C18.4313 35.4576 18.4766 35.3483 18.4766 35.2344V32.6563C18.4739 32.4593 18.4435 32.2638 18.3863 32.0753L21.1166 29.8985C21.5102 29.5782 21.777 29.1283 21.8694 28.6292L24.8652 26.8305C25.1323 26.6665 25.3685 26.4568 25.563 26.2109H26.6406C27.2516 26.2073 27.8472 26.0187 28.3489 25.6698C28.8506 25.321 29.2347 24.8283 29.4508 24.2567C29.7825 24.409 30.1428 24.4892 30.5078 24.4922H32.6562C33.1167 24.5366 33.5587 24.6955 33.9421 24.9544C34.3254 25.2134 34.6379 25.5641 34.8511 25.9746C34.9043 26.0728 34.9936 26.1464 35.1002 26.1798C35.2067 26.2133 35.3221 26.2039 35.4219 26.1537C35.5216 26.1036 35.598 26.0165 35.6347 25.9111C35.6714 25.8056 35.6656 25.69 35.6185 25.5887C35.2914 25.0008 34.8281 24.4999 34.2676 24.1278C34.8513 23.8529 35.3544 23.4323 35.7285 22.9066L38.891 18.4809H41.25C41.364 18.4809 41.4733 18.4356 41.5538 18.355C41.6344 18.2744 41.6797 18.1651 41.6797 18.0512C41.6797 17.9372 41.6344 17.8279 41.5538 17.7473C41.4733 17.6668 41.364 17.6215 41.25 17.6215H39.1016V15.4688C39.1016 15.3548 39.0563 15.2455 38.9757 15.1649C38.8951 15.0843 38.7858 15.0391 38.6719 15.0391C38.5579 15.0391 38.4486 15.0843 38.368 15.1649C38.2875 15.2455 38.2422 15.3548 38.2422 15.4688V17.9085L35.0298 22.4048C34.7599 22.785 34.4026 23.0949 33.9882 23.3086C33.5737 23.5223 33.114 23.6335 32.6477 23.6328H30.5078C30.1212 23.6325 29.746 23.5023 29.4422 23.2633C29.3888 23.223 29.3383 23.179 29.2909 23.1318C29.1309 22.9721 29.0041 22.7822 28.918 22.5732C28.8319 22.3642 28.788 22.1401 28.7891 21.9141C28.7901 21.7987 28.8016 21.6836 28.8234 21.5703C28.8897 21.2408 29.0515 20.9381 29.2887 20.7C29.5259 20.4619 29.8279 20.2989 30.1572 20.2314C30.2988 20.2048 30.4428 20.1927 30.5869 20.1953C31.0221 20.1949 31.4393 20.0218 31.747 19.7141C32.0547 19.4063 32.2278 18.9891 32.2283 18.5539C32.2282 18.346 32.3097 18.1464 32.4552 17.9979L33.8216 16.6323C33.9022 16.5517 33.9476 16.4422 33.9476 16.3281C33.9476 16.214 33.9022 16.1046 33.8216 16.0239C33.7816 15.984 33.7342 15.9523 33.682 15.9306C33.6298 15.909 33.5738 15.8979 33.5173 15.8979C33.4032 15.8979 33.2938 15.9432 33.2131 16.0239L31.8476 17.3912C31.5406 17.7004 31.3679 18.1182 31.3672 18.5539C31.3647 18.6625 31.3401 18.7695 31.2951 18.8683C31.25 18.9672 31.1853 19.0558 31.105 19.129C31.0246 19.2021 30.9303 19.2581 30.8276 19.2937C30.725 19.3293 30.6162 19.3436 30.5078 19.3359C30.4117 19.3402 30.3159 19.3497 30.2208 19.3643C30.1752 19.3469 30.1269 19.3373 30.0781 19.3359H27.5945C26.893 19.3368 26.2048 19.5271 25.6025 19.8868L22.7416 21.6055C22.4881 21.7556 22.2784 21.9694 22.1332 22.2257C21.988 22.482 21.9124 22.7719 21.9141 23.0665C21.9157 23.255 21.8537 23.4385 21.7382 23.5874C21.6226 23.7363 21.4603 23.842 21.2773 23.8872L17.508 24.8325C17.0763 23.3268 16.1345 22.0181 14.844 21.1303C14.7969 21.0992 14.7442 21.0776 14.6888 21.0668C14.6334 21.0561 14.5764 21.0563 14.5211 21.0676C14.4658 21.0788 14.4133 21.1008 14.3665 21.1324C14.3197 21.164 14.2796 21.2044 14.2484 21.2515C14.2173 21.2985 14.1957 21.3513 14.1849 21.4067C14.1742 21.4621 14.1744 21.5191 14.1857 21.5744C14.1969 21.6297 14.219 21.6822 14.2505 21.729C14.2821 21.7758 14.3225 21.8159 14.3696 21.847C15.4773 22.6177 16.2894 23.7429 16.6719 25.037L16.0471 25.1926C15.4968 25.3349 15.0237 25.686 14.728 26.1714L13.6108 28.0345C13.2589 27.4775 12.7722 27.0183 12.1956 26.6996C11.619 26.3808 10.9713 26.2127 10.3125 26.2109C10.1985 26.2109 10.0892 26.2562 10.0087 26.3368C9.92808 26.4174 9.88281 26.5267 9.88281 26.6406C9.88281 26.7546 9.92808 26.8639 10.0087 26.9445C10.0892 27.025 10.1985 27.0703 10.3125 27.0703C10.8994 27.0839 11.4713 27.2583 11.966 27.5746C12.4606 27.8908 12.8589 28.3368 13.1175 28.8638L12.5503 29.8091L11.2217 31.1386C11.1478 31.2116 11.0859 31.2898 11.0206 31.3655H9.45312C9.11154 31.3655 8.78392 31.2299 8.54223 30.9885C8.30053 30.7471 8.16452 30.4197 8.16406 30.0781V28.3594C8.16113 27.7905 7.93383 27.2457 7.53156 26.8434C7.12928 26.4412 6.58452 26.2139 6.01562 26.2109C5.52049 26.211 5.04059 26.3821 4.65709 26.6953C4.27359 27.0085 4.01004 27.4446 3.91102 27.9297H2.57812C2.25239 27.9307 1.93121 28.0062 1.63912 28.1504C1.34704 28.2945 1.09179 28.5036 0.892891 28.7616C0.88 28.9283 0.859375 29.0933 0.859375 29.2617V30.5078C0.915802 30.5078 0.971677 30.4967 1.02381 30.4751C1.07594 30.4535 1.12331 30.4219 1.16321 30.382C1.20311 30.3421 1.23476 30.2947 1.25635 30.2426C1.27795 30.1904 1.28906 30.1346 1.28906 30.0781C1.28906 29.7362 1.42487 29.4084 1.66662 29.1666C1.90837 28.9249 2.23624 28.7891 2.57812 28.7891H3.86719V30.0781C3.81102 30.8333 3.96381 31.5894 4.30882 32.2634C4.65382 32.9375 5.17773 33.5037 5.82312 33.8998C5.92453 33.9501 6.04172 33.9584 6.14922 33.9229C6.25671 33.8873 6.34583 33.8108 6.39719 33.7098C6.44888 33.6085 6.45828 33.4908 6.42333 33.3825C6.38837 33.2743 6.3119 33.1843 6.2107 33.1323C5.70983 32.8055 5.30717 32.3487 5.04577 31.8107C4.78436 31.2728 4.67403 30.6739 4.72656 30.0781V28.3594C4.72656 28.0175 4.86237 27.6896 5.10412 27.4479C5.34587 27.2061 5.67374 27.0703 6.01562 27.0703C6.3566 27.0732 6.68279 27.21 6.9239 27.4511C7.16502 27.6922 7.30177 28.0184 7.30469 28.3594V30.0781C7.30469 30.6479 7.53104 31.1944 7.93395 31.5973C8.33686 32.0002 8.88332 32.2266 9.45312 32.2266H10.4234C10.2793 32.5045 10.1641 32.7965 10.0796 33.098C9.58699 33.1097 9.10159 33.2191 8.65152 33.4197C8.20146 33.6204 7.79567 33.9083 7.45765 34.2668C7.11964 34.6254 6.85612 35.0475 6.68234 35.5086C6.50857 35.9697 6.42801 36.4607 6.44531 36.9531C6.44531 37.0671 6.49058 37.1764 6.57117 37.257C6.65175 37.3375 6.76104 37.3828 6.875 37.3828C6.98896 37.3828 7.09825 37.3375 7.17884 37.257C7.25942 37.1764 7.30469 37.0671 7.30469 36.9531C7.30469 36.8363 7.35625 34.2177 9.91719 33.9694C9.90516 34.1043 9.88281 34.2384 9.88281 34.3741C9.88551 35.5865 10.3663 36.7488 11.2209 37.6088L12.0536 38.4416C12.1832 38.5695 12.2856 38.7224 12.3544 38.891C12.4233 39.0615 12.4595 39.2434 12.4609 39.4273C12.4607 39.4632 12.4654 39.4991 12.4747 39.5338L12.6947 40.3932H12.8906L13.1141 40.2987C13.1804 40.4254 13.2634 40.5427 13.3607 40.6476C13.4321 40.5974 13.4865 40.5268 13.5167 40.4449C13.547 40.3631 13.5516 40.274 13.53 40.1895ZM28.7031 23.7583C28.5815 24.2132 28.3137 24.6155 27.9411 24.9034C27.5684 25.1912 27.1115 25.3487 26.6406 25.3516H26.0571C26.1578 25.0643 26.2098 24.7622 26.2109 24.4578C26.2117 24.1433 26.2893 23.8337 26.4369 23.556C26.5846 23.2784 26.7979 23.041 27.0583 22.8645L27.9632 22.263C28.0343 22.8205 28.2871 23.3391 28.6825 23.7385C28.6894 23.7454 28.698 23.7514 28.7031 23.7583Z" fill="#FF8083"/>
<path d="M49.8437 28.7891C49.7297 28.7891 49.6204 28.8343 49.5399 28.9149C49.4593 28.9955 49.414 29.1048 49.414 29.2188C49.414 29.2402 49.3925 31.3672 48.1249 31.3672H48.1138C48.0573 31.3676 48.0016 31.3792 47.9496 31.4012C47.8976 31.4232 47.8505 31.4553 47.8109 31.4955C47.7714 31.5357 47.7401 31.5833 47.7189 31.6356C47.6977 31.6879 47.6871 31.7439 47.6875 31.8003C47.688 31.8567 47.6995 31.9125 47.7215 31.9645C47.7435 32.0164 47.7756 32.0636 47.8158 32.1031C47.856 32.1427 47.9036 32.174 47.9559 32.1952C48.0082 32.2163 48.0642 32.227 48.1206 32.2266C48.2573 32.2266 49.414 32.3254 49.414 34.375C49.414 34.489 49.4593 34.5983 49.5399 34.6788C49.6204 34.7594 49.7297 34.8047 49.8437 34.8047C49.9577 34.8047 50.0669 34.7594 50.1475 34.6788C50.2281 34.5983 50.2734 34.489 50.2734 34.375C50.3213 33.9012 50.2571 33.4228 50.086 32.9784C49.915 32.534 49.6418 32.136 49.2885 31.8166C49.6173 31.4709 49.8737 31.0631 50.0428 30.617C50.2119 30.1709 50.2903 29.6955 50.2734 29.2188C50.2734 29.1048 50.2281 28.9955 50.1475 28.9149C50.0669 28.8343 49.9577 28.7891 49.8437 28.7891Z" fill="#FF8083"/>
<path d="M31.0733 41.702C28.8243 40.9518 28.7891 37.8434 28.7891 37.8125C28.7891 37.6985 28.7438 37.5892 28.6632 37.5087C28.5826 37.4281 28.4733 37.3828 28.3594 37.3828C28.2454 37.3828 28.1361 37.4281 28.0555 37.5087C27.975 37.5892 27.9297 37.6985 27.9297 37.8125C27.9297 37.9655 27.9623 41.5705 30.8017 42.5167C30.8454 42.5316 30.8913 42.5392 30.9375 42.5391C31.0394 42.5388 31.1378 42.5024 31.2153 42.4363C31.2928 42.3702 31.3443 42.2787 31.3607 42.1782C31.377 42.0776 31.357 41.9745 31.3044 41.8873C31.2518 41.8001 31.1698 41.7344 31.0733 41.702Z" fill="#FF8083"/>
<path d="M23.4672 15.8458C23.2786 15.7461 23.0618 15.7132 22.8522 15.7524C22.6425 15.7916 22.4522 15.9005 22.3122 16.0615C22.2046 16.2447 22.1425 16.4509 22.1309 16.663C22.1364 16.9226 22.0849 17.1803 21.9801 17.4178C21.8752 17.6554 21.7196 17.8671 21.5242 18.038C21.0842 18.3027 20.4302 18.1515 20.0942 18.5416C19.9966 18.675 19.9419 18.8348 19.9373 19C19.9327 19.1651 19.9784 19.3278 20.0684 19.4663C20.2154 19.7113 20.4376 19.9023 20.702 20.0107C20.9664 20.1191 21.2587 20.1392 21.5354 20.0679C22.1842 19.9373 22.5374 19.3305 22.98 18.8871C23.0786 18.7623 23.2089 18.6662 23.3572 18.6087C23.5248 18.5759 23.6986 18.5994 23.8514 18.6757C24.3223 18.965 24.8466 19.1567 25.3931 19.2395C26.1313 19.2257 26.6925 18.7986 26.4768 18.0011C26.4379 17.8442 26.3655 17.6976 26.2645 17.5714C25.8658 17.0988 25.2797 17.3703 24.7915 17.0558C24.2793 16.7258 24.043 16.1096 23.4672 15.8458Z" fill="#FFEDEE"/>
<path d="M32.1776 13.8508C31.9812 13.9452 31.8123 14.0883 31.6871 14.2667C31.5619 14.445 31.4846 14.6524 31.4626 14.8692C31.4547 14.9352 31.4689 15.002 31.5029 15.0591C31.5446 15.1085 31.5999 15.1447 31.6619 15.1631C32.2171 15.3762 32.8436 15.341 33.3996 15.5532C33.8005 15.7934 34.2445 15.9525 34.7067 16.0216C34.7909 16.0229 34.8738 16.0003 34.9456 15.9563C35.0362 15.8763 35.0993 15.7699 35.1261 15.6521C35.2301 15.4508 35.285 15.2277 35.2863 15.0011C35.2877 14.7746 35.2354 14.5509 35.1338 14.3484C34.7569 13.9636 34.2677 13.7082 33.7366 13.6188C33.2055 13.5294 32.6597 13.6107 32.1776 13.8508Z" fill="#FFEDEE"/>
<path d="M33.5501 19.679C33.5048 19.8268 33.4607 19.9758 33.4177 20.1259C33.3881 20.3596 33.2898 20.5792 33.1353 20.7569C32.9808 20.9347 32.777 21.0626 32.5497 21.1245C32.2104 21.2595 31.8788 21.413 31.5563 21.5843C31.265 21.739 30.9547 21.9495 30.9023 22.2718C30.8918 22.4175 30.9249 22.5632 30.9974 22.6901C31.07 22.8169 31.1787 22.9193 31.3097 22.9842C31.6995 23.1219 32.1164 23.1654 32.5263 23.111C32.9362 23.0566 33.3273 22.906 33.6678 22.6714C34.1447 22.3402 34.5778 21.9501 34.9568 21.5104C35.5523 20.9155 36.0719 20.2493 36.5037 19.5269C36.7029 19.1976 36.8248 18.8274 36.8604 18.4441C36.8765 18.2525 36.8481 18.0597 36.7774 17.8808C36.7068 17.7019 36.5958 17.5418 36.453 17.4129C36.1781 17.2414 35.856 17.1613 35.5327 17.1839C35.2095 17.2066 34.9018 17.331 34.6535 17.5392C34.4417 17.7405 34.2672 17.9776 34.1379 18.2396C33.8957 18.6992 33.6989 19.1813 33.5501 19.679Z" fill="#FFEDEE"/>
<path d="M41.0045 32.6559C40.8714 32.6495 40.7382 32.6664 40.6109 32.7058C40.1752 32.8622 40.0463 33.4053 39.9827 33.8642C39.9542 33.976 39.9655 34.0941 40.0145 34.1985C40.0452 34.2427 40.0833 34.2814 40.1271 34.3128C41.4629 35.3244 42.8836 36.2189 44.3732 36.9863C44.9129 37.2837 45.5995 37.5785 46.1074 37.2295C46.2363 37.1288 46.3428 37.0024 46.4202 36.8583C46.4976 36.7142 46.5441 36.5556 46.5569 36.3925C46.584 36.0216 46.5294 35.6492 46.3968 35.3017C46.2642 34.9542 46.0568 34.6401 45.7895 34.3816C45.1471 33.7896 44.3929 33.3321 43.5712 33.0357C42.7495 32.7394 41.8768 32.6103 41.0045 32.6559Z" fill="#FFEDEE"/>
<path d="M24.7126 29.6216C24.4668 29.9602 23.8249 30.4346 24.1557 30.9107C24.9292 32.0279 26.7158 30.8471 27.1584 30.0324C27.3282 29.6742 27.4329 29.2886 27.4678 28.8937C27.4965 28.7353 27.5051 28.5739 27.4935 28.4133C27.4181 28.0575 27.2466 27.729 26.9977 27.4637C26.9118 27.3424 26.798 27.2435 26.666 27.1752C26.534 27.1069 26.3875 27.0713 26.2389 27.0713C26.0902 27.0713 25.9437 27.1069 25.8117 27.1752C25.6797 27.2435 25.5659 27.3424 25.48 27.4637C25.0082 28.0928 25.1801 28.9831 24.7126 29.6216Z" fill="#FFDEDF"/>
<path d="M16.6571 31.8616C15.9782 31.3709 15.1773 31.5798 14.4047 31.5738C13.9174 31.5738 13.1242 31.6889 13.0159 32.2888C13.0043 32.4349 13.0297 32.5816 13.0898 32.7152C13.1499 32.8489 13.2427 32.9653 13.3597 33.0536C13.578 33.247 13.8444 33.3784 14.0713 33.5624C14.5004 34.0285 14.9021 34.5192 15.2744 35.0319C15.3422 35.1279 15.4291 35.209 15.5296 35.2701C15.63 35.3312 15.742 35.3711 15.8585 35.3872C15.9749 35.4033 16.0935 35.3953 16.2068 35.3638C16.3201 35.3322 16.4257 35.2778 16.517 35.2038C16.7231 35.081 16.9008 34.9162 17.0387 34.7199C17.2189 34.4081 17.3168 34.0556 17.3231 33.6956C17.3665 33.3317 17.3328 32.9627 17.2243 32.6127C17.1144 32.3114 16.9169 32.0498 16.6571 31.8616Z" fill="#FFDEDF"/>
<path d="M19.2655 26.6035C19.0749 26.3733 18.8284 26.1958 18.5497 26.0879C18.3566 26.0377 18.1559 26.0228 17.9576 26.0441C17.6102 26.0659 17.2652 26.1167 16.9263 26.1962C16.7269 26.235 16.5355 26.307 16.36 26.4093C16.1767 26.5403 16.0154 26.6995 15.8822 26.8811C15.6132 27.2085 15.3451 27.5359 15.0915 27.8754C14.9872 27.9799 14.9094 28.1078 14.8646 28.2485C14.8197 28.3891 14.8091 28.5385 14.8337 28.6841C14.8934 28.8109 14.9928 28.9149 15.1168 28.9802C15.2409 29.0455 15.3829 29.0685 15.5212 29.0459C15.7965 28.9946 16.0567 28.8822 16.2826 28.7167C16.5499 28.5509 16.8223 28.391 17.0853 28.2183C17.2976 28.0782 17.417 28.116 17.6224 28.2716C17.9576 28.5251 18.1707 28.9522 18.5883 29.0906C19.2363 29.3054 19.8525 28.5397 19.8499 27.9441C19.8211 27.4419 19.6139 26.9665 19.2655 26.6035Z" fill="#FFDEDF"/>
<path d="M42.0508 19.2263C41.2773 19.4919 40.3862 19.1756 39.6179 19.4592C39.3587 19.5579 39.1282 19.7195 38.9471 19.9296C38.766 20.1396 38.6401 20.3914 38.5806 20.6623C38.5454 20.8086 38.5454 20.9612 38.5806 21.1075C38.626 21.2384 38.7008 21.3571 38.7993 21.4546C38.8977 21.552 39.0173 21.6256 39.1487 21.6695C39.4618 21.7696 39.7909 21.8101 40.1189 21.789C40.7712 21.8075 41.4228 21.7317 42.0534 21.5638C42.6892 21.3921 43.2408 20.995 43.6054 20.4466C43.8512 20.0419 44.3625 18.4847 43.7042 18.2346C43.4318 18.1306 43.1181 18.3592 42.9394 18.5379C42.705 18.8376 42.3996 19.0742 42.0508 19.2263Z" fill="#FFEDEE"/>
<path d="M12.3121 14.1799C11.3614 14.7087 10.6097 15.5338 10.1714 16.5295C10.0489 16.7697 10.0165 17.046 10.0803 17.308C10.1761 17.5031 10.3357 17.6596 10.5327 17.7515C10.7296 17.8434 10.952 17.8652 11.1631 17.8134C11.5822 17.6989 11.9861 17.5347 12.3662 17.3244C13.1268 16.9961 13.9741 16.9291 14.7604 16.6687C15.1642 16.5718 15.5358 16.3714 15.8385 16.0871C16.1413 15.8029 16.3647 15.4448 16.4869 15.0479C16.54 14.639 16.4393 14.225 16.2043 13.8862C15.9692 13.5475 15.6166 13.3082 15.215 13.2148C14.1771 13.2637 13.1727 13.5977 12.3121 14.1799Z" fill="#FFEDEE"/>
</svg>
