<svg width="50" height="36" viewBox="0 0 50 36" fill="none" xmlns="http://www.w3.org/2000/svg">
<path d="M36.6704 12.7028C36.5279 12.576 36.351 12.4944 36.162 12.4684C35.9731 12.4425 35.7807 12.4732 35.6093 12.5569C35.4379 12.6405 35.2953 12.7732 35.1995 12.9381C35.1037 13.1031 35.0592 13.2927 35.0715 13.4831L36.1154 29.538C36.1321 29.721 36.2003 29.8956 36.3121 30.0415C36.424 30.1874 36.5748 30.2985 36.7473 30.3622C36.8533 30.3991 36.9647 30.4176 37.077 30.4171C37.2072 30.4169 37.3361 30.3905 37.456 30.3396C37.5758 30.2886 37.6842 30.2141 37.7748 30.1204L41.3132 26.3951L45.4561 34.5105C45.5337 34.6728 45.6551 34.8101 45.8065 34.9072C45.9579 35.0042 46.1334 35.0572 46.3132 35.06C46.4782 35.0603 46.6405 35.0182 46.7845 34.9377C46.9285 34.8572 47.0493 34.7409 47.1354 34.6002C47.2215 34.4595 47.2699 34.299 47.2761 34.1341C47.2822 33.9693 47.2458 33.8056 47.1704 33.6589L43.055 25.5875L48.1099 25.0984C48.2964 25.081 48.4738 25.0094 48.6202 24.8926C48.7666 24.7757 48.8757 24.6187 48.934 24.4407C48.9924 24.2627 48.9975 24.0715 48.9487 23.8906C48.8999 23.7098 48.7993 23.5471 48.6594 23.4226L36.6704 12.7028ZM41.4616 23.8072C41.2318 23.8291 41.0174 23.9324 40.8572 24.0984L37.9121 27.2193L37.1594 15.6809L45.7583 23.3732L41.4616 23.8072Z" fill="#393333"/>
<path d="M36.978 10.1755C37.233 10.1755 37.4776 10.0742 37.6579 9.89386C37.8382 9.71353 37.9395 9.46896 37.9395 9.21394V5.36779C37.9395 5.11277 37.8382 4.8682 37.6579 4.68788C37.4776 4.50756 37.233 4.40625 36.978 4.40625C36.723 4.40625 36.4784 4.50756 36.2981 4.68788C36.1178 4.8682 36.0165 5.11277 36.0165 5.36779V9.21394C36.0165 9.46896 36.1178 9.71353 36.2981 9.89386C36.4784 10.0742 36.723 10.1755 36.978 10.1755Z" fill="#393333"/>
<path d="M41.5275 14.7247C41.5275 14.9797 41.6288 15.2243 41.8091 15.4046C41.9894 15.585 42.234 15.6863 42.489 15.6863H46.3352C46.5902 15.6863 46.8347 15.585 47.0151 15.4046C47.1954 15.2243 47.2967 14.9797 47.2967 14.7247C47.2967 14.4697 47.1954 14.2251 47.0151 14.0448C46.8347 13.8645 46.5902 13.7632 46.3352 13.7632H42.489C42.234 13.7632 41.9894 13.8645 41.8091 14.0448C41.6288 14.2251 41.5275 14.4697 41.5275 14.7247Z" fill="#393333"/>
<path d="M32.4176 14.7194C32.4176 14.4643 32.3163 14.2198 32.136 14.0394C31.9556 13.8591 31.7111 13.7578 31.4561 13.7578H27.6099C27.3549 13.7578 27.1103 13.8591 26.93 14.0394C26.7497 14.2198 26.6484 14.4643 26.6484 14.7194C26.6484 14.9744 26.7497 15.2189 26.93 15.3993C27.1103 15.5796 27.3549 15.6809 27.6099 15.6809H31.4561C31.7111 15.6809 31.9556 15.5796 32.136 15.3993C32.3163 15.2189 32.4176 14.9744 32.4176 14.7194Z" fill="#393333"/>
<path d="M33.0824 11.7911C33.2093 11.7916 33.3351 11.7666 33.4521 11.7176C33.5692 11.6685 33.6752 11.5963 33.7637 11.5054C33.9432 11.3251 34.044 11.0812 34.044 10.8268C34.044 10.5724 33.9432 10.3284 33.7637 10.1482L31.0549 7.43943C30.8742 7.25582 30.628 7.15151 30.3704 7.14945C30.1128 7.14738 29.8649 7.24774 29.6813 7.42844C29.4977 7.60913 29.3934 7.85537 29.3913 8.11298C29.3893 8.37058 29.4896 8.61845 29.6703 8.80206L32.4176 11.5054C32.5042 11.5943 32.6075 11.6653 32.7216 11.7144C32.8356 11.7634 32.9582 11.7895 33.0824 11.7911Z" fill="#393333"/>
<path d="M42.9011 7.43945L40.1923 10.1482C40.0938 10.2351 40.0141 10.3412 39.9582 10.4601C39.9023 10.579 39.8713 10.708 39.8672 10.8393C39.8631 10.9706 39.8859 11.1013 39.9342 11.2234C39.9826 11.3456 40.0554 11.4565 40.1483 11.5494C40.2412 11.6423 40.3521 11.7151 40.4743 11.7635C40.5964 11.8118 40.7271 11.8346 40.8584 11.8305C40.9897 11.8264 41.1187 11.7954 41.2376 11.7395C41.3564 11.6836 41.4626 11.6039 41.5495 11.5054L44.2582 8.80209C44.4389 8.62212 44.5407 8.37774 44.5413 8.12271C44.5418 7.86768 44.441 7.62289 44.261 7.4422C44.081 7.2615 43.8366 7.1597 43.5816 7.15918C43.3266 7.15867 43.0818 7.25948 42.9011 7.43945Z" fill="#393333"/>
<path d="M32.4176 17.9395L29.6703 20.6428C29.4896 20.8235 29.3881 21.0686 29.3881 21.3241C29.3881 21.5797 29.4896 21.8247 29.6703 22.0054C29.851 22.1861 30.0961 22.2876 30.3517 22.2876C30.6072 22.2876 30.8523 22.1861 31.033 22.0054L33.7418 19.2966C33.8756 19.1131 33.9402 18.888 33.9239 18.6614C33.9077 18.4348 33.8117 18.2212 33.6531 18.0586C33.4944 17.896 33.2833 17.7948 33.0571 17.773C32.831 17.7512 32.6044 17.8102 32.4176 17.9395Z" fill="#393333"/>
<path d="M48.8572 0.840332H8.79122C6.58048 0.846144 4.46211 1.72768 2.89991 3.29195C1.3377 4.85621 0.458954 6.97574 0.456055 9.18649V10.1755C0.458954 12.3863 1.3377 14.5058 2.89991 16.07C4.46211 17.6343 6.58048 18.5159 8.79122 18.5217H22.9231C23.1781 18.5217 23.4227 18.4204 23.603 18.24C23.7833 18.0597 23.8846 17.8151 23.8846 17.5601C23.8846 17.3051 23.7833 17.0605 23.603 16.8802C23.4227 16.6999 23.1781 16.5986 22.9231 16.5986H8.79122C7.09007 16.5942 5.46 15.9158 4.25812 14.7118C3.05625 13.5079 2.38058 11.8767 2.37913 10.1755V9.18649C2.38058 7.48533 3.05625 5.8541 4.25812 4.65017C5.46 3.44624 7.09007 2.76777 8.79122 2.76341H48.8572C49.1122 2.76341 49.3567 2.66211 49.5371 2.48178C49.7174 2.30146 49.8187 2.05689 49.8187 1.80187C49.8187 1.54686 49.7174 1.30228 49.5371 1.12196C49.3567 0.941637 49.1122 0.840332 48.8572 0.840332Z" fill="#393333"/>
<path d="M22.1209 6.41742C22.0441 6.25682 21.9244 6.12055 21.7752 6.0236C21.6259 5.92665 21.4527 5.8728 21.2747 5.86797C21.0974 5.86697 20.9231 5.91393 20.7703 6.00388C20.6175 6.09383 20.4918 6.22343 20.4066 6.37896L17.9286 11.0822L15.6264 6.2306C15.5511 6.06884 15.4319 5.93152 15.2822 5.83435C15.1326 5.73719 14.9586 5.6841 14.7802 5.68115C14.6059 5.68082 14.4347 5.72762 14.2848 5.8166C14.1349 5.90559 14.0118 6.03345 13.9286 6.18665L11.3297 11.0218L9.34067 6.34599C9.23759 6.11631 9.04854 5.93621 8.81413 5.84439C8.57972 5.75257 8.31864 5.75635 8.08698 5.85491C7.85533 5.95347 7.67156 6.13896 7.57517 6.37153C7.47877 6.60409 7.47744 6.86519 7.57144 7.09874L10.3572 13.6207C10.4284 13.7871 10.5451 13.9299 10.6939 14.0329C10.8427 14.1359 11.0176 14.1948 11.1984 14.2028C11.3792 14.2108 11.5586 14.1677 11.7159 14.0783C11.8733 13.989 12.0022 13.857 12.0879 13.6976L14.7088 8.79104L17.033 13.6592C17.1098 13.8204 17.2299 13.9571 17.38 14.0538C17.5301 14.1506 17.7041 14.2037 17.8827 14.2071C18.0612 14.2105 18.2372 14.1642 18.3909 14.0732C18.5446 13.9823 18.6699 13.8503 18.7528 13.6921L21.2473 8.96137L23.5769 13.6702C23.6539 13.834 23.7759 13.9727 23.9286 14.0699C24.0813 14.1672 24.2585 14.2191 24.4396 14.2196C24.5863 14.219 24.7309 14.1852 24.8627 14.1207C24.9756 14.0627 25.076 13.9829 25.1579 13.8859C25.2399 13.7888 25.3018 13.6766 25.3401 13.5555C25.3784 13.4344 25.3924 13.307 25.3811 13.1805C25.3699 13.054 25.3338 12.931 25.2747 12.8185L22.1209 6.41742Z" fill="#393333"/>
</svg>
