<svg width="50" height="50" viewBox="0 0 50 50" fill="none" xmlns="http://www.w3.org/2000/svg">
<path d="M11.4651 39.9996C11.1753 39.9997 10.8921 39.9138 10.6511 39.7529C10.4102 39.5919 10.2224 39.3631 10.1115 39.0954C10.0006 38.8277 9.97162 38.5332 10.0282 38.249C10.0847 37.9648 10.2243 37.7038 10.4292 37.4989L37.499 10.4291C37.7737 10.1543 38.1464 10 38.5349 10C38.9234 10 39.2961 10.1543 39.5708 10.4291C39.8456 10.7038 39.9999 11.0765 39.9999 11.465C39.9999 11.8536 39.8456 12.2262 39.5708 12.5009L12.501 39.5707C12.3651 39.7069 12.2036 39.8149 12.0258 39.8885C11.8481 39.9621 11.6575 39.9999 11.4651 39.9996Z" fill="#393333"/>
<path d="M38.5349 39.9996C38.3425 39.9999 38.152 39.9621 37.9742 39.8885C37.7964 39.8149 37.6349 39.7069 37.499 39.5707L10.4292 12.5009C10.1545 12.2262 10.0001 11.8536 10.0001 11.465C10.0001 11.0765 10.1545 10.7038 10.4292 10.4291C10.704 10.1543 11.0766 10 11.4651 10C11.8537 10 12.2263 10.1543 12.501 10.4291L39.5709 37.4989C39.7758 37.7038 39.9153 37.9648 39.9719 38.249C40.0284 38.5332 39.9994 38.8277 39.8885 39.0954C39.7776 39.3631 39.5898 39.5919 39.3489 39.7529C39.108 39.9138 38.8247 39.9997 38.5349 39.9996Z" fill="#393333"/>
</svg>
