<svg width="50" height="50" viewBox="0 0 50 50" fill="none" xmlns="http://www.w3.org/2000/svg">
<path d="M44.9725 19.9505C43.8136 19.9515 42.691 20.3547 41.7962 21.0912C40.9013 21.8277 40.2898 22.8519 40.0659 23.9889H35.9286C35.4476 23.3767 34.8012 22.9153 34.0659 22.6593C33.931 21.271 33.4698 19.9342 32.7198 18.7582L36.3956 15.0769C37.2133 15.6307 38.1772 15.929 39.1648 15.934C40.1542 15.9356 41.1217 15.6434 41.9447 15.0943C42.7677 14.5453 43.4091 13.7642 43.7876 12.8501C44.166 11.936 44.2645 10.9301 44.0705 9.96002C43.8765 8.98989 43.3987 8.09924 42.6978 7.40103C41.9982 6.70247 41.1073 6.22698 40.1375 6.03465C39.1678 5.84233 38.1628 5.9418 37.2496 6.32049C36.3363 6.69919 35.5559 7.34011 35.0068 8.16226C34.4578 8.9844 34.1648 9.95086 34.1648 10.9395C34.1604 11.9363 34.4572 12.9111 35.0165 13.7362L31.478 17.2802C30.8235 16.6445 30.0494 16.1449 29.2007 15.8101C28.3519 15.4753 27.4452 15.312 26.533 15.3296C26.3897 15.3305 26.2466 15.3397 26.1044 15.3571V10.0219C27.3237 9.78297 28.4103 9.09864 29.1525 8.10227C29.8948 7.10589 30.2395 5.86885 30.1195 4.63221C29.9994 3.39556 29.4233 2.2479 28.5033 1.41286C27.5833 0.577824 26.3853 0.115234 25.1428 0.115234C23.9004 0.115234 22.7024 0.577824 21.7824 1.41286C20.8624 2.2479 20.2863 3.39556 20.1662 4.63221C20.0462 5.86885 20.3909 7.10589 21.1332 8.10227C21.8754 9.09864 22.962 9.78297 24.1813 10.0219V15.8076C22.6807 16.4489 21.4251 17.5542 20.5989 18.9615L15.2747 13.7362C15.8016 12.949 16.094 12.0284 16.118 11.0815C16.1419 10.1346 15.8964 9.20037 15.41 8.38758C14.9237 7.57478 14.2164 6.91687 13.3706 6.49043C12.5248 6.06398 11.5753 5.88656 10.6326 5.97881C9.68991 6.07106 8.7928 6.42919 8.04573 7.01151C7.29866 7.59382 6.73236 8.37636 6.41277 9.26803C6.09318 10.1597 6.03344 11.1238 6.24051 12.0481C6.44758 12.9724 6.91294 13.8189 7.58241 14.4889C8.40342 15.3082 9.48345 15.8169 10.638 15.9281C11.7924 16.0394 12.9497 15.7463 13.9121 15.0988L18.1319 19.2307C15.8132 19.5604 13.956 21.4889 13.4395 23.978H10.2143C9.97536 22.7602 9.29163 21.6749 8.2963 20.9337C7.30098 20.1925 6.06535 19.8484 4.83017 19.9684C3.59498 20.0884 2.44872 20.664 1.61471 21.583C0.780707 22.5019 0.318695 23.6985 0.318695 24.9395C0.318695 26.1805 0.780707 27.377 1.61471 28.296C2.44872 29.215 3.59498 29.7906 4.83017 29.9106C6.06535 30.0306 7.30098 29.6865 8.2963 28.9453C9.29163 28.204 9.97536 27.1188 10.2143 25.901H13.3242C13.4303 27.4825 14.1126 28.9701 15.2417 30.0823C15.8437 30.6646 16.5739 31.0974 17.3736 31.3461L13.9121 34.8131C13.264 34.3752 12.5221 34.0954 11.7463 33.9963C10.9704 33.8972 10.182 33.9815 9.44464 34.2424C8.70725 34.5034 8.04137 34.9337 7.50052 35.4988C6.95967 36.0638 6.55895 36.7479 6.33056 37.4961C6.10216 38.2442 6.05248 39.0354 6.1855 39.8062C6.31851 40.5771 6.63051 41.3059 7.09643 41.9342C7.56234 42.5625 8.16917 43.0727 8.86812 43.4239C9.56708 43.775 10.3387 43.9573 11.1209 43.956C11.7773 43.959 12.4277 43.8314 13.0343 43.5805C13.6409 43.3295 14.1914 42.9603 14.6538 42.4944C15.4744 41.6755 15.9846 40.5967 16.0969 39.4428C16.2092 38.289 15.9166 37.132 15.2692 36.1703L19.6648 31.7747C19.7323 31.7096 19.788 31.6334 19.8297 31.5494H24.1758V39.8461C22.9565 40.085 21.8699 40.7694 21.1277 41.7657C20.3854 42.7621 20.0407 43.9991 20.1607 45.2358C20.2808 46.4724 20.8569 47.6201 21.7769 48.4551C22.6969 49.2902 23.8949 49.7528 25.1374 49.7528C26.3798 49.7528 27.5778 49.2902 28.4978 48.4551C29.4178 47.6201 29.9939 46.4724 30.114 45.2358C30.234 43.9991 29.8893 42.7621 29.147 41.7657C28.4048 40.7694 27.3182 40.085 26.0989 39.8461V31.5769H26.445C26.7001 31.5769 26.9446 31.4755 27.125 31.2952C27.3053 31.1149 27.4066 30.8703 27.4066 30.6153C27.4066 30.3603 27.3053 30.1157 27.125 29.9354C26.9446 29.7551 26.7001 29.6538 26.445 29.6538H18.9286C18.4923 29.6592 18.0593 29.578 17.6547 29.4148C17.2501 29.2516 16.8819 29.0098 16.5714 28.7032C15.7144 27.8526 15.2302 26.6964 15.2253 25.4889C15.1758 23.1318 16.7637 21.1703 18.7637 21.0933C19.3234 21.0896 19.8744 21.2317 20.3626 21.5054C20.6682 21.7054 20.9299 21.9653 21.132 22.2694C21.3341 22.5735 21.4724 22.9155 21.5385 23.2747C21.5691 23.5048 21.6825 23.7159 21.8574 23.8686C22.0323 24.0212 22.2568 24.105 22.489 24.1043H22.6209C22.7475 24.0876 22.8695 24.0456 22.9797 23.9809C23.0898 23.9162 23.1859 23.8301 23.2622 23.7277C23.3385 23.6253 23.3935 23.5086 23.424 23.3845C23.4545 23.2605 23.4597 23.1316 23.4396 23.0054C23.2697 21.9857 22.7674 21.0507 22.011 20.3461C22.4167 19.4567 23.0562 18.6942 23.8613 18.1397C24.6664 17.5853 25.6068 17.2597 26.5824 17.1977C27.2481 17.1952 27.9076 17.3251 28.5226 17.5798C29.1376 17.8345 29.6958 18.2089 30.1648 18.6812C31.4382 19.9514 32.1572 21.6739 32.1648 23.4725C32.1679 23.7101 32.2589 23.9382 32.4202 24.1127C32.5815 24.2872 32.8018 24.3958 33.0385 24.4175C34.1374 24.5219 35.0385 25.6153 35.0604 26.967C35.0934 28.4175 34.1319 29.6318 32.9396 29.6593H31.022C30.8312 29.6598 30.6449 29.7171 30.4867 29.8238C30.3286 29.9305 30.2057 30.0819 30.1339 30.2586C30.062 30.4353 30.0443 30.6294 30.0831 30.8162C30.1219 31.0031 30.2154 31.1741 30.3516 31.3076L35.0275 36.1758C34.3296 37.2039 34.0396 38.4551 34.214 39.6854C34.3884 40.9157 35.0146 42.0371 35.9707 42.8308C36.9268 43.6245 38.1442 44.0338 39.3856 43.9789C40.627 43.9239 41.8035 43.4087 42.6857 42.5336C43.5679 41.6585 44.0927 40.4862 44.1577 39.2453C44.2227 38.0044 43.8232 36.7837 43.0373 35.8212C42.2513 34.8587 41.1351 34.2234 39.9062 34.0391C38.6774 33.8547 37.4239 34.1346 36.3901 34.8241L33.2527 31.5274C35.3846 31.3076 37.0384 29.2911 36.9835 26.89C36.9734 26.5549 36.9292 26.2217 36.8516 25.8955H40.0659C40.2482 26.8256 40.691 27.6847 41.3428 28.3727C41.9946 29.0607 42.8285 29.5493 43.7474 29.7816C44.6662 30.0138 45.6322 29.9801 46.5326 29.6844C47.433 29.3887 48.2309 28.8432 48.8332 28.1114C49.4355 27.3796 49.8173 26.4918 49.9343 25.5513C50.0514 24.6108 49.8986 23.6564 49.494 22.7994C49.0894 21.9423 48.4496 21.218 47.649 20.7106C46.8485 20.2033 45.9203 19.934 44.9725 19.934V19.9505ZM22.0659 5.11531C22.0648 4.50652 22.2444 3.91109 22.5818 3.40437C22.9192 2.89765 23.3994 2.50242 23.9615 2.26869C24.5237 2.03497 25.1425 1.97325 25.7397 2.09135C26.337 2.20945 26.8857 2.50207 27.3166 2.93216C27.7475 3.36226 28.0411 3.9105 28.1602 4.50752C28.2794 5.10453 28.2188 5.72348 27.9861 6.28604C27.7534 6.84859 27.359 7.32946 26.8529 7.6678C26.3467 8.00614 25.7516 8.18674 25.1428 8.18674C24.3287 8.18675 23.5477 7.86408 22.971 7.28942C22.3943 6.71476 22.0688 5.93495 22.0659 5.12081V5.11531ZM5.31318 28.0219C4.70438 28.0219 4.10928 27.8413 3.60316 27.503C3.09704 27.1646 2.70267 26.6838 2.46995 26.1212C2.23723 25.5586 2.17661 24.9397 2.29578 24.3427C2.41495 23.7457 2.70855 23.1974 3.13941 22.7673C3.57028 22.3372 4.11905 22.0446 4.71627 21.9265C5.3135 21.8084 5.93234 21.8701 6.49448 22.1039C7.05661 22.3376 7.53678 22.7328 7.87422 23.2395C8.21165 23.7463 8.39119 24.3417 8.3901 24.9505C8.38864 25.7656 8.06383 26.5468 7.48695 27.1226C6.91007 27.6985 6.12828 28.0219 5.31318 28.0219ZM28.2198 44.7747C28.2209 45.3834 28.0413 45.9789 27.7039 46.4856C27.3665 46.9923 26.8863 47.3876 26.3241 47.6213C25.762 47.855 25.1432 47.9167 24.5459 47.7986C23.9487 47.6805 23.4 47.3879 22.9691 46.9578C22.5382 46.5277 22.2446 45.9795 22.1255 45.3825C22.0063 44.7854 22.0669 44.1665 22.2996 43.6039C22.5323 43.0414 22.9267 42.5605 23.4328 42.2222C23.9389 41.8838 24.5341 41.7032 25.1428 41.7032C25.9579 41.7032 26.7397 42.0266 27.3166 42.6025C27.8935 43.1783 28.2183 43.9596 28.2198 44.7747ZM13.2967 41.1428C13.0093 41.4324 12.6667 41.6614 12.2891 41.8161C11.9116 41.9709 11.5069 42.0484 11.0989 42.0439C10.388 42.0388 9.7008 41.7877 9.1541 41.3332C8.60741 40.8788 8.23494 40.249 8.10002 39.551C7.96509 38.853 8.07602 38.1299 8.41396 37.5044C8.7519 36.8789 9.29599 36.3898 9.95377 36.1201C10.6115 35.8504 11.3424 35.8168 12.0222 36.025C12.7019 36.2332 13.2886 36.6704 13.6825 37.2622C14.0764 37.854 14.2532 38.564 14.1828 39.2714C14.1125 39.9789 13.7994 40.6401 13.2967 41.1428ZM8.94504 13.1208C8.44234 12.6181 8.12922 11.9569 8.0589 11.2494C7.98857 10.542 8.16538 9.83206 8.55927 9.24025C8.95317 8.64843 9.53984 8.21127 10.2196 8.00306C10.8993 7.79485 11.6302 7.82845 12.288 8.09814C12.9457 8.36782 13.4898 8.85696 13.8278 9.48242C14.1657 10.1079 14.2767 10.8311 14.1417 11.5291C14.0068 12.227 13.6343 12.8568 13.0876 13.3112C12.5409 13.7657 11.8537 14.0168 11.1428 14.0219C10.7334 14.0229 10.3279 13.9417 9.95038 13.7831C9.57286 13.6246 9.231 13.3919 8.94504 13.0988V13.1208ZM36.967 8.77466C37.2487 8.47275 37.5882 8.23061 37.9654 8.06268C38.3426 7.89474 38.7497 7.80444 39.1626 7.79714C39.5754 7.78985 39.9854 7.86572 40.3683 8.02023C40.7512 8.17474 41.0991 8.40473 41.3912 8.6965C41.6834 8.98827 41.9138 9.33585 42.0688 9.71855C42.2238 10.1012 42.3002 10.5112 42.2934 10.924C42.2866 11.3369 42.1968 11.7441 42.0294 12.1215C41.8619 12.4989 41.6202 12.8388 41.3187 13.1208C41.0316 13.4109 40.6891 13.6402 40.3115 13.795C39.9339 13.9498 39.5289 14.027 39.1209 14.0219C38.5104 14.0279 37.9119 13.8518 37.402 13.5161C36.892 13.1804 36.4936 12.7003 36.2578 12.1372C36.0219 11.5741 35.9592 10.9534 36.0777 10.3545C36.1962 9.75557 36.4905 9.20555 36.9231 8.77466H36.967ZM41.3187 36.7966C41.749 37.227 42.042 37.7752 42.1607 38.3721C42.2794 38.9689 42.2184 39.5876 41.9855 40.1498C41.7526 40.712 41.3583 41.1925 40.8523 41.5306C40.3463 41.8687 39.7514 42.0492 39.1428 42.0492C38.5343 42.0492 37.9394 41.8687 37.4334 41.5306C36.9274 41.1925 36.5331 40.712 36.3002 40.1498C36.0673 39.5876 36.0063 38.9689 36.125 38.3721C36.2437 37.7752 36.5367 37.227 36.967 36.7966C37.2531 36.5066 37.5942 36.2767 37.9703 36.1202C38.3464 35.9638 38.75 35.884 39.1573 35.8855C39.5646 35.887 39.9676 35.9699 40.3425 36.1292C40.7174 36.2884 41.0568 36.521 41.3406 36.8131L41.3187 36.7966ZM44.9505 28.0054C44.3415 28.0065 43.7459 27.8268 43.239 27.4892C42.7322 27.1515 42.337 26.671 42.1034 26.1085C41.8698 25.5461 41.8084 24.927 41.927 24.3296C42.0455 23.7322 42.3387 23.1834 42.7693 22.7528C43.2 22.3221 43.7487 22.029 44.3461 21.9104C44.9435 21.7919 45.5626 21.8533 46.1251 22.0869C46.6875 22.3204 47.168 22.7156 47.5057 23.2225C47.8434 23.7293 48.0231 24.325 48.022 24.934C48.0249 25.7472 47.7058 26.5285 47.1344 27.1071C46.563 27.6858 45.7857 28.0147 44.9725 28.0219L44.9505 28.0054Z" fill="#393333"/>
</svg>
