<svg width="60" height="61" viewBox="0 0 60 61" fill="none" xmlns="http://www.w3.org/2000/svg">
<g clip-path="url(#clip0)">
<path d="M15.3099 55.5252C15.9617 55.5252 16.4901 55.0003 16.4901 54.3529C16.4901 53.7055 15.9617 53.1807 15.3099 53.1807C14.658 53.1807 14.1296 53.7055 14.1296 54.3529C14.1296 55.0003 14.658 55.5252 15.3099 55.5252Z" fill="#393333"/>
<path d="M59.1033 41.4713C59.1036 40.8053 58.9595 40.1471 58.6808 39.5413C58.402 38.9356 57.9952 38.3966 57.4879 37.9611C58.2103 37.3384 58.7237 36.5111 58.9591 35.5902C59.1945 34.6693 59.1407 33.699 58.8048 32.8094C58.469 31.9198 57.8672 31.1535 57.0802 30.6134C56.2932 30.0734 55.3587 29.7853 54.4022 29.788L45.4549 29.847C43.5165 29.847 43.2791 28.7468 43.2725 28.2556L43.1472 20.8553C43.1934 18.8251 42.0857 14.8696 37.6088 14.4766C35.3736 14.2867 33.9099 14.6273 33.1516 15.5245C32.9608 15.745 32.8193 16.0031 32.7363 16.282C32.6533 16.5608 32.6308 16.8539 32.6703 17.142C32.6703 17.7969 32.7494 21.5757 32.6703 23.56C32.5846 25.1121 32.011 25.7015 31.9714 25.7735C28.904 27.4951 26.6018 30.3009 25.523 33.6323C25.0154 35.3022 24.2044 35.9113 23.9208 36.0881H21.8637V34.5622C21.8637 34.2582 21.7421 33.9667 21.5258 33.7518C21.3094 33.5369 21.0159 33.4161 20.7099 33.4161H9.89008C9.58406 33.4161 9.29057 33.5369 9.07419 33.7518C8.8578 33.9667 8.73623 34.2582 8.73623 34.5622V34.8438H2.28129C1.97527 34.8438 1.68178 34.9646 1.4654 35.1795C1.24901 35.3944 1.12744 35.6859 1.12744 35.9899C1.12744 36.2938 1.24901 36.5853 1.4654 36.8003C1.68178 37.0152 1.97527 37.1359 2.28129 37.1359H8.76261V56.0558H2.28129C1.97527 56.0558 1.68178 56.1765 1.4654 56.3915C1.24901 56.6064 1.12744 56.8979 1.12744 57.2019C1.12744 57.5058 1.24901 57.7973 1.4654 58.0122C1.68178 58.2272 1.97527 58.3479 2.28129 58.3479H8.76261C8.76595 58.6451 8.8854 58.9294 9.09576 59.1408C9.30612 59.3522 9.59092 59.4741 9.89008 59.4809H20.7099C21.0159 59.4809 21.3094 59.3601 21.5258 59.1452C21.7421 58.9303 21.8637 58.6388 21.8637 58.3348V38.3475H24.145C24.2705 38.3477 24.3952 38.3278 24.5143 38.2885C24.7318 38.2165 26.7296 37.4699 27.6989 34.2544C28.6269 31.5054 30.5423 29.1925 33.0791 27.7579L33.178 27.6989C33.4483 27.5287 34.7868 26.5332 34.9384 23.6713C35.0637 21.4316 34.978 17.1682 34.9384 16.9914V16.9521C35.1099 16.8539 35.7099 16.605 37.378 16.7491C40.7538 17.0438 40.8132 20.4165 40.8066 20.8422L40.9318 28.2425C40.9493 29.236 41.3451 30.1861 42.0395 30.9014C42.4981 31.3335 43.0419 31.6666 43.6365 31.8796C44.2311 32.0927 44.8638 32.181 45.4945 32.1391L54.4417 32.0802C55.0522 32.1121 55.6271 32.3754 56.0478 32.8159C56.4686 33.2564 56.7031 33.8404 56.7031 34.4476C56.7031 35.0548 56.4686 35.6388 56.0478 36.0793C55.6271 36.5198 55.0522 36.7831 54.4417 36.815H53.123C52.8347 36.8368 52.5652 36.966 52.3686 37.1766C52.1719 37.3873 52.0627 37.664 52.0627 37.9513C52.0627 38.2386 52.1719 38.5152 52.3686 38.7259C52.5652 38.9366 52.8347 39.0658 53.123 39.0875H54.4417C55.0522 39.1194 55.6271 39.3828 56.0478 39.8232C56.4686 40.2637 56.7031 40.8478 56.7031 41.455C56.7031 42.0621 56.4686 42.6462 56.0478 43.0867C55.6271 43.5272 55.0522 43.7905 54.4417 43.8224H52.3121C52.006 43.8224 51.7126 43.9431 51.4962 44.1581C51.2798 44.373 51.1582 44.6645 51.1582 44.9685C51.1582 45.2724 51.2798 45.5639 51.4962 45.7788C51.7126 45.9938 52.006 46.1145 52.3121 46.1145H53.5318C53.8554 46.0976 54.179 46.1463 54.483 46.2577C54.787 46.369 55.065 46.5406 55.3 46.7621C55.5351 46.9836 55.7223 47.2504 55.8502 47.546C55.9781 47.8417 56.0441 48.1601 56.0441 48.482C56.0441 48.8038 55.9781 49.1222 55.8502 49.4179C55.7223 49.7136 55.5351 49.9803 55.3 50.2018C55.065 50.4233 54.787 50.5949 54.483 50.7063C54.179 50.8176 53.8554 50.8663 53.5318 50.8494H51.4285C51.1225 50.8494 50.829 50.9701 50.6127 51.1851C50.3963 51.4 50.2747 51.6915 50.2747 51.9955C50.2747 52.2994 50.3963 52.5909 50.6127 52.8059C50.829 53.0208 51.1225 53.1415 51.4285 53.1415H52.6549C53.2879 53.1415 53.895 53.3913 54.3426 53.8359C54.7903 54.2805 55.0417 54.8835 55.0417 55.5122C55.0417 56.141 54.7903 56.744 54.3426 57.1886C53.895 57.6332 53.2879 57.883 52.6549 57.883H31.9648C31.2032 57.7959 30.472 57.5355 29.8282 57.1221C29.1844 56.7087 28.6452 56.1533 28.2527 55.4991C27.9762 55.0366 27.5531 54.6784 27.0495 54.4804C26.546 54.2825 25.9905 54.2561 25.4703 54.4055C25.1844 54.492 24.9435 54.6854 24.7983 54.9449C24.6531 55.2044 24.6149 55.5097 24.6918 55.7966C24.7687 56.0835 24.9547 56.3295 25.2106 56.4829C25.4665 56.6363 25.7723 56.6851 26.0637 56.619C26.1229 56.6124 26.1826 56.6124 26.2417 56.619C26.8265 57.6103 27.6404 58.4491 28.616 59.0663C29.5916 59.6835 30.7011 60.0613 31.8527 60.1685H52.6549C53.8972 60.1703 55.0896 59.6836 55.9717 58.8148C56.8539 57.946 57.3539 56.7657 57.3626 55.5319C57.3672 54.3687 56.9264 53.2474 56.1296 52.3949C56.6975 52.0254 57.1777 51.5377 57.5368 50.9655C57.896 50.3932 58.1256 49.7503 58.2096 49.0812C58.2937 48.4121 58.2302 47.7328 58.0236 47.0905C57.817 46.4482 57.4722 45.8582 57.0132 45.3614C57.6584 44.9354 58.1872 44.357 58.552 43.6781C58.9168 42.9992 59.1062 42.2409 59.1033 41.4713ZM19.5428 57.1888H11.0703V35.7083H19.556L19.5428 57.1888Z" fill="#393333"/>
<path d="M36.923 10.4555C37.2285 10.4538 37.521 10.3325 37.737 10.118C37.953 9.9034 38.0752 9.61289 38.0769 9.30947V2.30866C38.0769 2.00471 37.9553 1.7132 37.7389 1.49827C37.5225 1.28334 37.2291 1.1626 36.923 1.1626C36.617 1.1626 36.3235 1.28334 36.1072 1.49827C35.8908 1.7132 35.7692 2.00471 35.7692 2.30866V9.30947C35.7692 9.61342 35.8908 9.90493 36.1072 10.1199C36.3235 10.3348 36.617 10.4555 36.923 10.4555Z" fill="#393333"/>
<path d="M42.857 11.5231C43.0256 11.6188 43.2167 11.6685 43.4109 11.6672C43.6173 11.6666 43.8198 11.6109 43.9973 11.5061C44.1747 11.4013 44.3206 11.2511 44.4197 11.0712L47.7164 5.0593C47.8641 4.79269 47.8992 4.47869 47.8139 4.18639C47.7286 3.89409 47.5298 3.64742 47.2614 3.50065C46.993 3.35389 46.6769 3.31904 46.3826 3.40378C46.0883 3.48853 45.84 3.68592 45.6922 3.95253L42.3955 9.96445C42.2496 10.2321 42.2163 10.5463 42.3028 10.8383C42.3892 11.1303 42.5885 11.3765 42.857 11.5231Z" fill="#393333"/>
<path d="M47.1494 15.5181C47.2519 15.6853 47.3963 15.8233 47.5685 15.9185C47.7406 16.0138 47.9347 16.0631 48.1318 16.0617C48.3431 16.0624 48.5505 16.0058 48.7318 15.898L54.1846 12.6235C54.4469 12.4655 54.6352 12.2104 54.7082 11.9144C54.7811 11.6184 54.7327 11.3057 54.5736 11.0452C54.4144 10.7847 54.1576 10.5976 53.8596 10.5251C53.5616 10.4527 53.2469 10.5008 52.9846 10.6588L47.5318 13.9333C47.2696 14.0931 47.0819 14.3499 47.0102 14.6471C46.9385 14.9443 46.9886 15.2576 47.1494 15.5181Z" fill="#393333"/>
<path d="M29.9341 11.0712C30.0326 11.2516 30.1784 11.4021 30.3559 11.507C30.5335 11.6119 30.7363 11.6673 30.9428 11.6672C31.137 11.6685 31.3281 11.6188 31.4967 11.5231C31.7652 11.3765 31.9645 11.1303 32.0509 10.8383C32.1374 10.5463 32.1041 10.2321 31.9582 9.96445L28.6615 3.95253C28.5138 3.68592 28.2654 3.48853 27.9711 3.40378C27.6769 3.31904 27.3607 3.35389 27.0923 3.50065C26.8239 3.64742 26.6252 3.89409 26.5398 4.18639C26.4545 4.47869 26.4896 4.79269 26.6374 5.0593L29.9341 11.0712Z" fill="#393333"/>
<path d="M20.1758 12.5969L25.6286 15.8714C25.8897 16.027 26.202 16.0744 26.4981 16.0033C26.7941 15.9323 27.0502 15.7485 27.211 15.4916C27.3697 15.2316 27.4186 14.9198 27.347 14.6242C27.2753 14.3286 27.089 14.0731 26.8286 13.9133L21.3758 10.6388C21.1135 10.4808 20.7987 10.4327 20.5007 10.5051C20.2027 10.5776 19.9459 10.7647 19.7868 11.0252C19.6277 11.2857 19.5792 11.5984 19.6522 11.8944C19.7252 12.1904 19.9135 12.4454 20.1758 12.6035V12.5969Z" fill="#393333"/>
</g>
<defs>
<clipPath id="clip0">
<rect width="60" height="59.5953" fill="white" transform="translate(0 0.907227)"/>
</clipPath>
</defs>
</svg>
