<svg width="60" height="60" viewBox="0 0 60 60" fill="none" xmlns="http://www.w3.org/2000/svg">
<path d="M35.0967 41.057C33.5757 41.9512 31.9319 42.6176 30.2176 43.035C29.9651 43.099 29.7416 43.2465 29.5836 43.4536C29.4256 43.6608 29.3423 43.9152 29.3473 44.1757V48.1977H22.2462V44.1757C22.2467 43.9186 22.1614 43.6687 22.0037 43.4656C21.846 43.2626 21.6251 43.118 21.3759 43.0548C19.6615 42.6378 18.0176 41.9714 16.4967 41.0768C16.2765 40.9451 16.0184 40.8911 15.7638 40.9234C15.5092 40.9556 15.2728 41.0723 15.0923 41.2548L12.2638 44.0636L7.25279 39.0394L10.0814 36.2109C10.2628 36.0296 10.3783 35.7928 10.4093 35.5382C10.4404 35.2837 10.3853 35.026 10.2528 34.8065C9.35709 33.2886 8.69056 31.6467 8.27477 29.9339C8.21181 29.6841 8.06749 29.4623 7.86454 29.3035C7.66159 29.1447 7.41157 29.058 7.15389 29.057H3.11213V21.9625H7.11433C7.37026 21.9623 7.61893 21.8775 7.82166 21.7213C8.02438 21.565 8.16977 21.3462 8.23521 21.0988C8.65267 19.3845 9.31909 17.7407 10.2132 16.2197C10.344 15.9984 10.3981 15.7402 10.3671 15.4851C10.3361 15.2299 10.2218 14.9922 10.0418 14.8087L7.25279 11.9801L12.2704 6.95592L15.0989 9.78449C15.2794 9.96696 15.5158 10.0837 15.7704 10.1159C16.025 10.1482 16.2831 10.0942 16.5033 9.96251C18.0236 9.05755 19.6671 8.37794 21.3825 7.94493C21.6311 7.88308 21.8519 7.73975 22.0097 7.5378C22.1674 7.33584 22.253 7.0869 22.2528 6.83064V2.82185H29.3407V6.83064C29.3393 7.08719 29.4245 7.33671 29.5824 7.5389C29.7403 7.74109 29.9618 7.88413 30.211 7.94493C31.9274 8.37507 33.5713 9.05485 35.0902 9.96251C35.3104 10.0942 35.5685 10.1482 35.8231 10.1159C36.0777 10.0837 36.3141 9.96696 36.4945 9.78449L39.3231 6.96251L44.3407 11.9801L41.5385 14.8021C41.3565 14.9844 41.2408 15.2223 41.2097 15.478C41.1787 15.7337 41.2341 15.9925 41.3671 16.2131C42.2647 17.7362 42.9355 19.3821 43.3583 21.0988C43.4212 21.3486 43.5656 21.5705 43.7685 21.7292C43.9715 21.888 44.2215 21.9747 44.4792 21.9757H48.4814V29.057H44.4792C44.2221 29.0565 43.9722 29.1418 43.7691 29.2995C43.566 29.4572 43.4215 29.6781 43.3583 29.9273C42.9299 31.6432 42.2524 33.2871 41.3473 34.8065C41.2585 34.9365 41.1972 35.0834 41.1673 35.238C41.1374 35.3926 41.1394 35.5517 41.1733 35.7054C41.2072 35.8592 41.2722 36.0045 41.3643 36.1322C41.4564 36.2599 41.5737 36.3674 41.7089 36.4481C41.8441 36.5288 41.9944 36.5809 42.1506 36.6013C42.3067 36.6218 42.4654 36.61 42.6168 36.5668C42.7683 36.5235 42.9092 36.4498 43.0311 36.35C43.1529 36.2503 43.2531 36.1266 43.3253 35.9867C44.1933 34.5396 44.8756 32.9889 45.3561 31.3713H49.6352C49.9389 31.3661 50.2283 31.2413 50.4407 31.0241C50.653 30.8068 50.771 30.5146 50.7693 30.2109V20.8087C50.7693 20.5026 50.6477 20.2092 50.4313 19.9928C50.2149 19.7764 49.9214 19.6548 49.6154 19.6548H45.3561C44.9621 18.3268 44.4318 17.043 43.7737 15.824L46.8132 12.7911C46.9215 12.6849 47.0075 12.5582 47.0662 12.4184C47.1249 12.2786 47.1551 12.1284 47.1551 11.9768C47.1551 11.8252 47.1249 11.675 47.0662 11.5352C47.0075 11.3954 46.9215 11.2687 46.8132 11.1625L40.1473 4.50976C39.9252 4.30306 39.6331 4.18815 39.3297 4.18815C39.0263 4.18815 38.7342 4.30306 38.5121 4.50976L35.4924 7.53614C34.2699 6.87057 32.9817 6.33363 31.6484 5.93394V1.66801C31.6484 1.36199 31.5268 1.0685 31.3104 0.852114C31.0941 0.635726 30.8006 0.51416 30.4945 0.51416H21.0989C20.7935 0.515891 20.501 0.638012 20.285 0.854026C20.0689 1.07004 19.9468 1.36252 19.9451 1.66801V5.93394C18.6146 6.32984 17.3286 6.86234 16.1077 7.52295L13.0814 4.50976C12.864 4.29395 12.5701 4.17284 12.2638 4.17284C11.9575 4.17284 11.6636 4.29395 11.4462 4.50976L4.80004 11.1625C4.69179 11.2687 4.6058 11.3954 4.5471 11.5352C4.48839 11.675 4.45816 11.8252 4.45816 11.9768C4.45816 12.1284 4.48839 12.2786 4.5471 12.4184C4.6058 12.5582 4.69179 12.6849 4.80004 12.7911L7.81982 15.824C7.16408 17.0464 6.63389 18.3321 6.23741 19.6614H1.97806C1.67205 19.6614 1.37856 19.783 1.16217 19.9994C0.945784 20.2158 0.824219 20.5092 0.824219 20.8153V30.2109C0.824219 30.5169 0.945784 30.8104 1.16217 31.0268C1.37856 31.2431 1.67205 31.3647 1.97806 31.3647H6.23081C6.62954 32.6942 7.16193 33.9799 7.81982 35.2021L4.80004 38.2416C4.69179 38.3478 4.6058 38.4745 4.5471 38.6143C4.48839 38.7542 4.45816 38.9043 4.45816 39.0559C4.45816 39.2076 4.48839 39.3577 4.5471 39.4975C4.6058 39.6373 4.69179 39.764 4.80004 39.8702L11.4462 46.5098C11.5535 46.6171 11.681 46.7021 11.8213 46.7598C11.9616 46.8175 12.112 46.8468 12.2638 46.846C12.4145 46.8467 12.5639 46.8173 12.7031 46.7596C12.8424 46.7018 12.9687 46.6169 13.0748 46.5098L16.1011 43.5164C17.3231 44.1747 18.6088 44.7071 19.9385 45.1054V49.3845C19.9471 49.6859 20.0734 49.972 20.2903 50.1815C20.5071 50.391 20.7974 50.5072 21.0989 50.5054H30.5011C30.806 50.5036 31.0978 50.3813 31.3128 50.1651C31.5277 49.9489 31.6484 49.6564 31.6484 49.3515V45.0658C33.2649 44.5851 34.8152 43.9052 36.2638 43.0416C36.5064 42.8759 36.6766 42.6239 36.7398 42.337C36.803 42.0501 36.7544 41.7499 36.6039 41.4976C36.4533 41.2453 36.2122 41.0599 35.9297 40.9793C35.6472 40.8986 35.3446 40.9288 35.0836 41.0636L35.0967 41.057Z" fill="#393333"/>
<path d="M29.1232 32.189C28.1004 32.7037 26.9715 32.9723 25.8265 32.9736C24.8281 33.0033 23.8339 32.8322 22.9029 32.4707C21.9718 32.1091 21.1227 31.5643 20.406 30.8686C19.6894 30.1729 19.1196 29.3405 18.7305 28.4205C18.3414 27.5006 18.141 26.512 18.141 25.5131C18.141 24.5143 18.3414 23.5256 18.7305 22.6057C19.1196 21.6858 19.6894 20.8533 20.406 20.1576C21.1227 19.4619 21.9718 18.9172 22.9029 18.5556C23.8339 18.194 24.8281 18.023 25.8265 18.0527C26.1325 18.0527 26.426 17.9311 26.6424 17.7147C26.8588 17.4983 26.9803 17.2049 26.9803 16.8988C26.9803 16.5928 26.8588 16.2993 26.6424 16.083C26.426 15.8666 26.1325 15.745 25.8265 15.745C24.5224 15.7111 23.2247 15.9387 22.0099 16.4144C20.7952 16.89 19.6879 17.6041 18.7536 18.5145C17.8192 19.4249 17.0766 20.5132 16.5695 21.7152C16.0625 22.9172 15.8013 24.2086 15.8013 25.5131C15.8013 26.8177 16.0625 28.109 16.5695 29.311C17.0766 30.513 17.8192 31.6013 18.7536 32.5117C19.6879 33.4221 20.7952 34.1362 22.0099 34.6119C23.2247 35.0875 24.5224 35.3151 25.8265 35.2813C27.3261 35.2903 28.8071 34.9494 30.1518 34.2857C30.2877 34.2181 30.409 34.1245 30.5088 34.01C30.6085 33.8956 30.6847 33.7627 30.7331 33.6188C30.7815 33.4749 30.801 33.3229 30.7907 33.1715C30.7803 33.0201 30.7402 32.8721 30.6726 32.7362C30.6051 32.6003 30.5115 32.479 30.397 32.3792C30.2826 32.2795 30.1497 32.2032 30.0058 32.1549C29.8619 32.1065 29.7099 32.0869 29.5585 32.0973C29.407 32.1077 29.2591 32.1478 29.1232 32.2153V32.189Z" fill="#393333"/>
<path d="M32.0704 18.0196C31.8345 17.8472 31.5419 17.7707 31.2518 17.8056C30.9617 17.8405 30.6957 17.9842 30.5074 18.2077C30.3191 18.4311 30.2226 18.7177 30.2373 19.0095C30.2521 19.3013 30.377 19.5767 30.5869 19.78C31.0234 20.1408 31.4152 20.5525 31.7539 21.0064C32.5686 22.0845 33.075 23.3638 33.2191 24.7075C33.3631 26.0511 33.1392 27.4086 32.5715 28.635C32.4439 28.913 32.432 29.2303 32.5383 29.5172C32.6447 29.804 32.8606 30.0369 33.1386 30.1646C33.2892 30.2359 33.4533 30.2741 33.6199 30.2767C33.8392 30.2778 34.0543 30.2164 34.24 30.0996C34.4257 29.9828 34.5742 29.8155 34.6682 29.6174C35.4128 28.0135 35.7091 26.2379 35.5256 24.4791C35.3422 22.7204 34.6859 21.0441 33.6265 19.6284C33.1689 19.0361 32.6471 18.4966 32.0704 18.0196Z" fill="#393333"/>
<path d="M58.5561 51.7317L47.8221 40.9977C47.1884 40.3684 46.3316 40.0152 45.4386 40.0152C44.5455 40.0152 43.6887 40.3684 43.055 40.9977L42.8836 41.1757L39.455 37.7537C39.2349 37.5596 38.9491 37.4567 38.6557 37.4659C38.3624 37.4751 38.0836 37.5958 37.876 37.8033C37.6685 38.0108 37.5479 38.2896 37.5387 38.583C37.5294 38.8763 37.6324 39.1621 37.8265 39.3823L41.2484 42.8109L41.0704 42.9889C40.4399 43.6206 40.0858 44.4766 40.0858 45.3691C40.0858 46.2616 40.4399 47.1176 41.0704 47.7493L51.8045 58.4834C52.437 59.1123 53.2927 59.4653 54.1847 59.4653C55.0767 59.4653 55.9324 59.1123 56.5649 58.4834L58.5429 56.5054C58.858 56.1932 59.1083 55.8219 59.2796 55.4128C59.4508 55.0037 59.5396 54.5648 59.5408 54.1213C59.542 53.6778 59.4557 53.2384 59.2867 52.8283C59.1177 52.4183 58.8695 52.0456 58.5561 51.7317ZM56.921 54.8636L54.943 56.8416C54.8443 56.9405 54.7272 57.019 54.5982 57.0725C54.4692 57.126 54.331 57.1536 54.1913 57.1536C54.0517 57.1536 53.9134 57.126 53.7844 57.0725C53.6554 57.019 53.5383 56.9405 53.4397 56.8416L42.7056 46.1537C42.6067 46.0551 42.5283 45.938 42.4747 45.809C42.4212 45.68 42.3936 45.5417 42.3936 45.4021C42.3936 45.2624 42.4212 45.1241 42.4747 44.9952C42.5283 44.8662 42.6067 44.749 42.7056 44.6504L44.6836 42.6724C44.7815 42.5727 44.8986 42.4938 45.0277 42.4406C45.1569 42.3873 45.2955 42.3608 45.4353 42.3625C45.5749 42.3615 45.7133 42.3884 45.8423 42.4416C45.9714 42.4948 46.0886 42.5733 46.1869 42.6724L56.921 53.3603C57.0199 53.4589 57.0983 53.5761 57.1518 53.7051C57.2054 53.834 57.2329 53.9723 57.2329 54.112C57.2329 54.2516 57.2054 54.3899 57.1518 54.5189C57.0983 54.6478 57.0199 54.765 56.921 54.8636Z" fill="#393333"/>
<path d="M25.7933 10.0483C22.7353 10.0483 19.746 10.9551 17.2034 12.6541C14.6607 14.353 12.679 16.7678 11.5087 19.593C10.3385 22.4182 10.0323 25.527 10.6289 28.5263C11.2255 31.5255 12.698 34.2805 14.8604 36.4428C17.0227 38.6052 19.7777 40.0777 22.7769 40.6743C25.7762 41.2709 28.885 40.9647 31.7102 39.7945C34.5354 38.6242 36.9502 36.6425 38.6491 34.0998C40.3481 31.5572 41.2549 28.5679 41.2549 25.5099C41.2514 21.4103 39.6213 17.4796 36.7224 14.5808C33.8236 11.6819 29.8929 10.0518 25.7933 10.0483ZM25.7933 38.6637C23.1852 38.6637 20.6357 37.8903 18.4671 36.4413C16.2986 34.9924 14.6084 32.9329 13.6103 30.5233C12.6122 28.1137 12.3511 25.4623 12.8599 22.9043C13.3687 20.3463 14.6246 17.9966 16.4688 16.1524C18.3131 14.3082 20.6627 13.0523 23.2207 12.5435C25.7787 12.0347 28.4301 12.2958 30.8397 13.2939C33.2493 14.292 35.3088 15.9821 36.7578 18.1507C38.2068 20.3193 38.9801 22.8688 38.9801 25.4769C38.9801 27.2086 38.6391 28.9234 37.9764 30.5233C37.3137 32.1232 36.3423 33.5769 35.1178 34.8014C33.8933 36.0259 32.4396 36.9972 30.8397 37.6599C29.2398 38.3226 27.525 38.6637 25.7933 38.6637Z" fill="#393333"/>
</svg>
