<svg width="60" height="61" viewBox="0 0 60 61" fill="none" xmlns="http://www.w3.org/2000/svg">
<path d="M57.4747 45.6559L44.1758 32.4271C43.9552 32.2189 43.6625 32.1028 43.3582 32.1028C43.0539 32.1028 42.7612 32.2189 42.5406 32.4271L39.9033 35.0467L36.7978 31.9687L44.2945 24.4832C47.4263 24.3195 51.6 24.3326 51.7846 24.3064C52.5626 24.1885 54.0527 22.9966 59.0967 16.2578C59.2368 16.0672 59.315 15.8388 59.3209 15.6029V12.5707C59.3204 12.3689 59.2665 12.1707 59.1647 11.996C59.0629 11.8213 58.9166 11.6762 58.7406 11.5753C58.5649 11.4722 58.3645 11.4178 58.1604 11.4178C57.9563 11.4178 57.7559 11.4722 57.5802 11.5753L52.2461 14.7188C51.7912 14.8629 49.7934 15.3278 48.0857 12.9113C46.2395 10.2917 47.0637 9.0343 48.2307 8.04541C49.9734 6.80883 51.7827 5.66762 53.6505 4.62687C53.8191 4.52903 53.9605 4.39095 54.0618 4.22513C54.1631 4.05932 54.2212 3.87101 54.2307 3.67728C54.2381 3.48382 54.196 3.29167 54.1084 3.11875C54.0208 2.94583 53.8905 2.79777 53.7296 2.68839C53.5648 2.57706 49.5494 -0.0883588 42.6527 2.56396C37.3253 4.60722 36.5802 7.29884 36.5143 7.60009L35.3802 15.557L27.8373 23.0556L21.0989 16.3429C21.391 15.6133 21.543 14.8359 21.5472 14.0508C21.5488 13.2354 21.3876 12.4278 21.073 11.6746C20.7584 10.9215 20.2966 10.2378 19.7143 9.663C19.6591 9.60552 19.5971 9.55494 19.5296 9.51237L8.11646 2.13828C7.89593 1.99332 7.63175 1.92848 7.36863 1.95473C7.10551 1.98099 6.85959 2.09672 6.6725 2.28235L1.93184 6.99104C1.74495 7.17687 1.62843 7.42112 1.60199 7.68247C1.57556 7.94382 1.64084 8.20621 1.78679 8.42525L9.23074 19.7418C9.2756 19.8074 9.32636 19.8687 9.38239 19.9252C9.95972 20.5031 10.647 20.9611 11.4043 21.2725C12.1616 21.5839 12.9737 21.7426 13.7934 21.7392C14.5859 21.7405 15.3714 21.5916 16.1077 21.3004L22.8461 28.0131L14.5912 36.2124L6.67909 37.3257H6.59338C6.29008 37.3977 3.58679 38.1312 1.52305 43.4293C-1.11431 50.2795 1.52305 54.2612 1.65492 54.4315C1.76393 54.5897 1.91073 54.7185 2.08218 54.8065C2.25363 54.8945 2.44437 54.9389 2.63734 54.9358C2.83133 54.9289 3.02034 54.8729 3.18649 54.7732C3.35263 54.6735 3.49041 54.5334 3.58679 54.366C4.63546 52.5113 5.78439 50.7142 7.02854 48.9828C8.02415 47.8236 9.30986 47.0181 11.934 48.8322C14.3736 50.5414 13.9121 52.5388 13.7538 52.9645L10.589 58.2626C10.4835 58.436 10.4264 58.6341 10.4237 58.8367C10.4209 59.0392 10.4726 59.2388 10.5733 59.415C10.6741 59.5911 10.8203 59.7374 10.9969 59.8387C11.1735 59.94 11.3741 59.9928 11.578 59.9915H14.6307C14.8696 59.9873 15.1007 59.9069 15.2901 59.7623C22.2132 54.6804 23.3143 53.2134 23.4066 52.4734C23.4066 52.3162 23.4066 48.1707 23.5714 45.0665L31.8066 36.9262L34.945 39.9976L32.3077 42.6172C32.0919 42.8331 31.9707 43.125 31.9707 43.4293C31.9707 43.7335 32.0919 44.0254 32.3077 44.2414L45.6263 57.4636C47.1222 58.9473 49.1497 59.7807 51.2637 59.7807C53.3777 59.7807 55.4052 58.9473 56.9011 57.4636L57.5011 56.8677C58.2431 56.1333 58.8318 55.2607 59.2335 54.2998C59.6353 53.339 59.842 52.3088 59.842 51.2684C59.842 50.2279 59.6353 49.1978 59.2335 48.2369C58.8318 47.276 58.2431 46.4034 57.5011 45.669L57.4747 45.6559ZM37.2857 16.9127C37.4607 16.734 37.5739 16.5046 37.6088 16.2578L38.7758 8.1109C38.8483 7.92753 39.6198 6.21826 43.4835 4.73165C45.6665 3.78831 48.0765 3.48824 50.4264 3.8672C49.1436 4.60443 47.9082 5.42026 46.7275 6.30995C43.556 9.00811 44.6901 12.1058 46.1934 14.2342C48.5472 17.5545 51.7912 17.3907 53.1692 16.8537C53.222 16.8537 57.0132 14.6074 57.0132 14.6074V15.2623C54.8505 18.1439 52.2461 21.3463 51.3626 22.0536C49.8461 21.975 45.6264 22.178 43.734 22.2828C43.4482 22.2963 43.1778 22.4154 42.9758 22.6168L35.1692 30.3314L33.1912 28.3667L40.7209 20.8551C40.8436 20.7528 40.9435 20.6263 41.0143 20.4836C41.0851 20.3408 41.1252 20.185 41.132 20.026C41.1388 19.867 41.1123 19.7084 41.054 19.5602C40.9957 19.412 40.907 19.2774 40.7934 19.1651C40.6799 19.0528 40.5441 18.9653 40.3947 18.908C40.2452 18.8507 40.0854 18.8249 39.9254 18.8323C39.7653 18.8398 39.6086 18.8802 39.4652 18.9511C39.3217 19.022 39.1948 19.1218 39.0923 19.2441L31.5428 26.7361L29.4725 24.6732L37.2857 16.9127ZM13.7736 19.4471C12.7706 19.452 11.8045 19.0719 11.0769 18.3862L4.22635 7.95373L7.64173 4.56138L18.145 11.3854C18.8436 12.1275 19.2256 13.1096 19.2109 14.1256C19.1961 15.1415 18.7858 16.1122 18.0659 16.8341L16.556 18.3338C16.191 18.6969 15.7572 18.9845 15.2796 19.1801C14.802 19.3757 14.2902 19.4753 13.7736 19.4733V19.4471ZM21.6461 43.7633C21.4427 43.9608 21.3225 44.2276 21.3099 44.5099C21.2044 46.396 21 50.5807 21.0857 52.087C20.3736 52.9645 17.1296 55.5579 14.2417 57.706H13.5824C13.5824 57.706 15.8241 53.9534 15.8637 53.8879C16.4241 52.5127 16.5956 49.3037 13.2263 46.9592C11.0835 45.466 7.95162 44.3396 5.24173 47.4896C4.34673 48.6629 3.52539 49.8899 2.78239 51.1636C2.40029 48.829 2.70479 46.4345 3.65931 44.2676C5.16261 40.3971 6.89008 39.6833 7.06151 39.5851L15.2967 38.4259C15.5461 38.394 15.7779 38.2812 15.956 38.105L24.4747 29.6307L26.5516 31.6871L18.2241 39.9649C18.1159 40.0704 18.0299 40.1962 17.9712 40.3351C17.9125 40.474 17.8823 40.6231 17.8823 40.7737C17.8823 40.9243 17.9125 41.0734 17.9712 41.2123C18.0299 41.3512 18.1159 41.477 18.2241 41.5825C18.3303 41.69 18.457 41.7754 18.5969 41.8337C18.7367 41.892 18.8868 41.9221 19.0384 41.9221C19.1901 41.9221 19.3402 41.892 19.48 41.8337C19.6198 41.7754 19.7465 41.69 19.8527 41.5825L28.1802 33.3112L30.1582 35.2759L21.6461 43.7633ZM18.0725 20.03L18.1912 19.9252L19.6945 18.432L19.8 18.3141L38.2615 36.6511L36.534 38.367L18.0725 20.03ZM55.8461 55.2632L55.2461 55.8657C54.1811 56.9183 52.7398 57.5092 51.2373 57.5092C49.7349 57.5092 48.2936 56.9183 47.2285 55.8657L34.734 43.4227L37.3714 40.8032L40.734 37.4698L43.3714 34.8502L55.8989 47.2932C56.4243 47.8188 56.8399 48.4425 57.1218 49.1282C57.4037 49.814 57.5463 50.5484 57.5414 51.2891C57.5365 52.0298 57.3842 52.7622 57.0933 53.4443C56.8023 54.1263 56.3785 54.7445 55.8461 55.2632Z" fill="#393333"/>
<path d="M42.6461 41.1042C42.5399 40.9967 42.4132 40.9113 42.2734 40.853C42.1335 40.7947 41.9834 40.7646 41.8318 40.7646C41.6802 40.7646 41.53 40.7947 41.3902 40.853C41.2504 40.9113 41.1237 40.9967 41.0175 41.1042C40.8021 41.319 40.6812 41.6098 40.6812 41.913C40.6812 42.2162 40.8021 42.507 41.0175 42.7218L50.9076 52.5452C51.015 52.6518 51.1424 52.7364 51.2827 52.7942C51.423 52.8519 51.5734 52.8816 51.7252 52.8816C51.877 52.8816 52.0274 52.8519 52.1677 52.7942C52.308 52.7364 52.4354 52.6518 52.5428 52.5452C52.6502 52.4386 52.7353 52.312 52.7934 52.1726C52.8515 52.0333 52.8814 51.884 52.8814 51.7331C52.8814 51.5823 52.8515 51.433 52.7934 51.2937C52.7353 51.1543 52.6502 51.0277 52.5428 50.9211L42.6461 41.1042Z" fill="#393333"/>
</svg>
