<svg width="60" height="61" viewBox="0 0 60 61" fill="none" xmlns="http://www.w3.org/2000/svg">
<path d="M30.0661 8.99561C26.1056 8.99639 22.2378 10.1864 18.9703 12.4094C15.7029 14.6324 13.1883 17.7845 11.7566 21.4523C10.3248 25.1201 10.0429 29.132 10.9476 32.9618C11.8524 36.7915 13.9017 40.2602 16.8265 42.9125L16.8793 42.9649C17.0177 43.0697 17.2089 43.2334 17.387 43.3906L17.4595 43.4561C20.5518 46.259 22.2529 47.8046 22.6221 51.5506C22.6403 51.7616 22.718 51.9632 22.8463 52.1323C22.9746 52.3014 23.1483 52.4312 23.3474 52.5067L35.6045 57.3202C35.7414 57.3722 35.8866 57.3988 36.0331 57.3988C36.3022 57.3993 36.5631 57.3063 36.7705 57.1359C36.9779 56.9656 37.1188 56.7286 37.1689 56.4659C37.219 56.2033 37.175 55.9315 37.0447 55.6977C36.9143 55.4638 36.7058 55.2825 36.4551 55.1852L24.8045 50.601C24.2243 46.4817 22.0155 44.517 19.0155 41.7665L18.9298 41.6879C18.7254 41.5045 18.5144 41.3277 18.3628 41.2033C15.7901 38.8584 13.9903 35.7964 13.1992 32.4184C12.4081 29.0404 12.6626 25.5038 13.9293 22.2719C15.196 19.0399 17.4159 16.2633 20.2982 14.3056C23.1805 12.348 26.5908 11.3005 30.0826 11.3005C33.5743 11.3005 36.9847 12.348 39.867 14.3056C42.7493 16.2633 44.9691 19.0399 46.2358 22.2719C47.5025 25.5038 47.757 29.0404 46.9659 32.4184C46.1748 35.7964 44.3751 38.8584 41.8023 41.2033L41.143 41.8058C37.9848 44.6677 35.6969 46.7306 35.2485 51.3672C35.226 51.5209 35.2351 51.6776 35.2754 51.8277C35.3157 51.9778 35.3863 52.1182 35.4829 52.2403C35.5795 52.3625 35.7001 52.4638 35.8374 52.5383C35.9746 52.6127 36.1257 52.6587 36.2814 52.6733C36.4371 52.688 36.5941 52.6711 36.743 52.6236C36.8919 52.5761 37.0296 52.499 37.1476 52.3971C37.2656 52.2952 37.3615 52.1705 37.4294 52.0306C37.4974 51.8907 37.5361 51.7385 37.543 51.5833C37.8793 47.7915 39.5606 46.259 42.6595 43.4692L43.3188 42.8798C46.236 40.2258 48.278 36.7584 49.1773 32.9321C50.0767 29.1057 49.7914 25.0987 48.3589 21.4361C46.9264 17.7735 44.4134 14.6261 41.1493 12.4062C37.8851 10.1863 34.022 8.99756 30.0661 8.99561Z" fill="#393333"/>
<path d="M29.8484 57.3399L24.3495 55.1853C24.0645 55.0741 23.7467 55.08 23.466 55.2016C23.1853 55.3232 22.9647 55.5505 22.8528 55.8336C22.7409 56.1167 22.7468 56.4324 22.8692 56.7112C22.9916 56.99 23.2205 57.2091 23.5056 57.3202L29.0111 59.4683C29.1458 59.5196 29.2888 59.5462 29.433 59.5469C29.6998 59.5451 29.9577 59.4516 30.1628 59.2822C30.368 59.1128 30.5077 58.8781 30.5582 58.6179C30.6088 58.3577 30.567 58.0882 30.44 57.8552C30.3129 57.6222 30.1086 57.4401 29.8616 57.3399H29.8484Z" fill="#393333"/>
<path d="M29.9805 6.30428C30.2865 6.30428 30.58 6.18353 30.7964 5.9686C31.0128 5.75368 31.1343 5.46217 31.1343 5.15822V2.53864C31.1343 2.23469 31.0128 1.94318 30.7964 1.72825C30.58 1.51332 30.2865 1.39258 29.9805 1.39258C29.6745 1.39258 29.381 1.51332 29.1646 1.72825C28.9482 1.94318 28.8267 2.23469 28.8267 2.53864V5.15822C28.8267 5.46217 28.9482 5.75368 29.1646 5.9686C29.381 6.18353 29.6745 6.30428 29.9805 6.30428Z" fill="#393333"/>
<path d="M38.8616 8.09842C39.0077 8.16795 39.1678 8.20377 39.3298 8.20321C39.5502 8.20556 39.7668 8.14513 39.9537 8.02907C40.1407 7.91301 40.2902 7.74617 40.3847 7.54831L41.4463 5.17105C41.5203 5.03223 41.5649 4.87976 41.5771 4.72311C41.5894 4.56646 41.5691 4.40899 41.5175 4.26047C41.4659 4.11195 41.3841 3.97555 41.2772 3.85975C41.1702 3.74395 41.0405 3.65122 40.896 3.58733C40.7515 3.52343 40.5953 3.48974 40.4371 3.48833C40.2789 3.48692 40.1221 3.51783 39.9765 3.57914C39.8309 3.64045 39.6995 3.73085 39.5905 3.84473C39.4815 3.95861 39.3972 4.09352 39.343 4.2411L38.2748 6.58562C38.2133 6.72322 38.1797 6.8715 38.1759 7.02201C38.1721 7.17252 38.1982 7.32229 38.2527 7.46278C38.3072 7.60327 38.389 7.73171 38.4935 7.84078C38.598 7.94984 38.7231 8.03739 38.8616 8.09842Z" fill="#393333"/>
<path d="M48.2769 9.965L46.2989 11.707C46.1101 11.8607 45.9752 12.07 45.9137 12.3047C45.8522 12.5394 45.8672 12.7874 45.9566 13.0131C46.046 13.2388 46.2052 13.4305 46.4113 13.5606C46.6173 13.6907 46.8596 13.7525 47.1033 13.7372C47.3902 13.7367 47.667 13.6319 47.8813 13.4425L49.8198 11.7005C49.9384 11.6016 50.0357 11.4799 50.106 11.3429C50.1763 11.2058 50.218 11.0561 50.2288 10.9027C50.2396 10.7492 50.2192 10.5952 50.1688 10.4498C50.1184 10.3043 50.039 10.1705 49.9354 10.0561C49.8318 9.94182 49.7061 9.84937 49.5658 9.78432C49.4255 9.71926 49.2734 9.68293 49.1187 9.67748C48.9639 9.67203 48.8096 9.69758 48.665 9.7526C48.5204 9.80762 48.3884 9.89099 48.2769 9.99775V9.965Z" fill="#393333"/>
<path d="M55.5431 19.5593C55.497 19.4133 55.4217 19.2779 55.3218 19.1614C55.2218 19.0448 55.0993 18.9495 54.9615 18.881C54.8236 18.8126 54.6733 18.7724 54.5195 18.7629C54.3656 18.7534 54.2115 18.7748 54.0662 18.8258L51.6002 19.6314C51.4561 19.6782 51.3226 19.7528 51.2075 19.851C51.0923 19.9491 50.9978 20.0687 50.9292 20.2031C50.8606 20.3375 50.8194 20.484 50.8078 20.6342C50.7962 20.7845 50.8146 20.9355 50.8618 21.0787C50.9089 21.2219 50.9841 21.3544 51.0828 21.4688C51.1816 21.5831 51.3021 21.6771 51.4374 21.7452C51.5727 21.8133 51.7202 21.8542 51.8714 21.8657C52.0227 21.8772 52.1747 21.859 52.3189 21.8122L54.8046 21.0066C54.9489 20.9599 55.0825 20.8854 55.1977 20.7873C55.3129 20.6892 55.4075 20.5696 55.4761 20.4351C55.5447 20.3007 55.5859 20.1541 55.5974 20.0039C55.6089 19.8536 55.5904 19.7025 55.5431 19.5593Z" fill="#393333"/>
<path d="M8.5716 20.1947L6.0727 19.4089C5.78067 19.3133 5.46239 19.3369 5.18789 19.4745C5.05197 19.5426 4.93088 19.6366 4.83155 19.7512C4.73222 19.8658 4.65658 19.9987 4.60896 20.1423C4.56134 20.286 4.54266 20.4375 4.554 20.5883C4.56534 20.7391 4.60647 20.8862 4.67504 21.0212C4.81353 21.2938 5.05539 21.5007 5.34742 21.5962L7.84632 22.3821C7.95757 22.4154 8.07299 22.433 8.18918 22.4345C8.46842 22.444 8.74167 22.3526 8.95819 22.1772C9.17471 22.0018 9.3198 21.7543 9.36651 21.4807C9.41323 21.2071 9.3584 20.9259 9.21221 20.6894C9.06602 20.4529 8.8384 20.2772 8.5716 20.1947Z" fill="#393333"/>
<path d="M12.8244 14.1434C13.0585 14.1434 13.2871 14.0726 13.4798 13.9404C13.6724 13.8083 13.8201 13.6211 13.9031 13.4036C13.9861 13.1861 14.0005 12.9487 13.9444 12.7229C13.8884 12.4971 13.7645 12.2936 13.5892 12.1394L11.6112 10.4171C11.3812 10.2156 11.0801 10.1131 10.7741 10.1321C10.4681 10.1512 10.1822 10.2902 9.97932 10.5186C9.77647 10.747 9.67328 11.0461 9.69245 11.35C9.71161 11.654 9.85157 11.938 10.0815 12.1394L12.0595 13.8618C12.2708 14.0461 12.5432 14.1464 12.8244 14.1434Z" fill="#393333"/>
<path d="M19.4044 7.77775C19.4991 7.9741 19.6478 8.13982 19.8333 8.25572C20.0188 8.37161 20.2336 8.43296 20.4528 8.43264C20.6191 8.43383 20.7835 8.39802 20.9341 8.32786C21.0723 8.26574 21.1968 8.177 21.3003 8.06677C21.4037 7.95655 21.4842 7.82704 21.5369 7.68574C21.5896 7.54443 21.6136 7.39414 21.6075 7.24356C21.6013 7.09299 21.5652 6.94511 21.5011 6.80851L20.4396 4.45744C20.3077 4.18803 20.0749 3.98062 19.7909 3.87961C19.507 3.77861 19.1945 3.79204 18.9205 3.91703C18.6464 4.04202 18.4324 4.26863 18.3245 4.54835C18.2165 4.82807 18.2231 5.13864 18.3429 5.41358L19.4044 7.77775Z" fill="#393333"/>
<path d="M34.4507 19.4678C34.4507 19.1639 34.3291 18.8724 34.1127 18.6575C33.8963 18.4425 33.6028 18.3218 33.2968 18.3218H26.8419C26.6733 18.3218 26.5069 18.3587 26.3544 18.4299C26.2018 18.501 26.067 18.6047 25.9593 18.7335C25.8517 18.8623 25.7739 19.013 25.7316 19.175C25.6893 19.337 25.6834 19.5063 25.7144 19.6709L27.9298 31.9632C27.9777 32.2274 28.1174 32.4666 28.3247 32.6389C28.5319 32.8113 28.7935 32.9059 29.0638 32.9063H31.088C31.3587 32.9072 31.6209 32.813 31.8285 32.6405C32.036 32.4679 32.1754 32.228 32.2221 31.9632L33.5408 24.7594C33.595 24.4598 33.5271 24.151 33.3522 23.9011C33.1772 23.6512 32.9094 23.4805 32.6078 23.4267C32.3062 23.3728 31.9953 23.4402 31.7437 23.614C31.4921 23.7878 31.3202 24.0537 31.266 24.3533L30.132 30.6403H30.0463L28.2199 20.6139H33.2968C33.6023 20.6122 33.8948 20.4909 34.1108 20.2763C34.3268 20.0618 34.4489 19.7713 34.4507 19.4678Z" fill="#393333"/>
<path d="M26.7891 37.5098C26.7891 38.1574 26.9824 38.7905 27.3447 39.329C27.7069 39.8675 28.2218 40.2872 28.8242 40.535C29.4266 40.7829 30.0894 40.8477 30.7289 40.7214C31.3684 40.595 31.9558 40.2832 32.4169 39.8252C32.878 39.3673 33.1919 38.7838 33.3191 38.1486C33.4463 37.5134 33.3811 36.8551 33.1315 36.2567C32.882 35.6584 32.4595 35.147 31.9173 34.7872C31.3752 34.4274 30.7378 34.2354 30.0858 34.2354C29.2114 34.2354 28.3729 34.5803 27.7546 35.1944C27.1364 35.8085 26.7891 36.6414 26.7891 37.5098ZM31.0418 37.5098C31.0418 37.7015 30.9846 37.8889 30.8774 38.0483C30.7701 38.2077 30.6177 38.3319 30.4394 38.4053C30.2611 38.4786 30.0649 38.4978 29.8756 38.4604C29.6863 38.423 29.5125 38.3307 29.376 38.1952C29.2395 38.0596 29.1466 37.8869 29.1089 37.6989C29.0713 37.5109 29.0906 37.316 29.1644 37.1389C29.2383 36.9618 29.3634 36.8104 29.5239 36.7039C29.6843 36.5974 29.873 36.5406 30.066 36.5406C30.3248 36.5406 30.573 36.6427 30.756 36.8245C30.939 37.0062 31.0418 37.2528 31.0418 37.5098Z" fill="#393333"/>
</svg>
