<svg width="60" height="61" viewBox="0 0 60 61" fill="none" xmlns="http://www.w3.org/2000/svg">
<path d="M30.1055 37.2674C30.7573 37.2674 31.2857 36.7425 31.2857 36.0951C31.2857 35.4477 30.7573 34.9229 30.1055 34.9229C29.4537 34.9229 28.9253 35.4477 28.9253 36.0951C28.9253 36.7425 29.4537 37.2674 30.1055 37.2674Z" fill="#393333"/>
<path d="M30.1055 48.0139C30.7573 48.0139 31.2857 47.4891 31.2857 46.8417C31.2857 46.1943 30.7573 45.6694 30.1055 45.6694C29.4537 45.6694 28.9253 46.1943 28.9253 46.8417C28.9253 47.4891 29.4537 48.0139 30.1055 48.0139Z" fill="#393333"/>
<path d="M17.1231 48.0139C17.7749 48.0139 18.3033 47.4891 18.3033 46.8417C18.3033 46.1943 17.7749 45.6694 17.1231 45.6694C16.4713 45.6694 15.9429 46.1943 15.9429 46.8417C15.9429 47.4891 16.4713 48.0139 17.1231 48.0139Z" fill="#393333"/>
<path d="M43.1207 48.0139C43.7725 48.0139 44.3009 47.4891 44.3009 46.8417C44.3009 46.1943 43.7725 45.6694 43.1207 45.6694C42.4688 45.6694 41.9404 46.1943 41.9404 46.8417C41.9404 47.4891 42.4688 48.0139 43.1207 48.0139Z" fill="#393333"/>
<path d="M39.9295 28.5701C40.5813 28.5701 41.1097 28.0453 41.1097 27.3978C41.1097 26.7504 40.5813 26.2256 39.9295 26.2256C39.2777 26.2256 38.7493 26.7504 38.7493 27.3978C38.7493 28.0453 39.2777 28.5701 39.9295 28.5701Z" fill="#393333"/>
<path d="M59.6306 2.85261C59.6306 2.54865 59.5091 2.25715 59.2927 2.04222C59.0763 1.82729 58.7828 1.70654 58.4768 1.70654H1.73392C1.42791 1.70654 1.13442 1.82729 0.918032 2.04222C0.701644 2.25715 0.580078 2.54865 0.580078 2.85261V10.0564C0.580078 10.3604 0.701644 10.6519 0.918032 10.8668C1.13442 11.0818 1.42791 11.2025 1.73392 11.2025C2.03994 11.2025 2.33343 11.0818 2.54982 10.8668C2.7662 10.6519 2.88777 10.3604 2.88777 10.0564V3.99867H57.3229V41.8974C57.3212 42.9563 56.8969 43.9714 56.143 44.7202C55.3891 45.469 54.3671 45.8905 53.301 45.8922H51.0922C50.7861 45.8922 50.4927 46.013 50.2763 46.2279C50.0599 46.4428 49.9383 46.7343 49.9383 47.0383C49.9383 47.3422 50.0599 47.6337 50.2763 47.8487C50.4927 48.0636 50.7861 48.1843 51.0922 48.1843H53.3076C54.9852 48.1809 56.5932 47.5174 57.7795 46.3391C58.9657 45.1608 59.6337 43.5637 59.6372 41.8974L59.6306 2.85261Z" fill="#393333"/>
<path d="M8.40645 45.912H2.88777V15.8786H51.9823C52.2883 15.8786 52.5818 15.7578 52.7982 15.5429C53.0146 15.3279 53.1361 15.0364 53.1361 14.7325C53.1361 14.4285 53.0146 14.137 52.7982 13.9221C52.5818 13.7072 52.2883 13.5864 51.9823 13.5864H1.73392C1.42791 13.5864 1.13442 13.7072 0.918032 13.9221C0.701644 14.137 0.580078 14.4285 0.580078 14.7325V47.058C0.580078 47.362 0.701644 47.6535 0.918032 47.8684C1.13442 48.0834 1.42791 48.2041 1.73392 48.2041H8.40645C8.71247 48.2041 9.00596 48.0834 9.22234 47.8684C9.43873 47.6535 9.5603 47.362 9.5603 47.058C9.5603 46.7541 9.43873 46.4626 9.22234 46.2476C9.00596 46.0327 8.71247 45.912 8.40645 45.912Z" fill="#393333"/>
<path d="M45.9823 29.5852C45.7819 29.4052 45.5244 29.3008 45.2545 29.29C44.9847 29.2792 44.7195 29.3628 44.5053 29.5263L39.8899 33.0758C36.2701 30.9814 32.0648 30.1077 27.9033 30.5854C23.7418 31.0631 19.848 32.8665 16.8046 35.7257C13.7611 38.585 11.7317 42.3463 11.0201 46.4467C10.3085 50.5472 10.9529 54.7662 12.857 58.4725C12.9495 58.6664 13.095 58.8305 13.2768 58.9463C13.4587 59.0621 13.6696 59.1248 13.8856 59.1274C14.0827 59.128 14.2768 59.078 14.4488 58.9824C14.6209 58.8868 14.7653 58.7487 14.868 58.5815C14.9708 58.4143 15.0284 58.2236 15.0353 58.0279C15.0422 57.8322 14.9982 57.6379 14.9075 57.464C13.2536 54.271 12.6626 50.6389 13.2196 47.0909C13.7766 43.5429 15.4528 40.2621 18.007 37.7208C20.5612 35.1794 23.8614 33.5088 27.4326 32.9495C31.0037 32.3902 34.6614 32.9709 37.879 34.6082C33.2108 38.2036 27.6921 42.4931 26.835 43.3511C25.9266 44.2525 25.4159 45.4755 25.4152 46.7509C25.4146 48.0264 25.9241 49.2498 26.8317 50.1521C27.7393 51.0544 28.9705 51.5617 30.2547 51.5623C31.5388 51.5629 32.7705 51.0568 33.679 50.1554C35.1757 48.6688 45.0658 32.84 46.2064 31.0391C46.3467 30.8091 46.4011 30.5375 46.3601 30.2717C46.3191 30.0059 46.1854 29.7629 45.9823 29.5852ZM32.0504 48.5313C31.5756 49.0037 30.9314 49.2694 30.2593 49.2701C29.5873 49.2707 28.9425 49.0061 28.4669 48.5345C27.9912 48.063 27.7237 47.423 27.7231 46.7555C27.7224 46.088 27.9888 45.4476 28.4636 44.9752C29.2878 44.1631 35.657 39.2121 40.8262 35.2369C37.0086 41.275 32.7954 47.7912 32.0504 48.5313Z" fill="#393333"/>
<path d="M31.2064 23.1804C26.0343 22.8502 20.8815 24.0693 16.4147 26.68C11.9478 29.2906 8.37255 33.1727 6.15148 37.8238C6.08552 37.9592 6.04718 38.1061 6.03868 38.2563C6.03017 38.4064 6.05167 38.5567 6.10193 38.6986C6.15219 38.8404 6.23021 38.971 6.33151 39.0828C6.43281 39.1945 6.55537 39.2852 6.69214 39.3497C6.84841 39.4244 7.01983 39.4625 7.19324 39.4611C7.41163 39.4617 7.62568 39.4004 7.81021 39.2844C7.99475 39.1684 8.14212 39.0025 8.235 38.8062C10.2574 34.5679 13.5144 31.0304 17.5843 28.652C21.6541 26.2735 26.3492 25.1636 31.0614 25.466C32.5775 25.562 34.0809 25.801 35.5515 26.1798C35.6988 26.2188 35.8523 26.2284 36.0034 26.208C36.1544 26.1877 36.2999 26.1379 36.4314 26.0614C36.5629 25.9849 36.6779 25.8833 36.7696 25.7624C36.8614 25.6416 36.9281 25.5039 36.966 25.3572C37.0039 25.2106 37.0122 25.058 36.9903 24.9082C36.9685 24.7584 36.917 24.6143 36.8388 24.4844C36.7606 24.3545 36.6573 24.2412 36.5348 24.1511C36.4123 24.0611 36.2731 23.996 36.1251 23.9597C34.5141 23.5459 32.8671 23.2849 31.2064 23.1804Z" fill="#393333"/>
<path d="M44.5581 38.6228C44.4325 38.7071 44.3249 38.8151 44.2414 38.9407C44.1579 39.0663 44.1001 39.207 44.0713 39.3548C44.0425 39.5026 44.0433 39.6545 44.0737 39.802C44.104 39.9494 44.1633 40.0895 44.2482 40.2142C45.9668 42.7331 46.9716 45.6649 47.1572 48.7021C47.3428 51.7394 46.7024 54.7703 45.3031 57.4772C45.2337 57.6108 45.1916 57.7568 45.1793 57.9066C45.1669 58.0565 45.1845 58.2073 45.2311 58.3503C45.2777 58.4934 45.3523 58.6259 45.4507 58.7402C45.549 58.8545 45.6692 58.9483 45.8042 59.0162C45.9674 59.1001 46.148 59.1449 46.3317 59.1472C46.5475 59.1438 46.7581 59.0808 46.9398 58.9651C47.1215 58.8494 47.2671 58.6857 47.3603 58.4923C48.9431 55.419 49.6661 51.9801 49.4538 48.5345C49.2416 45.0889 48.1019 41.7631 46.1537 38.9044C45.9784 38.6586 45.7127 38.4913 45.414 38.4386C45.1154 38.3859 44.8079 38.4521 44.5581 38.6228Z" fill="#393333"/>
<path d="M9.96903 10.4953C10.6063 10.4953 11.1229 9.98214 11.1229 9.34919C11.1229 8.71624 10.6063 8.20312 9.96903 8.20312C9.33178 8.20312 8.81519 8.71624 8.81519 9.34919C8.81519 9.98214 9.33178 10.4953 9.96903 10.4953Z" fill="#393333"/>
<path d="M17.3799 10.4953C18.0172 10.4953 18.5338 9.98214 18.5338 9.34919C18.5338 8.71624 18.0172 8.20312 17.3799 8.20312C16.7427 8.20312 16.2261 8.71624 16.2261 9.34919C16.2261 9.98214 16.7427 10.4953 17.3799 10.4953Z" fill="#393333"/>
<path d="M24.7911 10.4953C25.4283 10.4953 25.9449 9.98214 25.9449 9.34919C25.9449 8.71624 25.4283 8.20312 24.7911 8.20312C24.1538 8.20312 23.6372 8.71624 23.6372 9.34919C23.6372 9.98214 24.1538 10.4953 24.7911 10.4953Z" fill="#393333"/>
</svg>
