<svg width="60" height="61" viewBox="0 0 60 61" fill="none" xmlns="http://www.w3.org/2000/svg">
<g clip-path="url(#clip0)">
<path d="M56.0045 9.85354C56.8053 9.85493 57.5844 9.59489 58.2218 9.11344C58.8592 8.63199 59.3197 7.95581 59.5324 7.18897C59.7451 6.42213 59.6982 5.60712 59.3988 4.86937C59.0995 4.13161 58.5644 3.512 57.8759 3.10588C57.1873 2.69976 56.3834 2.52965 55.588 2.62172C54.7926 2.71378 54.0497 3.06293 53.4736 3.61543C52.8975 4.16792 52.5202 4.89315 52.3997 5.67949C52.2792 6.46584 52.4222 7.26973 52.8067 7.96745L48.31 12.3225C47.2915 11.7096 46.127 11.3771 44.9363 11.3593C43.7455 11.3414 42.5715 11.6389 41.5349 12.2211C40.4982 12.8033 39.6364 13.6491 39.0379 14.6718C38.4395 15.6944 38.126 16.8569 38.1298 18.0397C38.1322 18.9043 38.3024 19.7604 38.6309 20.5611L34.7539 22.827C33.0908 21.4426 30.9898 20.6843 28.8199 20.6855C28.392 20.6895 27.9648 20.7201 27.5407 20.7772L25.7803 14.6932C26.2388 14.2194 26.5585 13.6305 26.7052 12.9897C26.8519 12.3489 26.82 11.6805 26.6129 11.0564C26.4058 10.4323 26.0313 9.87611 25.5297 9.44757C25.0282 9.01903 24.4185 8.73439 23.7662 8.62426C23.114 8.51413 22.4439 8.58266 21.8279 8.8225C21.212 9.06235 20.6735 9.46442 20.2703 9.98548C19.8672 10.5065 19.6147 11.1269 19.54 11.7798C19.4653 12.4328 19.5711 13.0936 19.8462 13.6912L13.1869 18.2231C12.283 17.3588 11.0852 16.8633 9.83085 16.8347L8.34733 10.1548C9.38535 9.53062 10.1605 8.55397 10.5292 7.40572C10.8978 6.25746 10.8351 5.01541 10.3526 3.90957C9.87003 2.80373 9.00038 1.90905 7.90467 1.3912C6.80897 0.873352 5.56146 0.767434 4.39316 1.09306C3.22487 1.41869 2.21496 2.15379 1.55046 3.16224C0.885965 4.17069 0.611905 5.38415 0.779036 6.5779C0.946168 7.77165 1.54317 8.86479 2.45947 9.6549C3.37578 10.445 4.5493 10.8785 5.76272 10.8752H6.13854L7.56931 17.3324C6.68674 17.7453 5.94408 18.4042 5.43176 19.2288C4.91944 20.0534 4.65956 21.0082 4.68377 21.9769C4.70798 22.9456 5.01523 23.8864 5.56811 24.6848C6.12099 25.4831 6.89564 26.1046 7.79775 26.4735C8.69985 26.8424 9.69049 26.9428 10.649 26.7625C11.6076 26.5822 12.4926 26.129 13.1965 25.458C13.9003 24.7871 14.3926 23.9273 14.6133 22.9834C14.834 22.0396 14.7737 21.0523 14.4396 20.1419L21.4089 15.3874C21.9414 15.6739 22.5373 15.8247 23.1429 15.8262C23.3287 15.825 23.5141 15.8074 23.6968 15.7738L25.3056 21.3731C23.7313 22.0159 22.3631 23.0724 21.3478 24.4293C20.3326 25.7862 19.7086 27.3921 19.5429 29.0747L9.52096 31.5043C9.07089 30.7697 8.37234 30.2182 7.5503 29.9483C6.72826 29.6785 5.83638 29.708 5.03425 30.0316C4.23211 30.3552 3.57207 30.9517 3.17222 31.7144C2.77237 32.4771 2.65881 33.3563 2.85185 34.1945C3.0449 35.0328 3.53196 35.7755 4.22588 36.2897C4.9198 36.8039 5.77529 37.0561 6.63928 37.0012C7.50327 36.9462 8.31938 36.5876 8.94158 35.9897C9.56377 35.3917 9.95145 34.5934 10.0352 33.7375L19.6155 31.4192C19.8111 32.6894 20.2715 33.905 20.9671 34.9884C19.9516 35.5396 19.1074 36.3565 18.5262 37.3505C17.9451 38.3446 17.6491 39.4777 17.6704 40.627V43.9015C17.6704 44.2054 17.792 44.4969 18.0084 44.7118C18.2248 44.9268 18.5182 45.0475 18.8243 45.0475C19.1303 45.0475 19.4238 44.9268 19.6401 44.7118C19.8565 44.4969 19.9781 44.2054 19.9781 43.9015V40.627C19.9781 38.8981 20.7759 37.6669 22.4704 36.7828C23.6206 37.8612 25.0306 38.6279 26.5649 39.0094L24.9034 44.1896C24.8447 44.3804 24.8364 44.583 24.8791 44.7779C24.9218 44.9728 25.0142 45.1536 25.1473 45.3029L28.0155 48.4857C28.1219 48.6076 28.2536 48.7053 28.4015 48.772C28.5494 48.8387 28.7101 48.8728 28.8726 48.8721C29.0357 48.8708 29.1968 48.8358 29.3455 48.7693C29.4942 48.7028 29.6273 48.6062 29.7363 48.4857L32.5979 45.3029C32.7322 45.1543 32.8248 44.9732 32.8665 44.7778C32.9082 44.5824 32.8974 44.3796 32.8352 44.1896L31.1539 38.9505C32.6564 38.5594 34.0352 37.798 35.1627 36.7369C36.9363 37.621 37.8001 38.8588 37.8001 40.5877V46.115C37.5347 46.7823 37.3982 47.4932 37.3979 48.2107C37.3996 48.5225 37.4283 48.8336 37.4836 49.1406L19.8462 51.6554C19.5202 49.9451 18.5591 48.4189 17.1535 47.3793C15.7479 46.3396 14.0004 45.8624 12.2573 46.0423C10.5141 46.2221 8.90265 47.0458 7.74216 48.3501C6.58166 49.6545 5.95688 51.3443 5.99162 53.0846C6.02637 54.825 6.71811 56.4888 7.92975 57.7464C9.14139 59.0041 10.7845 59.7637 12.5334 59.8747C14.2824 59.9858 16.0095 59.4401 17.3725 58.346C18.7354 57.2518 19.6348 55.6889 19.8924 53.9672L38.3012 51.3476C38.9805 52.4039 39.9866 53.2128 41.1683 53.6525C42.35 54.0923 43.6435 54.1393 44.8544 53.7864C46.0653 53.4335 47.1281 52.6997 47.8832 51.6955C48.6384 50.6912 49.0449 49.4706 49.0418 48.2172C49.0433 46.9944 48.6505 45.8033 47.921 44.8183L52.3847 39.9983C52.4664 39.9066 52.5332 39.8027 52.5825 39.6905C53.1913 39.8905 53.8365 39.9569 54.4736 39.8851C55.1107 39.8133 55.7245 39.605 56.2727 39.2746C56.8208 38.9441 57.2903 38.4995 57.6486 37.9713C58.0068 37.4431 58.2454 36.844 58.3479 36.2153C58.4503 35.5866 58.4141 34.9433 58.2419 34.3299C58.0696 33.7164 57.7653 33.1474 57.3501 32.6621C56.9348 32.1769 56.4184 31.7869 55.8367 31.5192C55.2549 31.2514 54.6215 31.1123 53.9803 31.1114H53.6704L49.0155 23.2527C49.814 22.6288 50.4596 21.8332 50.9039 20.9258C51.3481 20.0183 51.5794 19.0226 51.5803 18.0135C51.5835 16.4774 51.0472 14.9882 50.0638 13.8026L54.5012 9.4999C54.9707 9.72425 55.4835 9.8449 56.0045 9.85354ZM3.03305 5.87834C3.03305 5.3434 3.19275 4.82047 3.49197 4.37568C3.79118 3.9309 4.21647 3.58423 4.71405 3.37952C5.21163 3.1748 5.75914 3.12124 6.28737 3.2256C6.81559 3.32996 7.3008 3.58756 7.68163 3.96582C8.06246 4.34408 8.32181 4.82602 8.42688 5.35068C8.53195 5.87534 8.47802 6.41917 8.27192 6.91339C8.06582 7.40761 7.71679 7.83003 7.26898 8.12723C6.82118 8.42442 6.2947 8.58305 5.75612 8.58305C5.03392 8.58305 4.34129 8.29809 3.83062 7.79086C3.31994 7.28363 3.03305 6.59567 3.03305 5.87834ZM9.70557 24.5363C9.167 24.5363 8.64052 24.3776 8.19271 24.0804C7.74491 23.7832 7.39588 23.3608 7.18978 22.8666C6.98368 22.3724 6.92975 21.8285 7.03482 21.3039C7.13989 20.7792 7.39924 20.2973 7.78007 19.919C8.1609 19.5408 8.6461 19.2832 9.17433 19.1788C9.70255 19.0744 10.2501 19.128 10.7477 19.3327C11.2452 19.5374 11.6705 19.8841 11.9697 20.3289C12.2689 20.7737 12.4287 21.2966 12.4287 21.8315C12.4269 22.5483 12.1395 23.2353 11.6292 23.7422C11.1189 24.249 10.4272 24.5345 9.70557 24.5363ZM21.8045 12.2046C21.8099 11.9817 21.8725 11.7639 21.9864 11.5718C22.1002 11.3797 22.2616 11.2196 22.4551 11.1068C22.6487 10.9939 22.8681 10.932 23.0924 10.9268C23.3168 10.9217 23.5388 10.9736 23.7374 11.0775C23.936 11.1814 24.1046 11.3339 24.2272 11.5206C24.3498 11.7073 24.4225 11.922 24.4382 12.1444C24.4539 12.3668 24.4123 12.5895 24.3171 12.7914C24.222 12.9933 24.0766 13.1678 23.8946 13.2983C23.6946 13.4362 23.4601 13.5164 23.2171 13.5301C22.9741 13.5437 22.732 13.4903 22.5176 13.3757C22.3033 13.2611 22.125 13.0898 22.0026 12.8808C21.8803 12.6718 21.8185 12.4332 21.8243 12.1915L21.8045 12.2046ZM13.0023 57.6149C12.079 57.6149 11.1765 57.343 10.4088 56.8335C9.64113 56.324 9.04281 55.5999 8.68949 54.7526C8.33617 53.9054 8.24372 52.9731 8.42384 52.0737C8.60396 51.1743 9.04856 50.3481 9.70141 49.6997C10.3543 49.0512 11.186 48.6096 12.0916 48.4307C12.9971 48.2518 13.9357 48.3436 14.7887 48.6946C15.6417 49.0455 16.3707 49.6398 16.8837 50.4023C17.3966 51.1648 17.6704 52.0612 17.6704 52.9783C17.6687 54.2075 17.1763 55.3858 16.3012 56.255C15.4262 57.1241 14.2398 57.6132 13.0023 57.6149ZM56.0045 4.90255C56.2653 4.90255 56.5202 4.97937 56.7371 5.12329C56.954 5.26721 57.123 5.47177 57.2228 5.7111C57.3226 5.95044 57.3487 6.21379 57.2978 6.46786C57.2469 6.72194 57.1213 6.95532 56.9369 7.1385C56.7525 7.32167 56.5175 7.44642 56.2617 7.49696C56.0059 7.5475 55.7408 7.52156 55.4998 7.42242C55.2589 7.32329 55.0529 7.15541 54.908 6.94002C54.7631 6.72462 54.6858 6.47139 54.6858 6.21234C54.6858 5.86496 54.8247 5.53181 55.072 5.28618C55.3193 5.04054 55.6547 4.90255 56.0045 4.90255ZM28.8133 22.9776C30.2124 22.9672 31.5831 23.3699 32.7514 24.1346C33.9197 24.8992 34.833 25.9914 35.3754 27.2724C35.9178 28.5535 36.0648 29.9657 35.7978 31.3299C35.5307 32.6941 34.8617 33.9487 33.8756 34.9346C32.8895 35.9205 31.6308 36.5932 30.2591 36.8674C28.8875 37.1416 27.4647 37.0048 26.1714 36.4745C24.8781 35.9442 23.7726 35.0443 22.9951 33.8889C22.2176 32.7335 21.8032 31.3747 21.8045 29.985C21.801 28.1334 22.5368 26.3559 23.8506 25.0424C25.1645 23.7288 26.9491 22.9863 28.8133 22.9776ZM6.40887 34.6937C6.14806 34.6937 5.89311 34.6168 5.67625 34.4729C5.45939 34.329 5.29038 34.1244 5.19057 33.8851C5.09076 33.6458 5.06465 33.3824 5.11553 33.1283C5.16641 32.8743 5.292 32.6409 5.47642 32.4577C5.66084 32.2745 5.89581 32.1498 6.15161 32.0992C6.40741 32.0487 6.67255 32.0746 6.91351 32.1738C7.15447 32.2729 7.36042 32.4408 7.50531 32.6562C7.65021 32.8716 7.72755 33.1248 7.72755 33.3839C7.72755 33.7312 7.58862 34.0644 7.34132 34.31C7.09402 34.5557 6.75861 34.6937 6.40887 34.6937ZM28.8726 46.0037L27.3034 44.2616L28.6682 39.9786H29.0506L30.4418 44.2616L28.8726 46.0037ZM43.2067 51.7209C42.509 51.7209 41.827 51.5154 41.2469 51.1304C40.6668 50.7454 40.2147 50.1982 39.9477 49.558C39.6807 48.9178 39.6109 48.2133 39.747 47.5337C39.8831 46.854 40.219 46.2297 40.7124 45.7397C41.2057 45.2497 41.8342 44.916 42.5185 44.7808C43.2028 44.6457 43.912 44.715 44.5566 44.9802C45.2011 45.2454 45.7521 45.6945 46.1397 46.2707C46.5273 46.8468 46.7341 47.5242 46.7341 48.2172C46.7324 49.1459 46.3602 50.0361 45.6991 50.6928C45.0379 51.3495 44.1417 51.7192 43.2067 51.7209ZM56.11 35.5385C56.1113 35.9571 55.9875 36.3667 55.7543 36.7154C55.5211 37.0642 55.1889 37.3363 54.7999 37.4974C54.4108 37.6585 53.9824 37.7014 53.5689 37.6205C53.1553 37.5396 52.7752 37.3386 52.4767 37.0431C52.1782 36.7475 51.9748 36.3706 51.892 35.9601C51.8093 35.5496 51.8511 35.1239 52.0121 34.737C52.1731 34.3501 52.4461 34.0194 52.7964 33.7867C53.1468 33.5539 53.5588 33.4297 53.9803 33.4297C54.544 33.4297 55.0847 33.6517 55.4839 34.047C55.8831 34.4422 56.1082 34.9786 56.11 35.5385ZM51.4287 31.9235C50.913 32.2792 50.4794 32.7399 50.1568 33.2749C49.8342 33.8099 49.6299 34.4069 49.5576 35.0264C49.4852 35.6459 49.5465 36.2735 49.7372 36.8677C49.9279 37.4618 50.2438 38.0089 50.6638 38.4724L46.2067 43.2859C45.2795 42.7227 44.2114 42.4302 43.1247 42.4418C42.0379 42.4534 40.9764 42.7686 40.0616 43.3513V40.6204C40.0786 39.456 39.7678 38.3099 39.1644 37.3114C38.561 36.3129 37.6888 35.5015 36.6462 34.9687C37.6484 33.3999 38.1545 31.569 38.0992 29.7118C38.044 27.8547 37.43 26.0566 36.3363 24.5494L39.844 22.4995C40.7159 23.4701 41.8554 24.165 43.1213 24.498C44.3873 24.831 45.7238 24.7873 46.9649 24.3725L51.4287 31.9235ZM44.8352 22.4275C43.9615 22.4275 43.1074 22.1702 42.381 21.688C41.6545 21.2059 41.0883 20.5206 40.7539 19.7188C40.4196 18.9171 40.3321 18.0348 40.5025 17.1837C40.673 16.3326 41.0937 15.5507 41.7115 14.9371C42.3294 14.3234 43.1165 13.9055 43.9734 13.7362C44.8303 13.5669 45.7186 13.6538 46.5258 13.9859C47.333 14.318 48.0229 14.8804 48.5083 15.602C48.9937 16.3236 49.2528 17.1719 49.2528 18.0397C49.2511 19.2029 48.7851 20.3179 47.957 21.1404C47.1289 21.9629 46.0063 22.4258 44.8352 22.4275Z" fill="#393333"/>
</g>
<defs>
<clipPath id="clip0">
<rect width="60" height="59.5953" fill="white" transform="translate(0 0.63916)"/>
</clipPath>
</defs>
</svg>
