<svg width="15" height="27" viewBox="0 0 15 27" fill="none" xmlns="http://www.w3.org/2000/svg">
<path d="M4.33207 15.216C4.23307 15.216 2.05507 15.216 1.06507 15.216C0.53707 15.216 0.37207 15.018 0.37207 14.523C0.37207 13.203 0.37207 11.85 0.37207 10.53C0.37207 10.002 0.57007 9.83701 1.06507 9.83701H4.33207C4.33207 9.73801 4.33207 7.82401 4.33207 6.93301C4.33207 5.61301 4.56306 4.35901 5.22306 3.20401C5.91606 2.01601 6.90606 1.22401 8.16006 0.762008C8.98506 0.465008 9.81006 0.333008 10.7011 0.333008H13.935C14.397 0.333008 14.595 0.531008 14.595 0.993008V4.75501C14.595 5.21701 14.397 5.41501 13.935 5.41501C13.0441 5.41501 12.1531 5.41501 11.2621 5.44801C10.3711 5.44801 9.90906 5.87701 9.90906 6.80101C9.87606 7.79101 9.90906 8.74801 9.90906 9.77101H13.7371C14.265 9.77101 14.463 9.96901 14.463 10.497V14.49C14.463 15.018 14.298 15.183 13.7371 15.183C12.5491 15.183 10.0081 15.183 9.90906 15.183V25.941C9.90906 26.502 9.74406 26.7 9.15006 26.7C7.76406 26.7 6.41106 26.7 5.02506 26.7C4.53006 26.7 4.33207 26.502 4.33207 26.007C4.33207 22.542 4.33207 15.315 4.33207 15.216Z" fill="white"/>
</svg>
