<svg width="14" height="28" viewBox="0 0 14 28" fill="none" xmlns="http://www.w3.org/2000/svg">
<path fill-rule="evenodd" clip-rule="evenodd" d="M3.40329 27.4912C3.40329 27.6836 3.55954 27.8398 3.75192 27.8398H8.72263C8.91501 27.8398 9.07028 27.6836 9.07028 27.4912V13.8906H12.6738C12.8545 13.8906 13.0058 13.752 13.0205 13.5713L13.3672 9.47363C13.3847 9.27051 13.2246 9.0957 13.0205 9.0957H9.07028V6.18848C9.07028 5.50684 9.62302 4.95508 10.3047 4.95508H13.081C13.2744 4.95508 13.4297 4.79883 13.4297 4.60645V0.507812C13.4297 0.31543 13.2744 0.15918 13.081 0.15918H8.38962C5.63571 0.15918 3.40329 2.3916 3.40329 5.14453V9.0957H0.918914C0.726531 9.0957 0.570282 9.25195 0.570282 9.44434V13.542C0.570282 13.7354 0.726531 13.8906 0.918914 13.8906H3.40329V27.4912Z" fill="#393333"/>
</svg>
