<svg width="60" height="60" viewBox="0 0 60 60" fill="none" xmlns="http://www.w3.org/2000/svg">
<path d="M59.2632 22.8328C59.2248 23.1449 59.0824 23.4473 58.8456 23.6841L30.9584 51.5712C30.7248 51.8064 30.432 51.9424 30.128 51.9872C29.9904 52.0048 29.8528 52.0048 29.7168 51.9856C29.4128 51.9408 29.1216 51.8032 28.8896 51.5696L1.15124 23.6777C0.917631 23.4425 0.776828 23.1449 0.738427 22.8328C0.695226 22.4984 0.767228 22.1528 0.960833 21.8552L1.90166 20.4424H58.0824L59.0232 21.8328C59.1416 22.0088 59.2184 22.204 59.252 22.4024C59.2776 22.5448 59.2808 22.6888 59.2632 22.8328Z" fill="#31A7FB"/>
<path d="M59.2626 22.8321C59.2246 23.1448 59.0829 23.4472 58.8462 23.6838L30.9579 51.5721C30.3867 52.1433 29.4589 52.1419 28.8891 51.5692L26.7094 49.3777L52.403 23.684C52.6397 23.4473 52.7814 23.1449 52.8194 22.8323C52.837 22.6891 52.8339 22.5444 52.8091 22.4027C52.7755 22.204 52.6981 22.0097 52.5797 21.8329L43.6572 8.64423C43.6353 8.61207 43.6119 8.57991 43.5871 8.54934C43.457 8.38854 43.2964 8.25718 43.1167 8.16357H43.1152C42.9122 8.05989 42.6828 8.00293 42.4475 8.00293H48.8908C49.126 8.00293 49.3554 8.05989 49.5585 8.16357H49.5599C49.7396 8.25702 49.9004 8.38854 50.0303 8.54934C50.0551 8.58007 50.0785 8.61223 50.1004 8.64423L59.0229 21.8329C59.1413 22.0097 59.2187 22.204 59.2523 22.4027C59.2771 22.5443 59.2802 22.6889 59.2626 22.8321Z" fill="#1C96F9"/>
<path d="M29.9238 8.00211L22.4425 20.4418L20.0515 22.8315L17.6178 20.3773L10.2903 8.16708C10.4948 8.06035 10.7242 8.00195 10.9637 8.00195H29.9238V8.00211Z" fill="#8DCAFC"/>
<path d="M49.5585 8.1626L42.1852 20.4417L39.7946 22.8313L37.404 20.4417L29.924 8.00195H48.891C49.1261 8.00195 49.3553 8.05891 49.5585 8.1626Z" fill="#8DCAFC"/>
<path d="M49.5585 8.16341L46.4699 12.8023L43.6574 8.64423C43.6355 8.61207 43.6121 8.57991 43.5873 8.54935C43.4572 8.38854 43.2966 8.25718 43.1169 8.16357H43.1155C42.9124 8.05989 42.683 8.00293 42.4478 8.00293H48.891C49.126 8.00277 49.3553 8.05973 49.5585 8.16341Z" fill="#64B9FC"/>
<path d="M39.7945 22.8324H20.0519L29.9232 8.00195L39.7945 22.8324Z" fill="#B5DBFD"/>
<path d="M59.2626 22.832H39.7944L46.4698 12.8019L49.5584 8.16309H49.5598C49.7395 8.25653 49.9003 8.38805 50.0302 8.54886C50.055 8.57958 50.0784 8.61174 50.1003 8.64374L59.0228 21.8324C59.1412 22.0092 59.2186 22.2035 59.2522 22.4022C59.2772 22.5441 59.2802 22.6888 59.2626 22.832Z" fill="#64B9FC"/>
<path d="M59.2626 22.832H52.8194C52.837 22.6888 52.8339 22.5441 52.8091 22.4024C52.7755 22.2036 52.6981 22.0094 52.5797 21.8326L46.4696 12.8019L49.5582 8.16309H49.5596C49.7393 8.25653 49.9001 8.38805 50.03 8.54886C50.0548 8.57958 50.0782 8.61174 50.1001 8.64374L59.0226 21.8324C59.141 22.0092 59.2184 22.2035 59.252 22.4022C59.2772 22.5441 59.2802 22.6888 59.2626 22.832Z" fill="#31A7FB"/>
<path d="M39.7943 22.832L30.1281 51.9869C29.9909 52.0045 29.852 52.0045 29.7161 51.9855L20.0514 22.832H39.7943Z" fill="#64B9FC"/>
<path d="M33.1185 42.9697L30.128 51.986V51.9876C29.9904 52.0052 29.8528 52.0052 29.7168 51.986L28.3184 47.7683L33.1185 42.9697Z" fill="#31A7FB"/>
<path d="M20.0514 22.8316H0.738093C0.695692 22.4985 0.767374 22.1523 0.960179 21.8542L9.74969 8.64933C9.88842 8.4418 10.0755 8.27828 10.2903 8.16724L20.0514 22.8316Z" fill="#64B9FC"/>
</svg>
