<svg width="272" height="39" viewBox="0 0 272 39" fill="none" xmlns="http://www.w3.org/2000/svg">
<path d="M20 38.5C17.2333 38.5 14.6333 37.9833 12.2 36.95C9.8 35.9167 7.68333 34.5333 5.85 32.8C4.05 31.0333 2.61667 29 1.55 26.7C0.516667 24.4 7.07805e-08 22 7.07805e-08 19.5C7.07805e-08 17 0.516667 14.6167 1.55 12.35C2.61667 10.05 4.05 8.03333 5.85 6.3C7.68333 4.53333 9.8 3.13333 12.2 2.1C14.6333 1.03333 17.2333 0.499999 20 0.499999C22.3667 0.499999 24.5167 0.849999 26.45 1.55C28.3833 2.25 30.0833 3.18333 31.55 4.35C33.0167 5.48333 34.25 6.8 35.25 8.3C36.25 9.8 37 11.3667 37.5 13L26 14.5C25.6333 14 25.25 13.5333 24.85 13.1C24.45 12.6667 24 12.3 23.5 12C23 11.7 22.4167 11.4667 21.75 11.3C21.1167 11.1 20.3667 11 19.5 11C18.5 11 17.5167 11.2333 16.55 11.7C15.5833 12.1667 14.7167 12.8 13.95 13.6C13.2167 14.3667 12.6167 15.2667 12.15 16.3C11.7167 17.3 11.5 18.3667 11.5 19.5C11.5 20.6333 11.7167 21.7167 12.15 22.75C12.6167 23.75 13.2167 24.65 13.95 25.45C14.7167 26.2167 15.5833 26.8333 16.55 27.3C17.5167 27.7667 18.5 28 19.5 28C20.2667 28 20.9333 27.9333 21.5 27.8C22.1 27.6333 22.6333 27.45 23.1 27.25C23.6 27.05 24.0667 26.8 24.5 26.5V26H19V17.5H38.5V20.5C38.5 22.7667 38 24.9833 37 27.15C36.0333 29.2833 34.7 31.2 33 32.9C31.3 34.5667 29.3333 35.9167 27.1 36.95C24.8667 37.9833 22.5 38.5 20 38.5ZM64.9785 2H76.4785V23C76.4785 25.2667 76.0785 27.35 75.2785 29.25C74.5119 31.1167 73.4119 32.75 71.9785 34.15C70.5452 35.5167 68.8119 36.5833 66.7785 37.35C64.7452 38.1167 62.4785 38.5 59.9785 38.5C57.4785 38.5 55.2118 38.1167 53.1785 37.35C51.1452 36.5833 49.4118 35.5167 47.9785 34.15C46.5452 32.75 45.4285 31.1167 44.6285 29.25C43.8618 27.35 43.4785 25.2667 43.4785 23V2H54.9785V23C54.9785 24.5 55.4285 25.7167 56.3285 26.65C57.2618 27.55 58.4785 28 59.9785 28C61.4785 28 62.6785 27.55 63.5785 26.65C64.5118 25.7167 64.9785 24.5 64.9785 23V2ZM101.467 25.5C101.467 25 101 24.6167 100.067 24.35C99.1335 24.05 97.9501 23.75 96.5168 23.45C95.1168 23.15 93.6001 22.7833 91.9668 22.35C90.3335 21.8833 88.8001 21.2333 87.3668 20.4C85.9668 19.5667 84.8001 18.4833 83.8668 17.15C82.9335 15.8167 82.4668 14.1 82.4668 12C82.4668 10.5 82.8001 9.06667 83.4668 7.7C84.1335 6.3 85.1001 5.06667 86.3668 4C87.6668 2.93333 89.2501 2.08333 91.1168 1.45C92.9835 0.816666 95.1001 0.499999 97.4668 0.499999C99.6001 0.499999 101.533 0.816666 103.267 1.45C105 2.08333 106.517 2.95 107.817 4.05C109.15 5.15 110.25 6.43333 111.117 7.9C111.983 9.33333 112.6 10.8667 112.967 12.5L101.467 14C100.967 13 100.4 12.25 99.7668 11.75C99.1668 11.25 98.2335 11 96.9668 11C96.1001 11 95.4668 11.1667 95.0668 11.5C94.6668 11.8 94.4668 12.1333 94.4668 12.5C94.4668 13 94.9335 13.4 95.8668 13.7C96.8001 13.9667 97.9668 14.25 99.3668 14.55C100.8 14.85 102.333 15.2333 103.967 15.7C105.6 16.1333 107.117 16.7667 108.517 17.6C109.95 18.4333 111.133 19.5333 112.067 20.9C113 22.2333 113.467 23.9333 113.467 26C113.467 27.6333 113.1 29.2 112.367 30.7C111.633 32.2 110.583 33.5333 109.217 34.7C107.85 35.8333 106.167 36.75 104.167 37.45C102.2 38.15 99.9668 38.5 97.4668 38.5C95.1001 38.5 92.9668 38.1667 91.0668 37.5C89.2001 36.8667 87.5668 35.9833 86.1668 34.85C84.7668 33.6833 83.5835 32.3 82.6168 30.7C81.6835 29.1 80.9668 27.3667 80.4668 25.5L91.9668 24C92.4668 25.2667 93.1501 26.25 94.0168 26.95C94.8835 27.65 96.2001 28 97.9668 28C99.1001 28 99.9668 27.75 100.567 27.25C101.167 26.7167 101.467 26.1333 101.467 25.5ZM152.963 37H141.463L140.213 31.5H128.213L126.963 37H115.463L123.963 2H144.463L152.963 37ZM135.713 12.5H132.713L130.713 21H137.713L135.713 12.5ZM190.463 37H178.213L173.463 27.5H168.463V37H156.963V2H175.463C177.696 2 179.713 2.33333 181.513 3C183.313 3.63333 184.83 4.53333 186.063 5.7C187.33 6.83333 188.296 8.2 188.963 9.8C189.63 11.4 189.963 13.1333 189.963 15C189.963 16.9 189.646 18.4833 189.013 19.75C188.413 21.0167 187.73 22.0333 186.963 22.8C186.096 23.7 185.096 24.4333 183.963 25L190.463 37ZM168.463 12V18H175.463C176.23 18 176.913 17.7 177.513 17.1C178.146 16.4667 178.463 15.7667 178.463 15C178.463 14.2333 178.146 13.55 177.513 12.95C176.913 12.3167 176.23 12 175.463 12H168.463ZM206.175 16.3C205.708 17.3 205.475 18.3667 205.475 19.5C205.475 20.6333 205.708 21.7167 206.175 22.75C206.641 23.75 207.258 24.65 208.025 25.45C208.825 26.2167 209.725 26.8333 210.725 27.3C211.758 27.7667 212.841 28 213.975 28C215.108 28 216.175 27.7667 217.175 27.3C218.208 26.8333 219.108 26.2167 219.875 25.45C220.675 24.65 221.308 23.75 221.775 22.75C222.241 21.7167 222.475 20.6333 222.475 19.5C222.475 18.3667 222.241 17.3 221.775 16.3C221.308 15.2667 220.675 14.3667 219.875 13.6C219.108 12.8 218.208 12.1667 217.175 11.7C216.175 11.2333 215.108 11 213.975 11C212.841 11 211.758 11.2333 210.725 11.7C209.725 12.1667 208.825 12.8 208.025 13.6C207.258 14.3667 206.641 15.2667 206.175 16.3ZM232.375 12.35C233.441 14.6167 233.975 17 233.975 19.5C233.975 22 233.441 24.4 232.375 26.7C231.341 29 229.908 31.0333 228.075 32.8C226.275 34.5333 224.158 35.9167 221.725 36.95C219.291 37.9833 216.708 38.5 213.975 38.5C211.208 38.5 208.608 37.9833 206.175 36.95C203.775 35.9167 201.658 34.5333 199.825 32.8C198.025 31.0333 196.591 29 195.525 26.7C194.491 24.4 193.975 22 193.975 19.5C193.975 17 194.491 14.6167 195.525 12.35C196.591 10.05 198.025 8.03333 199.825 6.3C201.658 4.53333 203.775 3.13333 206.175 2.1C208.608 1.03333 211.208 0.499999 213.975 0.499999C216.708 0.499999 219.291 1.03333 221.725 2.1C224.158 3.13333 226.275 4.53333 228.075 6.3C229.908 8.03333 231.341 10.05 232.375 12.35ZM260.49 2H271.99L263.49 37H243.99L235.49 2H246.99L252.74 26.5H254.74L260.49 2Z" fill="#393333"/>
</svg>
