<svg width="153" height="22" viewBox="0 0 153 22" fill="none" xmlns="http://www.w3.org/2000/svg">
<path d="M11.76 21.84C10.2107 21.84 8.75467 21.5507 7.392 20.972C6.048 20.3933 4.86267 19.6187 3.836 18.648C2.828 17.6587 2.02533 16.52 1.428 15.232C0.849333 13.944 0.56 12.6 0.56 11.2C0.56 9.8 0.849333 8.46533 1.428 7.196C2.02533 5.908 2.828 4.77867 3.836 3.808C4.86267 2.81867 6.048 2.03467 7.392 1.456C8.75467 0.858666 10.2107 0.559999 11.76 0.559999C13.0853 0.559999 14.2893 0.755999 15.372 1.148C16.4547 1.54 17.4067 2.06267 18.228 2.716C19.0493 3.35067 19.74 4.088 20.3 4.928C20.86 5.768 21.28 6.64533 21.56 7.56L15.12 8.4C14.9147 8.12 14.7 7.85867 14.476 7.616C14.252 7.37333 14 7.168 13.72 7C13.44 6.832 13.1133 6.70133 12.74 6.608C12.3853 6.496 11.9653 6.44 11.48 6.44C10.92 6.44 10.3693 6.57067 9.828 6.832C9.28667 7.09333 8.80133 7.448 8.372 7.896C7.96133 8.32533 7.62533 8.82933 7.364 9.408C7.12133 9.968 7 10.5653 7 11.2C7 11.8347 7.12133 12.4413 7.364 13.02C7.62533 13.58 7.96133 14.084 8.372 14.532C8.80133 14.9613 9.28667 15.3067 9.828 15.568C10.3693 15.8293 10.92 15.96 11.48 15.96C11.9093 15.96 12.2827 15.9227 12.6 15.848C12.936 15.7547 13.2347 15.652 13.496 15.54C13.776 15.428 14.0373 15.288 14.28 15.12V14.84H11.2V10.08H22.12V11.76C22.12 13.0293 21.84 14.2707 21.28 15.484C20.7387 16.6787 19.992 17.752 19.04 18.704C18.088 19.6373 16.9867 20.3933 15.736 20.972C14.4853 21.5507 13.16 21.84 11.76 21.84ZM36.948 1.4H43.388V13.16C43.388 14.4293 43.164 15.596 42.716 16.66C42.2866 17.7053 41.6706 18.62 40.868 19.404C40.0653 20.1693 39.0946 20.7667 37.956 21.196C36.8173 21.6253 35.548 21.84 34.148 21.84C32.748 21.84 31.4786 21.6253 30.34 21.196C29.2013 20.7667 28.2306 20.1693 27.428 19.404C26.6253 18.62 26 17.7053 25.552 16.66C25.1226 15.596 24.908 14.4293 24.908 13.16V1.4H31.348V13.16C31.348 14 31.6 14.6813 32.104 15.204C32.6266 15.708 33.308 15.96 34.148 15.96C34.988 15.96 35.66 15.708 36.164 15.204C36.6866 14.6813 36.948 14 36.948 13.16V1.4ZM57.3814 14.56C57.3814 14.28 57.1201 14.0653 56.5974 13.916C56.0747 13.748 55.4121 13.58 54.6094 13.412C53.8254 13.244 52.9761 13.0387 52.0614 12.796C51.1467 12.5347 50.2881 12.1707 49.4854 11.704C48.7014 11.2373 48.0481 10.6307 47.5254 9.884C47.0027 9.13733 46.7414 8.176 46.7414 7C46.7414 6.16 46.9281 5.35733 47.3014 4.592C47.6747 3.808 48.2161 3.11733 48.9254 2.52C49.6534 1.92267 50.5401 1.44667 51.5854 1.092C52.6307 0.737333 53.8161 0.559999 55.1414 0.559999C56.3361 0.559999 57.4187 0.737333 58.3894 1.092C59.3601 1.44667 60.2094 1.932 60.9374 2.548C61.6841 3.164 62.3001 3.88267 62.7854 4.704C63.2707 5.50667 63.6161 6.36533 63.8214 7.28L57.3814 8.12C57.1014 7.56 56.7841 7.14 56.4294 6.86C56.0934 6.58 55.5707 6.44 54.8614 6.44C54.3761 6.44 54.0214 6.53333 53.7974 6.72C53.5734 6.888 53.4614 7.07467 53.4614 7.28C53.4614 7.56 53.7227 7.784 54.2454 7.952C54.7681 8.10133 55.4214 8.26 56.2054 8.428C57.0081 8.596 57.8667 8.81067 58.7814 9.072C59.6961 9.31467 60.5454 9.66933 61.3294 10.136C62.1321 10.6027 62.7947 11.2187 63.3174 11.984C63.8401 12.7307 64.1014 13.6827 64.1014 14.84C64.1014 15.7547 63.8961 16.632 63.4854 17.472C63.0747 18.312 62.4867 19.0587 61.7214 19.712C60.9561 20.3467 60.0134 20.86 58.8934 21.252C57.7921 21.644 56.5414 21.84 55.1414 21.84C53.8161 21.84 52.6214 21.6533 51.5574 21.28C50.5121 20.9253 49.5974 20.4307 48.8134 19.796C48.0294 19.1427 47.3667 18.368 46.8254 17.472C46.3027 16.576 45.9014 15.6053 45.6214 14.56L52.0614 13.72C52.3414 14.4293 52.7241 14.98 53.2094 15.372C53.6947 15.764 54.4321 15.96 55.4214 15.96C56.0561 15.96 56.5414 15.82 56.8774 15.54C57.2134 15.2413 57.3814 14.9147 57.3814 14.56ZM86.2192 21H79.7792L79.0792 17.92H72.3592L71.6592 21H65.2192L69.9792 1.4H81.4592L86.2192 21ZM76.5592 7.28H74.8792L73.7592 12.04H77.6792L76.5592 7.28ZM107.219 21H100.359L97.6992 15.68H94.8992V21H88.4592V1.4H98.8192C100.07 1.4 101.199 1.58667 102.207 1.96C103.215 2.31467 104.065 2.81867 104.755 3.472C105.465 4.10667 106.006 4.872 106.379 5.768C106.753 6.664 106.939 7.63467 106.939 8.68C106.939 9.744 106.762 10.6307 106.407 11.34C106.071 12.0493 105.689 12.6187 105.259 13.048C104.774 13.552 104.214 13.9627 103.579 14.28L107.219 21ZM94.8992 7V10.36H98.8192C99.2486 10.36 99.6312 10.192 99.9672 9.856C100.322 9.50133 100.499 9.10933 100.499 8.68C100.499 8.25067 100.322 7.868 99.9672 7.532C99.6312 7.17733 99.2486 7 98.8192 7H94.8992ZM116.018 9.408C115.756 9.968 115.626 10.5653 115.626 11.2C115.626 11.8347 115.756 12.4413 116.018 13.02C116.279 13.58 116.624 14.084 117.054 14.532C117.502 14.9613 118.006 15.3067 118.566 15.568C119.144 15.8293 119.751 15.96 120.386 15.96C121.02 15.96 121.618 15.8293 122.178 15.568C122.756 15.3067 123.26 14.9613 123.69 14.532C124.138 14.084 124.492 13.58 124.754 13.02C125.015 12.4413 125.146 11.8347 125.146 11.2C125.146 10.5653 125.015 9.968 124.754 9.408C124.492 8.82933 124.138 8.32533 123.69 7.896C123.26 7.448 122.756 7.09333 122.178 6.832C121.618 6.57067 121.02 6.44 120.386 6.44C119.751 6.44 119.144 6.57067 118.566 6.832C118.006 7.09333 117.502 7.448 117.054 7.896C116.624 8.32533 116.279 8.82933 116.018 9.408ZM130.69 7.196C131.287 8.46533 131.586 9.8 131.586 11.2C131.586 12.6 131.287 13.944 130.69 15.232C130.111 16.52 129.308 17.6587 128.282 18.648C127.274 19.6187 126.088 20.3933 124.726 20.972C123.363 21.5507 121.916 21.84 120.386 21.84C118.836 21.84 117.38 21.5507 116.018 20.972C114.674 20.3933 113.488 19.6187 112.462 18.648C111.454 17.6587 110.651 16.52 110.054 15.232C109.475 13.944 109.186 12.6 109.186 11.2C109.186 9.8 109.475 8.46533 110.054 7.196C110.651 5.908 111.454 4.77867 112.462 3.808C113.488 2.81867 114.674 2.03467 116.018 1.456C117.38 0.858666 118.836 0.559999 120.386 0.559999C121.916 0.559999 123.363 0.858666 124.726 1.456C126.088 2.03467 127.274 2.81867 128.282 3.808C129.308 4.77867 130.111 5.908 130.69 7.196ZM146.435 1.4H152.875L148.115 21H137.195L132.435 1.4H138.875L142.095 15.12H143.215L146.435 1.4Z" fill="white"/>
</svg>
