<svg width="26" height="26" viewBox="0 0 26 26" fill="none" xmlns="http://www.w3.org/2000/svg">
<path d="M19.5 0H6.5C2.92532 0 0 2.92405 0 6.5V19.5C0 23.0747 2.92532 26 6.5 26H19.5C23.0747 26 26 23.0747 26 19.5V6.5C26 2.92405 23.0747 0 19.5 0ZM13 18.4165C10.008 18.4165 7.58323 15.9906 7.58323 13C7.58323 10.008 10.008 7.58323 13 7.58323C15.9906 7.58323 18.4168 10.008 18.4168 13C18.4168 15.9906 15.9906 18.4165 13 18.4165ZM20.0418 7.58323C19.1435 7.58323 18.4168 6.85553 18.4168 5.95823C18.4168 5.06092 19.1435 4.33323 20.0418 4.33323C20.9401 4.33323 21.6668 5.06092 21.6668 5.95823C21.6668 6.85553 20.9401 7.58323 20.0418 7.58323Z" fill="white"/>
</svg>
