<svg width="17" height="17" viewBox="0 0 17 17" fill="none" xmlns="http://www.w3.org/2000/svg">
<path d="M0.830218 16.9998C0.666025 16.9998 0.50551 16.9512 0.368979 16.86C0.232447 16.7687 0.126032 16.6391 0.0631938 16.4874C0.000355571 16.3357 -0.0160827 16.1688 0.0159583 16.0077C0.0479992 15.8467 0.12708 15.6988 0.243198 15.5827L15.5828 0.243152C15.7384 0.0874643 15.9496 0 16.1698 0C16.39 0 16.6011 0.0874643 16.7568 0.243152C16.9125 0.398839 17 0.609997 17 0.830172C17 1.05035 16.9125 1.26151 16.7568 1.41719L1.41724 16.7568C1.34022 16.8339 1.24871 16.8951 1.14798 16.9368C1.04724 16.9785 0.93925 16.9999 0.830218 16.9998Z" fill="#393333"/>
<path d="M16.1699 16.9998C16.0608 16.9999 15.9528 16.9785 15.8521 16.9368C15.7514 16.8951 15.6599 16.8339 15.5828 16.7568L0.243274 1.41719C0.0875864 1.26151 0.00012207 1.05035 0.00012207 0.830172C0.00012207 0.609997 0.0875864 0.398839 0.243274 0.243152C0.398961 0.0874643 0.610119 0 0.830294 0C1.05047 0 1.26163 0.0874643 1.41731 0.243152L16.7569 15.5827C16.873 15.6988 16.9521 15.8467 16.9841 16.0077C17.0162 16.1688 16.9997 16.3357 16.9369 16.4874C16.874 16.6391 16.7676 16.7687 16.6311 16.86C16.4946 16.9512 16.334 16.9998 16.1699 16.9998Z" fill="#393333"/>
</svg>
