<svg width="60" height="60" viewBox="0 0 60 60" fill="none" xmlns="http://www.w3.org/2000/svg">
<g clip-path="url(#clip0)">
<path d="M23.7931 17.5653V7.24114C23.7931 5.5239 20.7828 4.1377 17.069 4.1377C13.3552 4.1377 10.3448 5.5239 10.3448 7.24114V18.6308C6.86897 18.7549 4.13793 20.0894 4.13793 21.7239V48.8584C1.7069 49.3239 0 50.4308 0 51.7239V56.8963C0 58.6135 3.01034 59.9997 6.72414 59.9997C10.4379 59.9997 13.4483 58.6135 13.4483 56.8963V54.8273C13.4483 56.5446 16.4586 57.9308 20.1724 57.9308C23.8862 57.9308 26.8966 56.5446 26.8966 54.8273L27.4138 41.3791L23.7931 17.5653Z" fill="#F29C1F"/>
<path d="M56.4072 13.8158C56.3328 13.7041 54.8959 11.6517 50.7176 10.7124C51.7864 9.83354 52.4185 8.53202 52.4483 7.14859C52.4483 4.70928 50.3731 2.57928 47.5148 2.0848C46.959 2.00149 46.4384 2.37718 46.3422 2.93091C46.2461 3.48464 46.6097 4.01383 47.161 4.12273C49.021 4.44859 50.3793 5.71791 50.3793 7.14859C50.3793 8.84308 48.5431 10.2355 46.2414 10.252C45.3357 10.2626 44.4444 10.0247 43.6645 9.56411C43.1763 9.26731 42.5399 9.42246 42.2431 9.91066C41.9463 10.3989 42.1015 11.0352 42.5897 11.332C43.6857 11.9807 44.9368 12.3207 46.2103 12.3158C46.2207 12.3158 46.2279 12.321 46.2372 12.321C52.6645 12.321 54.6414 14.9072 54.6952 14.9765C54.9025 15.2825 55.2574 15.4547 55.626 15.4281C55.9947 15.4016 56.3212 15.1804 56.4826 14.8478C56.6439 14.5152 56.6156 14.1219 56.4083 13.8158H56.4072Z" fill="#F3D55B"/>
<path d="M46.7483 53.7932H26.8966V41.3794C26.8966 39.6622 23.8862 38.276 20.1724 38.276C19.3047 38.2724 18.4387 38.3521 17.5862 38.5139V27.2484C19.093 23.6932 21.1917 20.4192 23.7931 17.5656V17.5553C25.9525 15.1419 28.5235 13.1314 31.3862 11.6174V11.607C32.2708 12.1454 33.2886 12.4249 34.3241 12.4139H40.1172C41.1569 12.4212 42.178 12.1381 43.0655 11.5967C45.3207 12.7139 55.4897 18.5484 59.1621 34.1381C63.3 51.7243 50.8862 53.7932 46.7483 53.7932Z" fill="#A56A43"/>
<path d="M46.7483 50.6893C46.1769 50.6893 45.7138 50.2261 45.7138 49.6548C45.7138 49.0834 46.1769 48.6203 46.7483 48.6203C47.4962 48.6203 51.3258 48.491 53.3441 45.942C54.2985 44.5935 54.8074 42.9803 54.7996 41.3282C54.8341 40.7608 55.3146 40.3243 55.8827 40.3444C56.1568 40.3575 56.4145 40.479 56.599 40.6822C56.7835 40.8853 56.8797 41.1534 56.8665 41.4275C56.8578 43.5121 56.1933 45.541 54.9672 47.2268C52.3562 50.5227 47.6627 50.6893 46.7483 50.6893Z" fill="#FDD7AD"/>
<path d="M47.5862 1.21034C47.5965 3.48621 47.1414 8.45172 43.5 11.2966C43.3636 11.4082 43.2183 11.5086 43.0655 11.5966C42.178 12.138 41.1569 12.421 40.1172 12.4138H34.3241C33.2886 12.4248 32.2708 12.1453 31.3862 11.6069C31.2315 11.5129 31.083 11.4093 30.9414 11.2966C27.3 8.45172 26.8552 3.48621 26.8552 1.21034C26.8569 0.866292 27.0295 0.545605 27.3158 0.354756C27.6021 0.163908 27.9645 0.127875 28.2828 0.258621C29.6069 0.817241 30.0517 2.06897 32.0586 2.06897C34.6345 2.06897 34.6345 0 37.2103 0C39.7862 0 39.7965 2.06897 42.3828 2.06897C44.3896 2.06897 44.8345 0.806897 46.1586 0.258621C46.4769 0.127875 46.8393 0.163908 47.1256 0.354756C47.4118 0.545605 47.5845 0.866292 47.5862 1.21034Z" fill="#805333"/>
<path d="M37.7069 12.3954C38.9112 10.703 39.8173 8.81728 40.3862 6.81958C40.5405 6.26825 41.1125 5.94636 41.6638 6.10061C42.2152 6.25487 42.5371 6.82687 42.3828 7.3782C41.8186 9.27267 41.0008 11.0822 39.9518 12.7575L43.4069 15.9851C43.824 16.3765 43.8448 17.0318 43.4535 17.4489C43.0621 17.866 42.4068 17.8868 41.9897 17.4954L38.2759 14.0299V17.4437C38.2759 18.015 37.8127 18.4782 37.2414 18.4782C36.6701 18.4782 36.2069 18.015 36.2069 17.4437V14.0299L32.5035 17.4954C32.3127 17.6741 32.0614 17.7738 31.8 17.7748C31.5103 17.7737 31.2337 17.6541 31.0345 17.4437C30.6508 17.0249 30.6738 16.3757 31.0862 15.9851L34.5518 12.7575C33.4988 11.0829 32.6775 9.27334 32.1104 7.3782C32.0375 7.11344 32.0728 6.83054 32.2087 6.59187C32.3445 6.35319 32.5696 6.17832 32.8345 6.10579C33.098 6.02931 33.3811 6.06182 33.6203 6.19603C33.8595 6.33024 34.0349 6.5549 34.1069 6.81958C34.6831 8.81701 35.6 10.6999 36.8173 12.3851L37.7069 12.3954Z" fill="#603E26"/>
<path d="M17.5862 21.7243C17.5862 23.4415 14.5759 24.8277 10.8621 24.8277C7.14828 24.8277 4.13794 23.4415 4.13794 21.7243C4.13794 20.0898 6.86897 18.7553 10.3448 18.6312C10.5207 18.6208 10.6862 18.6208 10.8621 18.6208C14.5759 18.6208 17.5862 20.0071 17.5862 21.7243Z" fill="#F0C419"/>
<path d="M23.7931 7.24146V17.5656C21.1917 20.4191 19.093 23.6931 17.5862 27.2484V21.7242C17.5862 20.007 14.5759 18.6208 10.8621 18.6208C10.6862 18.6208 10.5207 18.6208 10.3448 18.6311V7.24146C10.3448 8.9587 13.3552 10.3449 17.069 10.3449C20.7828 10.3449 23.7931 8.9587 23.7931 7.24146Z" fill="#E57E25"/>
<path d="M13.4483 51.7242C13.4483 53.4414 10.4379 54.8276 6.72414 54.8276C3.01034 54.8276 0 53.4414 0 51.7242C0 50.4311 1.7069 49.3242 4.13793 48.8586C4.99041 48.6968 5.85644 48.6172 6.72414 48.6207C10.4379 48.6207 13.4483 50.0069 13.4483 51.7242Z" fill="#F9EAB0"/>
<path d="M13.4483 51.7246V56.897C13.4483 58.6143 10.4379 60.0005 6.72414 60.0005C3.01034 60.0005 0 58.6143 0 56.897V51.7246C0 53.4418 3.01034 54.8281 6.72414 54.8281C10.4379 54.8281 13.4483 53.4418 13.4483 51.7246Z" fill="#F3D55B"/>
<path d="M26.8966 41.379C26.8966 43.0962 23.8862 44.4824 20.1724 44.4824C16.4586 44.4824 13.4483 43.0962 13.4483 41.379C13.4483 40.0858 15.1552 38.979 17.5862 38.5134C18.4387 38.3516 19.3047 38.272 20.1724 38.2755C23.8862 38.2755 26.8966 39.6617 26.8966 41.379Z" fill="#F3D55B"/>
<path d="M26.8966 41.3794V54.8277C26.8966 56.5449 23.8862 57.9311 20.1724 57.9311C16.4586 57.9311 13.4483 56.5449 13.4483 54.8277V41.3794C13.4483 43.0966 16.4586 44.4828 20.1724 44.4828C23.8862 44.4828 26.8966 43.0966 26.8966 41.3794Z" fill="#F0C419"/>
<path d="M40.3449 27.9315C40.3449 28.5028 40.808 28.966 41.3793 28.966C41.9507 28.966 42.4138 28.5028 42.4138 27.9315C42.4138 25.6462 40.5612 23.7936 38.2759 23.7936V22.7591C38.2759 22.1878 37.8127 21.7246 37.2414 21.7246C36.6701 21.7246 36.2069 22.1878 36.2069 22.7591V23.7936C33.9216 23.7936 32.069 25.6462 32.069 27.9315C32.069 30.2168 33.9216 32.0694 36.2069 32.0694V36.2074C35.0643 36.2074 34.138 35.2811 34.138 34.1384C34.138 33.5671 33.6748 33.1039 33.1035 33.1039C32.5322 33.1039 32.069 33.5671 32.069 34.1384C32.069 36.4237 33.9216 38.2763 36.2069 38.2763V39.3108C36.2069 39.8821 36.6701 40.3453 37.2414 40.3453C37.8127 40.3453 38.2759 39.8821 38.2759 39.3108V38.2763C40.5612 38.2763 42.4138 36.4237 42.4138 34.1384C42.4138 31.8531 40.5612 30.0005 38.2759 30.0005V25.8625C39.4185 25.8625 40.3449 26.7888 40.3449 27.9315ZM40.3449 34.1384C40.3449 35.2811 39.4185 36.2074 38.2759 36.2074V32.0694C39.4185 32.0694 40.3449 32.9957 40.3449 34.1384ZM36.2069 30.0005C35.0643 30.0005 34.138 29.0742 34.138 27.9315C34.138 26.7888 35.0643 25.8625 36.2069 25.8625V30.0005Z" fill="#FDD7AD"/>
</g>
<defs>
<clipPath id="clip0">
<rect width="60" height="60" fill="white"/>
</clipPath>
</defs>
</svg>
