<svg width="25" height="28" viewBox="0 0 25 28" fill="none" xmlns="http://www.w3.org/2000/svg">
<path fill-rule="evenodd" clip-rule="evenodd" d="M3.15084 0.288365C2.83763 0.107186 2.47861 0.00779023 2.11084 0.000439549C1.74307 -0.00691113 1.37987 0.0780502 1.05873 0.246551C0.737602 0.415052 0.470176 0.660988 0.28406 0.958971C0.0979433 1.25695 -0.000117179 1.59618 1.05083e-07 1.94165V26.0584C-0.000117179 26.4038 0.0979433 26.743 0.28406 27.041C0.470176 27.339 0.737602 27.5849 1.05873 27.7534C1.37987 27.9219 1.74307 28.0069 2.11084 27.9996C2.47861 27.9922 2.83763 27.8928 3.15084 27.7116C8.42189 24.6662 18.9454 18.5841 24.0159 15.6533C24.3166 15.4796 24.565 15.2365 24.7373 14.947C24.9095 14.6576 25 14.3316 25 14C25 13.6684 24.9095 13.3424 24.7373 13.053C24.565 12.7635 24.3166 12.5204 24.0159 12.3467C18.9454 9.41586 8.42189 3.33378 3.15084 0.288365Z" fill="white"/>
</svg>
