<svg width="50" height="50" viewBox="0 0 50 50" fill="none" xmlns="http://www.w3.org/2000/svg">
<path d="M35.2692 35.4444C36.0095 33.7429 36.3148 31.884 36.1575 30.0351C36.0002 28.1862 35.3852 26.4056 34.368 24.8537C33.3509 23.3018 31.9635 22.0274 30.3309 21.1455C28.6984 20.2635 26.872 19.8018 25.0164 19.8018C23.1609 19.8018 21.3345 20.2635 19.702 21.1455C18.0694 22.0274 16.682 23.3018 15.6648 24.8537C14.6477 26.4056 14.0327 28.1862 13.8754 30.0351C13.7181 31.884 14.0233 33.7429 14.7637 35.4444L9.87358 42.0378C9.77185 42.1729 9.70803 42.3328 9.68871 42.5009C9.6694 42.6689 9.69528 42.8391 9.76369 42.9938C9.83192 43.1452 9.93905 43.2758 10.0742 43.3723C10.2093 43.4688 10.3676 43.5278 10.5329 43.5433L15.6044 44.1751L17.5824 48.9004C17.6467 49.0569 17.7512 49.1937 17.8853 49.297C18.0194 49.4002 18.1783 49.4662 18.3461 49.4883H18.467C18.6159 49.4894 18.763 49.4557 18.8965 49.3898C19.03 49.324 19.1464 49.2279 19.2362 49.1092L24.4505 42.1641C24.6373 42.1641 24.8241 42.1916 25 42.1916C25.1758 42.1916 25.445 42.1916 25.6648 42.1586L30.8956 49.1037C30.9863 49.2215 31.1028 49.3169 31.2361 49.3826C31.3695 49.4484 31.5161 49.4826 31.6648 49.4828H31.7857C31.9554 49.4629 32.1169 49.3985 32.2539 49.2963C32.3909 49.194 32.4985 49.0575 32.5659 48.9004L34.5219 44.1861L39.5934 43.5982C39.7616 43.579 39.9218 43.5156 40.0577 43.4146C40.1936 43.3135 40.3004 43.1784 40.3673 43.0228C40.4342 42.8673 40.4589 42.6968 40.4388 42.5286C40.4186 42.3605 40.3544 42.2006 40.2527 42.0652L35.2692 35.4444ZM18.6813 46.6037L17.1483 42.9169C17.0886 42.7563 16.9866 42.6149 16.8531 42.5076C16.7197 42.4002 16.5597 42.3309 16.3901 42.307L12.4066 41.8455L15.7857 37.296C17.3308 39.5432 19.6414 41.1507 22.2857 41.818L18.6813 46.6037ZM15.7527 31.0158C15.7516 29.1844 16.2937 27.3939 17.3103 25.8707C18.327 24.3475 19.7725 23.16 21.4642 22.4584C23.1558 21.7568 25.0175 21.5727 26.8138 21.9293C28.6101 22.2859 30.2602 23.1672 31.5556 24.4618C32.8509 25.7564 33.7332 27.406 34.0909 29.2021C34.4486 30.9982 34.2655 32.86 33.565 34.552C32.8644 36.244 31.6777 37.6903 30.1551 38.7079C28.6325 39.7254 26.8423 40.2685 25.0109 40.2685C22.5574 40.2656 20.205 39.29 18.4695 37.5556C16.7341 35.8212 15.7571 33.4694 15.7527 31.0158ZM33.7417 42.307C33.5697 42.3298 33.4071 42.3985 33.2708 42.5058C33.1345 42.6131 33.0295 42.7551 32.967 42.9169L31.4395 46.6037L27.8296 41.818C30.4499 41.1369 32.7341 39.5282 34.2582 37.2905L37.7087 41.8729L33.7417 42.307Z" fill="#393333"/>
<path d="M29.8296 27.9229H27.3901L26.6428 25.6097C26.5354 25.2764 26.3247 24.9859 26.0412 24.7805C25.7577 24.575 25.4161 24.4651 25.0659 24.4668C24.716 24.4667 24.3751 24.5779 24.0926 24.7843C23.8101 24.9908 23.6006 25.2817 23.4945 25.6152L22.7417 27.9284H20.3296C19.9779 27.9238 19.6339 28.0319 19.3479 28.2368C19.062 28.4418 18.8491 28.7328 18.7405 29.0674C18.6318 29.402 18.633 29.7626 18.744 30.0964C18.8549 30.4303 19.0698 30.7199 19.3571 30.9229L21.3296 32.3514L20.5494 34.6701C20.4411 35.0016 20.4407 35.3589 20.5484 35.6907C20.656 36.0224 20.866 36.3115 21.1483 36.5163C21.4311 36.7238 21.7728 36.8357 22.1236 36.8357C22.4744 36.8357 22.8161 36.7238 23.0989 36.5163L25.0659 35.0822L27.0384 36.5163C27.3201 36.7245 27.6608 36.8377 28.0111 36.8392C28.3614 36.8408 28.7031 36.7307 28.9866 36.525C29.2701 36.3192 29.4807 36.0285 29.5879 35.695C29.695 35.3615 29.6931 35.0025 29.5824 34.6701L28.8296 32.3459L30.7967 30.9174C31.0836 30.7146 31.2982 30.4255 31.4093 30.0923C31.5204 29.759 31.522 29.3989 31.4141 29.0646C31.3061 28.7303 31.0942 28.4392 30.8091 28.2338C30.5241 28.0284 30.1809 27.9195 29.8296 27.9229ZM27.5384 30.9064C27.2521 31.1093 27.038 31.3983 26.9273 31.7314C26.8166 32.0644 26.8151 32.4241 26.923 32.758L27.4725 34.4778L26.0055 33.4119C25.7257 33.2093 25.3893 33.0998 25.0439 33.0987C24.6915 33.0985 24.3478 33.2079 24.0604 33.4119L22.6044 34.4778L23.1538 32.7635C23.2647 32.4305 23.2664 32.0708 23.1587 31.7368C23.051 31.4028 22.8395 31.1118 22.5549 30.9064L21.0934 29.8459H22.9011C23.2512 29.8476 23.5928 29.7378 23.8764 29.5323C24.1599 29.3268 24.3706 29.0364 24.478 28.7031L25.0274 26.9833L25.5769 28.7031C25.6843 29.0364 25.895 29.3268 26.1785 29.5323C26.4621 29.7378 26.8037 29.8476 27.1538 29.8459H28.9615L27.5384 30.9064Z" fill="#393333"/>
<path d="M8.35717 8.01585C8.88821 8.01585 9.3187 7.58536 9.3187 7.05431C9.3187 6.52327 8.88821 6.09277 8.35717 6.09277C7.82612 6.09277 7.39563 6.52327 7.39563 7.05431C7.39563 7.58536 7.82612 8.01585 8.35717 8.01585Z" fill="#393333"/>
<path d="M14.3791 8.01585C14.9101 8.01585 15.3406 7.58536 15.3406 7.05431C15.3406 6.52327 14.9101 6.09277 14.3791 6.09277C13.848 6.09277 13.4175 6.52327 13.4175 7.05431C13.4175 7.58536 13.848 8.01585 14.3791 8.01585Z" fill="#393333"/>
<path d="M20.4065 8.01585C20.9376 8.01585 21.3681 7.58536 21.3681 7.05431C21.3681 6.52327 20.9376 6.09277 20.4065 6.09277C19.8755 6.09277 19.445 6.52327 19.445 7.05431C19.445 7.58536 19.8755 8.01585 20.4065 8.01585Z" fill="#393333"/>
<path d="M49.7417 1.60412C49.7417 1.3491 49.6404 1.10453 49.4601 0.924206C49.2798 0.743883 49.0352 0.642578 48.7802 0.642578H1.489C1.23781 0.648321 0.998849 0.752155 0.823252 0.93186C0.647655 1.11156 0.549373 1.35286 0.549439 1.60412V7.64807C0.549439 7.90309 0.650743 8.14766 0.831067 8.32798C1.01139 8.50831 1.25596 8.60961 1.51098 8.60961C1.76599 8.60961 2.01056 8.50831 2.19089 8.32798C2.37121 8.14766 2.47252 7.90309 2.47252 7.64807V2.56566H47.8022V34.3788C47.8007 35.2673 47.4471 36.119 46.8189 36.7472C46.1907 37.3755 45.339 37.729 44.4505 37.7305H42.6264C42.3713 37.7305 42.1268 37.8318 41.9464 38.0121C41.7661 38.1924 41.6648 38.437 41.6648 38.692C41.6648 38.947 41.7661 39.1916 41.9464 39.3719C42.1268 39.5523 42.3713 39.6536 42.6264 39.6536H44.467C45.8655 39.6521 47.2063 39.0959 48.1952 38.107C49.1841 37.1181 49.7403 35.7773 49.7417 34.3788V1.60412Z" fill="#393333"/>
<path d="M7.05493 37.7303H2.45603V12.5325H43.3626C43.6176 12.5325 43.8622 12.4311 44.0425 12.2508C44.2229 12.0705 44.3242 11.8259 44.3242 11.5709C44.3242 11.3159 44.2229 11.0713 44.0425 10.891C43.8622 10.7107 43.6176 10.6094 43.3626 10.6094H1.49449C1.24234 10.6137 1.00199 10.7169 0.825214 10.8968C0.64844 11.0766 0.549401 11.3187 0.549438 11.5709V38.6918C0.549438 38.9468 0.650743 39.1914 0.831067 39.3717C1.01139 39.552 1.25596 39.6533 1.51098 39.6533H7.05493C7.30995 39.6533 7.55452 39.552 7.73484 39.3717C7.91517 39.1914 8.01647 38.9468 8.01647 38.6918C8.01647 38.4368 7.91517 38.1922 7.73484 38.0119C7.55452 37.8316 7.30995 37.7303 7.05493 37.7303Z" fill="#393333"/>
</svg>
