<svg width="50" height="50" viewBox="0 0 50 50" fill="none" xmlns="http://www.w3.org/2000/svg">
<path d="M25.2748 31.2803C24.7222 31.2792 24.1818 31.4421 23.722 31.7484C23.2621 32.0547 22.9035 32.4905 22.6916 33.0008C22.4796 33.511 22.4239 34.0727 22.5314 34.6147C22.6389 35.1566 22.9049 35.6545 23.2956 36.0452C23.6863 36.4359 24.1841 36.7018 24.7261 36.8093C25.268 36.9169 25.8297 36.8611 26.34 36.6492C26.8502 36.4372 27.2861 36.0786 27.5924 35.6188C27.8986 35.1589 28.0616 34.6185 28.0605 34.066C28.0605 33.3272 27.767 32.6186 27.2446 32.0962C26.7221 31.5738 26.0136 31.2803 25.2748 31.2803ZM25.2748 34.9341C25.1028 34.9352 24.9344 34.8852 24.791 34.7905C24.6475 34.6958 24.5354 34.5606 24.4688 34.402C24.4023 34.2435 24.3843 34.0688 24.4171 33.9C24.45 33.7313 24.5323 33.5761 24.6535 33.4541C24.7746 33.3321 24.9293 33.2489 25.0979 33.215C25.2664 33.181 25.4413 33.1979 25.6002 33.2634C25.7592 33.329 25.8951 33.4402 25.9907 33.5831C26.0863 33.726 26.1374 33.8941 26.1374 34.066C26.1374 34.2953 26.0467 34.5153 25.8851 34.6779C25.7235 34.8406 25.504 34.9327 25.2748 34.9341Z" fill="#393333"/>
<path d="M28.9506 16.6533H21.5934C21.4455 16.6532 21.2996 16.6872 21.167 16.7526C21.0343 16.8181 20.9186 16.9133 20.8288 17.0308C20.7389 17.1483 20.6774 17.2849 20.649 17.43C20.6205 17.5752 20.626 17.7249 20.6649 17.8676L23.7857 29.3676C23.8407 29.5741 23.9629 29.7565 24.133 29.8858C24.3032 30.0152 24.5116 30.0842 24.7253 30.0819H25.8242C26.036 30.0817 26.2419 30.0116 26.4098 29.8825C26.5777 29.7533 26.6983 29.5723 26.7528 29.3676L28.6758 22.2742C28.7182 22.1499 28.7346 22.0183 28.7241 21.8875C28.7137 21.7566 28.6765 21.6293 28.6149 21.5133C28.5534 21.3974 28.4688 21.2953 28.3662 21.2133C28.2637 21.1313 28.1455 21.0712 28.0189 21.0366C27.8922 21.002 27.7599 20.9937 27.6299 21.0123C27.5 21.0308 27.3752 21.0757 27.2632 21.1443C27.1513 21.2129 27.0546 21.3037 26.9791 21.4111C26.9036 21.5185 26.8509 21.6402 26.8242 21.7687L25.2747 27.505L22.8462 18.5764H28.9506C29.2056 18.5764 29.4501 18.4751 29.6305 18.2948C29.8108 18.1144 29.9121 17.8699 29.9121 17.6149C29.9121 17.3598 29.8108 17.1153 29.6305 16.9349C29.4501 16.7546 29.2056 16.6533 28.9506 16.6533Z" fill="#393333"/>
<path d="M49.1044 39.6262C49.0879 39.5602 27.9121 1.98331 27.9121 1.98331C27.6205 1.49096 27.2081 1.08117 26.7139 0.792723C26.2197 0.504276 25.66 0.346718 25.0879 0.334961C24.5309 0.365672 23.9887 0.525645 23.5043 0.802211C23.0198 1.07878 22.6064 1.46434 22.2967 1.92837C22.2967 1.92837 1.09892 39.5602 1.09892 39.6152C0.549468 41.0877 0.895622 42.0602 1.28024 42.6097C1.60102 43.026 2.01961 43.3566 2.49886 43.5723C2.97811 43.7879 3.50319 43.8819 4.02749 43.846H14.1044V48.6536C14.1022 48.8353 14.153 49.0136 14.2506 49.1668C14.3482 49.3201 14.4883 49.4415 14.6539 49.5163C14.8169 49.5872 14.9953 49.6154 15.1722 49.5981C15.3491 49.5808 15.5187 49.5186 15.6649 49.4174L22.8627 43.846H46.1539C46.6714 43.8847 47.1901 43.7877 47.6587 43.5646C48.1274 43.3415 48.5297 43.0001 48.826 42.574C49.1223 42.1478 49.3023 41.6518 49.3482 41.1348C49.3941 40.6179 49.3044 40.0979 49.0879 39.6262H49.1044ZM47.2528 41.4833C47.1168 41.6375 46.9465 41.7576 46.7556 41.8339C46.5648 41.9103 46.3587 41.9407 46.1539 41.9229H22.5275C22.3145 41.924 22.1078 41.9955 21.9396 42.1262L16.0275 46.7031V43.846H16.5495C16.8045 43.846 17.0491 43.7446 17.2294 43.5643C17.4097 43.384 17.511 43.1394 17.511 42.8844C17.511 42.6294 17.4097 42.3848 17.2294 42.2045C17.0491 42.0242 16.8045 41.9229 16.5495 41.9229H4.00551C3.79205 41.9458 3.57617 41.9207 3.37367 41.8494C3.17117 41.7781 2.98719 41.6624 2.83518 41.5108C2.75245 41.3287 2.70965 41.1311 2.70965 40.9311C2.70965 40.7312 2.75245 40.5335 2.83518 40.3514L23.8956 2.98881C24.028 2.79273 24.2011 2.62746 24.403 2.50421C24.6049 2.38096 24.831 2.30262 25.066 2.27452C25.2981 2.28768 25.5237 2.35582 25.7244 2.47332C25.925 2.59083 26.0948 2.75433 26.2198 2.95035L47.3187 40.346C47.3958 40.5279 47.43 40.7251 47.4186 40.9223C47.4072 41.1196 47.3504 41.3115 47.2528 41.4833Z" fill="#393333"/>
</svg>
