<svg width="50" height="48" viewBox="0 0 50 48" fill="none" xmlns="http://www.w3.org/2000/svg">
<path d="M5.81321 37.5794C6.89594 37.568 7.95096 37.2537 8.84578 36.6759C9.74061 36.0982 10.4353 35.2829 10.8427 34.3323C11.2501 33.3817 11.352 32.3382 11.1356 31.3329C10.9192 30.3276 10.3942 29.4053 9.6264 28.6818L14.4121 23.361C15.3962 24.1033 16.6219 24.4988 17.8796 24.4798C19.1373 24.4608 20.3491 24.0285 21.3077 23.2569L25.4836 26.844C24.9802 27.6757 24.729 28.6229 24.7576 29.5813C24.7862 30.5396 25.0935 31.4718 25.6457 32.2752C26.1979 33.0786 26.9734 33.7219 27.8868 34.1342C28.8003 34.5466 29.8162 34.7119 30.8225 34.612C31.8287 34.5121 32.7864 34.1508 33.5898 33.5681C34.3932 32.9853 35.0112 32.2036 35.3756 31.3093C35.7401 30.4149 35.8368 29.4425 35.6551 28.4994C35.4735 27.5562 35.0205 26.6789 34.3462 25.9642L41.989 18.4619C42.6531 18.7278 43.367 18.8642 44.088 18.8628C45.3674 18.867 46.6083 18.4481 47.5966 17.6782C48.5849 16.9083 49.2587 15.8358 49.5018 14.6455C49.7448 13.4553 49.5419 12.222 48.9279 11.1583C48.314 10.0947 47.3276 9.26739 46.1389 8.81915C44.9501 8.3709 43.6335 8.3298 42.4162 8.70293C41.1989 9.07606 40.1571 9.84003 39.4706 10.8631C38.7842 11.8861 38.496 13.1041 38.6558 14.3069C38.8157 15.5097 39.4135 16.622 40.3462 17.4519L32.8407 24.8188C31.8721 24.3233 30.7679 24.1173 29.6734 24.2279C28.5789 24.3385 27.5454 24.7604 26.7088 25.4383L22.5275 21.8668C23.0164 21.07 23.2733 20.1645 23.2719 19.2429C23.2706 18.3212 23.0111 17.4164 22.5198 16.6209C22.0286 15.8254 21.3234 15.1677 20.4761 14.715C19.6288 14.2623 18.6699 14.0309 17.6973 14.0443C16.7247 14.0578 15.7733 14.3156 14.9403 14.7915C14.1074 15.2674 13.4226 15.9443 12.9561 16.7531C12.4896 17.5618 12.258 18.4734 12.285 19.3947C12.3121 20.316 12.5967 21.214 13.1099 21.997L8.022 27.6562C7.27176 27.3246 6.45213 27.1579 5.62436 27.1686C4.79659 27.1793 3.98207 27.3671 3.24166 27.718C2.50124 28.0689 1.85407 28.5738 1.34849 29.1949C0.842918 29.8161 0.492006 30.5374 0.321975 31.3051C0.151944 32.0728 0.167188 32.867 0.36657 33.6284C0.565952 34.3897 0.944316 35.0985 1.4734 35.7018C2.00248 36.3051 2.6686 36.7874 3.42199 37.1125C4.17538 37.4376 4.99657 37.5972 5.8242 37.5794H5.81321ZM44.088 10.3192C44.7902 10.3182 45.477 10.5146 46.0614 10.8835C46.6458 11.2524 47.1016 11.7773 47.3711 12.3918C47.6406 13.0063 47.7117 13.6827 47.5754 14.3354C47.439 14.9882 47.1014 15.588 46.6052 16.0588C46.1091 16.5297 45.4766 16.8506 44.7879 16.9808C44.0993 17.1109 43.3853 17.0446 42.7364 16.7902C42.0875 16.5358 41.5328 16.1048 41.1426 15.5516C40.7523 14.9984 40.544 14.3479 40.544 13.6825C40.5454 12.7918 40.9191 11.9379 41.5833 11.3077C42.2474 10.6774 43.148 10.322 44.088 10.3192ZM30.2473 26.0318C30.9498 26.0308 31.6368 26.2273 32.2213 26.5965C32.8059 26.9656 33.2617 27.4909 33.531 28.1056C33.8003 28.7204 33.8711 29.3971 33.7343 30.05C33.5975 30.7029 33.2593 31.3026 32.7626 31.7733C32.2659 32.244 31.6329 32.5644 30.9439 32.694C30.2549 32.8236 29.5407 32.7566 28.8919 32.5014C28.2431 32.2462 27.6888 31.8143 27.2992 31.2604C26.9096 30.7065 26.7022 30.0555 26.7033 29.3899C26.7062 28.5001 27.0805 27.6476 27.7445 27.0184C28.4085 26.3893 29.3083 26.0346 30.2473 26.0318ZM17.7912 15.9368C18.4935 15.9368 19.18 16.1342 19.7638 16.504C20.3476 16.8738 20.8025 17.3994 21.071 18.0142C21.3395 18.6291 21.4095 19.3056 21.2721 19.9581C21.1347 20.6107 20.7961 21.21 20.2991 21.6801C19.8022 22.1503 19.1692 22.4702 18.4803 22.5994C17.7914 22.7286 17.0776 22.6612 16.4291 22.4058C15.7806 22.1505 15.2267 21.7186 14.8373 21.1648C14.4479 20.6111 14.2407 19.9603 14.2418 19.2949C14.2432 18.4038 14.6178 17.5497 15.2833 16.9201C15.9488 16.2904 16.8508 15.9368 17.7912 15.9368ZM5.81321 29.0359C6.51569 29.0348 7.2027 29.2313 7.78725 29.6005C8.37179 29.9697 8.82759 30.4949 9.09692 31.1097C9.36625 31.7244 9.437 32.4011 9.30022 33.054C9.16344 33.7069 8.82527 34.3067 8.32854 34.7773C7.83181 35.248 7.19886 35.5684 6.50982 35.698C5.82078 35.8276 5.10665 35.7606 4.45785 35.5054C3.80905 35.2502 3.25476 34.8183 2.86516 34.2644C2.47555 33.7105 2.26817 33.0596 2.26926 32.3939C2.27071 31.5037 2.64455 30.6504 3.30886 30.0209C3.97317 29.3915 4.87374 29.0372 5.81321 29.0359Z" fill="#393333"/>
<path d="M18.7528 27.8847C18.7528 27.6431 18.6515 27.4114 18.4712 27.2405C18.2908 27.0696 18.0463 26.9736 17.7913 26.9736C17.5362 26.9736 17.2917 27.0696 17.1113 27.2405C16.931 27.4114 16.8297 27.6431 16.8297 27.8847V28.3221C16.8297 28.5637 16.931 28.7955 17.1113 28.9663C17.2917 29.1372 17.5362 29.2332 17.7913 29.2332C18.0463 29.2332 18.2908 29.1372 18.4712 28.9663C18.6515 28.7955 18.7528 28.5637 18.7528 28.3221V27.8847Z" fill="#393333"/>
<path d="M18.7528 37.2353C18.7528 36.9937 18.6515 36.7619 18.4712 36.5911C18.2908 36.4202 18.0463 36.3242 17.7913 36.3242C17.5362 36.3242 17.2917 36.4202 17.1113 36.5911C16.931 36.7619 16.8297 36.9937 16.8297 37.2353V38.0475C16.8297 38.2891 16.931 38.5209 17.1113 38.6917C17.2917 38.8626 17.5362 38.9586 17.7913 38.9586C18.0463 38.9586 18.2908 38.8626 18.4712 38.6917C18.6515 38.5209 18.7528 38.2891 18.7528 38.0475V37.2353Z" fill="#393333"/>
<path d="M18.7528 32.373C18.7528 32.1314 18.6515 31.8996 18.4712 31.7288C18.2908 31.5579 18.0463 31.4619 17.7913 31.4619C17.5362 31.4619 17.2917 31.5579 17.1113 31.7288C16.931 31.8996 16.8297 32.1314 16.8297 32.373V33.1852C16.8297 33.4268 16.931 33.6586 17.1113 33.8295C17.2917 34.0003 17.5362 34.0963 17.7913 34.0963C18.0463 34.0963 18.2908 34.0003 18.4712 33.8295C18.6515 33.6586 18.7528 33.4268 18.7528 33.1852V32.373Z" fill="#393333"/>
<path d="M17.7913 41.1924C17.5362 41.1924 17.2917 41.2884 17.1113 41.4592C16.931 41.6301 16.8297 41.8618 16.8297 42.1035V42.5408C16.8297 42.7824 16.931 43.0142 17.1113 43.185C17.2917 43.3559 17.5362 43.4519 17.7913 43.4519C18.0463 43.4519 18.2908 43.3559 18.4712 43.185C18.6515 43.0142 18.7528 42.7824 18.7528 42.5408V42.1035C18.7528 41.8618 18.6515 41.6301 18.4712 41.4592C18.2908 41.2884 18.0463 41.1924 17.7913 41.1924Z" fill="#393333"/>
<path d="M48.9011 45.1288H45.4725V25.5687L48.2198 28.1719C48.3088 28.2575 48.4148 28.3255 48.5318 28.3719C48.6488 28.4184 48.7743 28.4423 48.9011 28.4423C49.0279 28.4423 49.1535 28.4184 49.2704 28.3719C49.3874 28.3255 49.4935 28.2575 49.5824 28.1719C49.7619 28.0011 49.8627 27.7699 49.8627 27.5289C49.8627 27.2879 49.7619 27.0567 49.5824 26.8859L45.1154 22.6532C45.0264 22.5676 44.9204 22.4996 44.8034 22.4531C44.6864 22.4067 44.5609 22.3828 44.4341 22.3828C44.3073 22.3828 44.1817 22.4067 44.0648 22.4531C43.9478 22.4996 43.8417 22.5676 43.7528 22.6532L39.2857 26.8859C39.1072 27.0585 39.0084 27.2912 39.011 27.5329C39.0135 27.7745 39.1173 28.0053 39.2995 28.1745C39.4816 28.3436 39.7272 28.4373 39.9823 28.4348C40.2373 28.4324 40.4808 28.3341 40.6594 28.1615L43.5769 25.3969V45.1288H31.2088V37.0018C31.2088 36.7601 31.1075 36.5284 30.9272 36.3575C30.7469 36.1867 30.5023 36.0907 30.2473 36.0907C29.9923 36.0907 29.7477 36.1867 29.5674 36.3575C29.387 36.5284 29.2857 36.7601 29.2857 37.0018V45.1288H6.75827V40.0891C6.75827 39.8475 6.65697 39.6157 6.47664 39.4449C6.29632 39.274 6.05175 39.178 5.79673 39.178C5.54172 39.178 5.29715 39.274 5.11682 39.4449C4.9365 39.6157 4.83519 39.8475 4.83519 40.0891V45.108H1.46157C1.20655 45.108 0.961982 45.204 0.781659 45.3748C0.601335 45.5457 0.500031 45.7774 0.500031 46.0191C0.500031 46.2607 0.601335 46.4925 0.781659 46.6633C0.961982 46.8342 1.20655 46.9302 1.46157 46.9302H48.9011C49.1561 46.9302 49.4007 46.8342 49.581 46.6633C49.7613 46.4925 49.8627 46.2607 49.8627 46.0191C49.8627 45.7774 49.7613 45.5457 49.581 45.3748C49.4007 45.204 49.1561 45.108 48.9011 45.108V45.1288Z" fill="#393333"/>
<path d="M5.57146 24.3871C5.82648 24.3871 6.07105 24.2911 6.25137 24.1203C6.4317 23.9494 6.533 23.7177 6.533 23.476V3.08815C6.533 2.86584 6.6262 2.65264 6.7921 2.49545C6.958 2.33825 7.183 2.24994 7.41762 2.24994H42.6649C42.899 2.2513 43.1232 2.34005 43.2888 2.49696C43.4544 2.65386 43.548 2.86627 43.5495 3.08815V5.03531C43.5495 5.15496 43.5744 5.27343 43.6227 5.38397C43.671 5.49451 43.7418 5.59495 43.8311 5.67956C43.9204 5.76416 44.0264 5.83127 44.1431 5.87706C44.2597 5.92284 44.3848 5.94641 44.511 5.94641C44.6373 5.94641 44.7623 5.92284 44.879 5.87706C44.9956 5.83127 45.1017 5.76416 45.1909 5.67956C45.2802 5.59495 45.3511 5.49451 45.3994 5.38397C45.4477 5.27343 45.4726 5.15496 45.4726 5.03531V3.08815C45.4711 2.38299 45.1748 1.7071 44.6486 1.20847C44.1224 0.709845 43.4091 0.42911 42.6649 0.427734H7.41762C6.67297 0.427734 5.95882 0.708028 5.43228 1.20695C4.90573 1.70588 4.60992 2.38257 4.60992 3.08815V23.476C4.60992 23.7177 4.71123 23.9494 4.89155 24.1203C5.07188 24.2911 5.31645 24.3871 5.57146 24.3871Z" fill="#393333"/>
</svg>
