<svg width="50" height="50" viewBox="0 0 50 50" fill="none" xmlns="http://www.w3.org/2000/svg">
<path d="M27.923 25.9397C28.454 25.9397 28.8845 25.5092 28.8845 24.9781C28.8845 24.4471 28.454 24.0166 27.923 24.0166C27.3919 24.0166 26.9614 24.4471 26.9614 24.9781C26.9614 25.5092 27.3919 25.9397 27.923 25.9397Z" fill="#393333"/>
<path d="M28.1758 0.269545C22.8475 0.275365 17.7392 2.39497 13.9721 6.16314C10.2049 9.93131 8.08673 15.0402 8.08237 20.3684V20.9893L2.03841 31.4618C1.95237 31.6075 1.90698 31.7735 1.90698 31.9426C1.90698 32.1117 1.95237 32.2778 2.03841 32.4234C2.1222 32.5696 2.24295 32.6913 2.38856 32.7761C2.53418 32.861 2.69954 32.9061 2.86808 32.9069H6.3516V39.5003C6.35742 41.1223 7.00619 42.6757 8.15567 43.82C9.30514 44.9644 10.8615 45.6062 12.4835 45.6047H19.6868V48.6542C19.6868 48.9092 19.7881 49.1537 19.9684 49.3341C20.1487 49.5144 20.3933 49.6157 20.6483 49.6157C20.9033 49.6157 21.1479 49.5144 21.3282 49.3341C21.5085 49.1537 21.6098 48.9092 21.6098 48.6542V45.6047H25.2252C25.4802 45.6047 25.7248 45.5034 25.9051 45.3231C26.0855 45.1427 26.1868 44.8982 26.1868 44.6432C26.1868 44.3881 26.0855 44.1436 25.9051 43.9633C25.7248 43.7829 25.4802 43.6816 25.2252 43.6816H12.4835C11.3706 43.6802 10.3037 43.2374 9.51678 42.4505C8.72985 41.6636 8.28712 40.5967 8.28566 39.4838V31.9454C8.28566 31.6903 8.18436 31.4458 8.00403 31.2655C7.82371 31.0851 7.57914 30.9838 7.32412 30.9838H4.5439L9.89006 21.7146C9.97956 21.5614 10.0252 21.3865 10.0219 21.2091C10.0219 21.2091 10.0219 20.5608 10.0219 20.3684C10.0172 17.3811 10.749 14.4387 12.1523 11.8016C13.5556 9.1644 15.5873 6.91379 18.0677 5.24885C20.548 3.58391 23.4004 2.55598 26.3726 2.25602C29.3449 1.95606 32.3452 2.3933 35.1082 3.52907C37.8711 4.66484 40.3116 6.46412 42.2135 8.7677C44.1155 11.0713 45.4204 13.8082 46.0127 16.7362C46.605 19.6642 46.4665 22.693 45.6094 25.5547C44.7523 28.4164 43.2031 31.0228 41.0989 33.1432L38.0274 35.2036C37.9224 35.2758 37.8327 35.3679 37.7633 35.4747C37.6939 35.5816 37.6463 35.701 37.6231 35.8263C37.5998 35.9515 37.6015 36.0801 37.628 36.2047C37.6545 36.3293 37.7053 36.4475 37.7774 36.5525C37.8496 36.6575 37.9417 36.7472 38.0485 36.8166C38.1554 36.886 38.2748 36.9337 38.4001 36.9569C38.5254 36.9801 38.654 36.9784 38.7786 36.9519C38.9032 36.9254 39.0213 36.8747 39.1263 36.8025L40.7747 35.7036V48.6706C40.7747 48.9257 40.876 49.1702 41.0563 49.3505C41.2366 49.5309 41.4812 49.6322 41.7362 49.6322C41.9912 49.6322 42.2358 49.5309 42.4161 49.3505C42.5964 49.1702 42.6978 48.9257 42.6978 48.6706V34.275C45.4263 31.4316 47.2584 27.8485 47.9662 23.9718C48.674 20.095 48.2262 16.0957 46.6785 12.4715C45.1308 8.84735 42.5515 5.75828 39.2617 3.58872C35.9718 1.41915 32.1166 0.264886 28.1758 0.269545Z" fill="#393333"/>
<path d="M30.5823 19.231C31.6812 18.4727 32.9889 17.5277 32.9889 15.3848C33.0247 14.5546 32.8183 13.7319 32.3949 13.0168C31.9716 12.3017 31.3494 11.7252 30.6043 11.3573C29.7549 10.9545 28.8113 10.7927 27.8763 10.8896C26.9412 10.9865 26.0508 11.3384 25.3021 11.9068C23.8461 13.0332 23.2581 14.8519 23.6537 16.8958C23.6808 17.021 23.7323 17.1396 23.8052 17.2449C23.8781 17.3502 23.971 17.4402 24.0787 17.5095C24.1863 17.5789 24.3066 17.6264 24.4326 17.6493C24.5586 17.6723 24.6879 17.6701 24.8131 17.6431C24.9383 17.616 25.0569 17.5646 25.1622 17.4916C25.2675 17.4187 25.3574 17.3258 25.4268 17.2182C25.4962 17.1105 25.5437 16.9902 25.5666 16.8642C25.5895 16.7382 25.5874 16.6089 25.5603 16.4837C25.2856 15.1486 25.6043 14.0826 26.4779 13.4013C26.9474 13.0567 27.4998 12.8427 28.0789 12.7809C28.6579 12.7191 29.243 12.8119 29.7746 13.0497C30.1985 13.2577 30.55 13.5886 30.7832 13.9992C31.0165 14.4099 31.1207 14.8812 31.0823 15.3519C31.0823 16.4508 30.5329 16.9123 29.4889 17.6595C28.445 18.4068 26.9724 19.4343 26.9724 21.7859C26.9724 22.0409 27.0737 22.2855 27.2541 22.4658C27.4344 22.6462 27.6789 22.7475 27.934 22.7475C28.189 22.7475 28.4336 22.6462 28.6139 22.4658C28.7942 22.2855 28.8955 22.0409 28.8955 21.7859C28.879 20.4178 29.5933 19.9123 30.5823 19.231Z" fill="#393333"/>
<path d="M35.445 7.91203C35.3404 7.83988 35.2226 7.78904 35.0983 7.76241C34.9741 7.73579 34.8458 7.7339 34.7208 7.75686C34.5958 7.77982 34.4765 7.82718 34.3698 7.89623C34.2631 7.96527 34.171 8.05466 34.0989 8.15929C34.0267 8.26391 33.9759 8.38172 33.9493 8.506C33.9226 8.63027 33.9208 8.75857 33.9437 8.88357C33.9667 9.00857 34.014 9.12783 34.0831 9.23453C34.1521 9.34123 34.2415 9.43329 34.3461 9.50544C36.5172 10.9674 38.0912 13.1603 38.7815 15.6851C39.4718 18.2099 39.2326 20.8986 38.1073 23.2618C36.982 25.625 35.0456 27.5056 32.6505 28.5612C30.2553 29.6168 27.5608 29.7773 25.0573 29.0134C22.5538 28.2495 20.4078 26.6121 19.0101 24.3991C17.6123 22.1862 17.0556 19.5449 17.4414 16.956C17.8271 14.3671 19.1297 12.0029 21.1119 10.2936C23.0942 8.58429 25.6243 7.64362 28.2417 7.6428C28.4968 7.6428 28.7413 7.5415 28.9217 7.36118C29.102 7.18085 29.2033 6.93628 29.2033 6.68127C29.2033 6.42625 29.102 6.18168 28.9217 6.00136C28.7413 5.82103 28.4968 5.71973 28.2417 5.71973C25.1666 5.71945 22.1936 6.82325 19.8637 8.83025C17.5338 10.8373 16.0019 13.6141 15.5468 16.6553C15.0917 19.6966 15.7436 22.8002 17.3839 25.4013C19.0242 28.0025 21.5439 29.9282 24.4844 30.8281C27.4249 31.7281 30.5908 31.5424 33.406 30.3048C36.2211 29.0672 38.4983 26.8601 39.8233 24.085C41.1482 21.31 41.4328 18.1514 40.6253 15.1842C39.8177 12.217 37.9716 9.63836 35.4231 7.91753L35.445 7.91203Z" fill="#393333"/>
</svg>
