<svg width="50" height="50" viewBox="0 0 50 50" fill="none" xmlns="http://www.w3.org/2000/svg">
<path d="M45.6044 12.0551C45.4375 11.9041 45.2229 11.8165 44.998 11.8074C44.7731 11.7984 44.5521 11.8685 44.3736 12.0056L38.8791 16.2254C34.8267 13.8017 30.0956 12.7628 25.4006 13.2656C20.7055 13.7685 16.3017 15.7857 12.8545 19.0126C9.40728 22.2396 7.10399 26.5008 6.29263 31.1524C5.48128 35.8041 6.20596 40.5935 8.35716 44.7969C8.43428 44.9595 8.55551 45.0972 8.70704 45.1943C8.85857 45.2915 9.03432 45.3441 9.2143 45.3463C9.37863 45.3468 9.5403 45.3048 9.68372 45.2246C9.82713 45.1444 9.94744 45.0285 10.033 44.8883C10.1186 44.748 10.1666 44.588 10.1724 44.4238C10.1782 44.2596 10.1415 44.0966 10.0659 43.9507C8.11677 40.1723 7.43356 35.8675 8.1171 31.6713C8.80064 27.4751 10.8147 23.6097 13.8623 20.6453C16.9098 17.6808 20.8294 15.7744 25.0429 15.2071C29.2564 14.6398 33.5407 15.4418 37.2638 17.4947C31.8681 21.6705 25.2747 26.8518 24.2692 27.8408C23.298 28.8091 22.7512 30.1236 22.7491 31.4951C22.7471 32.8666 23.2899 34.1827 24.2583 35.154C25.2266 36.1252 26.5411 36.672 27.9126 36.6741C29.2841 36.6762 30.6002 36.1333 31.5714 35.165C33.2198 33.5166 44.4945 15.3848 45.7747 13.2969C45.8995 13.1037 45.951 12.8722 45.9197 12.6444C45.8885 12.4166 45.7766 12.2075 45.6044 12.0551ZM30.2198 33.7859C29.6114 34.3943 28.7862 34.736 27.9258 34.736C27.0654 34.736 26.2403 34.3943 25.6319 33.7859C25.0235 33.1775 24.6817 32.3523 24.6817 31.4919C24.6817 31.0659 24.7656 30.644 24.9286 30.2504C25.0917 29.8568 25.3306 29.4992 25.6319 29.1979C26.6539 28.1815 34.8681 21.7749 41.3297 16.7804C36.6429 24.2584 31.1594 32.8353 30.2198 33.7859Z" fill="#393333"/>
<path d="M28.8571 6.71471C30.6157 6.82301 32.3599 7.09899 34.0659 7.53889C34.1879 7.57111 34.315 7.57889 34.44 7.56177C34.5649 7.54464 34.6853 7.50296 34.7941 7.43912C34.9029 7.37527 34.9979 7.29054 35.0738 7.18978C35.1497 7.08903 35.2049 6.97426 35.2363 6.85207C35.3 6.60512 35.2635 6.343 35.1349 6.12278C35.0063 5.90256 34.7959 5.74207 34.5495 5.67625C27.9648 3.96776 20.9911 4.60169 14.8225 7.46949C8.65386 10.3373 3.67419 15.2605 0.736266 21.396C0.628382 21.6273 0.615733 21.8917 0.701047 22.1323C0.786361 22.3728 0.962802 22.5701 1.19231 22.6817C1.32145 22.7419 1.46195 22.7737 1.6044 22.7752C1.78639 22.7757 1.96476 22.7243 2.11854 22.627C2.27232 22.5296 2.39513 22.3904 2.47253 22.2257C4.81091 17.295 8.57625 13.1802 13.2806 10.4146C17.985 7.64901 23.4116 6.36003 28.8571 6.71471Z" fill="#393333"/>
<path d="M45.7528 22.6869C45.6071 22.4756 45.3834 22.3309 45.1309 22.2845C44.8785 22.2381 44.6179 22.2939 44.4066 22.4397C44.1953 22.5854 44.0506 22.8091 44.0042 23.0615C43.9578 23.314 44.0137 23.5745 44.1594 23.7858C46.1546 26.7286 47.3212 30.1541 47.5367 33.703C47.7523 37.2519 47.009 40.7934 45.3847 43.9561C45.3092 44.1028 45.2728 44.2665 45.279 44.4314C45.2851 44.5962 45.3335 44.7567 45.4196 44.8975C45.5057 45.0382 45.6266 45.1544 45.7706 45.2349C45.9145 45.3154 46.0768 45.3576 46.2418 45.3572C46.4211 45.3553 46.5963 45.3027 46.747 45.2055C46.8977 45.1082 47.0178 44.9704 47.0934 44.8078C48.875 41.3385 49.6906 37.4538 49.4548 33.5609C49.2189 29.668 47.9402 25.9102 45.7528 22.6814V22.6869Z" fill="#393333"/>
<path d="M38.9396 10.2424C39.1297 10.2424 39.3156 10.186 39.4738 10.0804C39.6319 9.97471 39.7551 9.82454 39.8279 9.64884C39.9007 9.47314 39.9197 9.27981 39.8826 9.09329C39.8455 8.90677 39.7539 8.73544 39.6195 8.60096C39.485 8.46649 39.3137 8.37491 39.1271 8.33781C38.9406 8.30071 38.7473 8.31975 38.5716 8.39253C38.3959 8.46531 38.2457 8.58855 38.1401 8.74667C38.0344 8.9048 37.978 9.0907 37.978 9.28088C37.9795 9.53545 38.0812 9.77918 38.2612 9.95919C38.4413 10.1392 38.685 10.241 38.9396 10.2424Z" fill="#393333"/>
<path d="M27.7473 20.2034C28.2783 20.2034 28.7088 19.7729 28.7088 19.2418C28.7088 18.7108 28.2783 18.2803 27.7473 18.2803C27.2162 18.2803 26.7857 18.7108 26.7857 19.2418C26.7857 19.7729 27.2162 20.2034 27.7473 20.2034Z" fill="#393333"/>
<path d="M12.9286 32.5442C13.4596 32.5442 13.8901 32.1137 13.8901 31.5826C13.8901 31.0516 13.4596 30.6211 12.9286 30.6211C12.3975 30.6211 11.967 31.0516 11.967 31.5826C11.967 32.1137 12.3975 32.5442 12.9286 32.5442Z" fill="#393333"/>
<path d="M27.7473 32.5442C28.2783 32.5442 28.7088 32.1137 28.7088 31.5826C28.7088 31.0516 28.2783 30.6211 27.7473 30.6211C27.2162 30.6211 26.7857 31.0516 26.7857 31.5826C26.7857 32.1137 27.2162 32.5442 27.7473 32.5442Z" fill="#393333"/>
<path d="M42.5604 32.5442C43.0915 32.5442 43.5219 32.1137 43.5219 31.5826C43.5219 31.0516 43.0915 30.6211 42.5604 30.6211C42.0294 30.6211 41.5989 31.0516 41.5989 31.5826C41.5989 32.1137 42.0294 32.5442 42.5604 32.5442Z" fill="#393333"/>
</svg>
