<svg width="50" height="50" viewBox="0 0 50 50" fill="none" xmlns="http://www.w3.org/2000/svg">
<path d="M48.3517 47.8574H45.6594V19.2859H48.1374C48.3319 19.2887 48.5227 19.2325 48.6845 19.1246C48.8464 19.0166 48.9717 18.8622 49.044 18.6815C49.114 18.503 49.13 18.3078 49.0899 18.1202C49.0499 17.9326 48.9556 17.761 48.8187 17.6266L42.8022 11.8299C42.6223 11.6583 42.3833 11.5625 42.1346 11.5625C41.886 11.5625 41.6469 11.6583 41.467 11.8299L35.4561 17.6321C35.3203 17.766 35.2266 17.9367 35.1866 18.1232C35.1466 18.3096 35.1619 18.5037 35.2308 18.6815C35.3032 18.8594 35.4272 19.0115 35.5868 19.1182C35.7464 19.225 35.9344 19.2815 36.1264 19.2804H38.6154V47.8519H34.9066V22.5772C34.9066 22.3221 34.8053 22.0776 34.625 21.8972C34.4447 21.7169 34.2001 21.6156 33.9451 21.6156H27.2967C27.0421 21.6171 26.7984 21.7188 26.6184 21.8988C26.4384 22.0788 26.3366 22.3226 26.3352 22.5772V47.8519H23.8132V28.3079C23.8132 28.0529 23.7119 27.8083 23.5316 27.628C23.3513 27.4477 23.1067 27.3464 22.8517 27.3464H16.2033C15.9483 27.3464 15.7037 27.4477 15.5234 27.628C15.3431 27.8083 15.2418 28.0529 15.2418 28.3079V47.8574H9.12639V45.7969H9.24727C11.5165 45.7969 13.3681 44.1761 13.3681 42.187V42.0497C13.3452 41.3214 13.0738 40.6229 12.599 40.0702C12.1243 39.5175 11.4747 39.1438 10.7583 39.0112L9.10991 38.6761V34.9947H9.23079C10.4231 34.9947 11.4286 35.764 11.4286 36.6431C11.4286 36.8981 11.5299 37.1427 11.7102 37.323C11.8905 37.5033 12.1351 37.6046 12.3901 37.6046C12.6451 37.6046 12.8897 37.5033 13.07 37.323C13.2504 37.1427 13.3517 36.8981 13.3517 36.6431C13.3517 34.6596 11.5 33.0442 9.22529 33.0442H9.10441V32.4947C9.10441 32.2397 9.00311 31.9951 8.82278 31.8148C8.64246 31.6345 8.39789 31.5332 8.14287 31.5332C7.88786 31.5332 7.64329 31.6345 7.46296 31.8148C7.28264 31.9951 7.18133 32.2397 7.18133 32.4947V33.0442H6.67584C4.40661 33.0442 2.55496 34.6596 2.55496 36.6431V36.8134C2.59121 37.525 2.86125 38.2047 3.3232 38.7471C3.78516 39.2895 4.4132 39.6643 5.10991 39.8134L7.18133 40.2365V43.8739H6.67584C5.48353 43.8739 4.47804 43.0991 4.47804 42.187C4.47804 41.932 4.37673 41.6875 4.19641 41.5071C4.01609 41.3268 3.77152 41.2255 3.5165 41.2255C3.26148 41.2255 3.01691 41.3268 2.83659 41.5071C2.65627 41.6875 2.55496 41.932 2.55496 42.187C2.55496 44.1761 4.40112 45.7969 6.67584 45.7969H7.18133V47.8574H1.82969C1.57467 47.8574 1.3301 47.9587 1.14978 48.139C0.969453 48.3193 0.868149 48.5639 0.868149 48.8189C0.868149 49.0739 0.969453 49.3185 1.14978 49.4988C1.3301 49.6791 1.57467 49.7804 1.82969 49.7804H48.3517C48.6067 49.7804 48.8512 49.6791 49.0316 49.4988C49.2119 49.3185 49.3132 49.0739 49.3132 48.8189C49.3132 48.5639 49.2119 48.3193 49.0316 48.139C48.8512 47.9587 48.6067 47.8574 48.3517 47.8574ZM5.53298 37.9123C5.27077 37.8532 5.03226 37.717 4.84816 37.5211C4.66406 37.3253 4.54281 37.0788 4.50002 36.8134V36.6706C4.50002 35.764 5.50551 35.0222 6.69782 35.0222H7.20331V38.3189L5.53298 37.9123ZM9.12639 40.6596L10.3352 40.9123C10.6226 40.9524 10.888 41.0889 11.0876 41.2996C11.2873 41.5102 11.4095 41.7825 11.4341 42.0717V42.2145C11.4341 43.1266 10.4286 43.9013 9.23628 43.9013H9.1154L9.12639 40.6596ZM39.5605 17.3629H38.4616L42.0934 13.8629L45.7692 17.3629H44.7088C44.4538 17.3629 44.2092 17.4642 44.0289 17.6445C43.8486 17.8248 43.7473 18.0694 43.7473 18.3244V47.8574H40.5385V18.3244C40.5378 18.1969 40.5119 18.0709 40.4622 17.9535C40.4126 17.8361 40.3403 17.7296 40.2494 17.6403C40.1585 17.5509 40.0509 17.4804 39.9326 17.4328C39.8144 17.3852 39.6879 17.3614 39.5605 17.3629ZM28.2583 23.5497H32.967V47.8574H28.2418L28.2583 23.5497ZM17.1649 29.2695H21.8901V47.8574H17.1649V29.2695Z" fill="#393333"/>
<path d="M5.59894 26.3246C5.68647 26.3248 5.77353 26.3119 5.85718 26.2861C6.89564 25.9949 31.544 18.9784 42.8242 1.7861C42.9302 1.62793 42.9865 1.44172 42.986 1.25133C42.9855 1.06094 42.9282 0.875034 42.8214 0.717438C42.7145 0.559843 42.5631 0.437735 42.3864 0.366761C42.2097 0.295788 42.0159 0.27918 41.8297 0.319068L36.4066 1.41797C36.1622 1.47654 35.9505 1.62849 35.8167 1.84126C35.6829 2.05404 35.6378 2.31073 35.6909 2.55638C35.7441 2.80202 35.8913 3.01709 36.1011 3.15554C36.3108 3.29398 36.5665 3.34479 36.8132 3.29709L39.8737 2.6817C28.3956 17.8685 5.57696 24.3685 5.3407 24.4345C5.11473 24.4952 4.91866 24.6362 4.78921 24.8311C4.65975 25.026 4.60581 25.2614 4.63748 25.4932C4.66916 25.725 4.78427 25.9374 4.96126 26.0904C5.13825 26.2434 5.36497 26.3267 5.59894 26.3246Z" fill="#393333"/>
</svg>
