<svg width="25" height="22" viewBox="0 0 25 22" fill="none" xmlns="http://www.w3.org/2000/svg">
<path fill-rule="evenodd" clip-rule="evenodd" d="M22.4635 0.478786C22.7643 0.354581 23.0928 0.312584 23.4152 0.357094C23.7376 0.401603 24.0424 0.531021 24.2983 0.732089C24.5542 0.933157 24.7521 1.19865 24.8717 1.50136C24.9912 1.80407 25.0281 2.13312 24.9787 2.4548C24.2655 7.09285 22.958 15.5917 22.2639 20.1031C22.2159 20.4153 22.0881 20.7098 21.893 20.9582C21.6978 21.2065 21.4419 21.4003 21.15 21.5209C20.858 21.6414 20.5399 21.6846 20.2264 21.6462C19.9129 21.6079 19.6146 21.4893 19.3603 21.3019C16.905 19.493 13.2238 16.7808 11.3548 15.4033C11.2106 15.297 11.0915 15.1603 11.0059 15.0029C10.9202 14.8456 10.8702 14.6713 10.8593 14.4925C10.8484 14.3136 10.8769 14.1346 10.9428 13.968C11.0086 13.8014 11.1103 13.6512 11.2405 13.5282C12.9531 11.9108 16.364 8.68945 18.7108 6.47293C18.7661 6.4204 18.7998 6.34911 18.8052 6.27305C18.8107 6.19698 18.7876 6.12162 18.7404 6.06173C18.6931 6.00184 18.6253 5.96174 18.55 5.94928C18.4748 5.93682 18.3976 5.9529 18.3336 5.99438C15.3246 7.95693 10.7161 10.9623 8.45752 12.4353C8.03424 12.7113 7.55852 12.897 7.06015 12.9807C6.56178 13.0645 6.05149 13.0444 5.56124 12.9218C4.31755 12.6109 2.52365 12.1623 0.927235 11.7633C0.677295 11.7009 0.453434 11.5611 0.287538 11.364C0.121641 11.1669 0.0221696 10.9225 0.00329136 10.6656C-0.0155869 10.4087 0.0470912 10.1523 0.182397 9.9331C0.317703 9.71387 0.518737 9.54292 0.756865 9.44461C6.31419 7.14915 17.1898 2.65736 22.4635 0.478786Z" fill="white"/>
</svg>
