<svg width="28" height="17" viewBox="0 0 28 17" fill="none" xmlns="http://www.w3.org/2000/svg">
<path d="M26.452 16.4268C25.8196 16.5157 22.7466 16.4268 22.5867 16.4268C21.7922 16.4349 21.0265 16.1299 20.4552 15.5778C19.805 14.9525 19.2188 14.2668 18.5971 13.6132C18.4093 13.4152 18.2061 13.2322 17.9896 13.066C17.4816 12.6753 16.9807 12.7641 16.7427 13.3609C16.5569 14.008 16.4285 14.6701 16.359 15.3397C16.3539 15.4797 16.3214 15.6173 16.2631 15.7447C16.2048 15.8721 16.122 15.9868 16.0194 16.0821C15.9168 16.1775 15.7964 16.2517 15.6651 16.3005C15.5337 16.3492 15.3941 16.3717 15.2541 16.3664C14.8349 16.3878 14.4157 16.3949 14 16.3664C12.4878 16.3604 10.9986 15.9951 9.65516 15.3007C8.2042 14.4898 6.93946 13.3836 5.94267 12.0535C4.34707 9.94815 2.96873 7.68662 1.82872 5.30355C1.76833 5.18631 0.571089 2.63907 0.542668 2.51828C0.471625 2.35258 0.466231 2.16607 0.52758 1.99653C0.588928 1.827 0.71243 1.68713 0.873062 1.60526C1.08622 1.52355 5.03319 1.60526 5.09714 1.60526C5.39087 1.6011 5.67816 1.69137 5.91673 1.86278C6.15529 2.03418 6.3325 2.27766 6.42227 2.55736C7.15228 4.42272 8.14911 6.17226 9.38161 7.75131C9.55452 7.96148 9.75671 8.14573 9.98201 8.29841C10.0401 8.35467 10.1121 8.39444 10.1906 8.41362C10.2691 8.4328 10.3513 8.4307 10.4288 8.40754C10.5062 8.38438 10.5761 8.34099 10.6312 8.28185C10.6863 8.2227 10.7246 8.14994 10.7423 8.07104C10.8987 7.55625 10.9906 7.02402 11.0158 6.48657C11.0371 5.42078 11.0158 4.71026 10.9554 3.64447C10.9769 3.28127 10.8543 2.92426 10.6142 2.6509C10.3741 2.37754 10.0359 2.20989 9.67293 2.18434C9.3603 2.13105 9.31767 1.87526 9.53438 1.61947C9.95004 1.09013 10.5256 1.00487 11.1508 0.972891C12.0958 0.919601 13.0444 0.972891 13.9929 0.972891H14.199C14.6154 0.971855 15.0309 1.01352 15.4388 1.09723C15.6774 1.14609 15.8938 1.27071 16.0557 1.45252C16.2177 1.63433 16.3166 1.8636 16.3377 2.10618C16.3854 2.37464 16.4068 2.64711 16.4016 2.91973C16.3767 4.085 16.3199 5.2467 16.3057 6.40841C16.297 6.86868 16.3387 7.32852 16.43 7.77973C16.5686 8.39789 16.9913 8.55421 17.4248 8.10658C17.9649 7.52565 18.4602 6.90452 18.9062 6.24855C19.7076 5.05711 20.3681 3.7767 20.8744 2.43302C21.1479 1.74381 21.3575 1.59105 22.1 1.59105H26.2886C26.5382 1.58723 26.7871 1.61954 27.0275 1.68697C27.1122 1.70955 27.1913 1.74929 27.26 1.80373C27.3287 1.85816 27.3854 1.92613 27.4268 2.00342C27.4681 2.08071 27.493 2.16567 27.5001 2.25301C27.5073 2.34036 27.4963 2.42823 27.4681 2.51118C27.224 3.40272 26.8036 4.23625 26.2317 4.96249C25.3791 6.17039 24.4838 7.34631 23.6099 8.53644C23.4985 8.68809 23.3977 8.84714 23.3079 9.01249C22.9811 9.60578 23.006 9.93618 23.4785 10.4335C24.2387 11.2187 25.0523 11.9505 25.7841 12.7534C26.3231 13.3404 26.8104 13.9727 27.2407 14.6434C27.7807 15.4889 27.4503 16.2847 26.452 16.4268Z" fill="white"/>
</svg>
