<svg width="13" height="28" viewBox="0 0 13 28" fill="none" xmlns="http://www.w3.org/2000/svg">
<path fill-rule="evenodd" clip-rule="evenodd" d="M2.83301 27.332C2.83301 27.5244 2.98926 27.6807 3.18164 27.6807H8.15234C8.34473 27.6807 8.5 27.5244 8.5 27.332V13.7314H12.1035C12.2842 13.7314 12.4355 13.5928 12.4502 13.4121L12.7969 9.31445C12.8145 9.11133 12.6543 8.93652 12.4502 8.93652H8.5V6.0293C8.5 5.34766 9.05273 4.7959 9.73437 4.7959H12.5107C12.7041 4.7959 12.8594 4.63965 12.8594 4.44727V0.348633C12.8594 0.15625 12.7041 0 12.5107 0H7.81934C5.06543 0 2.83301 2.23242 2.83301 4.98535V8.93652H0.348632C0.156249 8.93652 0 9.09277 0 9.28516V13.3828C0 13.5762 0.156249 13.7314 0.348632 13.7314H2.83301V27.332Z" fill="white"/>
</svg>
