<svg width="32" height="18" viewBox="0 0 32 18" fill="none" xmlns="http://www.w3.org/2000/svg">
<path fill-rule="evenodd" clip-rule="evenodd" d="M15.3675 17.8133H17.2509C17.2509 17.8133 17.8002 17.7348 18.114 17.4209C18.3887 17.1462 18.3887 16.5969 18.3887 16.5969C18.3887 16.5969 18.3495 14.0858 19.5266 13.6935C20.6644 13.3403 22.1554 16.1261 23.7248 17.1855C24.9019 18.0094 25.8043 17.8133 25.8043 17.8133L30.0026 17.774C30.0026 17.774 32.1998 17.6563 31.1405 15.9299C31.062 15.773 30.5519 14.6351 28.0408 12.3202C25.412 9.88754 25.7651 10.2799 28.9432 6.04238C30.8658 3.49203 31.6505 1.92258 31.4151 1.21632C31.1797 0.588543 29.7672 0.745489 29.7672 0.745489L25.0589 0.784725C25.0589 0.784725 24.7057 0.745489 24.4311 0.902434C24.1172 1.09861 23.9602 1.45174 23.9602 1.45174C23.9602 1.45174 23.2148 3.45279 22.2338 5.13995C20.1151 8.71045 19.2911 8.90663 18.938 8.67121C18.1533 8.16114 18.3495 6.59169 18.3495 5.49308C18.3495 2.04029 18.8595 0.588543 17.3293 0.235417C16.8193 0.117708 16.4269 0.0392363 15.1321 0C13.4449 0 12.0324 0 11.2085 0.392363C10.6592 0.667016 10.2668 1.25556 10.5022 1.25556C10.8161 1.2948 11.5224 1.45174 11.8755 1.96181C12.3463 2.62883 12.3463 4.08057 12.3463 4.08057C12.3463 4.08057 12.621 8.16114 11.6793 8.67121C11.0515 9.02434 10.1883 8.31809 8.305 5.06148C7.36333 3.41355 6.61784 1.56945 6.61784 1.56945C6.61784 1.56945 6.4609 1.21632 6.22548 1.05938C6.0293 0.902433 5.63694 0.784725 5.20534 0.784725L1.00706 0.823961C1.00706 0.823961 0.340047 0.823961 0.10463 1.13785C-0.130787 1.41251 0.10463 1.92258 0.10463 1.92258C0.10463 1.92258 3.63589 10.123 7.59875 14.2428C11.2477 18.0879 15.3675 17.8133 15.3675 17.8133Z" fill="white"/>
</svg>
