<svg width="55" height="55" viewBox="0 0 55 55" fill="none" xmlns="http://www.w3.org/2000/svg">
<g clip-path="url(#clip0)">
<path d="M6.51708 8.44331L29.2806 0.157968C30.6354 -0.335098 32.1331 0.366581 32.6211 1.72321L38.078 16.8912H6.83333L4.96279 11.7855C4.46736 10.4334 5.16378 8.93584 6.51708 8.44331Z" fill="#FF5857"/>
<path d="M32.6211 1.72282C32.1331 0.366188 30.6355 -0.3356 29.2806 0.157467L17.8989 4.30019L22.4815 16.8909H38.0781L32.6211 1.72282Z" fill="#FE1B5C"/>
<path d="M43.6133 7.51782H25.1276C23.941 7.51782 22.9792 8.47968 22.9792 9.66626V16.8912H45.7618V9.66626C45.7618 8.47968 44.7999 7.51782 43.6133 7.51782Z" fill="#57C67F"/>
<path d="M45.7618 9.66626C45.7618 8.47968 44.7999 7.51782 43.6133 7.51782H34.3704V16.8912H45.7618V9.66626Z" fill="#43A071"/>
<path d="M47.4805 13.9648C49.8535 13.9648 51.7773 15.8887 51.7773 18.2617V50.7031C51.7773 53.0762 49.8535 55 47.4805 55H4.29688C1.92382 55 0 53.0762 0 50.7031V18.2617C0 15.8887 1.92382 13.9648 4.29688 13.9648H47.4805Z" fill="#3555A2"/>
<path d="M47.4805 13.9648H25.8887V55H47.4805C49.8535 55 51.7773 53.0762 51.7773 50.7031V18.2617C51.7773 15.8887 49.8535 13.9648 47.4805 13.9648Z" fill="#1B3555"/>
<path d="M44.2578 40.9277H52.8516C54.0381 40.9277 55 39.9659 55 38.7793V30.1855C55 28.999 54.0381 28.0371 52.8516 28.0371H44.2578C40.6982 28.0371 37.8125 30.9228 37.8125 34.4824C37.8125 38.0421 40.6982 40.9277 44.2578 40.9277Z" fill="#3555A2"/>
<path d="M44.2578 36.0938C45.1477 36.0938 45.8691 35.3723 45.8691 34.4824C45.8691 33.5925 45.1477 32.8711 44.2578 32.8711C43.3679 32.8711 42.6465 33.5925 42.6465 34.4824C42.6465 35.3723 43.3679 36.0938 44.2578 36.0938Z" fill="#D6E8FE"/>
</g>
<defs>
<clipPath id="clip0">
<rect width="55" height="55" fill="white"/>
</clipPath>
</defs>
</svg>
