<svg width="50" height="50" viewBox="0 0 50 50" fill="none" xmlns="http://www.w3.org/2000/svg">
<path d="M37.967 32.4176L38.7912 35.2198C38.9011 35.6593 39.2857 35.8791 39.7253 35.8791C39.8351 35.8791 39.8901 35.8791 40 35.8242C40.4945 35.6593 40.8242 35.1099 40.6593 34.6154L39.7802 31.8681C38.956 29.0659 34.011 27.4725 32.2527 27.033L32.3077 26.8132C32.4176 26.4835 32.3077 26.0989 32.0329 25.8242L30.7692 24.5604C30.3846 24.2308 29.8351 24.2308 29.4505 24.5604L24.945 28.9011L20.4395 24.5604C20.0549 24.2308 19.5055 24.2308 19.1209 24.5604L17.8022 25.8242C17.5275 26.0989 17.4176 26.4286 17.5275 26.8132L17.5824 27.0879C15.7692 27.5824 10.989 29.1209 10.1648 31.9231L9.34064 34.7253C9.17581 35.2198 9.45053 35.7692 9.99998 35.9341C10.1099 35.9341 10.1648 35.989 10.2747 35.989C10.7143 35.989 11.0439 35.7143 11.2088 35.3297L12.0329 32.5275C12.4725 31.0989 15.7143 29.6703 18.1868 29.011L19.1758 32.3626C19.2308 32.6373 19.4505 32.8571 19.6703 32.967C19.7802 33.022 19.945 33.0769 20.1099 33.0769C20.2198 33.0769 20.3297 33.0769 20.4945 33.022L22.1978 32.3077L22.6373 33.5165L20.7692 41.2088C20.6593 41.7033 20.989 42.2527 21.4835 42.3626H21.7033C22.1428 42.3626 22.5275 42.0879 22.6373 41.6483L24.3956 34.2308H25.6044L27.4176 41.5934C27.5275 42.0879 28.0769 42.4176 28.5714 42.3077C29.0659 42.1978 29.3956 41.6483 29.2857 41.1538L27.3626 33.2967L27.8022 32.0879L29.5055 32.7472C29.7802 32.8571 30.0549 32.8571 30.2747 32.7472C30.4945 32.6373 30.7143 32.4176 30.7692 32.1428L31.7582 28.7912C34.1758 29.5055 37.5275 30.9341 37.967 32.4176ZM19.5604 26.8132L19.7802 26.5934L23.022 29.7253L20.7143 30.6593L19.5604 26.8132ZM25.6593 32.3077H24.2857L23.956 31.4286L24.945 31.0439L25.989 31.4835L25.6593 32.3077ZM29.1758 30.6593L26.8681 29.7253L30.1099 26.5934L30.3297 26.8132L29.1758 30.6593Z" fill="#393333"/>
<path d="M32.2527 35.2197C31.7033 35.2197 31.2637 35.6593 31.2637 36.2087C31.2637 36.7582 31.7033 37.1978 32.2527 37.1978H35.2198C35.7692 37.1978 36.2088 36.7582 36.2088 36.2087C36.2088 35.6593 35.7692 35.2197 35.2198 35.2197H32.2527Z" fill="#393333"/>
<path d="M21.4835 24.7252C22.1429 25.2746 23.5714 26.2087 24.9451 26.2087C25.9341 26.2087 26.7033 25.879 27.5275 25.3296C29.2308 24.2307 30.5495 22.6373 31.3187 20.8241C31.978 19.1208 32.3626 17.2527 32.3626 15.2197C32.3626 13.1867 32.3626 14.7801 32.3626 14.6702C32.3077 13.4614 31.9231 12.3076 31.2637 11.2087C30.6044 10.1647 29.7802 9.34057 28.7363 8.68123C27.6923 8.02189 26.4835 7.69222 25.2747 7.63727C24.0659 7.58233 22.9121 7.85705 21.8681 8.4065C20.4945 9.12079 19.4506 10.1098 18.6813 11.4834C18.0769 12.5274 17.7473 13.6812 17.7473 14.8351C17.7473 15.6043 17.7473 16.3735 17.8571 17.1428C18.022 18.4614 18.2418 19.6153 18.6264 20.7142C19.0659 22.0878 20.1099 23.5164 21.4835 24.7252ZM20.2747 12.3625C20.8242 11.3735 21.6484 10.6043 22.6923 10.0549C23.4066 9.67024 24.1758 9.5054 25 9.5054H25.1648C26.044 9.56035 26.9231 9.78013 27.6923 10.2746C28.4615 10.7691 29.1209 11.3735 29.6154 12.1428C30.1099 12.9669 30.3846 13.7911 30.4396 14.6702V15.1647C30.4396 16.9779 30.1648 18.6263 29.5604 20.1098C29.011 21.5384 27.9121 22.8021 26.5385 23.6812C25.7143 24.1757 25.2747 24.3406 24.5604 24.2307C23.9011 24.1208 23.5165 23.8461 22.8022 23.2417C21.6484 22.2527 20.8242 21.1538 20.3846 19.9999C20.0549 19.0658 19.8352 18.0768 19.7253 16.868C19.6703 16.1538 19.6154 15.4944 19.6154 14.7801C19.5604 13.956 19.7802 13.1318 20.2747 12.3625Z" fill="#393333"/>
<path d="M2.30769 24.9999C2.30769 12.4724 12.4725 2.3076 25 2.3076C31.2088 2.3076 36.978 4.78013 41.2637 9.17573H37.5824C37.033 9.17573 36.5934 9.61529 36.5934 10.1647C36.5934 10.7142 37.033 11.1537 37.5824 11.1537H43.4066C43.956 11.1537 44.3956 10.7142 44.3956 10.1647V4.28562C44.3956 3.73617 43.956 3.29661 43.4066 3.29661C42.8571 3.29661 42.4176 3.73617 42.4176 4.28562V7.69221C37.8571 3.02188 31.6483 0.384521 25 0.384521C11.4286 0.384521 0.384609 11.4285 0.384609 24.9999C0.384609 28.4065 1.04395 31.7032 2.41758 34.8351C2.58241 35.1647 2.91208 35.3845 3.2967 35.3845C3.40659 35.3845 3.57142 35.3845 3.68131 35.3296C4.17582 35.1098 4.3956 34.5054 4.17582 34.0658C2.96703 31.2087 2.30769 28.1318 2.30769 24.9999Z" fill="#393333"/>
<path d="M47.3077 14.6152C47.0879 14.1207 46.4835 13.9009 46.044 14.1756C45.5494 14.3954 45.3297 14.9998 45.6044 15.4394C47.033 18.4614 47.7473 21.6482 47.7473 24.9998C47.7473 37.5273 37.5824 47.6921 25.0549 47.6921C18.5165 47.6921 12.4176 44.9449 8.13186 40.1097H11.9231C12.4725 40.1097 12.9121 39.6702 12.9121 39.1207C12.9121 38.5713 12.4725 38.1317 11.9231 38.1317H6.04395C5.4945 38.1317 5.05494 38.5713 5.05494 39.1207V44.9449C5.05494 45.4943 5.4945 45.9339 6.04395 45.9339C6.5934 45.9339 7.03296 45.4943 7.03296 44.9449V41.7581C11.7033 46.7581 18.1319 49.6152 25.0549 49.6152C38.6264 49.6152 49.6703 38.5713 49.6703 24.9998C49.6154 21.3735 48.8461 17.857 47.3077 14.6152Z" fill="#393333"/>
</svg>
