<svg width="50" height="50" viewBox="0 0 50 50" fill="none" xmlns="http://www.w3.org/2000/svg">
<g clip-path="url(#clip0)">
<path d="M36.5824 18.4011V9.66484C36.5824 4.34615 31.5165 0 25.2747 0H25C18.7692 0 13.7033 4.34615 13.7033 9.66484V18.4011C12.2484 19.153 11.028 20.2901 10.1754 21.6883C9.32271 23.0865 8.8705 24.692 8.8681 26.3297V41C8.87101 43.37 9.81379 45.6422 11.4897 47.318C13.1655 48.9939 15.4376 49.9367 17.8077 49.9396H32.478C34.848 49.9367 37.1201 48.9939 38.796 47.318C40.4719 45.6422 41.4146 43.37 41.4176 41V26.3297C41.4152 24.692 40.963 23.0865 40.1103 21.6883C39.2576 20.2901 38.0373 19.153 36.5824 18.4011ZM15.6263 9.66484C15.6263 5.40659 19.8296 1.93407 25 1.93407H25.2747C30.4395 1.93407 34.6154 5.40659 34.6154 9.66484V17.6758C33.9986 17.519 33.3668 17.4287 32.7307 17.4066V10.511C32.7307 6.92857 29.3461 4.01648 25.1923 4.01648H25.0055C20.8516 4.01648 17.467 6.92857 17.467 10.511V17.4066C16.831 17.4287 16.1992 17.519 15.5824 17.6758L15.6263 9.66484ZM30.8516 17.3956H19.434V10.511C19.434 7.98901 21.956 5.93956 25.0494 5.93956H25.2362C28.3296 5.93956 30.8516 7.98901 30.8516 10.511V17.3956ZM39.4945 41.022C39.4858 42.8782 38.743 44.6555 37.4285 45.966C36.1139 47.2765 34.3342 48.0136 32.478 48.0165H17.8077C15.9477 48.0136 14.1647 47.2734 12.8495 45.9582C11.5343 44.643 10.7941 42.86 10.7912 41V26.3297C10.7941 24.4702 11.5344 22.6878 12.8498 21.3734C14.1652 20.0591 15.9482 19.3201 17.8077 19.3187H32.478C34.3375 19.3201 36.1205 20.0591 37.4359 21.3734C38.7512 22.6878 39.4916 24.4702 39.4945 26.3297V41.022Z" fill="#393333"/>
<path d="M33.7033 26.1647C33.6098 26.0797 33.5004 26.014 33.3813 25.9716C33.2623 25.9291 33.136 25.9107 33.0098 25.9173C32.8836 25.9239 32.76 25.9555 32.6461 26.0103C32.5321 26.065 32.4302 26.1418 32.3462 26.2361L25.3352 34.0658L23.7637 31.1922C23.7061 31.0781 23.6265 30.9765 23.5294 30.8934C23.4323 30.8103 23.3197 30.7472 23.1981 30.7079C23.0765 30.6685 22.9483 30.6537 22.821 30.6642C22.6936 30.6747 22.5695 30.7104 22.456 30.7691C22.3448 30.8289 22.2466 30.9102 22.1672 31.0083C22.0877 31.1065 22.0287 31.2195 21.9934 31.3407C21.9581 31.4619 21.9473 31.589 21.9616 31.7144C21.976 31.8398 22.0152 31.9612 22.0769 32.0713L24.2747 36.1372C24.3494 36.2721 24.4552 36.3873 24.5832 36.4733C24.7112 36.5593 24.8578 36.6136 25.011 36.6317H25.1209C25.2556 36.6316 25.3888 36.6032 25.5119 36.5483C25.6349 36.4934 25.7451 36.4133 25.8352 36.3131L32.978 28.3625C34.2079 30.208 34.7466 32.4285 34.4991 34.6324C34.2516 36.8363 33.2338 38.8821 31.6252 40.4088C30.0166 41.9355 27.9206 42.8452 25.7067 42.9774C23.4929 43.1096 21.3035 42.4558 19.5247 41.1313C17.7459 39.8068 16.4919 37.8967 15.9839 35.7379C15.4759 33.5791 15.7466 31.3103 16.7481 29.3315C17.7497 27.3528 19.4178 25.7913 21.4583 24.9224C23.4987 24.0535 25.7805 23.9331 27.9011 24.5823C28.0239 24.6254 28.1541 24.6431 28.2839 24.6344C28.4137 24.6257 28.5404 24.5907 28.6563 24.5316C28.7722 24.4725 28.8749 24.3904 28.9582 24.2905C29.0415 24.1905 29.1036 24.0747 29.1408 23.95C29.1781 23.8254 29.1896 23.6944 29.1747 23.5652C29.1599 23.4359 29.1189 23.311 29.0544 23.1981C28.9899 23.0851 28.9031 22.9864 28.7993 22.9079C28.6955 22.8295 28.5768 22.7729 28.4505 22.7416C27.369 22.4144 26.2453 22.2478 25.1154 22.2471C22.5196 22.2461 20.0013 23.1313 17.977 24.7562C15.9528 26.3812 14.544 28.6486 13.9837 31.1832C13.4235 33.7177 13.7453 36.3677 14.896 38.6944C16.0468 41.0212 17.9574 42.8854 20.3117 43.9785C22.6661 45.0717 25.3231 45.3283 27.8432 44.7059C30.3632 44.0835 32.5953 42.6194 34.17 40.5558C35.7447 38.4922 36.5677 35.9529 36.5028 33.3579C36.4379 30.7629 35.4891 28.2679 33.8132 26.2856C33.8132 26.2856 33.7308 26.1867 33.7033 26.1647Z" fill="#393333"/>
</g>
<defs>
<clipPath id="clip0">
<rect width="50" height="50" fill="white"/>
</clipPath>
</defs>
</svg>
