<svg width="50" height="50" viewBox="0 0 50 50" fill="none" xmlns="http://www.w3.org/2000/svg">
<path d="M48.9451 43.1704L40 34.2309C39.7397 33.9701 39.4306 33.7631 39.0902 33.6219C38.7499 33.4807 38.385 33.4081 38.0165 33.4081C37.648 33.4081 37.2832 33.4807 36.9428 33.6219C36.6025 33.7631 36.2933 33.9701 36.033 34.2309L35.8846 34.3737L33.6868 32.1759C35.4396 30.2304 36.7753 27.9465 37.6116 25.465C38.4479 22.9834 38.7671 20.3569 38.5495 17.7474C40.8323 15.7143 42.2467 12.8817 42.5 9.83527C42.8077 6.47263 41.7583 3.34626 39.6704 1.24735C39.5043 1.08195 39.2833 0.983295 39.0493 0.970127C38.8153 0.956959 38.5847 1.0302 38.4011 1.17593C37.1562 2.18408 36.1287 3.43426 35.3807 4.85087C34.6328 6.26747 34.1799 7.82106 34.0495 9.41769C33.8697 10.9088 34.0057 12.4211 34.4487 13.8562C34.8918 15.2913 35.6319 16.6171 36.6209 17.7474C36.9951 21.7431 35.9632 25.7441 33.7033 29.0605C33.6704 28.8572 33.6319 28.6649 33.5934 28.4671C33.6348 28.4137 33.6681 28.3544 33.6923 28.2913C34.3353 26.45 34.5873 24.4949 34.4321 22.5507C34.277 20.6066 33.7181 18.7161 32.7912 17.0001C30.9231 13.4836 27.6923 11.0221 24.1429 10.4067C23.918 10.3712 23.6877 10.4162 23.4927 10.5338C23.2977 10.6514 23.1505 10.8341 23.0769 11.0496C22.4327 12.8897 22.1801 14.8441 22.3353 16.7876C22.4905 18.7311 23.05 20.6207 23.978 22.3353C24.7505 23.8708 25.8328 25.2294 27.1568 26.3255C28.4808 27.4216 30.0177 28.2313 31.6704 28.7034C31.8194 29.4012 31.924 30.1077 31.9835 30.8188C31.9956 30.9148 32.0196 31.0089 32.055 31.099C31.9231 31.2419 31.7967 31.3847 31.6594 31.5221C29.2572 33.924 26.1968 35.5597 22.865 36.2224C19.5333 36.885 16.0799 36.5448 12.9415 35.2448C9.80309 33.9447 7.12067 31.7432 5.23342 28.9187C3.34618 26.0942 2.33887 22.7735 2.33887 19.3765C2.33887 15.9795 3.34618 12.6588 5.23342 9.83424C7.12067 7.00972 9.80309 4.80824 12.9415 3.50821C16.0799 2.20817 19.5333 1.86796 22.865 2.53058C26.1968 3.19321 29.2572 4.82892 31.6594 7.23087C31.7462 7.32939 31.8524 7.40907 31.9712 7.46499C32.0901 7.52092 32.2191 7.55189 32.3504 7.55601C32.4817 7.56014 32.6124 7.53732 32.7346 7.48896C32.8567 7.4406 32.9676 7.36774 33.0605 7.27486C33.1534 7.18198 33.2262 7.07106 33.2746 6.94893C33.323 6.8268 33.3458 6.69606 33.3417 6.56478C33.3375 6.43349 33.3066 6.30444 33.2506 6.18559C33.1947 6.06673 33.115 5.9606 33.0165 5.87373C30.7968 3.64874 28.0622 2.00594 25.0555 1.09102C22.0487 0.176099 18.8626 0.0173425 15.7797 0.62883C12.6969 1.24032 9.81259 2.60315 7.38266 4.59645C4.95272 6.58976 3.05226 9.15192 1.84981 12.0557C0.64737 14.9595 0.180115 18.1151 0.489489 21.2428C0.798864 24.3704 1.87531 27.3734 3.62334 29.9853C5.37138 32.5972 7.73699 34.7374 10.5103 36.216C13.2837 37.6946 16.3791 38.466 19.522 38.4616C24.2591 38.471 28.828 36.7069 32.3297 33.5166L34.5275 35.7144L34.3846 35.8627C34.1236 36.1235 33.9166 36.4331 33.7753 36.7739C33.6341 37.1148 33.5614 37.4801 33.5614 37.849C33.5614 38.2179 33.6341 38.5833 33.7753 38.9241C33.9166 39.2649 34.1236 39.5745 34.3846 39.8353L43.3187 48.7968C43.8467 49.3212 44.5608 49.6156 45.305 49.6156C46.0492 49.6156 46.7632 49.3212 47.2912 48.7968L48.9396 47.1485C49.4678 46.6216 49.7651 45.9066 49.7661 45.1606C49.7671 44.4146 49.4718 43.6987 48.9451 43.1704ZM35.9671 9.61549C36.1791 7.23064 37.219 4.9952 38.9066 3.29681C40.2405 5.13816 40.84 7.4107 40.5879 9.67043C40.375 12.055 39.3352 14.2902 37.6484 15.9891C36.3105 14.1496 35.7107 11.8755 35.9671 9.61549ZM32.4945 24.7858C31.624 22.5961 30.3616 20.5833 28.7693 18.8463C28.5893 18.6656 28.3449 18.5638 28.0899 18.5632C27.8349 18.5627 27.5901 18.6635 27.4094 18.8435C27.2287 19.0235 27.1269 19.2679 27.1264 19.5229C27.1258 19.7779 27.2267 20.0227 27.4066 20.2034C29.0404 22.0254 30.2872 24.16 31.0715 26.4781C28.735 25.482 26.8244 23.6941 25.6758 21.4287C24.2188 18.6893 23.8461 15.5018 24.6319 12.5001C26.019 12.9149 27.3072 13.6077 28.4181 14.5362C29.5289 15.4648 30.4392 16.6097 31.0934 17.9012C32.2102 20.0145 32.6965 22.4041 32.4945 24.7858ZM47.5824 45.7803L45.9341 47.4287C45.8519 47.5111 45.7543 47.5765 45.6468 47.6211C45.5393 47.6657 45.4241 47.6886 45.3077 47.6886C45.1913 47.6886 45.0761 47.6657 44.9686 47.6211C44.8611 47.5765 44.7635 47.5111 44.6813 47.4287L35.7143 38.4946C35.6319 38.4124 35.5665 38.3148 35.5219 38.2073C35.4773 38.0998 35.4544 37.9846 35.4544 37.8682C35.4544 37.7519 35.4773 37.6366 35.5219 37.5292C35.5665 37.4217 35.6319 37.324 35.7143 37.2419L37.3627 35.5935C37.5293 35.4284 37.7544 35.3358 37.989 35.3358C38.2236 35.3358 38.4487 35.4284 38.6154 35.5935L47.5824 44.5056C47.6682 44.5881 47.7364 44.6871 47.783 44.7966C47.8296 44.9062 47.8536 45.0239 47.8536 45.143C47.8536 45.262 47.8296 45.3798 47.783 45.4893C47.7364 45.5988 47.6682 45.6978 47.5824 45.7803Z" fill="#393333"/>
<path d="M19.5275 7.76951C20.5384 7.76918 21.545 7.90032 22.522 8.15962C22.6455 8.19728 22.7754 8.20967 22.9038 8.19605C23.0323 8.18242 23.1567 8.14306 23.2696 8.08031C23.3824 8.01756 23.4815 7.93271 23.5609 7.83082C23.6403 7.72893 23.6983 7.61209 23.7316 7.48728C23.7648 7.36247 23.7726 7.23225 23.7544 7.10438C23.7362 6.9765 23.6924 6.85361 23.6256 6.74303C23.5589 6.63245 23.4706 6.53645 23.3659 6.46076C23.2613 6.38506 23.1424 6.33123 23.0165 6.30247C21.1552 5.8035 19.2087 5.7078 17.3074 6.02178C15.4061 6.33576 13.5938 7.05218 11.9917 8.1231C10.3896 9.19402 9.03475 10.5947 8.0177 12.2316C7.00065 13.8684 6.3449 15.7035 6.09433 17.6142C5.84375 19.5249 6.00413 21.4671 6.56473 23.3108C7.12533 25.1545 8.07322 26.8572 9.34498 28.305C10.6167 29.7528 12.1831 30.9123 13.9391 31.706C15.6951 32.4996 17.6004 32.909 19.5275 32.9069C20.1282 32.9066 20.7283 32.868 21.3242 32.7915C21.4516 32.778 21.5751 32.7391 21.6873 32.6772C21.7995 32.6153 21.8982 32.5315 21.9775 32.4309C22.0569 32.3303 22.1154 32.2149 22.1495 32.0914C22.1836 31.9678 22.1927 31.8387 22.1763 31.7117C22.1598 31.5846 22.1181 31.4621 22.0536 31.3513C21.989 31.2406 21.9031 31.1439 21.8006 31.0669C21.6982 30.9898 21.5814 30.9341 21.4572 30.9028C21.3329 30.8716 21.2036 30.8655 21.0769 30.8849C20.5631 30.9505 20.0455 30.9835 19.5275 30.9838C17.982 31.0174 16.4453 30.7421 15.0076 30.1739C13.5699 29.6056 12.2602 28.756 11.1553 27.6749C10.0504 26.5937 9.17246 25.3028 8.57312 23.8778C7.97378 22.4529 7.66505 20.9225 7.66505 19.3766C7.66505 17.8308 7.97378 16.3004 8.57312 14.8755C9.17246 13.4505 10.0504 12.1596 11.1553 11.0784C12.2602 9.99725 13.5699 9.14765 15.0076 8.57945C16.4453 8.01124 17.982 7.73588 19.5275 7.76951Z" fill="#393333"/>
<path d="M25.7034 30.8794C25.7033 30.6912 25.6477 30.5073 25.5436 30.3506C25.4395 30.1939 25.2915 30.0714 25.1181 29.9984C24.9446 29.9254 24.7536 29.9053 24.5687 29.9404C24.3839 29.9756 24.2135 30.0644 24.079 30.196C23.9445 30.3275 23.8517 30.4958 23.8124 30.6798C23.7731 30.8637 23.7889 31.0552 23.8579 31.2303C23.9269 31.4053 24.046 31.5561 24.2003 31.6637C24.3546 31.7714 24.5372 31.8311 24.7253 31.8354C24.8527 31.8383 24.9794 31.8158 25.0979 31.7691C25.2165 31.7223 25.3245 31.6524 25.4156 31.5633C25.5067 31.4742 25.5791 31.3678 25.6285 31.2504C25.6779 31.1329 25.7034 31.0068 25.7034 30.8794Z" fill="#393333"/>
</svg>
