<svg width="50" height="50" viewBox="0 0 50 50" fill="none" xmlns="http://www.w3.org/2000/svg">
<path d="M47.5275 44.4672C46.3077 42.8518 47.0824 42.0221 47.3516 41.8079C47.4783 41.7118 47.5789 41.5856 47.6442 41.4406C47.7094 41.2957 47.7373 41.1367 47.7253 40.9782C47.7253 38.4068 45.4615 36.4837 42.8681 36.4837H41.5439C42.5578 35.3919 43.1211 33.9571 43.1209 32.4672V31.2199C43.1194 29.6437 42.4926 28.1324 41.378 27.0178C40.2634 25.9032 38.7521 25.2763 37.1758 25.2749H31.1318C32.9277 23.8832 34.3677 22.0853 35.3334 20.0288C36.2991 17.9722 36.7629 15.7159 36.6868 13.4452C36.6868 9.70895 34.7747 7.95071 33.1923 7.165C31.0977 6.18725 28.7071 6.05345 26.5165 6.79137C26.7596 6.33351 27.1035 5.93685 27.5223 5.63132C27.9411 5.32579 28.4238 5.11937 28.934 5.02763C29.0653 5.0161 29.1928 4.97772 29.3085 4.91488C29.4243 4.85203 29.526 4.76607 29.6071 4.66231C29.6883 4.55855 29.7473 4.43922 29.7805 4.31171C29.8136 4.18421 29.8202 4.05125 29.7998 3.9211C29.7795 3.79094 29.7326 3.66635 29.662 3.55508C29.5915 3.4438 29.4989 3.3482 29.3899 3.27421C29.2809 3.20022 29.1578 3.14942 29.0284 3.12496C28.8989 3.10051 28.7658 3.10291 28.6373 3.13203C27.8395 3.25601 27.0846 3.57496 26.4395 4.0606C26.362 3.75721 26.2533 3.46261 26.1154 3.18148C25.6812 2.3149 25.0107 1.58883 24.1813 1.08715C23.352 0.585462 22.3977 0.328628 21.4286 0.346315C21.2865 0.347915 21.1467 0.381321 21.0193 0.444076C20.8919 0.506831 20.7801 0.597341 20.6923 0.708952C20.0909 1.462 19.715 2.36991 19.6081 3.32766C19.5011 4.28541 19.6675 5.25388 20.0879 6.12104C20.1264 6.19796 20.1758 6.2584 20.2143 6.32983C19.0279 6.35013 17.86 6.62758 16.7912 7.14302C15.2088 7.94522 13.3187 9.68697 13.2912 13.4232C13.2147 15.6999 13.6811 17.9621 14.6518 20.0229C15.6225 22.0837 17.0696 23.8839 18.8736 25.2749H12.0879C9.49448 25.2749 7.21976 27.3298 7.21976 29.6705C7.21233 29.8405 7.24188 30.0101 7.30639 30.1676C7.3709 30.325 7.46882 30.4666 7.59339 30.5826C7.8791 30.7969 8.69229 31.6815 7.42855 33.2474C7.29616 33.4193 7.22292 33.6294 7.21976 33.8463C7.2351 34.8107 7.56718 35.7432 8.16481 36.5002C6.65559 36.5938 5.23876 37.259 4.20269 38.3604C3.16662 39.4618 2.58918 40.9166 2.58789 42.4287V43.676C2.58935 45.2523 3.21616 46.7636 4.33076 47.8782C5.44536 48.9928 6.95667 49.6196 8.53295 49.621H42.8571C45.4945 49.621 47.7253 47.5331 47.7253 45.0606C47.7182 44.8478 47.6495 44.6417 47.5275 44.4672ZM21.9395 2.29686C22.4551 2.36306 22.9462 2.55586 23.3691 2.85806C23.792 3.16026 24.1335 3.56246 24.3631 4.02876C24.5927 4.49506 24.7033 5.01095 24.685 5.53039C24.6667 6.04983 24.5201 6.55667 24.2582 7.00566C23.9934 6.95529 23.7326 6.88551 23.478 6.79686C22.7589 6.5114 22.1714 5.969 21.8297 5.27489C21.6016 4.80777 21.4922 4.29158 21.5114 3.7721C21.5306 3.25262 21.6776 2.7459 21.9395 2.29686ZM15.2143 13.4617C15.2143 11.2364 16.0549 9.69796 17.6648 8.87928C18.5598 8.44553 19.544 8.22725 20.5384 8.24192C21.5729 8.20532 22.5991 8.43821 23.5165 8.91774C23.1864 8.9777 22.8466 8.95505 22.5275 8.85181C22.2863 8.76729 22.0214 8.78204 21.7911 8.89281C21.5608 9.00358 21.3839 9.2013 21.2994 9.44247C21.2149 9.68364 21.2297 9.94851 21.3404 10.1788C21.4512 10.4091 21.6489 10.586 21.8901 10.6705C22.2943 10.8033 22.7173 10.8701 23.1428 10.8683C23.8416 10.8688 24.5279 10.6827 25.1307 10.3292C25.7334 9.97561 26.2308 9.46748 26.5714 8.8573C27.4729 8.44362 28.4531 8.22945 29.445 8.22945C30.4369 8.22945 31.4171 8.44362 32.3187 8.8573C33.9286 9.67599 34.7472 11.2144 34.7637 13.4397C34.8132 19.7309 31.0879 22.9782 29.4725 24.0661C28.489 24.7254 26.2912 23.5166 26.2637 23.5166C25.8478 23.3211 25.3908 23.2289 24.9316 23.2481C24.4723 23.2672 24.0246 23.397 23.6264 23.6265C22.934 24.0166 21.2802 24.643 20.511 24.1155C18.9011 22.9892 15.1703 19.7804 15.2143 13.4617ZM12.0879 27.198H37.1758C37.7049 27.1965 38.2291 27.2995 38.7183 27.501C39.2076 27.7024 39.6522 27.9985 40.0269 28.3721C40.4015 28.7457 40.6988 29.1896 40.9016 29.6783C41.1044 30.1669 41.2088 30.6908 41.2088 31.2199V32.4672C41.2075 33.5216 40.7922 34.5334 40.0522 35.2846C39.3123 36.0358 38.307 36.4664 37.2527 36.4837H12.011C11.462 36.4697 10.9267 36.3096 10.4602 36.0199C9.99373 35.7301 9.61295 35.3212 9.35712 34.8353H36.4835C37.9395 34.8353 39.1264 33.5002 39.1264 31.8628C39.1264 30.2254 37.9395 28.8903 36.4835 28.8903H9.34064C9.598 28.3823 9.99081 27.9554 10.4756 27.6567C10.9605 27.3581 11.5185 27.1993 12.0879 27.198ZM10.0055 31.2694C9.98108 31.0998 9.94248 30.9325 9.89009 30.7694H36.4835C36.8681 30.7694 37.2033 31.2584 37.2033 31.8188C37.2033 32.3793 36.8681 32.8683 36.4835 32.8683H9.80767C9.99108 32.3565 10.0531 31.8092 9.98899 31.2694H10.0055ZM42.8571 47.698H8.53295C7.4667 47.6965 6.44454 47.2723 5.69058 46.5184C4.93663 45.7644 4.51242 44.7422 4.51097 43.676V42.4287C4.51242 41.3625 4.93663 40.3403 5.69058 39.5864C6.44454 38.8324 7.4667 38.4082 8.53295 38.4068H42.8571C43.4218 38.4052 43.9761 38.5579 44.4603 38.8484C44.9445 39.1389 45.3401 39.5561 45.6044 40.0551H9.22525C7.76921 40.0551 6.5824 41.3903 6.5824 43.0276C6.5824 44.665 7.76921 46.0002 9.22525 46.0002H45.6044C45.3483 46.5096 44.9559 46.9379 44.4709 47.2377C43.9859 47.5374 43.4273 47.6967 42.8571 47.698ZM45.1209 44.0991H9.22525C8.84064 44.0991 8.50547 43.6101 8.50547 43.0496C8.50547 42.4892 8.84064 42.0002 9.22525 42.0002H45.0549C45.0099 42.1586 44.9769 42.3203 44.956 42.4837C44.8893 43.0285 44.9495 43.5814 45.1318 44.0991H45.1209Z" fill="#393333"/>
</svg>
