<svg width="25" height="25" viewBox="0 0 25 25" fill="none" xmlns="http://www.w3.org/2000/svg">
<path d="M23.9922 22.8828L18.6406 17.5391C20.3497 15.5452 21.22 12.9668 21.0688 10.345C20.9177 7.72323 19.7569 5.26191 17.8301 3.47759C15.9032 1.69327 13.3601 0.724668 10.7345 0.775066C8.10886 0.825464 5.60481 1.89094 3.74786 3.74789C1.89091 5.60484 0.825434 8.1089 0.775035 10.7345C0.724637 13.3602 1.69324 15.9033 3.47756 17.8301C5.26188 19.757 7.7232 20.9177 10.345 21.0689C12.9667 21.22 15.5451 20.3497 17.539 18.6406L22.8828 23.9922C22.9554 24.0654 23.0418 24.1235 23.137 24.1632C23.2322 24.2029 23.3343 24.2233 23.4375 24.2233C23.5406 24.2233 23.6427 24.2029 23.7379 24.1632C23.8331 24.1235 23.9195 24.0654 23.9922 23.9922C24.0654 23.9196 24.1235 23.8332 24.1632 23.738C24.2028 23.6428 24.2233 23.5406 24.2233 23.4375C24.2233 23.3344 24.2028 23.2323 24.1632 23.1371C24.1235 23.0419 24.0654 22.9554 23.9922 22.8828ZM2.34372 10.9375C2.34372 9.23782 2.84774 7.57631 3.79203 6.16307C4.73632 4.74984 6.07848 3.64835 7.64879 2.99791C9.21909 2.34747 10.947 2.17729 12.614 2.50888C14.2811 2.84047 15.8123 3.65895 17.0142 4.8608C18.216 6.06266 19.0345 7.59392 19.3661 9.26095C19.6977 10.928 19.5275 12.6559 18.8771 14.2262C18.2266 15.7965 17.1251 17.1387 15.7119 18.0829C14.2987 19.0272 12.6372 19.5313 10.9375 19.5313C8.65827 19.5313 6.47241 18.6258 4.86077 17.0142C3.24913 15.4026 2.34372 13.2167 2.34372 10.9375Z" fill="white"/>
<path d="M15.625 10.1562H11.7188V6.25C11.7188 6.0428 11.6364 5.84409 11.4899 5.69757C11.3434 5.55106 11.1447 5.46875 10.9375 5.46875C10.7303 5.46875 10.5316 5.55106 10.3851 5.69757C10.2386 5.84409 10.1562 6.0428 10.1562 6.25V10.1562H6.25C6.0428 10.1562 5.84409 10.2386 5.69757 10.3851C5.55106 10.5316 5.46875 10.7303 5.46875 10.9375C5.46875 11.1447 5.55106 11.3434 5.69757 11.4899C5.84409 11.6364 6.0428 11.7188 6.25 11.7188H10.1562V15.625C10.1562 15.8322 10.2386 16.0309 10.3851 16.1774C10.5316 16.3239 10.7303 16.4062 10.9375 16.4062C11.1447 16.4062 11.3434 16.3239 11.4899 16.1774C11.6364 16.0309 11.7188 15.8322 11.7188 15.625V11.7188H15.625C15.8322 11.7188 16.0309 11.6364 16.1774 11.4899C16.3239 11.3434 16.4062 11.1447 16.4062 10.9375C16.4062 10.7303 16.3239 10.5316 16.1774 10.3851C16.0309 10.2386 15.8322 10.1562 15.625 10.1562Z" fill="white"/>
</svg>
